<svg width="45" height="45" viewBox="0 0 45 45" fill="none" xmlns="http://www.w3.org/2000/svg">
<path d="M10.305 4.78122C10.4921 4.94429 10.6201 5.16467 10.6689 5.40803C10.7178 5.6514 10.6847 5.90408 10.575 6.12672C10.555 6.19234 10.5452 6.26063 10.5457 6.32922C10.5457 6.47097 10.5818 6.74097 10.9215 7.07847C11.0858 7.24272 11.2118 7.35972 11.349 7.48797C11.4615 7.59147 11.5808 7.69947 11.7315 7.84797C12.024 8.12697 12.3323 8.45547 12.609 8.86722C13.1828 9.72897 13.5 10.8067 13.5 12.375C13.5 15.6825 11.3018 18 9 18C6.69825 18 4.5 15.6825 4.5 12.375C4.5 11.6415 4.69575 10.7662 4.96575 9.95847C5.23575 9.15072 5.61375 8.31147 6.05025 7.63647C6.57 6.75897 7.30125 6.02322 7.86825 5.52822C8.18025 5.25621 8.50459 4.99868 8.84025 4.75647L8.93925 4.68897C9.14557 4.55144 9.39154 4.48593 9.63893 4.50261C9.88632 4.51929 10.119 4.61724 10.305 4.78122ZM9 20.25C10.3758 20.248 11.7096 19.7756 12.78 18.9112C12.8865 19.2277 12.9765 19.5465 13.05 19.8675C13.5 21.825 13.5 24.1785 13.5 25.8187V25.875C13.5 32.1457 12.6472 35.703 11.709 37.737C11.2365 38.7607 10.7348 39.4132 10.3005 39.8227C10.1237 39.9918 9.92907 40.1412 9.72 40.2682C9.62414 40.3258 9.52411 40.3762 9.42075 40.419C9.42075 40.419 9.1665 40.5 9 40.5C8.8335 40.5 8.57925 40.419 8.57925 40.419C8.47589 40.3762 8.37586 40.3258 8.28 40.2682C8.07093 40.1412 7.87628 39.9918 7.6995 39.8227C7.26525 39.411 6.7635 38.7607 6.291 37.737C5.35275 35.703 4.5 32.1457 4.5 25.875V25.8187C4.5 24.1762 4.5 21.825 4.95 19.8675C5.0235 19.5465 5.1135 19.2277 5.22 18.9112C6.29038 19.7756 7.62417 20.248 9 20.25ZM20.25 29.25C18.6413 29.25 17.109 28.9125 15.7275 28.305C15.7575 27.504 15.7725 26.6715 15.7725 25.8075C17.1353 26.5889 18.679 27.0001 20.25 27V22.5C20.25 21.3065 20.7241 20.1619 21.568 19.318C22.4119 18.4741 23.5565 18 24.75 18H29.25C29.2502 16.4018 28.8249 14.8325 28.0177 13.4532C27.2106 12.0738 26.0507 10.9343 24.6573 10.1517C23.2639 9.36911 21.6873 8.97164 20.0894 9.00016C18.4915 9.02867 16.9301 9.48215 15.5655 10.314C15.4252 9.55898 15.1687 8.83031 14.805 8.15397C16.5178 7.2066 18.4482 6.72251 20.4054 6.74956C22.3626 6.7766 24.2789 7.31384 25.9649 8.30818C27.6509 9.30252 29.0484 10.7196 30.0191 12.4193C30.9898 14.119 31.5003 16.0426 31.5 18H36C37.1935 18 38.3381 18.4741 39.182 19.318C40.0259 20.1619 40.5 21.3065 40.5 22.5V33.75C40.5 34.9434 40.0259 36.088 39.182 36.932C38.3381 37.7759 37.1935 38.25 36 38.25H24.75C23.5565 38.25 22.4119 37.7759 21.568 36.932C20.7241 36.088 20.25 34.9434 20.25 33.75V29.25ZM31.275 20.25C30.8314 22.4108 29.7635 24.3939 28.2037 25.9537C26.6439 27.5135 24.6608 28.5813 22.5 29.025V33.75C22.5 34.3467 22.7371 34.919 23.159 35.341C23.581 35.7629 24.1533 36 24.75 36H36C36.5967 36 37.169 35.7629 37.591 35.341C38.0129 34.919 38.25 34.3467 38.25 33.75V22.5C38.25 21.9032 38.0129 21.3309 37.591 20.909C37.169 20.487 36.5967 20.25 36 20.25H31.275ZM28.9665 20.25H24.75C24.1533 20.25 23.581 20.487 23.159 20.909C22.7371 21.3309 22.5 21.9032 22.5 22.5V26.7165C24.0563 26.3125 25.4763 25.5001 26.6132 24.3632C27.7501 23.2263 28.5626 21.8062 28.9665 20.25Z" fill="white"/>
</svg>
