<svg width="31" height="31" viewBox="0 0 31 31" fill="none" xmlns="http://www.w3.org/2000/svg">
<g clip-path="url(#clip0_386_194)">
<path d="M15.35 0C6.8725 0 0 6.93966 0 15.5C0 22.7689 4.95621 28.8684 11.6421 30.5437V20.2368H8.47688V15.5H11.6421V13.459C11.6421 8.18338 14.0066 5.7381 19.1359 5.7381C20.1085 5.7381 21.7866 5.93092 22.473 6.12312V10.4166C22.1108 10.3782 21.4814 10.359 20.6998 10.359C18.183 10.359 17.2104 11.3218 17.2104 13.8248V15.5H22.2243L21.3629 20.2368H17.2104V30.8865C24.8111 29.9596 30.7006 23.4248 30.7006 15.5C30.7 6.93966 23.8275 0 15.35 0Z" fill="white"/>
</g>
<defs>
<clipPath id="clip0_386_194">
<rect width="30.7" height="31" fill="white"/>
</clipPath>
</defs>
</svg>
