<svg width="31" height="31" viewBox="0 0 31 31" fill="none" xmlns="http://www.w3.org/2000/svg">
<g clip-path="url(#clip0_386_190)">
<path d="M15.45 2.79121C19.5513 2.79121 20.037 2.80937 21.6499 2.88203C23.149 2.94863 23.9584 3.20293 24.4981 3.41484C25.2116 3.69336 25.7273 4.03242 26.2609 4.57129C26.8006 5.11621 27.1304 5.63086 27.4062 6.35137C27.6161 6.89629 27.8679 7.71973 27.9338 9.22734C28.0058 10.8621 28.0238 11.3525 28.0238 15.4879C28.0238 19.6293 28.0058 20.1197 27.9338 21.7484C27.8679 23.2621 27.6161 24.0795 27.4062 24.6244C27.1304 25.3449 26.7946 25.8656 26.2609 26.4045C25.7213 26.9494 25.2116 27.2824 24.4981 27.5609C23.9584 27.7729 23.143 28.0272 21.6499 28.0938C20.031 28.1664 19.5453 28.1846 15.45 28.1846C11.3486 28.1846 10.863 28.1664 9.25002 28.0938C7.75099 28.0272 6.94152 27.7729 6.40187 27.5609C5.68834 27.2824 5.17267 26.9434 4.63902 26.4045C4.09937 25.8596 3.76959 25.3449 3.49377 24.6244C3.2839 24.0795 3.03207 23.2561 2.96611 21.7484C2.89416 20.1137 2.87617 19.6232 2.87617 15.4879C2.87617 11.3465 2.89416 10.8561 2.96611 9.22734C3.03207 7.71367 3.2839 6.89629 3.49377 6.35137C3.76959 5.63086 4.10537 5.11016 4.63902 4.57129C5.17867 4.02637 5.68834 3.69336 6.40187 3.41484C6.94152 3.20293 7.75699 2.94863 9.25002 2.88203C10.863 2.80937 11.3486 2.79121 15.45 2.79121ZM15.45 0C11.2827 0 10.761 0.0181641 9.1241 0.0908203C7.49316 0.163477 6.37189 0.429883 5.40052 0.811328C4.38718 1.21094 3.52974 1.7377 2.6783 2.60352C1.82085 3.46328 1.29919 4.3291 0.903452 5.34629C0.525698 6.3332 0.26187 7.45937 0.189917 9.10625C0.117964 10.7652 0.0999756 11.292 0.0999756 15.5C0.0999756 19.708 0.117964 20.2348 0.189917 21.8877C0.26187 23.5346 0.525698 24.6668 0.903452 25.6477C1.29919 26.6709 1.82085 27.5367 2.6783 28.3965C3.52974 29.2563 4.38718 29.7891 5.39453 30.1826C6.37189 30.5641 7.48716 30.8305 9.1181 30.9031C10.755 30.9758 11.2767 30.9939 15.444 30.9939C19.6113 30.9939 20.1329 30.9758 21.7699 30.9031C23.4008 30.8305 24.5221 30.5641 25.4934 30.1826C26.5008 29.7891 27.3582 29.2563 28.2097 28.3965C29.0611 27.5367 29.5888 26.6709 29.9785 25.6537C30.3563 24.6668 30.6201 23.5406 30.6921 21.8938C30.764 20.2408 30.782 19.7141 30.782 15.5061C30.782 11.298 30.764 10.7713 30.6921 9.11836C30.6201 7.47149 30.3563 6.33926 29.9785 5.3584C29.6008 4.3291 29.0791 3.46328 28.2217 2.60352C27.3702 1.74375 26.5128 1.21094 25.5054 0.817383C24.5281 0.435937 23.4128 0.169531 21.7819 0.096875C20.1389 0.0181641 19.6173 0 15.45 0Z" fill="white"/>
<path d="M15.45 7.53809C11.0968 7.53809 7.56512 11.1043 7.56512 15.5C7.56512 19.8957 11.0968 23.4619 15.45 23.4619C19.8032 23.4619 23.3349 19.8957 23.3349 15.5C23.3349 11.1043 19.8032 7.53809 15.45 7.53809ZM15.45 20.6646C12.6258 20.6646 10.3353 18.3518 10.3353 15.5C10.3353 12.6482 12.6258 10.3354 15.45 10.3354C18.2741 10.3354 20.5647 12.6482 20.5647 15.5C20.5647 18.3518 18.2741 20.6646 15.45 20.6646Z" fill="white"/>
<path d="M25.4874 7.22317C25.4874 8.25247 24.66 9.08196 23.6466 9.08196C22.6273 9.08196 21.8058 8.24641 21.8058 7.22317C21.8058 6.19387 22.6333 5.36438 23.6466 5.36438C24.66 5.36438 25.4874 6.19993 25.4874 7.22317Z" fill="white"/>
</g>
<defs>
<clipPath id="clip0_386_190">
<rect width="30.7" height="31" fill="white" transform="translate(0.0999756)"/>
</clipPath>
</defs>
</svg>
