<svg width="31" height="31" viewBox="0 0 31 31" fill="none" xmlns="http://www.w3.org/2000/svg">
<path d="M21.339 0H9.14527C4.10165 0 0 4.10165 0 9.14527V28.96C0 29.3643 0.160586 29.752 0.446431 30.0378C0.732276 30.3237 1.11997 30.4842 1.52421 30.4842H21.339C26.3826 30.4842 30.4842 26.3826 30.4842 21.339V9.14527C30.4842 4.10165 26.3826 0 21.339 0ZM27.4358 21.339C27.4358 24.7014 24.7014 27.4358 21.339 27.4358H3.04842V9.14527C3.04842 5.78286 5.78286 3.04842 9.14527 3.04842H21.339C24.7014 3.04842 27.4358 5.78286 27.4358 9.14527V21.339Z" fill="white"/>
<path d="M13.718 17.6595L10.2229 14.1645L8.0677 16.3197L13.718 21.9699L23.1787 12.5092L21.0235 10.3539L13.718 17.6595Z" fill="white"/>
</svg>
