<svg viewBox="0 0 378 250" fill="none" xmlns="http://www.w3.org/2000/svg">
<rect x="0.5" y="0.5" width="377" height="249" fill="#13120D" stroke="white"/>
<path d="M342.213 18.208C341.885 18.2137 341.573 18.3479 341.343 18.5817C341.114 18.8154 340.985 19.1301 340.985 19.4578C340.985 19.7856 341.114 20.1002 341.343 20.334C341.573 20.5678 341.885 20.702 342.213 20.7077L356.886 20.7077L339.579 38.0141C339.345 38.2485 339.213 38.5665 339.213 38.898C339.213 39.2295 339.345 39.5474 339.579 39.7819C339.814 40.0163 340.131 40.148 340.463 40.148C340.795 40.148 341.112 40.0163 341.347 39.7819L358.653 22.4754L358.653 37.1479C358.659 37.4756 358.793 37.788 359.027 38.0177C359.261 38.2474 359.575 38.3762 359.903 38.3762C360.231 38.3762 360.546 38.2474 360.779 38.0177C361.013 37.788 361.147 37.4756 361.153 37.1479V19.4702C361.153 19.1388 361.021 18.8209 360.787 18.5865C360.552 18.3521 360.235 18.2205 359.903 18.2204L342.225 18.2204L342.213 18.208Z" fill="white"/>
<path d="M31.386 85V77.104C31.386 76.32 31.6147 75.6947 32.072 75.228C32.5387 74.752 33.2013 74.514 34.06 74.514C34.368 74.514 34.6573 74.5467 34.928 74.612C35.208 74.6773 35.4413 74.78 35.628 74.92L35.152 76.236C35.0213 76.1333 34.872 76.0587 34.704 76.012C34.536 75.956 34.3633 75.928 34.186 75.928C33.822 75.928 33.5467 76.0307 33.36 76.236C33.1733 76.432 33.08 76.7307 33.08 77.132V77.972L33.136 78.756V85H31.386ZM30.154 78.98V77.58H35.138V78.98H30.154ZM40.88 85.098C40.2453 85.098 39.6853 84.9813 39.2 84.748C38.7146 84.5053 38.3366 84.1413 38.066 83.656C37.7953 83.1613 37.66 82.5407 37.66 81.794V77.524H39.41V81.556C39.41 82.228 39.5593 82.732 39.858 83.068C40.166 83.3947 40.6 83.558 41.16 83.558C41.5706 83.558 41.9253 83.474 42.224 83.306C42.532 83.138 42.77 82.886 42.938 82.55C43.1153 82.214 43.204 81.7987 43.204 81.304V77.524H44.954V85H43.288V82.984L43.582 83.6C43.33 84.0853 42.9613 84.4587 42.476 84.72C41.9906 84.972 41.4586 85.098 40.88 85.098ZM52.8873 77.44C53.4846 77.44 54.0166 77.5567 54.4833 77.79C54.9593 78.0233 55.3326 78.3827 55.6033 78.868C55.8739 79.344 56.0093 79.96 56.0093 80.716V85H54.2593V80.94C54.2593 80.2773 54.1006 79.7827 53.7833 79.456C53.4753 79.1293 53.0413 78.966 52.4813 78.966C52.0706 78.966 51.7066 79.05 51.3893 79.218C51.0719 79.386 50.8246 79.638 50.6473 79.974C50.4793 80.3007 50.3953 80.716 50.3953 81.22V85H48.6453V77.524H50.3113V79.54L50.0173 78.924C50.2786 78.448 50.6566 78.084 51.1513 77.832C51.6553 77.5707 52.2339 77.44 52.8873 77.44ZM63.0729 85.098C62.2889 85.098 61.5889 84.9347 60.9729 84.608C60.3663 84.272 59.8903 83.8147 59.5449 83.236C59.1996 82.6573 59.0269 81.9993 59.0269 81.262C59.0269 80.5153 59.1996 79.8573 59.5449 79.288C59.8903 78.7093 60.3663 78.2567 60.9729 77.93C61.5889 77.6033 62.2889 77.44 63.0729 77.44C63.8009 77.44 64.4403 77.5893 64.9909 77.888C65.5509 78.1773 65.9756 78.6067 66.2649 79.176L64.9209 79.96C64.6969 79.6053 64.4216 79.344 64.0949 79.176C63.7776 79.008 63.4323 78.924 63.0589 78.924C62.6296 78.924 62.2423 79.0173 61.8969 79.204C61.5516 79.3907 61.2809 79.6613 61.0849 80.016C60.8889 80.3613 60.7909 80.7767 60.7909 81.262C60.7909 81.7473 60.8889 82.1673 61.0849 82.522C61.2809 82.8673 61.5516 83.1333 61.8969 83.32C62.2423 83.5067 62.6296 83.6 63.0589 83.6C63.4323 83.6 63.7776 83.516 64.0949 83.348C64.4216 83.18 64.6969 82.9187 64.9209 82.564L66.2649 83.348C65.9756 83.908 65.5509 84.342 64.9909 84.65C64.4403 84.9487 63.8009 85.098 63.0729 85.098ZM72.0874 85.098C71.2661 85.098 70.6314 84.888 70.1834 84.468C69.7354 84.0387 69.5114 83.4087 69.5114 82.578V75.872H71.2614V82.536C71.2614 82.8907 71.3501 83.166 71.5274 83.362C71.7141 83.558 71.9707 83.656 72.2974 83.656C72.6894 83.656 73.0161 83.5533 73.2774 83.348L73.7674 84.594C73.5621 84.762 73.3101 84.888 73.0114 84.972C72.7127 85.056 72.4047 85.098 72.0874 85.098ZM68.2794 78.98V77.58H73.2634V78.98H68.2794ZM76.607 85V77.524H78.357V85H76.607ZM77.489 76.292C77.1623 76.292 76.8917 76.1893 76.677 75.984C76.4717 75.7787 76.369 75.5313 76.369 75.242C76.369 74.9433 76.4717 74.696 76.677 74.5C76.8917 74.2947 77.1623 74.192 77.489 74.192C77.8157 74.192 78.0817 74.29 78.287 74.486C78.5017 74.6727 78.609 74.9107 78.609 75.2C78.609 75.508 78.5063 75.7693 78.301 75.984C78.0957 76.1893 77.825 76.292 77.489 76.292ZM85.4139 85.098C84.6485 85.098 83.9672 84.9347 83.3699 84.608C82.7725 84.272 82.3012 83.8147 81.9559 83.236C81.6105 82.6573 81.4379 81.9993 81.4379 81.262C81.4379 80.5153 81.6105 79.8573 81.9559 79.288C82.3012 78.7093 82.7725 78.2567 83.3699 77.93C83.9672 77.6033 84.6485 77.44 85.4139 77.44C86.1885 77.44 86.8745 77.6033 87.4719 77.93C88.0785 78.2567 88.5499 78.7047 88.8859 79.274C89.2312 79.8433 89.4039 80.506 89.4039 81.262C89.4039 81.9993 89.2312 82.6573 88.8859 83.236C88.5499 83.8147 88.0785 84.272 87.4719 84.608C86.8745 84.9347 86.1885 85.098 85.4139 85.098ZM85.4139 83.6C85.8432 83.6 86.2259 83.5067 86.5619 83.32C86.8979 83.1333 87.1592 82.8627 87.3459 82.508C87.5419 82.1533 87.6399 81.738 87.6399 81.262C87.6399 80.7767 87.5419 80.3613 87.3459 80.016C87.1592 79.6613 86.8979 79.3907 86.5619 79.204C86.2259 79.0173 85.8479 78.924 85.4279 78.924C84.9985 78.924 84.6159 79.0173 84.2799 79.204C83.9532 79.3907 83.6919 79.6613 83.4959 80.016C83.2999 80.3613 83.2019 80.7767 83.2019 81.262C83.2019 81.738 83.2999 82.1533 83.4959 82.508C83.6919 82.8627 83.9532 83.1333 84.2799 83.32C84.6159 83.5067 84.9939 83.6 85.4139 83.6ZM96.7193 77.44C97.3166 77.44 97.8486 77.5567 98.3153 77.79C98.7913 78.0233 99.1646 78.3827 99.4353 78.868C99.706 79.344 99.8413 79.96 99.8413 80.716V85H98.0913V80.94C98.0913 80.2773 97.9326 79.7827 97.6153 79.456C97.3073 79.1293 96.8733 78.966 96.3133 78.966C95.9026 78.966 95.5386 79.05 95.2213 79.218C94.904 79.386 94.6566 79.638 94.4793 79.974C94.3113 80.3007 94.2273 80.716 94.2273 81.22V85H92.4773V77.524H94.1433V79.54L93.8493 78.924C94.1106 78.448 94.4886 78.084 94.9833 77.832C95.4873 77.5707 96.066 77.44 96.7193 77.44ZM300.721 126.716C300.171 125.867 299.746 124.887 299.447 123.776C299.158 122.656 299.013 121.452 299.013 120.164C299.013 118.876 299.158 117.672 299.447 116.552C299.746 115.423 300.171 114.443 300.721 113.612H302.387C301.818 114.639 301.398 115.689 301.127 116.762C300.866 117.826 300.735 118.96 300.735 120.164C300.735 121.368 300.866 122.507 301.127 123.58C301.398 124.644 301.818 125.689 302.387 126.716H300.721ZM306.065 126.716H304.399C304.978 125.689 305.398 124.644 305.659 123.58C305.93 122.507 306.065 121.368 306.065 120.164C306.065 118.96 305.93 117.826 305.659 116.762C305.398 115.689 304.978 114.639 304.399 113.612H306.065C306.625 114.443 307.05 115.423 307.339 116.552C307.628 117.672 307.773 118.876 307.773 120.164C307.773 121.452 307.628 122.656 307.339 123.776C307.05 124.887 306.625 125.867 306.065 126.716ZM34.242 143.716C33.458 143.716 32.8653 143.52 32.464 143.128C32.0627 142.736 31.862 142.171 31.862 141.434V138.55C31.862 138.317 31.806 138.149 31.694 138.046C31.582 137.934 31.428 137.878 31.232 137.878H30.77V136.45H31.232C31.428 136.45 31.582 136.394 31.694 136.282C31.806 136.17 31.862 136.002 31.862 135.778V132.894C31.862 132.147 32.0627 131.583 32.464 131.2C32.8653 130.808 33.458 130.612 34.242 130.612H34.942V132.012H34.648C34.3027 132.012 34.0413 132.105 33.864 132.292C33.696 132.479 33.612 132.74 33.612 133.076V135.736C33.612 136.109 33.5653 136.399 33.472 136.604C33.3787 136.809 33.2293 136.963 33.024 137.066C32.828 137.159 32.5713 137.229 32.254 137.276V137.052C32.5713 137.089 32.828 137.159 33.024 137.262C33.2293 137.365 33.3787 137.519 33.472 137.724C33.5653 137.929 33.612 138.219 33.612 138.592V141.252C33.612 141.588 33.696 141.849 33.864 142.036C34.0413 142.223 34.3027 142.316 34.648 142.316H34.942V143.716H34.242ZM40.3449 158V150.524H42.0109V152.582L41.8149 151.98C42.0389 151.476 42.3889 151.093 42.8649 150.832C43.3502 150.571 43.9522 150.44 44.6709 150.44V152.106C44.5962 152.087 44.5262 152.078 44.4609 152.078C44.3955 152.069 44.3302 152.064 44.2649 152.064C43.6022 152.064 43.0749 152.26 42.6829 152.652C42.2909 153.035 42.0949 153.609 42.0949 154.374V158H40.3449ZM51.0011 158.098C50.1704 158.098 49.4424 157.935 48.8171 157.608C48.2011 157.272 47.7204 156.815 47.3751 156.236C47.0391 155.657 46.8711 154.999 46.8711 154.262C46.8711 153.515 47.0344 152.857 47.3611 152.288C47.6971 151.709 48.1544 151.257 48.7331 150.93C49.3211 150.603 49.9884 150.44 50.7351 150.44C51.4631 150.44 52.1117 150.599 52.6811 150.916C53.2504 151.233 53.6984 151.681 54.0251 152.26C54.3517 152.839 54.5151 153.52 54.5151 154.304C54.5151 154.379 54.5104 154.463 54.5011 154.556C54.5011 154.649 54.4964 154.738 54.4871 154.822H48.2571V153.66H53.5631L52.8771 154.024C52.8864 153.595 52.7977 153.217 52.6111 152.89C52.4244 152.563 52.1677 152.307 51.8411 152.12C51.5237 151.933 51.1551 151.84 50.7351 151.84C50.3057 151.84 49.9277 151.933 49.6011 152.12C49.2837 152.307 49.0317 152.568 48.8451 152.904C48.6677 153.231 48.5791 153.618 48.5791 154.066V154.346C48.5791 154.794 48.6817 155.191 48.8871 155.536C49.0924 155.881 49.3817 156.147 49.7551 156.334C50.1284 156.521 50.5577 156.614 51.0431 156.614C51.4631 156.614 51.8411 156.549 52.1771 156.418C52.5131 156.287 52.8117 156.082 53.0731 155.802L54.0111 156.88C53.6751 157.272 53.2504 157.575 52.7371 157.79C52.2331 157.995 51.6544 158.098 51.0011 158.098ZM60.41 158.098C59.5887 158.098 58.954 157.888 58.506 157.468C58.058 157.039 57.834 156.409 57.834 155.578V148.872H59.584V155.536C59.584 155.891 59.6727 156.166 59.85 156.362C60.0367 156.558 60.2934 156.656 60.62 156.656C61.012 156.656 61.3387 156.553 61.6 156.348L62.09 157.594C61.8847 157.762 61.6327 157.888 61.334 157.972C61.0354 158.056 60.7274 158.098 60.41 158.098ZM56.602 151.98V150.58H61.586V151.98H56.602ZM68.0936 158.098C67.459 158.098 66.899 157.981 66.4136 157.748C65.9283 157.505 65.5503 157.141 65.2796 156.656C65.009 156.161 64.8736 155.541 64.8736 154.794V150.524H66.6236V154.556C66.6236 155.228 66.773 155.732 67.0716 156.068C67.3796 156.395 67.8136 156.558 68.3736 156.558C68.7843 156.558 69.139 156.474 69.4376 156.306C69.7456 156.138 69.9836 155.886 70.1516 155.55C70.329 155.214 70.4176 154.799 70.4176 154.304V150.524H72.1676V158H70.5016V155.984L70.7956 156.6C70.5436 157.085 70.175 157.459 69.6896 157.72C69.2043 157.972 68.6723 158.098 68.0936 158.098ZM75.8589 158V150.524H77.5249V152.582L77.3289 151.98C77.5529 151.476 77.9029 151.093 78.3789 150.832C78.8643 150.571 79.4663 150.44 80.1849 150.44V152.106C80.1103 152.087 80.0403 152.078 79.9749 152.078C79.9096 152.069 79.8443 152.064 79.7789 152.064C79.1163 152.064 78.5889 152.26 78.1969 152.652C77.8049 153.035 77.6089 153.609 77.6089 154.374V158H75.8589ZM87.3115 150.44C87.9088 150.44 88.4408 150.557 88.9075 150.79C89.3835 151.023 89.7568 151.383 90.0275 151.868C90.2982 152.344 90.4335 152.96 90.4335 153.716V158H88.6835V153.94C88.6835 153.277 88.5248 152.783 88.2075 152.456C87.8995 152.129 87.4655 151.966 86.9055 151.966C86.4948 151.966 86.1308 152.05 85.8135 152.218C85.4962 152.386 85.2488 152.638 85.0715 152.974C84.9035 153.301 84.8195 153.716 84.8195 154.22V158H83.0695V150.524H84.7355V152.54L84.4415 151.924C84.7028 151.448 85.0808 151.084 85.5755 150.832C86.0795 150.571 86.6582 150.44 87.3115 150.44ZM99.4906 160.716V147.612H102.837V149.012H101.241V159.316H102.837V160.716H99.4906ZM105.516 152.078L105.404 148.2H106.916L106.79 152.078H105.516ZM108.218 152.078L108.106 148.2H109.618L109.492 152.078H108.218ZM116.465 158.098C115.634 158.098 114.906 157.935 114.281 157.608C113.665 157.272 113.184 156.815 112.839 156.236C112.503 155.657 112.335 154.999 112.335 154.262C112.335 153.515 112.498 152.857 112.825 152.288C113.161 151.709 113.618 151.257 114.197 150.93C114.785 150.603 115.452 150.44 116.199 150.44C116.927 150.44 117.575 150.599 118.145 150.916C118.714 151.233 119.162 151.681 119.489 152.26C119.815 152.839 119.979 153.52 119.979 154.304C119.979 154.379 119.974 154.463 119.965 154.556C119.965 154.649 119.96 154.738 119.951 154.822H113.721V153.66H119.027L118.341 154.024C118.35 153.595 118.261 153.217 118.075 152.89C117.888 152.563 117.631 152.307 117.305 152.12C116.987 151.933 116.619 151.84 116.199 151.84C115.769 151.84 115.391 151.933 115.065 152.12C114.747 152.307 114.495 152.568 114.309 152.904C114.131 153.231 114.043 153.618 114.043 154.066V154.346C114.043 154.794 114.145 155.191 114.351 155.536C114.556 155.881 114.845 156.147 115.219 156.334C115.592 156.521 116.021 156.614 116.507 156.614C116.927 156.614 117.305 156.549 117.641 156.418C117.977 156.287 118.275 156.082 118.537 155.802L119.475 156.88C119.139 157.272 118.714 157.575 118.201 157.79C117.697 157.995 117.118 158.098 116.465 158.098ZM122.818 154.836V153.38H126.668V154.836H122.818ZM134.127 158.098C133.52 158.098 132.965 157.958 132.461 157.678C131.966 157.398 131.57 156.978 131.271 156.418C130.982 155.849 130.837 155.13 130.837 154.262C130.837 153.385 130.977 152.666 131.257 152.106C131.546 151.546 131.938 151.131 132.433 150.86C132.928 150.58 133.492 150.44 134.127 150.44C134.864 150.44 135.513 150.599 136.073 150.916C136.642 151.233 137.09 151.677 137.417 152.246C137.753 152.815 137.921 153.487 137.921 154.262C137.921 155.037 137.753 155.713 137.417 156.292C137.09 156.861 136.642 157.305 136.073 157.622C135.513 157.939 134.864 158.098 134.127 158.098ZM129.983 160.716V150.524H131.649V152.288L131.593 154.276L131.733 156.264V160.716H129.983ZM133.931 156.6C134.351 156.6 134.724 156.507 135.051 156.32C135.387 156.133 135.653 155.863 135.849 155.508C136.045 155.153 136.143 154.738 136.143 154.262C136.143 153.777 136.045 153.361 135.849 153.016C135.653 152.661 135.387 152.391 135.051 152.204C134.724 152.017 134.351 151.924 133.931 151.924C133.511 151.924 133.133 152.017 132.797 152.204C132.461 152.391 132.195 152.661 131.999 153.016C131.803 153.361 131.705 153.777 131.705 154.262C131.705 154.738 131.803 155.153 131.999 155.508C132.195 155.863 132.461 156.133 132.797 156.32C133.133 156.507 133.511 156.6 133.931 156.6ZM145.491 158V156.488L145.393 156.166V153.52C145.393 153.007 145.239 152.61 144.931 152.33C144.623 152.041 144.156 151.896 143.531 151.896C143.111 151.896 142.696 151.961 142.285 152.092C141.884 152.223 141.543 152.405 141.263 152.638L140.577 151.364C140.978 151.056 141.454 150.827 142.005 150.678C142.565 150.519 143.144 150.44 143.741 150.44C144.824 150.44 145.659 150.701 146.247 151.224C146.844 151.737 147.143 152.535 147.143 153.618V158H145.491ZM143.139 158.098C142.579 158.098 142.089 158.005 141.669 157.818C141.249 157.622 140.922 157.356 140.689 157.02C140.465 156.675 140.353 156.287 140.353 155.858C140.353 155.438 140.451 155.06 140.647 154.724C140.852 154.388 141.184 154.122 141.641 153.926C142.098 153.73 142.705 153.632 143.461 153.632H145.631V154.794H143.587C142.99 154.794 142.588 154.892 142.383 155.088C142.178 155.275 142.075 155.508 142.075 155.788C142.075 156.105 142.201 156.357 142.453 156.544C142.705 156.731 143.055 156.824 143.503 156.824C143.932 156.824 144.315 156.726 144.651 156.53C144.996 156.334 145.244 156.045 145.393 155.662L145.687 156.712C145.519 157.151 145.216 157.491 144.777 157.734C144.348 157.977 143.802 158.098 143.139 158.098ZM153.099 158.098C152.474 158.098 151.872 158.019 151.293 157.86C150.724 157.692 150.271 157.491 149.935 157.258L150.607 155.928C150.943 156.143 151.344 156.32 151.811 156.46C152.278 156.6 152.744 156.67 153.211 156.67C153.762 156.67 154.158 156.595 154.401 156.446C154.653 156.297 154.779 156.096 154.779 155.844C154.779 155.639 154.695 155.485 154.527 155.382C154.359 155.27 154.14 155.186 153.869 155.13C153.598 155.074 153.295 155.023 152.959 154.976C152.632 154.929 152.301 154.869 151.965 154.794C151.638 154.71 151.34 154.593 151.069 154.444C150.798 154.285 150.579 154.075 150.411 153.814C150.243 153.553 150.159 153.207 150.159 152.778C150.159 152.302 150.294 151.891 150.565 151.546C150.836 151.191 151.214 150.921 151.699 150.734C152.194 150.538 152.777 150.44 153.449 150.44C153.953 150.44 154.462 150.496 154.975 150.608C155.488 150.72 155.913 150.879 156.249 151.084L155.577 152.414C155.222 152.199 154.863 152.055 154.499 151.98C154.144 151.896 153.79 151.854 153.435 151.854C152.903 151.854 152.506 151.933 152.245 152.092C151.993 152.251 151.867 152.451 151.867 152.694C151.867 152.918 151.951 153.086 152.119 153.198C152.287 153.31 152.506 153.399 152.777 153.464C153.048 153.529 153.346 153.585 153.673 153.632C154.009 153.669 154.34 153.73 154.667 153.814C154.994 153.898 155.292 154.015 155.563 154.164C155.843 154.304 156.067 154.505 156.235 154.766C156.403 155.027 156.487 155.368 156.487 155.788C156.487 156.255 156.347 156.661 156.067 157.006C155.796 157.351 155.409 157.622 154.905 157.818C154.401 158.005 153.799 158.098 153.099 158.098ZM162.208 158.098C161.387 158.098 160.752 157.888 160.304 157.468C159.856 157.039 159.632 156.409 159.632 155.578V148.872H161.382V155.536C161.382 155.891 161.471 156.166 161.648 156.362C161.835 156.558 162.091 156.656 162.418 156.656C162.81 156.656 163.137 156.553 163.398 156.348L163.888 157.594C163.683 157.762 163.431 157.888 163.132 157.972C162.833 158.056 162.525 158.098 162.208 158.098ZM158.4 151.98V150.58H163.384V151.98H158.4ZM169.038 158.098C168.412 158.098 167.81 158.019 167.232 157.86C166.662 157.692 166.21 157.491 165.874 157.258L166.546 155.928C166.882 156.143 167.283 156.32 167.75 156.46C168.216 156.6 168.683 156.67 169.15 156.67C169.7 156.67 170.097 156.595 170.34 156.446C170.592 156.297 170.718 156.096 170.718 155.844C170.718 155.639 170.634 155.485 170.466 155.382C170.298 155.27 170.078 155.186 169.808 155.13C169.537 155.074 169.234 155.023 168.898 154.976C168.571 154.929 168.24 154.869 167.904 154.794C167.577 154.71 167.278 154.593 167.008 154.444C166.737 154.285 166.518 154.075 166.35 153.814C166.182 153.553 166.098 153.207 166.098 152.778C166.098 152.302 166.233 151.891 166.504 151.546C166.774 151.191 167.152 150.921 167.638 150.734C168.132 150.538 168.716 150.44 169.388 150.44C169.892 150.44 170.4 150.496 170.914 150.608C171.427 150.72 171.852 150.879 172.188 151.084L171.516 152.414C171.161 152.199 170.802 152.055 170.438 151.98C170.083 151.896 169.728 151.854 169.374 151.854C168.842 151.854 168.445 151.933 168.184 152.092C167.932 152.251 167.806 152.451 167.806 152.694C167.806 152.918 167.89 153.086 168.058 153.198C168.226 153.31 168.445 153.399 168.716 153.464C168.986 153.529 169.285 153.585 169.612 153.632C169.948 153.669 170.279 153.73 170.606 153.814C170.932 153.898 171.231 154.015 171.502 154.164C171.782 154.304 172.006 154.505 172.174 154.766C172.342 155.027 172.426 155.368 172.426 155.788C172.426 156.255 172.286 156.661 172.006 157.006C171.735 157.351 171.348 157.622 170.844 157.818C170.34 158.005 169.738 158.098 169.038 158.098ZM175.081 152.078L174.969 148.2H176.481L176.355 152.078H175.081ZM177.783 152.078L177.671 148.2H179.183L179.057 152.078H177.783ZM181.288 160.114L182.1 157.02L182.338 158.056C182.012 158.056 181.736 157.958 181.512 157.762C181.298 157.557 181.19 157.281 181.19 156.936C181.19 156.581 181.298 156.301 181.512 156.096C181.736 155.881 182.007 155.774 182.324 155.774C182.651 155.774 182.922 155.881 183.136 156.096C183.351 156.311 183.458 156.591 183.458 156.936C183.458 157.029 183.449 157.132 183.43 157.244C183.412 157.347 183.379 157.468 183.332 157.608C183.295 157.748 183.23 157.925 183.136 158.14L182.422 160.114H181.288ZM191.585 152.078L191.473 148.2H192.985L192.859 152.078H191.585ZM194.287 152.078L194.175 148.2H195.687L195.561 152.078H194.287ZM199.189 158V148.2H201.009V156.46H206.133V158H199.189ZM208.802 158V150.524H210.552V158H208.802ZM209.684 149.292C209.357 149.292 209.086 149.189 208.872 148.984C208.666 148.779 208.564 148.531 208.564 148.242C208.564 147.943 208.666 147.696 208.872 147.5C209.086 147.295 209.357 147.192 209.684 147.192C210.01 147.192 210.276 147.29 210.482 147.486C210.696 147.673 210.804 147.911 210.804 148.2C210.804 148.508 210.701 148.769 210.496 148.984C210.29 149.189 210.02 149.292 209.684 149.292ZM218.49 150.44C219.088 150.44 219.62 150.557 220.086 150.79C220.562 151.023 220.936 151.383 221.206 151.868C221.477 152.344 221.612 152.96 221.612 153.716V158H219.862V153.94C219.862 153.277 219.704 152.783 219.386 152.456C219.078 152.129 218.644 151.966 218.084 151.966C217.674 151.966 217.31 152.05 216.992 152.218C216.675 152.386 216.428 152.638 216.25 152.974C216.082 153.301 215.998 153.716 215.998 154.22V158H214.248V150.524H215.914V152.54L215.62 151.924C215.882 151.448 216.26 151.084 216.754 150.832C217.258 150.571 217.837 150.44 218.49 150.44ZM226.66 156.334L226.702 154.136L230.608 150.524H232.708L229.39 153.856L228.466 154.626L226.66 156.334ZM225.232 158V147.612H226.982V158H225.232ZM230.874 158L228.144 154.626L229.25 153.226L233.002 158H230.874ZM238.746 158.098C237.915 158.098 237.187 157.935 236.562 157.608C235.946 157.272 235.465 156.815 235.12 156.236C234.784 155.657 234.616 154.999 234.616 154.262C234.616 153.515 234.779 152.857 235.106 152.288C235.442 151.709 235.899 151.257 236.478 150.93C237.066 150.603 237.733 150.44 238.48 150.44C239.208 150.44 239.857 150.599 240.426 150.916C240.995 151.233 241.443 151.681 241.77 152.26C242.097 152.839 242.26 153.52 242.26 154.304C242.26 154.379 242.255 154.463 242.246 154.556C242.246 154.649 242.241 154.738 242.232 154.822H236.002V153.66H241.308L240.622 154.024C240.631 153.595 240.543 153.217 240.356 152.89C240.169 152.563 239.913 152.307 239.586 152.12C239.269 151.933 238.9 151.84 238.48 151.84C238.051 151.84 237.673 151.933 237.346 152.12C237.029 152.307 236.777 152.568 236.59 152.904C236.413 153.231 236.324 153.618 236.324 154.066V154.346C236.324 154.794 236.427 155.191 236.632 155.536C236.837 155.881 237.127 156.147 237.5 156.334C237.873 156.521 238.303 156.614 238.788 156.614C239.208 156.614 239.586 156.549 239.922 156.418C240.258 156.287 240.557 156.082 240.818 155.802L241.756 156.88C241.42 157.272 240.995 157.575 240.482 157.79C239.978 157.995 239.399 158.098 238.746 158.098ZM248.505 158.098C247.786 158.098 247.138 157.939 246.559 157.622C245.99 157.295 245.542 156.847 245.215 156.278C244.888 155.709 244.725 155.037 244.725 154.262C244.725 153.487 244.888 152.815 245.215 152.246C245.542 151.677 245.99 151.233 246.559 150.916C247.138 150.599 247.786 150.44 248.505 150.44C249.13 150.44 249.69 150.58 250.185 150.86C250.68 151.131 251.072 151.546 251.361 152.106C251.65 152.666 251.795 153.385 251.795 154.262C251.795 155.13 251.655 155.849 251.375 156.418C251.095 156.978 250.708 157.398 250.213 157.678C249.718 157.958 249.149 158.098 248.505 158.098ZM248.715 156.6C249.135 156.6 249.508 156.507 249.835 156.32C250.171 156.133 250.437 155.863 250.633 155.508C250.838 155.153 250.941 154.738 250.941 154.262C250.941 153.777 250.838 153.361 250.633 153.016C250.437 152.661 250.171 152.391 249.835 152.204C249.508 152.017 249.135 151.924 248.715 151.924C248.295 151.924 247.917 152.017 247.581 152.204C247.254 152.391 246.988 152.661 246.783 153.016C246.587 153.361 246.489 153.777 246.489 154.262C246.489 154.738 246.587 155.153 246.783 155.508C246.988 155.863 247.254 156.133 247.581 156.32C247.917 156.507 248.295 156.6 248.715 156.6ZM250.983 158V156.236L251.053 154.248L250.913 152.26V147.612H252.649V158H250.983ZM256.52 158V148.2H258.34V158H256.52ZM266.465 150.44C267.062 150.44 267.594 150.557 268.061 150.79C268.537 151.023 268.91 151.383 269.181 151.868C269.452 152.344 269.587 152.96 269.587 153.716V158H267.837V153.94C267.837 153.277 267.678 152.783 267.361 152.456C267.053 152.129 266.619 151.966 266.059 151.966C265.648 151.966 265.284 152.05 264.967 152.218C264.65 152.386 264.402 152.638 264.225 152.974C264.057 153.301 263.973 153.716 263.973 154.22V158H262.223V150.524H263.889V152.54L263.595 151.924C263.856 151.448 264.234 151.084 264.729 150.832C265.233 150.571 265.812 150.44 266.465 150.44ZM272.955 152.078L272.843 148.2H274.355L274.229 152.078H272.955ZM275.657 152.078L275.545 148.2H277.057L276.931 152.078H275.657ZM279.163 160.114L279.975 157.02L280.213 158.056C279.886 158.056 279.611 157.958 279.387 157.762C279.172 157.557 279.065 157.281 279.065 156.936C279.065 156.581 279.172 156.301 279.387 156.096C279.611 155.881 279.881 155.774 280.199 155.774C280.525 155.774 280.796 155.881 281.011 156.096C281.225 156.311 281.333 156.591 281.333 156.936C281.333 157.029 281.323 157.132 281.305 157.244C281.286 157.347 281.253 157.468 281.207 157.608C281.169 157.748 281.104 157.925 281.011 158.14L280.297 160.114H279.163ZM289.46 152.078L289.348 148.2H290.86L290.734 152.078H289.46ZM292.162 152.078L292.05 148.2H293.562L293.436 152.078H292.162ZM301.641 158.14C300.876 158.14 300.171 158.019 299.527 157.776C298.892 157.524 298.337 157.174 297.861 156.726C297.385 156.269 297.016 155.732 296.755 155.116C296.494 154.5 296.363 153.828 296.363 153.1C296.363 152.372 296.494 151.7 296.755 151.084C297.016 150.468 297.385 149.936 297.861 149.488C298.346 149.031 298.911 148.681 299.555 148.438C300.199 148.186 300.904 148.06 301.669 148.06C302.5 148.06 303.246 148.195 303.909 148.466C304.581 148.737 305.146 149.133 305.603 149.656L304.455 150.776C304.072 150.393 303.657 150.113 303.209 149.936C302.77 149.749 302.285 149.656 301.753 149.656C301.24 149.656 300.764 149.74 300.325 149.908C299.886 150.076 299.508 150.314 299.191 150.622C298.874 150.93 298.626 151.294 298.449 151.714C298.281 152.134 298.197 152.596 298.197 153.1C298.197 153.595 298.281 154.052 298.449 154.472C298.626 154.892 298.874 155.261 299.191 155.578C299.508 155.886 299.882 156.124 300.311 156.292C300.74 156.46 301.216 156.544 301.739 156.544C302.224 156.544 302.691 156.469 303.139 156.32C303.596 156.161 304.03 155.9 304.441 155.536L305.477 156.894C304.964 157.305 304.366 157.617 303.685 157.832C303.013 158.037 302.332 158.14 301.641 158.14ZM303.755 156.656V152.988H305.477V156.894L303.755 156.656ZM309.109 158V150.524H310.859V158H309.109ZM309.991 149.292C309.665 149.292 309.394 149.189 309.179 148.984C308.974 148.779 308.871 148.531 308.871 148.242C308.871 147.943 308.974 147.696 309.179 147.5C309.394 147.295 309.665 147.192 309.991 147.192C310.318 147.192 310.584 147.29 310.789 147.486C311.004 147.673 311.111 147.911 311.111 148.2C311.111 148.508 311.009 148.769 310.803 148.984C310.598 149.189 310.327 149.292 309.991 149.292ZM317.37 158.098C316.549 158.098 315.914 157.888 315.466 157.468C315.018 157.039 314.794 156.409 314.794 155.578V148.872H316.544V155.536C316.544 155.891 316.633 156.166 316.81 156.362C316.997 156.558 317.254 156.656 317.58 156.656C317.972 156.656 318.299 156.553 318.56 156.348L319.05 157.594C318.845 157.762 318.593 157.888 318.294 157.972C317.996 158.056 317.688 158.098 317.37 158.098ZM313.562 151.98V150.58H318.546V151.98H313.562ZM328.946 148.2H330.766V158H328.946V148.2ZM323.878 158H322.058V148.2H323.878V158ZM329.086 153.8H323.724V152.246H329.086V153.8ZM337.788 158.098C337.153 158.098 336.593 157.981 336.108 157.748C335.622 157.505 335.244 157.141 334.974 156.656C334.703 156.161 334.568 155.541 334.568 154.794V150.524H336.318V154.556C336.318 155.228 336.467 155.732 336.766 156.068C337.074 156.395 337.508 156.558 338.068 156.558C338.478 156.558 338.833 156.474 339.132 156.306C339.44 156.138 339.678 155.886 339.846 155.55C340.023 155.214 340.112 154.799 340.112 154.304V150.524H341.862V158H340.196V155.984L340.49 156.6C340.238 157.085 339.869 157.459 339.384 157.72C338.898 157.972 338.366 158.098 337.788 158.098ZM349.697 158.098C349.062 158.098 348.498 157.958 348.003 157.678C347.508 157.398 347.116 156.978 346.827 156.418C346.547 155.849 346.407 155.13 346.407 154.262C346.407 153.385 346.552 152.666 346.841 152.106C347.14 151.546 347.536 151.131 348.031 150.86C348.535 150.58 349.09 150.44 349.697 150.44C350.434 150.44 351.083 150.599 351.643 150.916C352.212 151.233 352.66 151.677 352.987 152.246C353.323 152.815 353.491 153.487 353.491 154.262C353.491 155.037 353.323 155.709 352.987 156.278C352.66 156.847 352.212 157.295 351.643 157.622C351.083 157.939 350.434 158.098 349.697 158.098ZM345.553 158V147.612H347.303V152.26L347.163 154.248L347.219 156.236V158H345.553ZM349.501 156.6C349.921 156.6 350.294 156.507 350.621 156.32C350.957 156.133 351.223 155.863 351.419 155.508C351.615 155.153 351.713 154.738 351.713 154.262C351.713 153.777 351.615 153.361 351.419 153.016C351.223 152.661 350.957 152.391 350.621 152.204C350.294 152.017 349.921 151.924 349.501 151.924C349.081 151.924 348.703 152.017 348.367 152.204C348.031 152.391 347.765 152.661 347.569 153.016C347.373 153.361 347.275 153.777 347.275 154.262C347.275 154.738 347.373 155.153 347.569 155.508C347.765 155.863 348.031 156.133 348.367 156.32C348.703 156.507 349.081 156.6 349.501 156.6ZM356.094 152.078L355.982 148.2H357.494L357.368 152.078H356.094ZM358.796 152.078L358.684 148.2H360.196L360.07 152.078H358.796ZM366.101 160.716H362.769V159.316H364.351V149.012H362.769V147.612H366.101V160.716ZM370.534 152.764C370.216 152.764 369.946 152.657 369.722 152.442C369.498 152.218 369.386 151.938 369.386 151.602C369.386 151.247 369.498 150.967 369.722 150.762C369.946 150.547 370.216 150.44 370.534 150.44C370.851 150.44 371.122 150.547 371.346 150.762C371.57 150.967 371.682 151.247 371.682 151.602C371.682 151.938 371.57 152.218 371.346 152.442C371.122 152.657 370.851 152.764 370.534 152.764ZM369.512 160.114L370.324 157.02L370.562 158.056C370.235 158.056 369.96 157.958 369.736 157.762C369.521 157.557 369.414 157.281 369.414 156.936C369.414 156.581 369.521 156.301 369.736 156.096C369.96 155.881 370.23 155.774 370.548 155.774C370.874 155.774 371.145 155.881 371.36 156.096C371.574 156.311 371.682 156.591 371.682 156.936C371.682 157.029 371.672 157.132 371.654 157.244C371.635 157.347 371.602 157.468 371.556 157.608C371.518 157.748 371.453 157.925 371.36 158.14L370.646 160.114H369.512ZM30.938 177.716H30.238V176.316H30.532C30.8867 176.316 31.148 176.223 31.316 176.036C31.4933 175.849 31.582 175.588 31.582 175.252V172.592C31.582 172.219 31.6287 171.929 31.722 171.724C31.8247 171.519 31.974 171.365 32.17 171.262C32.366 171.159 32.618 171.089 32.926 171.052V171.276C32.618 171.229 32.366 171.159 32.17 171.066C31.974 170.963 31.8247 170.809 31.722 170.604C31.6287 170.399 31.582 170.109 31.582 169.736V167.076C31.582 166.74 31.4933 166.479 31.316 166.292C31.148 166.105 30.8867 166.012 30.532 166.012H30.238V164.612H30.938C31.7313 164.612 32.3287 164.808 32.73 165.2C33.1313 165.583 33.332 166.147 33.332 166.894V169.778C33.332 170.002 33.388 170.17 33.5 170.282C33.612 170.394 33.7613 170.45 33.948 170.45H34.424V171.878H33.948C33.7613 171.878 33.612 171.934 33.5 172.046C33.388 172.149 33.332 172.317 33.332 172.55V175.434C33.332 176.171 33.1313 176.736 32.73 177.128C32.3287 177.52 31.7313 177.716 30.938 177.716Z" fill="#620B58"/>
<path d="M54.352 106.528C55.7173 106.528 56.9227 106.805 57.968 107.36C59.0347 107.893 59.8667 108.725 60.464 109.856C61.0827 110.965 61.392 112.395 61.392 114.144V124H56.4V114.912C56.4 113.525 56.112 112.501 55.536 111.84C54.96 111.179 54.1493 110.848 53.104 110.848C52.3787 110.848 51.728 111.019 51.152 111.36C50.576 111.68 50.128 112.171 49.808 112.832C49.488 113.493 49.328 114.336 49.328 115.36V124H44.336V114.912C44.336 113.525 44.048 112.501 43.472 111.84C42.9173 111.179 42.1173 110.848 41.072 110.848C40.3467 110.848 39.696 111.019 39.12 111.36C38.544 111.68 38.096 112.171 37.776 112.832C37.456 113.493 37.296 114.336 37.296 115.36V124H32.304V106.784H37.072V111.488L36.176 110.112C36.7733 108.939 37.616 108.053 38.704 107.456C39.8133 106.837 41.072 106.528 42.48 106.528C44.0587 106.528 45.4347 106.933 46.608 107.744C47.8027 108.533 48.592 109.749 48.976 111.392L47.216 110.912C47.792 109.568 48.7093 108.501 49.968 107.712C51.248 106.923 52.7093 106.528 54.352 106.528ZM79.6265 124V120.64L79.3065 119.904V113.888C79.3065 112.821 78.9758 111.989 78.3145 111.392C77.6745 110.795 76.6825 110.496 75.3385 110.496C74.4212 110.496 73.5145 110.645 72.6185 110.944C71.7438 111.221 70.9972 111.605 70.3785 112.096L68.5865 108.608C69.5252 107.947 70.6558 107.435 71.9785 107.072C73.3012 106.709 74.6452 106.528 76.0105 106.528C78.6345 106.528 80.6718 107.147 82.1225 108.384C83.5732 109.621 84.2985 111.552 84.2985 114.176V124H79.6265ZM74.3785 124.256C73.0345 124.256 71.8825 124.032 70.9225 123.584C69.9625 123.115 69.2265 122.485 68.7145 121.696C68.2025 120.907 67.9465 120.021 67.9465 119.04C67.9465 118.016 68.1918 117.12 68.6825 116.352C69.1945 115.584 69.9945 114.987 71.0825 114.56C72.1705 114.112 73.5892 113.888 75.3385 113.888H79.9145V116.8H75.8825C74.7092 116.8 73.8985 116.992 73.4505 117.376C73.0238 117.76 72.8105 118.24 72.8105 118.816C72.8105 119.456 73.0558 119.968 73.5465 120.352C74.0585 120.715 74.7518 120.896 75.6265 120.896C76.4585 120.896 77.2052 120.704 77.8665 120.32C78.5278 119.915 79.0078 119.328 79.3065 118.56L80.0745 120.864C79.7118 121.973 79.0505 122.816 78.0905 123.392C77.1305 123.968 75.8932 124.256 74.3785 124.256ZM102.481 106.528C103.846 106.528 105.062 106.805 106.129 107.36C107.217 107.893 108.07 108.725 108.689 109.856C109.307 110.965 109.617 112.395 109.617 114.144V124H104.625V114.912C104.625 113.525 104.315 112.501 103.697 111.84C103.099 111.179 102.246 110.848 101.137 110.848C100.347 110.848 99.6325 111.019 98.9925 111.36C98.3738 111.68 97.8832 112.181 97.5205 112.864C97.1792 113.547 97.0085 114.421 97.0085 115.488V124H92.0165V106.784H96.7845V111.552L95.8885 110.112C96.5072 108.96 97.3925 108.075 98.5445 107.456C99.6965 106.837 101.009 106.528 102.481 106.528ZM117.341 124V106.784H122.333V124H117.341ZM119.837 104.384C118.92 104.384 118.173 104.117 117.597 103.584C117.021 103.051 116.733 102.389 116.733 101.6C116.733 100.811 117.021 100.149 117.597 99.616C118.173 99.0827 118.92 98.816 119.837 98.816C120.755 98.816 121.501 99.072 122.077 99.584C122.653 100.075 122.941 100.715 122.941 101.504C122.941 102.336 122.653 103.029 122.077 103.584C121.523 104.117 120.776 104.384 119.837 104.384ZM135.159 118.88L134.871 112.896L145.591 101.6H151.351L141.687 112L138.807 115.072L135.159 118.88ZM130.519 124V101.6H135.671V124H130.519ZM145.847 124L137.879 114.24L141.271 110.56L151.895 124H145.847ZM164.527 124.256C162.693 124.256 161.061 123.872 159.631 123.104C158.223 122.336 157.103 121.291 156.271 119.968C155.461 118.624 155.055 117.099 155.055 115.392C155.055 113.664 155.461 112.139 156.271 110.816C157.103 109.472 158.223 108.427 159.631 107.68C161.061 106.912 162.693 106.528 164.527 106.528C166.341 106.528 167.962 106.912 169.391 107.68C170.821 108.427 171.941 109.461 172.751 110.784C173.562 112.107 173.967 113.643 173.967 115.392C173.967 117.099 173.562 118.624 172.751 119.968C171.941 121.291 170.821 122.336 169.391 123.104C167.962 123.872 166.341 124.256 164.527 124.256ZM164.527 120.16C165.359 120.16 166.106 119.968 166.767 119.584C167.429 119.2 167.951 118.656 168.335 117.952C168.719 117.227 168.911 116.373 168.911 115.392C168.911 114.389 168.719 113.536 168.335 112.832C167.951 112.128 167.429 111.584 166.767 111.2C166.106 110.816 165.359 110.624 164.527 110.624C163.695 110.624 162.949 110.816 162.287 111.2C161.626 111.584 161.093 112.128 160.687 112.832C160.303 113.536 160.111 114.389 160.111 115.392C160.111 116.373 160.303 117.227 160.687 117.952C161.093 118.656 161.626 119.2 162.287 119.584C162.949 119.968 163.695 120.16 164.527 120.16ZM190.968 106.528C192.333 106.528 193.549 106.805 194.616 107.36C195.704 107.893 196.557 108.725 197.176 109.856C197.795 110.965 198.104 112.395 198.104 114.144V124H193.112V114.912C193.112 113.525 192.803 112.501 192.184 111.84C191.587 111.179 190.733 110.848 189.624 110.848C188.835 110.848 188.12 111.019 187.48 111.36C186.861 111.68 186.371 112.181 186.008 112.864C185.667 113.547 185.496 114.421 185.496 115.488V124H180.504V106.784H185.272V111.552L184.376 110.112C184.995 108.96 185.88 108.075 187.032 107.456C188.184 106.837 189.496 106.528 190.968 106.528ZM212.869 124.256C210.842 124.256 209.264 123.744 208.133 122.72C207.002 121.675 206.437 120.128 206.437 118.08V102.976H211.429V118.016C211.429 118.741 211.621 119.307 212.005 119.712C212.389 120.096 212.912 120.288 213.573 120.288C214.362 120.288 215.034 120.075 215.589 119.648L216.933 123.168C216.421 123.531 215.802 123.808 215.077 124C214.373 124.171 213.637 124.256 212.869 124.256ZM203.781 111.008V107.168H215.717V111.008H203.781ZM233.495 124V120.64L233.175 119.904V113.888C233.175 112.821 232.845 111.989 232.183 111.392C231.543 110.795 230.551 110.496 229.207 110.496C228.29 110.496 227.383 110.645 226.487 110.944C225.613 111.221 224.866 111.605 224.247 112.096L222.455 108.608C223.394 107.947 224.525 107.435 225.847 107.072C227.17 106.709 228.514 106.528 229.879 106.528C232.503 106.528 234.541 107.147 235.991 108.384C237.442 109.621 238.167 111.552 238.167 114.176V124H233.495ZM228.247 124.256C226.903 124.256 225.751 124.032 224.791 123.584C223.831 123.115 223.095 122.485 222.583 121.696C222.071 120.907 221.815 120.021 221.815 119.04C221.815 118.016 222.061 117.12 222.551 116.352C223.063 115.584 223.863 114.987 224.951 114.56C226.039 114.112 227.458 113.888 229.207 113.888H233.783V116.8H229.751C228.578 116.8 227.767 116.992 227.319 117.376C226.893 117.76 226.679 118.24 226.679 118.816C226.679 119.456 226.925 119.968 227.415 120.352C227.927 120.715 228.621 120.896 229.495 120.896C230.327 120.896 231.074 120.704 231.735 120.32C232.397 119.915 232.877 119.328 233.175 118.56L233.943 120.864C233.581 121.973 232.919 122.816 231.959 123.392C230.999 123.968 229.762 124.256 228.247 124.256ZM250.013 120.48L250.141 114.4L258.173 106.784H264.125L256.413 114.624L253.821 116.736L250.013 120.48ZM245.885 124V100.256H250.877V124H245.885ZM258.717 124L252.893 116.768L256.029 112.896L264.765 124H258.717ZM277.25 124.256C275.224 124.256 273.645 123.744 272.514 122.72C271.384 121.675 270.818 120.128 270.818 118.08V102.976H275.81V118.016C275.81 118.741 276.002 119.307 276.386 119.712C276.77 120.096 277.293 120.288 277.954 120.288C278.744 120.288 279.416 120.075 279.97 119.648L281.314 123.168C280.802 123.531 280.184 123.808 279.458 124C278.754 124.171 278.018 124.256 277.25 124.256ZM268.162 111.008V107.168H280.098V111.008H268.162ZM287.316 124V106.784H292.308V124H287.316ZM289.812 104.384C288.895 104.384 288.148 104.117 287.572 103.584C286.996 103.051 286.708 102.389 286.708 101.6C286.708 100.811 286.996 100.149 287.572 99.616C288.148 99.0827 288.895 98.816 289.812 98.816C290.73 98.816 291.476 99.072 292.052 99.584C292.628 100.075 292.916 100.715 292.916 101.504C292.916 102.336 292.628 103.029 292.052 103.584C291.498 104.117 290.751 104.384 289.812 104.384Z" fill="white"/>
</svg>
