<svg viewBox="0 0 378 250" fill="none" xmlns="http://www.w3.org/2000/svg">
<rect x="0.5" y="0.5" width="377" height="249" fill="#13120D" stroke="white"/>
<path d="M342.213 18.2081C341.885 18.2138 341.573 18.3479 341.343 18.5817C341.114 18.8155 340.985 19.1301 340.985 19.4579C340.985 19.7856 341.114 20.1003 341.343 20.334C341.573 20.5678 341.885 20.702 342.213 20.7077L356.886 20.7077L339.579 38.0141C339.345 38.2485 339.213 38.5665 339.213 38.898C339.213 39.2295 339.345 39.5475 339.579 39.7819C339.814 40.0163 340.131 40.148 340.463 40.148C340.795 40.148 341.112 40.0163 341.347 39.7819L358.653 22.4754L358.653 37.1479C358.659 37.4756 358.793 37.788 359.027 38.0177C359.261 38.2475 359.575 38.3762 359.903 38.3762C360.231 38.3762 360.546 38.2475 360.779 38.0177C361.013 37.788 361.147 37.4756 361.153 37.1479V19.4702C361.153 19.1388 361.021 18.8209 360.787 18.5866C360.552 18.3522 360.235 18.2205 359.903 18.2204L342.225 18.2204L342.213 18.2081Z" fill="white"/>
<path d="M22.386 125V117.104C22.386 116.32 22.6147 115.695 23.072 115.228C23.5387 114.752 24.2013 114.514 25.06 114.514C25.368 114.514 25.6573 114.547 25.928 114.612C26.208 114.677 26.4413 114.78 26.628 114.92L26.152 116.236C26.0213 116.133 25.872 116.059 25.704 116.012C25.536 115.956 25.3633 115.928 25.186 115.928C24.822 115.928 24.5467 116.031 24.36 116.236C24.1733 116.432 24.08 116.731 24.08 117.132V117.972L24.136 118.756V125H22.386ZM21.154 118.98V117.58H26.138V118.98H21.154ZM31.88 125.098C31.2453 125.098 30.6853 124.981 30.2 124.748C29.7146 124.505 29.3366 124.141 29.066 123.656C28.7953 123.161 28.66 122.541 28.66 121.794V117.524H30.41V121.556C30.41 122.228 30.5593 122.732 30.858 123.068C31.166 123.395 31.6 123.558 32.16 123.558C32.5706 123.558 32.9253 123.474 33.224 123.306C33.532 123.138 33.77 122.886 33.938 122.55C34.1153 122.214 34.204 121.799 34.204 121.304V117.524H35.954V125H34.288V122.984L34.582 123.6C34.33 124.085 33.9613 124.459 33.476 124.72C32.9906 124.972 32.4586 125.098 31.88 125.098ZM43.8873 117.44C44.4846 117.44 45.0166 117.557 45.4833 117.79C45.9593 118.023 46.3326 118.383 46.6033 118.868C46.8739 119.344 47.0093 119.96 47.0093 120.716V125H45.2593V120.94C45.2593 120.277 45.1006 119.783 44.7833 119.456C44.4753 119.129 44.0413 118.966 43.4813 118.966C43.0706 118.966 42.7066 119.05 42.3893 119.218C42.0719 119.386 41.8246 119.638 41.6473 119.974C41.4793 120.301 41.3953 120.716 41.3953 121.22V125H39.6453V117.524H41.3113V119.54L41.0173 118.924C41.2786 118.448 41.6566 118.084 42.1513 117.832C42.6553 117.571 43.2339 117.44 43.8873 117.44ZM54.0729 125.098C53.2889 125.098 52.5889 124.935 51.9729 124.608C51.3663 124.272 50.8903 123.815 50.5449 123.236C50.1996 122.657 50.0269 121.999 50.0269 121.262C50.0269 120.515 50.1996 119.857 50.5449 119.288C50.8903 118.709 51.3663 118.257 51.9729 117.93C52.5889 117.603 53.2889 117.44 54.0729 117.44C54.8009 117.44 55.4403 117.589 55.9909 117.888C56.5509 118.177 56.9756 118.607 57.2649 119.176L55.9209 119.96C55.6969 119.605 55.4216 119.344 55.0949 119.176C54.7776 119.008 54.4323 118.924 54.0589 118.924C53.6296 118.924 53.2423 119.017 52.8969 119.204C52.5516 119.391 52.2809 119.661 52.0849 120.016C51.8889 120.361 51.7909 120.777 51.7909 121.262C51.7909 121.747 51.8889 122.167 52.0849 122.522C52.2809 122.867 52.5516 123.133 52.8969 123.32C53.2423 123.507 53.6296 123.6 54.0589 123.6C54.4323 123.6 54.7776 123.516 55.0949 123.348C55.4216 123.18 55.6969 122.919 55.9209 122.564L57.2649 123.348C56.9756 123.908 56.5509 124.342 55.9909 124.65C55.4403 124.949 54.8009 125.098 54.0729 125.098ZM63.0874 125.098C62.2661 125.098 61.6314 124.888 61.1834 124.468C60.7354 124.039 60.5114 123.409 60.5114 122.578V115.872H62.2614V122.536C62.2614 122.891 62.3501 123.166 62.5274 123.362C62.7141 123.558 62.9707 123.656 63.2974 123.656C63.6894 123.656 64.0161 123.553 64.2774 123.348L64.7674 124.594C64.5621 124.762 64.3101 124.888 64.0114 124.972C63.7127 125.056 63.4047 125.098 63.0874 125.098ZM59.2794 118.98V117.58H64.2634V118.98H59.2794ZM67.607 125V117.524H69.357V125H67.607ZM68.489 116.292C68.1623 116.292 67.8917 116.189 67.677 115.984C67.4717 115.779 67.369 115.531 67.369 115.242C67.369 114.943 67.4717 114.696 67.677 114.5C67.8917 114.295 68.1623 114.192 68.489 114.192C68.8157 114.192 69.0817 114.29 69.287 114.486C69.5017 114.673 69.609 114.911 69.609 115.2C69.609 115.508 69.5063 115.769 69.301 115.984C69.0957 116.189 68.825 116.292 68.489 116.292ZM76.4139 125.098C75.6485 125.098 74.9672 124.935 74.3699 124.608C73.7725 124.272 73.3012 123.815 72.9559 123.236C72.6105 122.657 72.4379 121.999 72.4379 121.262C72.4379 120.515 72.6105 119.857 72.9559 119.288C73.3012 118.709 73.7725 118.257 74.3699 117.93C74.9672 117.603 75.6485 117.44 76.4139 117.44C77.1885 117.44 77.8745 117.603 78.4719 117.93C79.0785 118.257 79.5499 118.705 79.8859 119.274C80.2312 119.843 80.4039 120.506 80.4039 121.262C80.4039 121.999 80.2312 122.657 79.8859 123.236C79.5499 123.815 79.0785 124.272 78.4719 124.608C77.8745 124.935 77.1885 125.098 76.4139 125.098ZM76.4139 123.6C76.8432 123.6 77.2259 123.507 77.5619 123.32C77.8979 123.133 78.1592 122.863 78.3459 122.508C78.5419 122.153 78.6399 121.738 78.6399 121.262C78.6399 120.777 78.5419 120.361 78.3459 120.016C78.1592 119.661 77.8979 119.391 77.5619 119.204C77.2259 119.017 76.8479 118.924 76.4279 118.924C75.9985 118.924 75.6159 119.017 75.2799 119.204C74.9532 119.391 74.6919 119.661 74.4959 120.016C74.2999 120.361 74.2019 120.777 74.2019 121.262C74.2019 121.738 74.2999 122.153 74.4959 122.508C74.6919 122.863 74.9532 123.133 75.2799 123.32C75.6159 123.507 75.9939 123.6 76.4139 123.6ZM87.7193 117.44C88.3166 117.44 88.8486 117.557 89.3153 117.79C89.7913 118.023 90.1646 118.383 90.4353 118.868C90.706 119.344 90.8413 119.96 90.8413 120.716V125H89.0913V120.94C89.0913 120.277 88.9326 119.783 88.6153 119.456C88.3073 119.129 87.8733 118.966 87.3133 118.966C86.9026 118.966 86.5386 119.05 86.2213 119.218C85.904 119.386 85.6566 119.638 85.4793 119.974C85.3113 120.301 85.2273 120.716 85.2273 121.22V125H83.4773V117.524H85.1433V119.54L84.8493 118.924C85.1106 118.448 85.4886 118.084 85.9833 117.832C86.4873 117.571 87.066 117.44 87.7193 117.44ZM334.889 127.716C334.339 126.867 333.914 125.887 333.615 124.776C333.326 123.656 333.181 122.452 333.181 121.164C333.181 119.876 333.326 118.672 333.615 117.552C333.914 116.423 334.339 115.443 334.889 114.612H336.555C335.986 115.639 335.566 116.689 335.295 117.762C335.034 118.826 334.903 119.96 334.903 121.164C334.903 122.368 335.034 123.507 335.295 124.58C335.566 125.644 335.986 126.689 336.555 127.716H334.889ZM340.233 127.716H338.567C339.146 126.689 339.566 125.644 339.827 124.58C340.098 123.507 340.233 122.368 340.233 121.164C340.233 119.96 340.098 118.826 339.827 117.762C339.566 116.689 339.146 115.639 338.567 114.612H340.233C340.793 115.443 341.218 116.423 341.507 117.552C341.796 118.672 341.941 119.876 341.941 121.164C341.941 122.452 341.796 123.656 341.507 124.776C341.218 125.887 340.793 126.867 340.233 127.716ZM25.242 144.716C24.458 144.716 23.8653 144.52 23.464 144.128C23.0627 143.736 22.862 143.171 22.862 142.434V139.55C22.862 139.317 22.806 139.149 22.694 139.046C22.582 138.934 22.428 138.878 22.232 138.878H21.77V137.45H22.232C22.428 137.45 22.582 137.394 22.694 137.282C22.806 137.17 22.862 137.002 22.862 136.778V133.894C22.862 133.147 23.0627 132.583 23.464 132.2C23.8653 131.808 24.458 131.612 25.242 131.612H25.942V133.012H25.648C25.3027 133.012 25.0413 133.105 24.864 133.292C24.696 133.479 24.612 133.74 24.612 134.076V136.736C24.612 137.109 24.5653 137.399 24.472 137.604C24.3787 137.809 24.2293 137.963 24.024 138.066C23.828 138.159 23.5713 138.229 23.254 138.276V138.052C23.5713 138.089 23.828 138.159 24.024 138.262C24.2293 138.365 24.3787 138.519 24.472 138.724C24.5653 138.929 24.612 139.219 24.612 139.592V142.252C24.612 142.588 24.696 142.849 24.864 143.036C25.0413 143.223 25.3027 143.316 25.648 143.316H25.942V144.716H25.242ZM31.3449 159V151.524H33.0109V153.582L32.8149 152.98C33.0389 152.476 33.3889 152.093 33.8649 151.832C34.3502 151.571 34.9522 151.44 35.6709 151.44V153.106C35.5962 153.087 35.5262 153.078 35.4609 153.078C35.3955 153.069 35.3302 153.064 35.2649 153.064C34.6022 153.064 34.0749 153.26 33.6829 153.652C33.2909 154.035 33.0949 154.609 33.0949 155.374V159H31.3449ZM42.0011 159.098C41.1704 159.098 40.4424 158.935 39.8171 158.608C39.2011 158.272 38.7204 157.815 38.3751 157.236C38.0391 156.657 37.8711 155.999 37.8711 155.262C37.8711 154.515 38.0344 153.857 38.3611 153.288C38.6971 152.709 39.1544 152.257 39.7331 151.93C40.3211 151.603 40.9884 151.44 41.7351 151.44C42.4631 151.44 43.1117 151.599 43.6811 151.916C44.2504 152.233 44.6984 152.681 45.0251 153.26C45.3517 153.839 45.5151 154.52 45.5151 155.304C45.5151 155.379 45.5104 155.463 45.5011 155.556C45.5011 155.649 45.4964 155.738 45.4871 155.822H39.2571V154.66H44.5631L43.8771 155.024C43.8864 154.595 43.7977 154.217 43.6111 153.89C43.4244 153.563 43.1677 153.307 42.8411 153.12C42.5237 152.933 42.1551 152.84 41.7351 152.84C41.3057 152.84 40.9277 152.933 40.6011 153.12C40.2837 153.307 40.0317 153.568 39.8451 153.904C39.6677 154.231 39.5791 154.618 39.5791 155.066V155.346C39.5791 155.794 39.6817 156.191 39.8871 156.536C40.0924 156.881 40.3817 157.147 40.7551 157.334C41.1284 157.521 41.5577 157.614 42.0431 157.614C42.4631 157.614 42.8411 157.549 43.1771 157.418C43.5131 157.287 43.8117 157.082 44.0731 156.802L45.0111 157.88C44.6751 158.272 44.2504 158.575 43.7371 158.79C43.2331 158.995 42.6544 159.098 42.0011 159.098ZM51.41 159.098C50.5887 159.098 49.954 158.888 49.506 158.468C49.058 158.039 48.834 157.409 48.834 156.578V149.872H50.584V156.536C50.584 156.891 50.6727 157.166 50.85 157.362C51.0367 157.558 51.2934 157.656 51.62 157.656C52.012 157.656 52.3387 157.553 52.6 157.348L53.09 158.594C52.8847 158.762 52.6327 158.888 52.334 158.972C52.0354 159.056 51.7274 159.098 51.41 159.098ZM47.602 152.98V151.58H52.586V152.98H47.602ZM59.0936 159.098C58.459 159.098 57.899 158.981 57.4136 158.748C56.9283 158.505 56.5503 158.141 56.2796 157.656C56.009 157.161 55.8736 156.541 55.8736 155.794V151.524H57.6236V155.556C57.6236 156.228 57.773 156.732 58.0716 157.068C58.3796 157.395 58.8136 157.558 59.3736 157.558C59.7843 157.558 60.139 157.474 60.4376 157.306C60.7456 157.138 60.9836 156.886 61.1516 156.55C61.329 156.214 61.4176 155.799 61.4176 155.304V151.524H63.1676V159H61.5016V156.984L61.7956 157.6C61.5436 158.085 61.175 158.459 60.6896 158.72C60.2043 158.972 59.6723 159.098 59.0936 159.098ZM66.8589 159V151.524H68.5249V153.582L68.3289 152.98C68.5529 152.476 68.9029 152.093 69.3789 151.832C69.8643 151.571 70.4663 151.44 71.1849 151.44V153.106C71.1103 153.087 71.0403 153.078 70.9749 153.078C70.9096 153.069 70.8443 153.064 70.7789 153.064C70.1163 153.064 69.5889 153.26 69.1969 153.652C68.8049 154.035 68.6089 154.609 68.6089 155.374V159H66.8589ZM78.3115 151.44C78.9088 151.44 79.4408 151.557 79.9075 151.79C80.3835 152.023 80.7568 152.383 81.0275 152.868C81.2982 153.344 81.4335 153.96 81.4335 154.716V159H79.6835V154.94C79.6835 154.277 79.5248 153.783 79.2075 153.456C78.8995 153.129 78.4655 152.966 77.9055 152.966C77.4948 152.966 77.1308 153.05 76.8135 153.218C76.4962 153.386 76.2488 153.638 76.0715 153.974C75.9035 154.301 75.8195 154.716 75.8195 155.22V159H74.0695V151.524H75.7355V153.54L75.4415 152.924C75.7028 152.448 76.0808 152.084 76.5755 151.832C77.0795 151.571 77.6582 151.44 78.3115 151.44ZM90.4906 161.716V148.612H93.8366V150.012H92.2406V160.316H93.8366V161.716H90.4906ZM96.5155 153.078L96.4035 149.2H97.9155L97.7895 153.078H96.5155ZM99.2175 153.078L99.1055 149.2H100.618L100.492 153.078H99.2175ZM107.465 159.098C106.634 159.098 105.906 158.935 105.281 158.608C104.665 158.272 104.184 157.815 103.839 157.236C103.503 156.657 103.335 155.999 103.335 155.262C103.335 154.515 103.498 153.857 103.825 153.288C104.161 152.709 104.618 152.257 105.197 151.93C105.785 151.603 106.452 151.44 107.199 151.44C107.927 151.44 108.575 151.599 109.145 151.916C109.714 152.233 110.162 152.681 110.489 153.26C110.815 153.839 110.979 154.52 110.979 155.304C110.979 155.379 110.974 155.463 110.965 155.556C110.965 155.649 110.96 155.738 110.951 155.822H104.721V154.66H110.027L109.341 155.024C109.35 154.595 109.261 154.217 109.075 153.89C108.888 153.563 108.631 153.307 108.305 153.12C107.987 152.933 107.619 152.84 107.199 152.84C106.769 152.84 106.391 152.933 106.065 153.12C105.747 153.307 105.495 153.568 105.309 153.904C105.131 154.231 105.043 154.618 105.043 155.066V155.346C105.043 155.794 105.145 156.191 105.351 156.536C105.556 156.881 105.845 157.147 106.219 157.334C106.592 157.521 107.021 157.614 107.507 157.614C107.927 157.614 108.305 157.549 108.641 157.418C108.977 157.287 109.275 157.082 109.537 156.802L110.475 157.88C110.139 158.272 109.714 158.575 109.201 158.79C108.697 158.995 108.118 159.098 107.465 159.098ZM123.496 151.44C124.093 151.44 124.62 151.557 125.078 151.79C125.544 152.023 125.908 152.383 126.17 152.868C126.431 153.344 126.562 153.96 126.562 154.716V159H124.812V154.94C124.812 154.277 124.667 153.783 124.378 153.456C124.088 153.129 123.673 152.966 123.132 152.966C122.749 152.966 122.408 153.05 122.11 153.218C121.82 153.386 121.592 153.633 121.424 153.96C121.265 154.287 121.186 154.702 121.186 155.206V159H119.436V154.94C119.436 154.277 119.291 153.783 119.002 153.456C118.712 153.129 118.297 152.966 117.756 152.966C117.373 152.966 117.032 153.05 116.734 153.218C116.444 153.386 116.216 153.633 116.048 153.96C115.889 154.287 115.81 154.702 115.81 155.206V159H114.06V151.524H115.726V153.512L115.432 152.924C115.684 152.439 116.048 152.07 116.524 151.818C117.009 151.566 117.56 151.44 118.176 151.44C118.876 151.44 119.482 151.613 119.996 151.958C120.518 152.303 120.864 152.826 121.032 153.526L120.346 153.288C120.588 152.728 120.99 152.28 121.55 151.944C122.11 151.608 122.758 151.44 123.496 151.44ZM134.804 159V157.488L134.706 157.166V154.52C134.706 154.007 134.552 153.61 134.244 153.33C133.936 153.041 133.469 152.896 132.844 152.896C132.424 152.896 132.009 152.961 131.598 153.092C131.197 153.223 130.856 153.405 130.576 153.638L129.89 152.364C130.291 152.056 130.767 151.827 131.318 151.678C131.878 151.519 132.457 151.44 133.054 151.44C134.137 151.44 134.972 151.701 135.56 152.224C136.157 152.737 136.456 153.535 136.456 154.618V159H134.804ZM132.452 159.098C131.892 159.098 131.402 159.005 130.982 158.818C130.562 158.622 130.235 158.356 130.002 158.02C129.778 157.675 129.666 157.287 129.666 156.858C129.666 156.438 129.764 156.06 129.96 155.724C130.165 155.388 130.497 155.122 130.954 154.926C131.411 154.73 132.018 154.632 132.774 154.632H134.944V155.794H132.9C132.303 155.794 131.901 155.892 131.696 156.088C131.491 156.275 131.388 156.508 131.388 156.788C131.388 157.105 131.514 157.357 131.766 157.544C132.018 157.731 132.368 157.824 132.816 157.824C133.245 157.824 133.628 157.726 133.964 157.53C134.309 157.334 134.557 157.045 134.706 156.662L135 157.712C134.832 158.151 134.529 158.491 134.09 158.734C133.661 158.977 133.115 159.098 132.452 159.098ZM140.102 159V151.524H141.852V159H140.102ZM140.984 150.292C140.657 150.292 140.387 150.189 140.172 149.984C139.967 149.779 139.864 149.531 139.864 149.242C139.864 148.943 139.967 148.696 140.172 148.5C140.387 148.295 140.657 148.192 140.984 148.192C141.311 148.192 141.577 148.29 141.782 148.486C141.997 148.673 142.104 148.911 142.104 149.2C142.104 149.508 142.001 149.769 141.796 149.984C141.591 150.189 141.32 150.292 140.984 150.292ZM145.549 159V148.612H147.299V159H145.549ZM150.744 153.078L150.632 149.2H152.144L152.018 153.078H150.744ZM153.446 153.078L153.334 149.2H154.846L154.72 153.078H153.446ZM156.951 161.114L157.763 158.02L158.001 159.056C157.675 159.056 157.399 158.958 157.175 158.762C156.961 158.557 156.853 158.281 156.853 157.936C156.853 157.581 156.961 157.301 157.175 157.096C157.399 156.881 157.67 156.774 157.987 156.774C158.314 156.774 158.585 156.881 158.799 157.096C159.014 157.311 159.121 157.591 159.121 157.936C159.121 158.029 159.112 158.132 159.093 158.244C159.075 158.347 159.042 158.468 158.995 158.608C158.958 158.748 158.893 158.925 158.799 159.14L158.085 161.114H156.951ZM167.248 153.078L167.136 149.2H168.648L168.522 153.078H167.248ZM169.95 153.078L169.838 149.2H171.35L171.224 153.078H169.95ZM174.852 159V149.2H176.672V157.46H181.796V159H174.852ZM184.464 159V151.524H186.214V159H184.464ZM185.346 150.292C185.02 150.292 184.749 150.189 184.534 149.984C184.329 149.779 184.226 149.531 184.226 149.242C184.226 148.943 184.329 148.696 184.534 148.5C184.749 148.295 185.02 148.192 185.346 148.192C185.673 148.192 185.939 148.29 186.144 148.486C186.359 148.673 186.466 148.911 186.466 149.2C186.466 149.508 186.364 149.769 186.158 149.984C185.953 150.189 185.682 150.292 185.346 150.292ZM194.153 151.44C194.751 151.44 195.283 151.557 195.749 151.79C196.225 152.023 196.599 152.383 196.869 152.868C197.14 153.344 197.275 153.96 197.275 154.716V159H195.525V154.94C195.525 154.277 195.367 153.783 195.049 153.456C194.741 153.129 194.307 152.966 193.747 152.966C193.337 152.966 192.973 153.05 192.655 153.218C192.338 153.386 192.091 153.638 191.913 153.974C191.745 154.301 191.661 154.716 191.661 155.22V159H189.911V151.524H191.577V153.54L191.283 152.924C191.545 152.448 191.923 152.084 192.417 151.832C192.921 151.571 193.5 151.44 194.153 151.44ZM202.323 157.334L202.365 155.136L206.271 151.524H208.371L205.053 154.856L204.129 155.626L202.323 157.334ZM200.895 159V148.612H202.645V159H200.895ZM206.537 159L203.807 155.626L204.913 154.226L208.665 159H206.537ZM214.409 159.098C213.578 159.098 212.85 158.935 212.225 158.608C211.609 158.272 211.128 157.815 210.783 157.236C210.447 156.657 210.279 155.999 210.279 155.262C210.279 154.515 210.442 153.857 210.769 153.288C211.105 152.709 211.562 152.257 212.141 151.93C212.729 151.603 213.396 151.44 214.143 151.44C214.871 151.44 215.52 151.599 216.089 151.916C216.658 152.233 217.106 152.681 217.433 153.26C217.76 153.839 217.923 154.52 217.923 155.304C217.923 155.379 217.918 155.463 217.909 155.556C217.909 155.649 217.904 155.738 217.895 155.822H211.665V154.66H216.971L216.285 155.024C216.294 154.595 216.206 154.217 216.019 153.89C215.832 153.563 215.576 153.307 215.249 153.12C214.932 152.933 214.563 152.84 214.143 152.84C213.714 152.84 213.336 152.933 213.009 153.12C212.692 153.307 212.44 153.568 212.253 153.904C212.076 154.231 211.987 154.618 211.987 155.066V155.346C211.987 155.794 212.09 156.191 212.295 156.536C212.5 156.881 212.79 157.147 213.163 157.334C213.536 157.521 213.966 157.614 214.451 157.614C214.871 157.614 215.249 157.549 215.585 157.418C215.921 157.287 216.22 157.082 216.481 156.802L217.419 157.88C217.083 158.272 216.658 158.575 216.145 158.79C215.641 158.995 215.062 159.098 214.409 159.098ZM224.168 159.098C223.449 159.098 222.801 158.939 222.222 158.622C221.653 158.295 221.205 157.847 220.878 157.278C220.551 156.709 220.388 156.037 220.388 155.262C220.388 154.487 220.551 153.815 220.878 153.246C221.205 152.677 221.653 152.233 222.222 151.916C222.801 151.599 223.449 151.44 224.168 151.44C224.793 151.44 225.353 151.58 225.848 151.86C226.343 152.131 226.735 152.546 227.024 153.106C227.313 153.666 227.458 154.385 227.458 155.262C227.458 156.13 227.318 156.849 227.038 157.418C226.758 157.978 226.371 158.398 225.876 158.678C225.381 158.958 224.812 159.098 224.168 159.098ZM224.378 157.6C224.798 157.6 225.171 157.507 225.498 157.32C225.834 157.133 226.1 156.863 226.296 156.508C226.501 156.153 226.604 155.738 226.604 155.262C226.604 154.777 226.501 154.361 226.296 154.016C226.1 153.661 225.834 153.391 225.498 153.204C225.171 153.017 224.798 152.924 224.378 152.924C223.958 152.924 223.58 153.017 223.244 153.204C222.917 153.391 222.651 153.661 222.446 154.016C222.25 154.361 222.152 154.777 222.152 155.262C222.152 155.738 222.25 156.153 222.446 156.508C222.651 156.863 222.917 157.133 223.244 157.32C223.58 157.507 223.958 157.6 224.378 157.6ZM226.646 159V157.236L226.716 155.248L226.576 153.26V148.612H228.312V159H226.646ZM232.183 159V149.2H234.003V159H232.183ZM242.128 151.44C242.725 151.44 243.257 151.557 243.724 151.79C244.2 152.023 244.573 152.383 244.844 152.868C245.115 153.344 245.25 153.96 245.25 154.716V159H243.5V154.94C243.5 154.277 243.341 153.783 243.024 153.456C242.716 153.129 242.282 152.966 241.722 152.966C241.311 152.966 240.947 153.05 240.63 153.218C240.313 153.386 240.065 153.638 239.888 153.974C239.72 154.301 239.636 154.716 239.636 155.22V159H237.886V151.524H239.552V153.54L239.258 152.924C239.519 152.448 239.897 152.084 240.392 151.832C240.896 151.571 241.475 151.44 242.128 151.44ZM248.618 153.078L248.506 149.2H250.018L249.892 153.078H248.618ZM251.32 153.078L251.208 149.2H252.72L252.594 153.078H251.32ZM254.825 161.114L255.637 158.02L255.875 159.056C255.549 159.056 255.273 158.958 255.049 158.762C254.835 158.557 254.727 158.281 254.727 157.936C254.727 157.581 254.835 157.301 255.049 157.096C255.273 156.881 255.544 156.774 255.861 156.774C256.188 156.774 256.459 156.881 256.673 157.096C256.888 157.311 256.995 157.591 256.995 157.936C256.995 158.029 256.986 158.132 256.967 158.244C256.949 158.347 256.916 158.468 256.869 158.608C256.832 158.748 256.767 158.925 256.673 159.14L255.959 161.114H254.825ZM265.123 153.078L265.011 149.2H266.523L266.397 153.078H265.123ZM267.825 153.078L267.713 149.2H269.225L269.099 153.078H267.825ZM277.304 159.14C276.538 159.14 275.834 159.019 275.19 158.776C274.555 158.524 274 158.174 273.524 157.726C273.048 157.269 272.679 156.732 272.418 156.116C272.156 155.5 272.026 154.828 272.026 154.1C272.026 153.372 272.156 152.7 272.418 152.084C272.679 151.468 273.048 150.936 273.524 150.488C274.009 150.031 274.574 149.681 275.218 149.438C275.862 149.186 276.566 149.06 277.332 149.06C278.162 149.06 278.909 149.195 279.572 149.466C280.244 149.737 280.808 150.133 281.266 150.656L280.118 151.776C279.735 151.393 279.32 151.113 278.872 150.936C278.433 150.749 277.948 150.656 277.416 150.656C276.902 150.656 276.426 150.74 275.988 150.908C275.549 151.076 275.171 151.314 274.854 151.622C274.536 151.93 274.289 152.294 274.112 152.714C273.944 153.134 273.86 153.596 273.86 154.1C273.86 154.595 273.944 155.052 274.112 155.472C274.289 155.892 274.536 156.261 274.854 156.578C275.171 156.886 275.544 157.124 275.974 157.292C276.403 157.46 276.879 157.544 277.402 157.544C277.887 157.544 278.354 157.469 278.802 157.32C279.259 157.161 279.693 156.9 280.104 156.536L281.14 157.894C280.626 158.305 280.029 158.617 279.348 158.832C278.676 159.037 277.994 159.14 277.304 159.14ZM279.418 157.656V153.988H281.14V157.894L279.418 157.656ZM284.772 159V151.524H286.522V159H284.772ZM285.654 150.292C285.328 150.292 285.057 150.189 284.842 149.984C284.637 149.779 284.534 149.531 284.534 149.242C284.534 148.943 284.637 148.696 284.842 148.5C285.057 148.295 285.328 148.192 285.654 148.192C285.981 148.192 286.247 148.29 286.452 148.486C286.667 148.673 286.774 148.911 286.774 149.2C286.774 149.508 286.672 149.769 286.466 149.984C286.261 150.189 285.99 150.292 285.654 150.292ZM293.033 159.098C292.212 159.098 291.577 158.888 291.129 158.468C290.681 158.039 290.457 157.409 290.457 156.578V149.872H292.207V156.536C292.207 156.891 292.296 157.166 292.473 157.362C292.66 157.558 292.916 157.656 293.243 157.656C293.635 157.656 293.962 157.553 294.223 157.348L294.713 158.594C294.508 158.762 294.256 158.888 293.957 158.972C293.658 159.056 293.35 159.098 293.033 159.098ZM289.225 152.98V151.58H294.209V152.98H289.225ZM304.609 149.2H306.429V159H304.609V149.2ZM299.541 159H297.721V149.2H299.541V159ZM304.749 154.8H299.387V153.246H304.749V154.8ZM313.451 159.098C312.816 159.098 312.256 158.981 311.771 158.748C311.285 158.505 310.907 158.141 310.637 157.656C310.366 157.161 310.231 156.541 310.231 155.794V151.524H311.981V155.556C311.981 156.228 312.13 156.732 312.429 157.068C312.737 157.395 313.171 157.558 313.731 157.558C314.141 157.558 314.496 157.474 314.795 157.306C315.103 157.138 315.341 156.886 315.509 156.55C315.686 156.214 315.775 155.799 315.775 155.304V151.524H317.525V159H315.859V156.984L316.153 157.6C315.901 158.085 315.532 158.459 315.047 158.72C314.561 158.972 314.029 159.098 313.451 159.098ZM325.36 159.098C324.725 159.098 324.161 158.958 323.666 158.678C323.171 158.398 322.779 157.978 322.49 157.418C322.21 156.849 322.07 156.13 322.07 155.262C322.07 154.385 322.215 153.666 322.504 153.106C322.803 152.546 323.199 152.131 323.694 151.86C324.198 151.58 324.753 151.44 325.36 151.44C326.097 151.44 326.746 151.599 327.306 151.916C327.875 152.233 328.323 152.677 328.65 153.246C328.986 153.815 329.154 154.487 329.154 155.262C329.154 156.037 328.986 156.709 328.65 157.278C328.323 157.847 327.875 158.295 327.306 158.622C326.746 158.939 326.097 159.098 325.36 159.098ZM321.216 159V148.612H322.966V153.26L322.826 155.248L322.882 157.236V159H321.216ZM325.164 157.6C325.584 157.6 325.957 157.507 326.284 157.32C326.62 157.133 326.886 156.863 327.082 156.508C327.278 156.153 327.376 155.738 327.376 155.262C327.376 154.777 327.278 154.361 327.082 154.016C326.886 153.661 326.62 153.391 326.284 153.204C325.957 153.017 325.584 152.924 325.164 152.924C324.744 152.924 324.366 153.017 324.03 153.204C323.694 153.391 323.428 153.661 323.232 154.016C323.036 154.361 322.938 154.777 322.938 155.262C322.938 155.738 323.036 156.153 323.232 156.508C323.428 156.863 323.694 157.133 324.03 157.32C324.366 157.507 324.744 157.6 325.164 157.6ZM331.757 153.078L331.645 149.2H333.157L333.031 153.078H331.757ZM334.459 153.078L334.347 149.2H335.859L335.733 153.078H334.459ZM341.764 161.716H338.432V160.316H340.014V150.012H338.432V148.612H341.764V161.716ZM346.197 153.764C345.879 153.764 345.609 153.657 345.385 153.442C345.161 153.218 345.049 152.938 345.049 152.602C345.049 152.247 345.161 151.967 345.385 151.762C345.609 151.547 345.879 151.44 346.197 151.44C346.514 151.44 346.785 151.547 347.009 151.762C347.233 151.967 347.345 152.247 347.345 152.602C347.345 152.938 347.233 153.218 347.009 153.442C346.785 153.657 346.514 153.764 346.197 153.764ZM345.175 161.114L345.987 158.02L346.225 159.056C345.898 159.056 345.623 158.958 345.399 158.762C345.184 158.557 345.077 158.281 345.077 157.936C345.077 157.581 345.184 157.301 345.399 157.096C345.623 156.881 345.893 156.774 346.211 156.774C346.537 156.774 346.808 156.881 347.023 157.096C347.237 157.311 347.345 157.591 347.345 157.936C347.345 158.029 347.335 158.132 347.317 158.244C347.298 158.347 347.265 158.468 347.219 158.608C347.181 158.748 347.116 158.925 347.023 159.14L346.309 161.114H345.175ZM21.938 178.716H21.238V177.316H21.532C21.8867 177.316 22.148 177.223 22.316 177.036C22.4933 176.849 22.582 176.588 22.582 176.252V173.592C22.582 173.219 22.6287 172.929 22.722 172.724C22.8247 172.519 22.974 172.365 23.17 172.262C23.366 172.159 23.618 172.089 23.926 172.052V172.276C23.618 172.229 23.366 172.159 23.17 172.066C22.974 171.963 22.8247 171.809 22.722 171.604C22.6287 171.399 22.582 171.109 22.582 170.736V168.076C22.582 167.74 22.4933 167.479 22.316 167.292C22.148 167.105 21.8867 167.012 21.532 167.012H21.238V165.612H21.938C22.7313 165.612 23.3287 165.808 23.73 166.2C24.1313 166.583 24.332 167.147 24.332 167.894V170.778C24.332 171.002 24.388 171.17 24.5 171.282C24.612 171.394 24.7613 171.45 24.948 171.45H25.424V172.878H24.948C24.7613 172.878 24.612 172.934 24.5 173.046C24.388 173.149 24.332 173.317 24.332 173.55V176.434C24.332 177.171 24.1313 177.736 23.73 178.128C23.3287 178.52 22.7313 178.716 21.938 178.716Z" fill="#620B58"/>
<path d="M122.264 107.528C123.629 107.528 124.834 107.805 125.88 108.36C126.946 108.893 127.778 109.725 128.376 110.856C128.994 111.965 129.304 113.395 129.304 115.144V125H124.312V115.912C124.312 114.525 124.024 113.501 123.448 112.84C122.872 112.179 122.061 111.848 121.016 111.848C120.29 111.848 119.64 112.019 119.064 112.36C118.488 112.68 118.04 113.171 117.72 113.832C117.4 114.493 117.24 115.336 117.24 116.36V125H112.248V115.912C112.248 114.525 111.96 113.501 111.384 112.84C110.829 112.179 110.029 111.848 108.984 111.848C108.258 111.848 107.608 112.019 107.032 112.36C106.456 112.68 106.008 113.171 105.688 113.832C105.368 114.493 105.208 115.336 105.208 116.36V125H100.216V107.784H104.984V112.488L104.088 111.112C104.685 109.939 105.528 109.053 106.616 108.456C107.725 107.837 108.984 107.528 110.392 107.528C111.97 107.528 113.346 107.933 114.52 108.744C115.714 109.533 116.504 110.749 116.888 112.392L115.128 111.912C115.704 110.568 116.621 109.501 117.88 108.712C119.16 107.923 120.621 107.528 122.264 107.528ZM138.842 131.464C137.946 131.464 137.06 131.325 136.186 131.048C135.311 130.771 134.596 130.387 134.042 129.896L135.866 126.344C136.25 126.685 136.687 126.952 137.178 127.144C137.69 127.336 138.191 127.432 138.682 127.432C139.386 127.432 139.94 127.261 140.346 126.92C140.772 126.6 141.156 126.056 141.498 125.288L142.394 123.176L142.778 122.632L148.954 107.784H153.754L145.978 126.056C145.423 127.443 144.783 128.531 144.058 129.32C143.354 130.109 142.564 130.664 141.69 130.984C140.836 131.304 139.887 131.464 138.842 131.464ZM141.786 125.672L134.106 107.784H139.258L145.21 122.184L141.786 125.672ZM169.969 125.384C168.241 125.384 166.63 125.107 165.137 124.552C163.665 123.976 162.385 123.165 161.297 122.12C160.209 121.075 159.356 119.848 158.737 118.44C158.14 117.032 157.841 115.485 157.841 113.8C157.841 112.115 158.14 110.568 158.737 109.16C159.356 107.752 160.209 106.525 161.297 105.48C162.406 104.435 163.697 103.635 165.169 103.08C166.641 102.504 168.252 102.216 170.001 102.216C171.942 102.216 173.692 102.557 175.249 103.24C176.828 103.901 178.15 104.883 179.217 106.184L175.889 109.256C175.121 108.381 174.268 107.731 173.329 107.304C172.39 106.856 171.366 106.632 170.257 106.632C169.212 106.632 168.252 106.803 167.377 107.144C166.502 107.485 165.745 107.976 165.105 108.616C164.465 109.256 163.964 110.013 163.601 110.888C163.26 111.763 163.089 112.733 163.089 113.8C163.089 114.867 163.26 115.837 163.601 116.712C163.964 117.587 164.465 118.344 165.105 118.984C165.745 119.624 166.502 120.115 167.377 120.456C168.252 120.797 169.212 120.968 170.257 120.968C171.366 120.968 172.39 120.755 173.329 120.328C174.268 119.88 175.121 119.208 175.889 118.312L179.217 121.384C178.15 122.685 176.828 123.677 175.249 124.36C173.692 125.043 171.932 125.384 169.969 125.384ZM193.164 125.256C191.329 125.256 189.697 124.872 188.268 124.104C186.86 123.336 185.74 122.291 184.908 120.968C184.097 119.624 183.692 118.099 183.692 116.392C183.692 114.664 184.097 113.139 184.908 111.816C185.74 110.472 186.86 109.427 188.268 108.68C189.697 107.912 191.329 107.528 193.164 107.528C194.977 107.528 196.599 107.912 198.028 108.68C199.457 109.427 200.577 110.461 201.388 111.784C202.199 113.107 202.604 114.643 202.604 116.392C202.604 118.099 202.199 119.624 201.388 120.968C200.577 122.291 199.457 123.336 198.028 124.104C196.599 124.872 194.977 125.256 193.164 125.256ZM193.164 121.16C193.996 121.16 194.743 120.968 195.404 120.584C196.065 120.2 196.588 119.656 196.972 118.952C197.356 118.227 197.548 117.373 197.548 116.392C197.548 115.389 197.356 114.536 196.972 113.832C196.588 113.128 196.065 112.584 195.404 112.2C194.743 111.816 193.996 111.624 193.164 111.624C192.332 111.624 191.585 111.816 190.924 112.2C190.263 112.584 189.729 113.128 189.324 113.832C188.94 114.536 188.748 115.389 188.748 116.392C188.748 117.373 188.94 118.227 189.324 118.952C189.729 119.656 190.263 120.2 190.924 120.584C191.585 120.968 192.332 121.16 193.164 121.16ZM219.605 107.528C220.97 107.528 222.186 107.805 223.253 108.36C224.341 108.893 225.194 109.725 225.813 110.856C226.431 111.965 226.741 113.395 226.741 115.144V125H221.749V115.912C221.749 114.525 221.439 113.501 220.821 112.84C220.223 112.179 219.37 111.848 218.261 111.848C217.471 111.848 216.757 112.019 216.117 112.36C215.498 112.68 215.007 113.181 214.645 113.864C214.303 114.547 214.133 115.421 214.133 116.488V125H209.141V107.784H213.909V112.552L213.013 111.112C213.631 109.96 214.517 109.075 215.669 108.456C216.821 107.837 218.133 107.528 219.605 107.528ZM241.506 125.256C239.479 125.256 237.9 124.744 236.77 123.72C235.639 122.675 235.074 121.128 235.074 119.08V103.976H240.066V119.016C240.066 119.741 240.258 120.307 240.642 120.712C241.026 121.096 241.548 121.288 242.21 121.288C242.999 121.288 243.671 121.075 244.226 120.648L245.57 124.168C245.058 124.531 244.439 124.808 243.714 125C243.01 125.171 242.274 125.256 241.506 125.256ZM232.418 112.008V108.168H244.354V112.008H232.418ZM262.132 125V121.64L261.812 120.904V114.888C261.812 113.821 261.481 112.989 260.82 112.392C260.18 111.795 259.188 111.496 257.844 111.496C256.927 111.496 256.02 111.645 255.124 111.944C254.249 112.221 253.503 112.605 252.884 113.096L251.092 109.608C252.031 108.947 253.161 108.435 254.484 108.072C255.807 107.709 257.151 107.528 258.516 107.528C261.14 107.528 263.177 108.147 264.628 109.384C266.079 110.621 266.804 112.552 266.804 115.176V125H262.132ZM256.884 125.256C255.54 125.256 254.388 125.032 253.428 124.584C252.468 124.115 251.732 123.485 251.22 122.696C250.708 121.907 250.452 121.021 250.452 120.04C250.452 119.016 250.697 118.12 251.188 117.352C251.7 116.584 252.5 115.987 253.588 115.56C254.676 115.112 256.095 114.888 257.844 114.888H262.42V117.8H258.388C257.215 117.8 256.404 117.992 255.956 118.376C255.529 118.76 255.316 119.24 255.316 119.816C255.316 120.456 255.561 120.968 256.052 121.352C256.564 121.715 257.257 121.896 258.132 121.896C258.964 121.896 259.711 121.704 260.372 121.32C261.033 120.915 261.513 120.328 261.812 119.56L262.58 121.864C262.217 122.973 261.556 123.816 260.596 124.392C259.636 124.968 258.399 125.256 256.884 125.256ZM282.967 125.256C281.111 125.256 279.458 124.883 278.007 124.136C276.556 123.368 275.415 122.312 274.583 120.968C273.772 119.624 273.367 118.099 273.367 116.392C273.367 114.664 273.772 113.139 274.583 111.816C275.415 110.472 276.556 109.427 278.007 108.68C279.458 107.912 281.111 107.528 282.967 107.528C284.78 107.528 286.359 107.912 287.703 108.68C289.047 109.427 290.039 110.504 290.679 111.912L286.807 113.992C286.359 113.181 285.794 112.584 285.111 112.2C284.45 111.816 283.724 111.624 282.935 111.624C282.082 111.624 281.314 111.816 280.631 112.2C279.948 112.584 279.404 113.128 278.999 113.832C278.615 114.536 278.423 115.389 278.423 116.392C278.423 117.395 278.615 118.248 278.999 118.952C279.404 119.656 279.948 120.2 280.631 120.584C281.314 120.968 282.082 121.16 282.935 121.16C283.724 121.16 284.45 120.979 285.111 120.616C285.794 120.232 286.359 119.624 286.807 118.792L290.679 120.904C290.039 122.291 289.047 123.368 287.703 124.136C286.359 124.883 284.78 125.256 282.967 125.256ZM304.043 125.256C302.017 125.256 300.438 124.744 299.307 123.72C298.177 122.675 297.611 121.128 297.611 119.08V103.976H302.603V119.016C302.603 119.741 302.795 120.307 303.179 120.712C303.563 121.096 304.086 121.288 304.747 121.288C305.537 121.288 306.209 121.075 306.763 120.648L308.107 124.168C307.595 124.531 306.977 124.808 306.251 125C305.547 125.171 304.811 125.256 304.043 125.256ZM294.955 112.008V108.168H306.891V112.008H294.955ZM319.901 125.256C318.429 125.256 317.011 125.085 315.645 124.744C314.301 124.381 313.235 123.933 312.445 123.4L314.109 119.816C314.899 120.307 315.827 120.712 316.893 121.032C317.981 121.331 319.048 121.48 320.093 121.48C321.245 121.48 322.056 121.341 322.525 121.064C323.016 120.787 323.261 120.403 323.261 119.912C323.261 119.507 323.069 119.208 322.685 119.016C322.323 118.803 321.832 118.643 321.213 118.536C320.595 118.429 319.912 118.323 319.165 118.216C318.44 118.109 317.704 117.971 316.957 117.8C316.211 117.608 315.528 117.331 314.909 116.968C314.291 116.605 313.789 116.115 313.405 115.496C313.043 114.877 312.861 114.077 312.861 113.096C312.861 112.008 313.171 111.048 313.789 110.216C314.429 109.384 315.347 108.733 316.541 108.264C317.736 107.773 319.165 107.528 320.829 107.528C322.003 107.528 323.197 107.656 324.413 107.912C325.629 108.168 326.643 108.541 327.453 109.032L325.789 112.584C324.957 112.093 324.115 111.763 323.261 111.592C322.429 111.4 321.619 111.304 320.829 111.304C319.72 111.304 318.909 111.453 318.397 111.752C317.885 112.051 317.629 112.435 317.629 112.904C317.629 113.331 317.811 113.651 318.173 113.864C318.557 114.077 319.059 114.248 319.677 114.376C320.296 114.504 320.968 114.621 321.693 114.728C322.44 114.813 323.187 114.952 323.933 115.144C324.68 115.336 325.352 115.613 325.949 115.976C326.568 116.317 327.069 116.797 327.453 117.416C327.837 118.013 328.029 118.803 328.029 119.784C328.029 120.851 327.709 121.8 327.069 122.632C326.429 123.443 325.501 124.083 324.285 124.552C323.091 125.021 321.629 125.256 319.901 125.256Z" fill="white"/>
</svg>
