<svg viewBox="0 0 378 250" fill="none" xmlns="http://www.w3.org/2000/svg">
<rect x="0.5" y="0.5" width="377" height="249" fill="#13120D" stroke="#941C86"/>
<path d="M342.213 18.2081C341.886 18.2138 341.573 18.3479 341.343 18.5817C341.114 18.8155 340.985 19.1301 340.985 19.4579C340.985 19.7856 341.114 20.1003 341.343 20.334C341.573 20.5678 341.886 20.702 342.213 20.7077L356.886 20.7077L339.579 38.0141C339.345 38.2485 339.213 38.5665 339.213 38.898C339.213 39.2295 339.345 39.5475 339.579 39.7819C339.814 40.0163 340.132 40.148 340.463 40.148C340.795 40.148 341.113 40.0163 341.347 39.7819L358.653 22.4754L358.653 37.1479C358.659 37.4756 358.793 37.788 359.027 38.0177C359.261 38.2475 359.576 38.3762 359.903 38.3762C360.231 38.3762 360.546 38.2475 360.779 38.0177C361.013 37.788 361.147 37.4756 361.153 37.1479V19.4702C361.153 19.1388 361.021 18.8209 360.787 18.5866C360.553 18.3522 360.235 18.2205 359.903 18.2204L342.226 18.2204L342.213 18.2081Z" fill="white"/>
<path d="M8.578 58.098C7.794 58.098 7.094 57.9347 6.478 57.608C5.87133 57.272 5.39533 56.8147 5.05 56.236C4.70467 55.6573 4.532 54.9993 4.532 54.262C4.532 53.5153 4.70467 52.8573 5.05 52.288C5.39533 51.7093 5.87133 51.2567 6.478 50.93C7.094 50.6033 7.794 50.44 8.578 50.44C9.306 50.44 9.94533 50.5893 10.496 50.888C11.056 51.1773 11.4807 51.6067 11.77 52.176L10.426 52.96C10.202 52.6053 9.92667 52.344 9.6 52.176C9.28267 52.008 8.93733 51.924 8.564 51.924C8.13467 51.924 7.74733 52.0173 7.402 52.204C7.05667 52.3907 6.786 52.6613 6.59 53.016C6.394 53.3613 6.296 53.7767 6.296 54.262C6.296 54.7473 6.394 55.1673 6.59 55.522C6.786 55.8673 7.05667 56.1333 7.402 56.32C7.74733 56.5067 8.13467 56.6 8.564 56.6C8.93733 56.6 9.28267 56.516 9.6 56.348C9.92667 56.18 10.202 55.9187 10.426 55.564L11.77 56.348C11.4807 56.908 11.056 57.342 10.496 57.65C9.94533 57.9487 9.306 58.098 8.578 58.098ZM17.9334 58.098C17.1681 58.098 16.4867 57.9347 15.8894 57.608C15.2921 57.272 14.8207 56.8147 14.4754 56.236C14.1301 55.6573 13.9574 54.9993 13.9574 54.262C13.9574 53.5153 14.1301 52.8573 14.4754 52.288C14.8207 51.7093 15.2921 51.2567 15.8894 50.93C16.4867 50.6033 17.1681 50.44 17.9334 50.44C18.7081 50.44 19.3941 50.6033 19.9914 50.93C20.5981 51.2567 21.0694 51.7047 21.4054 52.274C21.7507 52.8433 21.9234 53.506 21.9234 54.262C21.9234 54.9993 21.7507 55.6573 21.4054 56.236C21.0694 56.8147 20.5981 57.272 19.9914 57.608C19.3941 57.9347 18.7081 58.098 17.9334 58.098ZM17.9334 56.6C18.3627 56.6 18.7454 56.5067 19.0814 56.32C19.4174 56.1333 19.6787 55.8627 19.8654 55.508C20.0614 55.1533 20.1594 54.738 20.1594 54.262C20.1594 53.7767 20.0614 53.3613 19.8654 53.016C19.6787 52.6613 19.4174 52.3907 19.0814 52.204C18.7454 52.0173 18.3674 51.924 17.9474 51.924C17.5181 51.924 17.1354 52.0173 16.7994 52.204C16.4727 52.3907 16.2114 52.6613 16.0154 53.016C15.8194 53.3613 15.7214 53.7767 15.7214 54.262C15.7214 54.738 15.8194 55.1533 16.0154 55.508C16.2114 55.8627 16.4727 56.1333 16.7994 56.32C17.1354 56.5067 17.5134 56.6 17.9334 56.6ZM29.2388 50.44C29.8362 50.44 30.3682 50.5567 30.8348 50.79C31.3108 51.0233 31.6842 51.3827 31.9548 51.868C32.2255 52.344 32.3608 52.96 32.3608 53.716V58H30.6108V53.94C30.6108 53.2773 30.4522 52.7827 30.1348 52.456C29.8268 52.1293 29.3928 51.966 28.8328 51.966C28.4222 51.966 28.0582 52.05 27.7408 52.218C27.4235 52.386 27.1762 52.638 26.9988 52.974C26.8308 53.3007 26.7468 53.716 26.7468 54.22V58H24.9968V50.524H26.6628V52.54L26.3688 51.924C26.6302 51.448 27.0082 51.084 27.5028 50.832C28.0068 50.5707 28.5855 50.44 29.2388 50.44ZM38.2908 58.098C37.6655 58.098 37.0635 58.0187 36.4848 57.86C35.9155 57.692 35.4628 57.4913 35.1268 57.258L35.7988 55.928C36.1348 56.1427 36.5361 56.32 37.0028 56.46C37.4695 56.6 37.9361 56.67 38.4028 56.67C38.9535 56.67 39.3501 56.5953 39.5928 56.446C39.8448 56.2967 39.9708 56.096 39.9708 55.844C39.9708 55.6387 39.8868 55.4847 39.7188 55.382C39.5508 55.27 39.3315 55.186 39.0608 55.13C38.7901 55.074 38.4868 55.0227 38.1508 54.976C37.8241 54.9293 37.4928 54.8687 37.1568 54.794C36.8301 54.71 36.5315 54.5933 36.2608 54.444C35.9901 54.2853 35.7708 54.0753 35.6028 53.814C35.4348 53.5527 35.3508 53.2073 35.3508 52.778C35.3508 52.302 35.4861 51.8913 35.7568 51.546C36.0275 51.1913 36.4055 50.9207 36.8908 50.734C37.3855 50.538 37.9688 50.44 38.6408 50.44C39.1448 50.44 39.6535 50.496 40.1668 50.608C40.6801 50.72 41.1048 50.8787 41.4408 51.084L40.7688 52.414C40.4141 52.1993 40.0548 52.0547 39.6908 51.98C39.3361 51.896 38.9815 51.854 38.6268 51.854C38.0948 51.854 37.6981 51.9333 37.4368 52.092C37.1848 52.2507 37.0588 52.4513 37.0588 52.694C37.0588 52.918 37.1428 53.086 37.3108 53.198C37.4788 53.31 37.6981 53.3987 37.9688 53.464C38.2395 53.5293 38.5381 53.5853 38.8648 53.632C39.2008 53.6693 39.5321 53.73 39.8588 53.814C40.1855 53.898 40.4841 54.0147 40.7548 54.164C41.0348 54.304 41.2588 54.5047 41.4268 54.766C41.5948 55.0273 41.6788 55.368 41.6788 55.788C41.6788 56.2547 41.5388 56.6607 41.2588 57.006C40.9881 57.3513 40.6008 57.622 40.0968 57.818C39.5928 58.0047 38.9908 58.098 38.2908 58.098ZM47.3999 58.098C46.5786 58.098 45.9439 57.888 45.4959 57.468C45.0479 57.0387 44.8239 56.4087 44.8239 55.578V48.872H46.5739V55.536C46.5739 55.8907 46.6626 56.166 46.8399 56.362C47.0266 56.558 47.2832 56.656 47.6099 56.656C48.0019 56.656 48.3286 56.5533 48.5899 56.348L49.0799 57.594C48.8746 57.762 48.6226 57.888 48.3239 57.972C48.0252 58.056 47.7172 58.098 47.3999 58.098ZM43.5919 51.98V50.58H48.5759V51.98H43.5919ZM57.3566 58V48.2H61.3886C62.2566 48.2 62.9986 48.34 63.6146 48.62C64.24 48.9 64.7206 49.3013 65.0566 49.824C65.3926 50.3467 65.5606 50.9673 65.5606 51.686C65.5606 52.4047 65.3926 53.0253 65.0566 53.548C64.7206 54.0707 64.24 54.472 63.6146 54.752C62.9986 55.032 62.2566 55.172 61.3886 55.172H58.3646L59.1766 54.318V58H57.3566ZM59.1766 54.514L58.3646 53.632H61.3046C62.1073 53.632 62.7093 53.464 63.1106 53.128C63.5213 52.7827 63.7266 52.302 63.7266 51.686C63.7266 51.0607 63.5213 50.58 63.1106 50.244C62.7093 49.908 62.1073 49.74 61.3046 49.74H58.3646L59.1766 48.844V54.514ZM71.9428 58.098C71.1774 58.098 70.4961 57.9347 69.8988 57.608C69.3014 57.272 68.8301 56.8147 68.4848 56.236C68.1394 55.6573 67.9668 54.9993 67.9668 54.262C67.9668 53.5153 68.1394 52.8573 68.4848 52.288C68.8301 51.7093 69.3014 51.2567 69.8988 50.93C70.4961 50.6033 71.1774 50.44 71.9428 50.44C72.7174 50.44 73.4034 50.6033 74.0008 50.93C74.6074 51.2567 75.0788 51.7047 75.4148 52.274C75.7601 52.8433 75.9328 53.506 75.9328 54.262C75.9328 54.9993 75.7601 55.6573 75.4148 56.236C75.0788 56.8147 74.6074 57.272 74.0008 57.608C73.4034 57.9347 72.7174 58.098 71.9428 58.098ZM71.9428 56.6C72.3721 56.6 72.7548 56.5067 73.0908 56.32C73.4268 56.1333 73.6881 55.8627 73.8748 55.508C74.0708 55.1533 74.1688 54.738 74.1688 54.262C74.1688 53.7767 74.0708 53.3613 73.8748 53.016C73.6881 52.6613 73.4268 52.3907 73.0908 52.204C72.7548 52.0173 72.3768 51.924 71.9568 51.924C71.5274 51.924 71.1448 52.0173 70.8088 52.204C70.4821 52.3907 70.2208 52.6613 70.0248 53.016C69.8288 53.3613 69.7308 53.7767 69.7308 54.262C69.7308 54.738 69.8288 55.1533 70.0248 55.508C70.2208 55.8627 70.4821 56.1333 70.8088 56.32C71.1448 56.5067 71.5228 56.6 71.9428 56.6ZM79.0062 58V50.524H80.6722V52.582L80.4762 51.98C80.7002 51.476 81.0502 51.0933 81.5262 50.832C82.0115 50.5707 82.6135 50.44 83.3322 50.44V52.106C83.2575 52.0873 83.1875 52.078 83.1222 52.078C83.0569 52.0687 82.9915 52.064 82.9262 52.064C82.2635 52.064 81.7362 52.26 81.3442 52.652C80.9522 53.0347 80.7562 53.6087 80.7562 54.374V58H79.0062ZM89.3042 58.098C88.4829 58.098 87.8482 57.888 87.4002 57.468C86.9522 57.0387 86.7282 56.4087 86.7282 55.578V48.872H88.4782V55.536C88.4782 55.8907 88.5669 56.166 88.7442 56.362C88.9309 56.558 89.1875 56.656 89.5142 56.656C89.9062 56.656 90.2329 56.5533 90.4942 56.348L90.9842 57.594C90.7789 57.762 90.5269 57.888 90.2282 57.972C89.9295 58.056 89.6215 58.098 89.3042 58.098ZM85.4962 51.98V50.58H90.4802V51.98H85.4962ZM94.0618 58V50.104C94.0618 49.32 94.2904 48.6947 94.7478 48.228C95.2144 47.752 95.8771 47.514 96.7358 47.514C97.0438 47.514 97.3331 47.5467 97.6038 47.612C97.8838 47.6773 98.1171 47.78 98.3038 47.92L97.8278 49.236C97.6971 49.1333 97.5478 49.0587 97.3798 49.012C97.2118 48.956 97.0391 48.928 96.8618 48.928C96.4978 48.928 96.2224 49.0307 96.0358 49.236C95.8491 49.432 95.7558 49.7307 95.7558 50.132V50.972L95.8118 51.756V58H94.0618ZM92.8298 51.98V50.58H97.8138V51.98H92.8298ZM103.642 58.098C102.877 58.098 102.196 57.9347 101.598 57.608C101.001 57.272 100.53 56.8147 100.184 56.236C99.839 55.6573 99.6664 54.9993 99.6664 54.262C99.6664 53.5153 99.839 52.8573 100.184 52.288C100.53 51.7093 101.001 51.2567 101.598 50.93C102.196 50.6033 102.877 50.44 103.642 50.44C104.417 50.44 105.103 50.6033 105.7 50.93C106.307 51.2567 106.778 51.7047 107.114 52.274C107.46 52.8433 107.632 53.506 107.632 54.262C107.632 54.9993 107.46 55.6573 107.114 56.236C106.778 56.8147 106.307 57.272 105.7 57.608C105.103 57.9347 104.417 58.098 103.642 58.098ZM103.642 56.6C104.072 56.6 104.454 56.5067 104.79 56.32C105.126 56.1333 105.388 55.8627 105.574 55.508C105.77 55.1533 105.868 54.738 105.868 54.262C105.868 53.7767 105.77 53.3613 105.574 53.016C105.388 52.6613 105.126 52.3907 104.79 52.204C104.454 52.0173 104.076 51.924 103.656 51.924C103.227 51.924 102.844 52.0173 102.508 52.204C102.182 52.3907 101.92 52.6613 101.724 53.016C101.528 53.3613 101.43 53.7767 101.43 54.262C101.43 54.738 101.528 55.1533 101.724 55.508C101.92 55.8627 102.182 56.1333 102.508 56.32C102.844 56.5067 103.222 56.6 103.642 56.6ZM110.706 58V47.612H112.456V58H110.706ZM116.153 58V50.524H117.903V58H116.153ZM117.035 49.292C116.708 49.292 116.437 49.1893 116.223 48.984C116.017 48.7787 115.915 48.5313 115.915 48.242C115.915 47.9433 116.017 47.696 116.223 47.5C116.437 47.2947 116.708 47.192 117.035 47.192C117.361 47.192 117.627 47.29 117.833 47.486C118.047 47.6727 118.155 47.9107 118.155 48.2C118.155 48.508 118.052 48.7693 117.847 48.984C117.641 49.1893 117.371 49.292 117.035 49.292ZM124.96 58.098C124.194 58.098 123.513 57.9347 122.916 57.608C122.318 57.272 121.847 56.8147 121.502 56.236C121.156 55.6573 120.984 54.9993 120.984 54.262C120.984 53.5153 121.156 52.8573 121.502 52.288C121.847 51.7093 122.318 51.2567 122.916 50.93C123.513 50.6033 124.194 50.44 124.96 50.44C125.734 50.44 126.42 50.6033 127.018 50.93C127.624 51.2567 128.096 51.7047 128.432 52.274C128.777 52.8433 128.95 53.506 128.95 54.262C128.95 54.9993 128.777 55.6573 128.432 56.236C128.096 56.8147 127.624 57.272 127.018 57.608C126.42 57.9347 125.734 58.098 124.96 58.098ZM124.96 56.6C125.389 56.6 125.772 56.5067 126.108 56.32C126.444 56.1333 126.705 55.8627 126.892 55.508C127.088 55.1533 127.186 54.738 127.186 54.262C127.186 53.7767 127.088 53.3613 126.892 53.016C126.705 52.6613 126.444 52.3907 126.108 52.204C125.772 52.0173 125.394 51.924 124.974 51.924C124.544 51.924 124.162 52.0173 123.826 52.204C123.499 52.3907 123.238 52.6613 123.042 53.016C122.846 53.3613 122.748 53.7767 122.748 54.262C122.748 54.738 122.846 55.1533 123.042 55.508C123.238 55.8627 123.499 56.1333 123.826 56.32C124.162 56.5067 124.54 56.6 124.96 56.6ZM137.054 52.106V50.706H143.508V52.106H137.054ZM137.054 55.494V54.094H143.508V55.494H137.054ZM153.955 60.716C153.404 59.8667 152.98 58.8867 152.681 57.776C152.392 56.656 152.247 55.452 152.247 54.164C152.247 52.876 152.392 51.672 152.681 50.552C152.98 49.4227 153.404 48.4427 153.955 47.612H155.621C155.052 48.6387 154.632 49.6887 154.361 50.762C154.1 51.826 153.969 52.96 153.969 54.164C153.969 55.368 154.1 56.5067 154.361 57.58C154.632 58.644 155.052 59.6893 155.621 60.716H153.955ZM159.299 60.716H157.633C158.211 59.6893 158.631 58.644 158.893 57.58C159.163 56.5067 159.299 55.368 159.299 54.164C159.299 52.96 159.163 51.826 158.893 50.762C158.631 49.6887 158.211 48.6387 157.633 47.612H159.299C159.859 48.4427 160.283 49.4227 160.573 50.552C160.862 51.672 161.007 52.876 161.007 54.164C161.007 55.452 160.862 56.656 160.573 57.776C160.283 58.8867 159.859 59.8667 159.299 60.716ZM169.771 52.106V50.706H176.225V52.106H169.771ZM169.771 55.494V54.094H176.225V55.494H169.771ZM179.429 56.362V54.906L185.337 52.694V53.506L179.429 51.294V49.838L185.883 52.344V53.856L179.429 56.362ZM197.688 60.716C196.904 60.716 196.311 60.52 195.91 60.128C195.508 59.736 195.308 59.1713 195.308 58.434V55.55C195.308 55.3167 195.252 55.1487 195.14 55.046C195.028 54.934 194.874 54.878 194.678 54.878H194.216V53.45H194.678C194.874 53.45 195.028 53.394 195.14 53.282C195.252 53.17 195.308 53.002 195.308 52.778V49.894C195.308 49.1473 195.508 48.5827 195.91 48.2C196.311 47.808 196.904 47.612 197.688 47.612H198.388V49.012H198.094C197.748 49.012 197.487 49.1053 197.31 49.292C197.142 49.4787 197.058 49.74 197.058 50.076V52.736C197.058 53.1093 197.011 53.3987 196.918 53.604C196.824 53.8093 196.675 53.9633 196.47 54.066C196.274 54.1593 196.017 54.2293 195.7 54.276V54.052C196.017 54.0893 196.274 54.1593 196.47 54.262C196.675 54.3647 196.824 54.5187 196.918 54.724C197.011 54.9293 197.058 55.2187 197.058 55.592V58.252C197.058 58.588 197.142 58.8493 197.31 59.036C197.487 59.2227 197.748 59.316 198.094 59.316H198.388V60.716H197.688ZM15.6863 75V67.524H17.3523V69.582L17.1563 68.98C17.3803 68.476 17.7303 68.0933 18.2063 67.832C18.6916 67.5707 19.2936 67.44 20.0123 67.44V69.106C19.9376 69.0873 19.8676 69.078 19.8023 69.078C19.7369 69.0687 19.6716 69.064 19.6063 69.064C18.9436 69.064 18.4163 69.26 18.0243 69.652C17.6323 70.0347 17.4363 70.6087 17.4363 71.374V75H15.6863ZM26.3425 75.098C25.5118 75.098 24.7838 74.9347 24.1585 74.608C23.5425 74.272 23.0618 73.8147 22.7165 73.236C22.3805 72.6573 22.2125 71.9993 22.2125 71.262C22.2125 70.5153 22.3758 69.8573 22.7025 69.288C23.0385 68.7093 23.4958 68.2567 24.0745 67.93C24.6625 67.6033 25.3298 67.44 26.0765 67.44C26.8045 67.44 27.4531 67.5987 28.0225 67.916C28.5918 68.2333 29.0398 68.6813 29.3665 69.26C29.6931 69.8387 29.8565 70.52 29.8565 71.304C29.8565 71.3787 29.8518 71.4627 29.8425 71.556C29.8425 71.6493 29.8378 71.738 29.8285 71.822H23.5985V70.66H28.9045L28.2185 71.024C28.2278 70.5947 28.1391 70.2167 27.9525 69.89C27.7658 69.5633 27.5091 69.3067 27.1825 69.12C26.8651 68.9333 26.4965 68.84 26.0765 68.84C25.6471 68.84 25.2691 68.9333 24.9425 69.12C24.6251 69.3067 24.3731 69.568 24.1865 69.904C24.0091 70.2307 23.9205 70.618 23.9205 71.066V71.346C23.9205 71.794 24.0231 72.1907 24.2285 72.536C24.4338 72.8813 24.7231 73.1473 25.0965 73.334C25.4698 73.5207 25.8991 73.614 26.3845 73.614C26.8045 73.614 27.1825 73.5487 27.5185 73.418C27.8545 73.2873 28.1531 73.082 28.4145 72.802L29.3525 73.88C29.0165 74.272 28.5918 74.5753 28.0785 74.79C27.5745 74.9953 26.9958 75.098 26.3425 75.098ZM35.7515 75.098C34.9301 75.098 34.2955 74.888 33.8475 74.468C33.3995 74.0387 33.1755 73.4087 33.1755 72.578V65.872H34.9255V72.536C34.9255 72.8907 35.0141 73.166 35.1915 73.362C35.3781 73.558 35.6348 73.656 35.9615 73.656C36.3535 73.656 36.6801 73.5533 36.9415 73.348L37.4315 74.594C37.2261 74.762 36.9741 74.888 36.6755 74.972C36.3768 75.056 36.0688 75.098 35.7515 75.098ZM31.9435 68.98V67.58H36.9275V68.98H31.9435ZM43.435 75.098C42.8004 75.098 42.2404 74.9813 41.755 74.748C41.2697 74.5053 40.8917 74.1413 40.621 73.656C40.3504 73.1613 40.215 72.5407 40.215 71.794V67.524H41.965V71.556C41.965 72.228 42.1144 72.732 42.413 73.068C42.721 73.3947 43.155 73.558 43.715 73.558C44.1257 73.558 44.4804 73.474 44.779 73.306C45.087 73.138 45.325 72.886 45.493 72.55C45.6704 72.214 45.759 71.7987 45.759 71.304V67.524H47.509V75H45.843V72.984L46.137 73.6C45.885 74.0853 45.5164 74.4587 45.031 74.72C44.5457 74.972 44.0137 75.098 43.435 75.098ZM51.2003 75V67.524H52.8663V69.582L52.6703 68.98C52.8943 68.476 53.2443 68.0933 53.7203 67.832C54.2057 67.5707 54.8077 67.44 55.5263 67.44V69.106C55.4517 69.0873 55.3817 69.078 55.3163 69.078C55.251 69.0687 55.1857 69.064 55.1203 69.064C54.4577 69.064 53.9303 69.26 53.5383 69.652C53.1463 70.0347 52.9503 70.6087 52.9503 71.374V75H51.2003ZM62.6529 67.44C63.2502 67.44 63.7822 67.5567 64.2489 67.79C64.7249 68.0233 65.0982 68.3827 65.3689 68.868C65.6396 69.344 65.7749 69.96 65.7749 70.716V75H64.0249V70.94C64.0249 70.2773 63.8662 69.7827 63.5489 69.456C63.2409 69.1293 62.8069 68.966 62.2469 68.966C61.8362 68.966 61.4722 69.05 61.1549 69.218C60.8376 69.386 60.5902 69.638 60.4129 69.974C60.2449 70.3007 60.1609 70.716 60.1609 71.22V75H58.4109V67.524H60.0769V69.54L59.7829 68.924C60.0442 68.448 60.4222 68.084 60.9169 67.832C61.4209 67.5707 61.9996 67.44 62.6529 67.44ZM76.4 77.716C75.8493 76.8667 75.4247 75.8867 75.126 74.776C74.8367 73.656 74.692 72.452 74.692 71.164C74.692 69.876 74.8367 68.672 75.126 67.552C75.4247 66.4227 75.8493 65.4427 76.4 64.612H78.066C77.4967 65.6387 77.0767 66.6887 76.806 67.762C76.5447 68.826 76.414 69.96 76.414 71.164C76.414 72.368 76.5447 73.5067 76.806 74.58C77.0767 75.644 77.4967 76.6893 78.066 77.716H76.4ZM32.4406 90.362L25.9866 87.856V86.344L32.4406 83.838V85.294L26.5326 87.506V86.694L32.4406 88.906V90.362ZM38.1924 92.098C37.567 92.098 36.965 92.0187 36.3864 91.86C35.817 91.692 35.3644 91.4913 35.0284 91.258L35.7004 89.928C36.0364 90.1427 36.4377 90.32 36.9044 90.46C37.371 90.6 37.8377 90.67 38.3044 90.67C38.855 90.67 39.2517 90.5953 39.4944 90.446C39.7464 90.2967 39.8724 90.096 39.8724 89.844C39.8724 89.6387 39.7884 89.4847 39.6204 89.382C39.4524 89.27 39.233 89.186 38.9624 89.13C38.6917 89.074 38.3884 89.0227 38.0524 88.976C37.7257 88.9293 37.3944 88.8687 37.0584 88.794C36.7317 88.71 36.433 88.5933 36.1624 88.444C35.8917 88.2853 35.6724 88.0753 35.5044 87.814C35.3364 87.5527 35.2524 87.2073 35.2524 86.778C35.2524 86.302 35.3877 85.8913 35.6584 85.546C35.929 85.1913 36.307 84.9207 36.7924 84.734C37.287 84.538 37.8704 84.44 38.5424 84.44C39.0464 84.44 39.555 84.496 40.0684 84.608C40.5817 84.72 41.0064 84.8787 41.3424 85.084L40.6704 86.414C40.3157 86.1993 39.9564 86.0547 39.5924 85.98C39.2377 85.896 38.883 85.854 38.5284 85.854C37.9964 85.854 37.5997 85.9333 37.3384 86.092C37.0864 86.2507 36.9604 86.4513 36.9604 86.694C36.9604 86.918 37.0444 87.086 37.2124 87.198C37.3804 87.31 37.5997 87.3987 37.8704 87.464C38.141 87.5293 38.4397 87.5853 38.7664 87.632C39.1024 87.6693 39.4337 87.73 39.7604 87.814C40.087 87.898 40.3857 88.0147 40.6564 88.164C40.9364 88.304 41.1604 88.5047 41.3284 88.766C41.4964 89.0273 41.5804 89.368 41.5804 89.788C41.5804 90.2547 41.4404 90.6607 41.1604 91.006C40.8897 91.3513 40.5024 91.622 39.9984 91.818C39.4944 92.0047 38.8924 92.098 38.1924 92.098ZM48.0015 92.098C47.1708 92.098 46.4428 91.9347 45.8175 91.608C45.2015 91.272 44.7208 90.8147 44.3755 90.236C44.0395 89.6573 43.8715 88.9993 43.8715 88.262C43.8715 87.5153 44.0348 86.8573 44.3615 86.288C44.6975 85.7093 45.1548 85.2567 45.7335 84.93C46.3215 84.6033 46.9888 84.44 47.7355 84.44C48.4635 84.44 49.1121 84.5987 49.6815 84.916C50.2508 85.2333 50.6988 85.6813 51.0255 86.26C51.3521 86.8387 51.5155 87.52 51.5155 88.304C51.5155 88.3787 51.5108 88.4627 51.5015 88.556C51.5015 88.6493 51.4968 88.738 51.4875 88.822H45.2575V87.66H50.5635L49.8775 88.024C49.8868 87.5947 49.7981 87.2167 49.6115 86.89C49.4248 86.5633 49.1681 86.3067 48.8415 86.12C48.5241 85.9333 48.1555 85.84 47.7355 85.84C47.3061 85.84 46.9281 85.9333 46.6015 86.12C46.2841 86.3067 46.0321 86.568 45.8455 86.904C45.6681 87.2307 45.5795 87.618 45.5795 88.066V88.346C45.5795 88.794 45.6821 89.1907 45.8875 89.536C46.0928 89.8813 46.3821 90.1473 46.7555 90.334C47.1288 90.5207 47.5581 90.614 48.0435 90.614C48.4635 90.614 48.8415 90.5487 49.1775 90.418C49.5135 90.2873 49.8121 90.082 50.0735 89.802L51.0115 90.88C50.6755 91.272 50.2508 91.5753 49.7375 91.79C49.2335 91.9953 48.6548 92.098 48.0015 92.098ZM58.0264 92.098C57.2424 92.098 56.5424 91.9347 55.9264 91.608C55.3198 91.272 54.8438 90.8147 54.4984 90.236C54.1531 89.6573 53.9804 88.9993 53.9804 88.262C53.9804 87.5153 54.1531 86.8573 54.4984 86.288C54.8438 85.7093 55.3198 85.2567 55.9264 84.93C56.5424 84.6033 57.2424 84.44 58.0264 84.44C58.7544 84.44 59.3938 84.5893 59.9444 84.888C60.5044 85.1773 60.9291 85.6067 61.2184 86.176L59.8744 86.96C59.6504 86.6053 59.3751 86.344 59.0484 86.176C58.7311 86.008 58.3858 85.924 58.0124 85.924C57.5831 85.924 57.1958 86.0173 56.8504 86.204C56.5051 86.3907 56.2344 86.6613 56.0384 87.016C55.8424 87.3613 55.7444 87.7767 55.7444 88.262C55.7444 88.7473 55.8424 89.1673 56.0384 89.522C56.2344 89.8673 56.5051 90.1333 56.8504 90.32C57.1958 90.5067 57.5831 90.6 58.0124 90.6C58.3858 90.6 58.7311 90.516 59.0484 90.348C59.3751 90.18 59.6504 89.9187 59.8744 89.564L61.2184 90.348C60.9291 90.908 60.5044 91.342 59.9444 91.65C59.3938 91.9487 58.7544 92.098 58.0264 92.098ZM67.0409 92.098C66.2196 92.098 65.5849 91.888 65.1369 91.468C64.6889 91.0387 64.4649 90.4087 64.4649 89.578V82.872H66.2149V89.536C66.2149 89.8907 66.3036 90.166 66.4809 90.362C66.6676 90.558 66.9242 90.656 67.2509 90.656C67.6429 90.656 67.9696 90.5533 68.2309 90.348L68.7209 91.594C68.5156 91.762 68.2636 91.888 67.9649 91.972C67.6662 92.056 67.3582 92.098 67.0409 92.098ZM63.2329 85.98V84.58H68.2169V85.98H63.2329ZM71.5605 92V84.524H73.3105V92H71.5605ZM72.4425 83.292C72.1158 83.292 71.8452 83.1893 71.6305 82.984C71.4252 82.7787 71.3225 82.5313 71.3225 82.242C71.3225 81.9433 71.4252 81.696 71.6305 81.5C71.8452 81.2947 72.1158 81.192 72.4425 81.192C72.7692 81.192 73.0352 81.29 73.2405 81.486C73.4552 81.6727 73.5625 81.9107 73.5625 82.2C73.5625 82.508 73.4598 82.7693 73.2545 82.984C73.0492 83.1893 72.7785 83.292 72.4425 83.292ZM80.3674 92.098C79.602 92.098 78.9207 91.9347 78.3234 91.608C77.726 91.272 77.2547 90.8147 76.9094 90.236C76.564 89.6573 76.3914 88.9993 76.3914 88.262C76.3914 87.5153 76.564 86.8573 76.9094 86.288C77.2547 85.7093 77.726 85.2567 78.3234 84.93C78.9207 84.6033 79.602 84.44 80.3674 84.44C81.142 84.44 81.828 84.6033 82.4254 84.93C83.032 85.2567 83.5034 85.7047 83.8394 86.274C84.1847 86.8433 84.3574 87.506 84.3574 88.262C84.3574 88.9993 84.1847 89.6573 83.8394 90.236C83.5034 90.8147 83.032 91.272 82.4254 91.608C81.828 91.9347 81.142 92.098 80.3674 92.098ZM80.3674 90.6C80.7967 90.6 81.1794 90.5067 81.5154 90.32C81.8514 90.1333 82.1127 89.8627 82.2994 89.508C82.4954 89.1533 82.5934 88.738 82.5934 88.262C82.5934 87.7767 82.4954 87.3613 82.2994 87.016C82.1127 86.6613 81.8514 86.3907 81.5154 86.204C81.1794 86.0173 80.8014 85.924 80.3814 85.924C79.952 85.924 79.5694 86.0173 79.2334 86.204C78.9067 86.3907 78.6454 86.6613 78.4494 87.016C78.2534 87.3613 78.1554 87.7767 78.1554 88.262C78.1554 88.738 78.2534 89.1533 78.4494 89.508C78.6454 89.8627 78.9067 90.1333 79.2334 90.32C79.5694 90.5067 79.9474 90.6 80.3674 90.6ZM91.6728 84.44C92.2701 84.44 92.8021 84.5567 93.2688 84.79C93.7448 85.0233 94.1181 85.3827 94.3888 85.868C94.6595 86.344 94.7948 86.96 94.7948 87.716V92H93.0448V87.94C93.0448 87.2773 92.8861 86.7827 92.5688 86.456C92.2608 86.1293 91.8268 85.966 91.2668 85.966C90.8561 85.966 90.4921 86.05 90.1748 86.218C89.8575 86.386 89.6101 86.638 89.4328 86.974C89.2648 87.3007 89.1808 87.716 89.1808 88.22V92H87.4308V84.524H89.0968V86.54L88.8028 85.924C89.0641 85.448 89.4421 85.084 89.9368 84.832C90.4408 84.5707 91.0195 84.44 91.6728 84.44ZM107.114 92.098C106.33 92.098 105.63 91.9347 105.014 91.608C104.407 91.272 103.931 90.8147 103.586 90.236C103.241 89.6573 103.068 88.9993 103.068 88.262C103.068 87.5153 103.241 86.8573 103.586 86.288C103.931 85.7093 104.407 85.2567 105.014 84.93C105.63 84.6033 106.33 84.44 107.114 84.44C107.842 84.44 108.481 84.5893 109.032 84.888C109.592 85.1773 110.017 85.6067 110.306 86.176L108.962 86.96C108.738 86.6053 108.463 86.344 108.136 86.176C107.819 86.008 107.473 85.924 107.1 85.924C106.671 85.924 106.283 86.0173 105.938 86.204C105.593 86.3907 105.322 86.6613 105.126 87.016C104.93 87.3613 104.832 87.7767 104.832 88.262C104.832 88.7473 104.93 89.1673 105.126 89.522C105.322 89.8673 105.593 90.1333 105.938 90.32C106.283 90.5067 106.671 90.6 107.1 90.6C107.473 90.6 107.819 90.516 108.136 90.348C108.463 90.18 108.738 89.9187 108.962 89.564L110.306 90.348C110.017 90.908 109.592 91.342 109.032 91.65C108.481 91.9487 107.842 92.098 107.114 92.098ZM113.15 92V81.612H114.9V92H113.15ZM123.203 92V90.488L123.105 90.166V87.52C123.105 87.0067 122.951 86.61 122.643 86.33C122.335 86.0407 121.869 85.896 121.243 85.896C120.823 85.896 120.408 85.9613 119.997 86.092C119.596 86.2227 119.255 86.4047 118.975 86.638L118.289 85.364C118.691 85.056 119.167 84.8273 119.717 84.678C120.277 84.5193 120.856 84.44 121.453 84.44C122.536 84.44 123.371 84.7013 123.959 85.224C124.557 85.7373 124.855 86.5353 124.855 87.618V92H123.203ZM120.851 92.098C120.291 92.098 119.801 92.0047 119.381 91.818C118.961 91.622 118.635 91.356 118.401 91.02C118.177 90.6747 118.065 90.2873 118.065 89.858C118.065 89.438 118.163 89.06 118.359 88.724C118.565 88.388 118.896 88.122 119.353 87.926C119.811 87.73 120.417 87.632 121.173 87.632H123.343V88.794H121.299C120.702 88.794 120.301 88.892 120.095 89.088C119.89 89.2747 119.787 89.508 119.787 89.788C119.787 90.1053 119.913 90.3573 120.165 90.544C120.417 90.7307 120.767 90.824 121.215 90.824C121.645 90.824 122.027 90.726 122.363 90.53C122.709 90.334 122.956 90.0447 123.105 89.662L123.399 90.712C123.231 91.1507 122.928 91.4913 122.489 91.734C122.06 91.9767 121.514 92.098 120.851 92.098ZM130.811 92.098C130.186 92.098 129.584 92.0187 129.005 91.86C128.436 91.692 127.983 91.4913 127.647 91.258L128.319 89.928C128.655 90.1427 129.056 90.32 129.523 90.46C129.99 90.6 130.456 90.67 130.923 90.67C131.474 90.67 131.87 90.5953 132.113 90.446C132.365 90.2967 132.491 90.096 132.491 89.844C132.491 89.6387 132.407 89.4847 132.239 89.382C132.071 89.27 131.852 89.186 131.581 89.13C131.31 89.074 131.007 89.0227 130.671 88.976C130.344 88.9293 130.013 88.8687 129.677 88.794C129.35 88.71 129.052 88.5933 128.781 88.444C128.51 88.2853 128.291 88.0753 128.123 87.814C127.955 87.5527 127.871 87.2073 127.871 86.778C127.871 86.302 128.006 85.8913 128.277 85.546C128.548 85.1913 128.926 84.9207 129.411 84.734C129.906 84.538 130.489 84.44 131.161 84.44C131.665 84.44 132.174 84.496 132.687 84.608C133.2 84.72 133.625 84.8787 133.961 85.084L133.289 86.414C132.934 86.1993 132.575 86.0547 132.211 85.98C131.856 85.896 131.502 85.854 131.147 85.854C130.615 85.854 130.218 85.9333 129.957 86.092C129.705 86.2507 129.579 86.4513 129.579 86.694C129.579 86.918 129.663 87.086 129.831 87.198C129.999 87.31 130.218 87.3987 130.489 87.464C130.76 87.5293 131.058 87.5853 131.385 87.632C131.721 87.6693 132.052 87.73 132.379 87.814C132.706 87.898 133.004 88.0147 133.275 88.164C133.555 88.304 133.779 88.5047 133.947 88.766C134.115 89.0273 134.199 89.368 134.199 89.788C134.199 90.2547 134.059 90.6607 133.779 91.006C133.508 91.3513 133.121 91.622 132.617 91.818C132.113 92.0047 131.511 92.098 130.811 92.098ZM139.416 92.098C138.791 92.098 138.189 92.0187 137.61 91.86C137.041 91.692 136.588 91.4913 136.252 91.258L136.924 89.928C137.26 90.1427 137.662 90.32 138.128 90.46C138.595 90.6 139.062 90.67 139.528 90.67C140.079 90.67 140.476 90.5953 140.718 90.446C140.97 90.2967 141.096 90.096 141.096 89.844C141.096 89.6387 141.012 89.4847 140.844 89.382C140.676 89.27 140.457 89.186 140.186 89.13C139.916 89.074 139.612 89.0227 139.276 88.976C138.95 88.9293 138.618 88.8687 138.282 88.794C137.956 88.71 137.657 88.5933 137.386 88.444C137.116 88.2853 136.896 88.0753 136.728 87.814C136.56 87.5527 136.476 87.2073 136.476 86.778C136.476 86.302 136.612 85.8913 136.882 85.546C137.153 85.1913 137.531 84.9207 138.016 84.734C138.511 84.538 139.094 84.44 139.766 84.44C140.27 84.44 140.779 84.496 141.292 84.608C141.806 84.72 142.23 84.8787 142.566 85.084L141.894 86.414C141.54 86.1993 141.18 86.0547 140.816 85.98C140.462 85.896 140.107 85.854 139.752 85.854C139.22 85.854 138.824 85.9333 138.562 86.092C138.31 86.2507 138.184 86.4513 138.184 86.694C138.184 86.918 138.268 87.086 138.436 87.198C138.604 87.31 138.824 87.3987 139.094 87.464C139.365 87.5293 139.664 87.5853 139.99 87.632C140.326 87.6693 140.658 87.73 140.984 87.814C141.311 87.898 141.61 88.0147 141.88 88.164C142.16 88.304 142.384 88.5047 142.552 88.766C142.72 89.0273 142.804 89.368 142.804 89.788C142.804 90.2547 142.664 90.6607 142.384 91.006C142.114 91.3513 141.726 91.622 141.222 91.818C140.718 92.0047 140.116 92.098 139.416 92.098ZM145.879 92V82.2H147.377L153.523 89.746H152.781V82.2H154.587V92H153.089L146.943 84.454H147.685V92H145.879ZM163.051 92V90.488L162.953 90.166V87.52C162.953 87.0067 162.799 86.61 162.491 86.33C162.183 86.0407 161.717 85.896 161.091 85.896C160.671 85.896 160.256 85.9613 159.845 86.092C159.444 86.2227 159.103 86.4047 158.823 86.638L158.137 85.364C158.539 85.056 159.015 84.8273 159.565 84.678C160.125 84.5193 160.704 84.44 161.301 84.44C162.384 84.44 163.219 84.7013 163.807 85.224C164.405 85.7373 164.703 86.5353 164.703 87.618V92H163.051ZM160.699 92.098C160.139 92.098 159.649 92.0047 159.229 91.818C158.809 91.622 158.483 91.356 158.249 91.02C158.025 90.6747 157.913 90.2873 157.913 89.858C157.913 89.438 158.011 89.06 158.207 88.724C158.413 88.388 158.744 88.122 159.201 87.926C159.659 87.73 160.265 87.632 161.021 87.632H163.191V88.794H161.147C160.55 88.794 160.149 88.892 159.943 89.088C159.738 89.2747 159.635 89.508 159.635 89.788C159.635 90.1053 159.761 90.3573 160.013 90.544C160.265 90.7307 160.615 90.824 161.063 90.824C161.493 90.824 161.875 90.726 162.211 90.53C162.557 90.334 162.804 90.0447 162.953 89.662L163.247 90.712C163.079 91.1507 162.776 91.4913 162.337 91.734C161.908 91.9767 161.362 92.098 160.699 92.098ZM177.785 84.44C178.383 84.44 178.91 84.5567 179.367 84.79C179.834 85.0233 180.198 85.3827 180.459 85.868C180.721 86.344 180.851 86.96 180.851 87.716V92H179.101V87.94C179.101 87.2773 178.957 86.7827 178.667 86.456C178.378 86.1293 177.963 85.966 177.421 85.966C177.039 85.966 176.698 86.05 176.399 86.218C176.11 86.386 175.881 86.6333 175.713 86.96C175.555 87.2867 175.475 87.702 175.475 88.206V92H173.725V87.94C173.725 87.2773 173.581 86.7827 173.291 86.456C173.002 86.1293 172.587 85.966 172.045 85.966C171.663 85.966 171.322 86.05 171.023 86.218C170.734 86.386 170.505 86.6333 170.337 86.96C170.179 87.2867 170.099 87.702 170.099 88.206V92H168.349V84.524H170.015V86.512L169.721 85.924C169.973 85.4387 170.337 85.07 170.813 84.818C171.299 84.566 171.849 84.44 172.465 84.44C173.165 84.44 173.772 84.6127 174.285 84.958C174.808 85.3033 175.153 85.826 175.321 86.526L174.635 86.288C174.878 85.728 175.279 85.28 175.839 84.944C176.399 84.608 177.048 84.44 177.785 84.44ZM188.015 92.098C187.184 92.098 186.456 91.9347 185.831 91.608C185.215 91.272 184.734 90.8147 184.389 90.236C184.053 89.6573 183.885 88.9993 183.885 88.262C183.885 87.5153 184.048 86.8573 184.375 86.288C184.711 85.7093 185.168 85.2567 185.747 84.93C186.335 84.6033 187.002 84.44 187.749 84.44C188.477 84.44 189.126 84.5987 189.695 84.916C190.264 85.2333 190.712 85.6813 191.039 86.26C191.366 86.8387 191.529 87.52 191.529 88.304C191.529 88.3787 191.524 88.4627 191.515 88.556C191.515 88.6493 191.51 88.738 191.501 88.822H185.271V87.66H190.577L189.891 88.024C189.9 87.5947 189.812 87.2167 189.625 86.89C189.438 86.5633 189.182 86.3067 188.855 86.12C188.538 85.9333 188.169 85.84 187.749 85.84C187.32 85.84 186.942 85.9333 186.615 86.12C186.298 86.3067 186.046 86.568 185.859 86.904C185.682 87.2307 185.593 87.618 185.593 88.066V88.346C185.593 88.794 185.696 89.1907 185.901 89.536C186.106 89.8813 186.396 90.1473 186.769 90.334C187.142 90.5207 187.572 90.614 188.057 90.614C188.477 90.614 188.855 90.5487 189.191 90.418C189.527 90.2873 189.826 90.082 190.087 89.802L191.025 90.88C190.689 91.272 190.264 91.5753 189.751 91.79C189.247 91.9953 188.668 92.098 188.015 92.098ZM194.372 86.106V84.706H200.826V86.106H194.372ZM194.372 89.494V88.094H200.826V89.494H194.372ZM204.016 86.078L203.904 82.2H205.416L205.29 86.078H204.016ZM206.718 86.078L206.606 82.2H208.118L207.992 86.078H206.718ZM211.451 92V84.524H213.201V92H211.451ZM212.333 83.292C212.006 83.292 211.736 83.1893 211.521 82.984C211.316 82.7787 211.213 82.5313 211.213 82.242C211.213 81.9433 211.316 81.696 211.521 81.5C211.736 81.2947 212.006 81.192 212.333 81.192C212.66 81.192 212.926 81.29 213.131 81.486C213.346 81.6727 213.453 81.9107 213.453 82.2C213.453 82.508 213.35 82.7693 213.145 82.984C212.94 83.1893 212.669 83.292 212.333 83.292ZM221.14 84.44C221.737 84.44 222.269 84.5567 222.736 84.79C223.212 85.0233 223.585 85.3827 223.856 85.868C224.127 86.344 224.262 86.96 224.262 87.716V92H222.512V87.94C222.512 87.2773 222.353 86.7827 222.036 86.456C221.728 86.1293 221.294 85.966 220.734 85.966C220.323 85.966 219.959 86.05 219.642 86.218C219.325 86.386 219.077 86.638 218.9 86.974C218.732 87.3007 218.648 87.716 218.648 88.22V92H216.898V84.524H218.564V86.54L218.27 85.924C218.531 85.448 218.909 85.084 219.404 84.832C219.908 84.5707 220.487 84.44 221.14 84.44ZM230.696 92.098C229.875 92.098 229.24 91.888 228.792 91.468C228.344 91.0387 228.12 90.4087 228.12 89.578V82.872H229.87V89.536C229.87 89.8907 229.959 90.166 230.136 90.362C230.323 90.558 230.579 90.656 230.906 90.656C231.298 90.656 231.625 90.5533 231.886 90.348L232.376 91.594C232.171 91.762 231.919 91.888 231.62 91.972C231.321 92.056 231.013 92.098 230.696 92.098ZM226.888 85.98V84.58H231.872V85.98H226.888ZM235.216 92V84.524H236.882V86.582L236.686 85.98C236.91 85.476 237.26 85.0933 237.736 84.832C238.221 84.5707 238.823 84.44 239.542 84.44V86.106C239.467 86.0873 239.397 86.078 239.332 86.078C239.266 86.0687 239.201 86.064 239.136 86.064C238.473 86.064 237.946 86.26 237.554 86.652C237.162 87.0347 236.966 87.6087 236.966 88.374V92H235.216ZM245.718 92.098C244.952 92.098 244.271 91.9347 243.674 91.608C243.076 91.272 242.605 90.8147 242.26 90.236C241.914 89.6573 241.742 88.9993 241.742 88.262C241.742 87.5153 241.914 86.8573 242.26 86.288C242.605 85.7093 243.076 85.2567 243.674 84.93C244.271 84.6033 244.952 84.44 245.718 84.44C246.492 84.44 247.178 84.6033 247.776 84.93C248.382 85.2567 248.854 85.7047 249.19 86.274C249.535 86.8433 249.708 87.506 249.708 88.262C249.708 88.9993 249.535 89.6573 249.19 90.236C248.854 90.8147 248.382 91.272 247.776 91.608C247.178 91.9347 246.492 92.098 245.718 92.098ZM245.718 90.6C246.147 90.6 246.53 90.5067 246.866 90.32C247.202 90.1333 247.463 89.8627 247.65 89.508C247.846 89.1533 247.944 88.738 247.944 88.262C247.944 87.7767 247.846 87.3613 247.65 87.016C247.463 86.6613 247.202 86.3907 246.866 86.204C246.53 86.0173 246.152 85.924 245.732 85.924C245.302 85.924 244.92 86.0173 244.584 86.204C244.257 86.3907 243.996 86.6613 243.8 87.016C243.604 87.3613 243.506 87.7767 243.506 88.262C243.506 88.738 243.604 89.1533 243.8 89.508C243.996 89.8627 244.257 90.1333 244.584 90.32C244.92 90.5067 245.298 90.6 245.718 90.6ZM252.324 86.078L252.212 82.2H253.724L253.598 86.078H252.324ZM255.026 86.078L254.914 82.2H256.426L256.3 86.078H255.026ZM259.521 90.362V88.906L265.429 86.694V87.506L259.521 85.294V83.838L265.975 86.344V87.856L259.521 90.362ZM42.9788 129.362L36.5248 126.856V125.344L42.9788 122.838V124.294L37.0708 126.506V125.694L42.9788 127.906V129.362ZM50.6627 123.44C51.26 123.44 51.792 123.557 52.2587 123.79C52.7347 124.023 53.108 124.383 53.3787 124.868C53.6493 125.344 53.7847 125.96 53.7847 126.716V131H52.0347V126.94C52.0347 126.277 51.876 125.783 51.5587 125.456C51.2507 125.129 50.8167 124.966 50.2567 124.966C49.846 124.966 49.482 125.05 49.1647 125.218C48.8473 125.386 48.6 125.638 48.4227 125.974C48.2547 126.301 48.1707 126.716 48.1707 127.22V131H46.4207V120.612H48.1707V125.54L47.7927 124.924C48.054 124.448 48.432 124.084 48.9267 123.832C49.4307 123.571 50.0093 123.44 50.6627 123.44ZM58.1535 131V121.9L58.9515 122.726H56.0815V121.2H59.9735V131H58.1535ZM63.6116 129.362V127.906L69.5196 125.694V126.506L63.6116 124.294V122.838L70.0656 125.344V126.856L63.6116 129.362ZM89.1914 127.256L74.4394 121.528V118.072L89.1914 112.344V115.672L75.6874 120.728V118.872L89.1914 123.928V127.256ZM253.593 134.2L264.153 104.056H267.737L257.177 134.2H253.593ZM271.708 127.256V123.928L285.212 118.872V120.728L271.708 115.672V112.344L286.46 118.072V121.528L271.708 127.256ZM299.067 129.362L292.613 126.856V125.344L299.067 122.838V124.294L293.159 126.506V125.694L299.067 127.906V129.362ZM300.941 132.4L305.561 119.212H307.129L302.509 132.4H300.941ZM313.346 123.44C313.944 123.44 314.476 123.557 314.942 123.79C315.418 124.023 315.792 124.383 316.062 124.868C316.333 125.344 316.468 125.96 316.468 126.716V131H314.718V126.94C314.718 126.277 314.56 125.783 314.242 125.456C313.934 125.129 313.5 124.966 312.94 124.966C312.53 124.966 312.166 125.05 311.848 125.218C311.531 125.386 311.284 125.638 311.106 125.974C310.938 126.301 310.854 126.716 310.854 127.22V131H309.104V120.612H310.854V125.54L310.476 124.924C310.738 124.448 311.116 124.084 311.61 123.832C312.114 123.571 312.693 123.44 313.346 123.44ZM320.837 131V121.9L321.635 122.726H318.765V121.2H322.657V131H320.837ZM326.295 129.362V127.906L332.203 125.694V126.506L326.295 124.294V122.838L332.749 125.344V126.856L326.295 129.362ZM32.4406 146.362L25.9866 143.856V142.344L32.4406 139.838V141.294L26.5326 143.506V142.694L32.4406 144.906V146.362ZM40.0264 148.098C39.4197 148.098 38.8644 147.958 38.3604 147.678C37.8657 147.398 37.469 146.978 37.1704 146.418C36.881 145.849 36.7364 145.13 36.7364 144.262C36.7364 143.385 36.8764 142.666 37.1564 142.106C37.4457 141.546 37.8377 141.131 38.3324 140.86C38.827 140.58 39.3917 140.44 40.0264 140.44C40.7637 140.44 41.4124 140.599 41.9724 140.916C42.5417 141.233 42.9897 141.677 43.3164 142.246C43.6524 142.815 43.8204 143.487 43.8204 144.262C43.8204 145.037 43.6524 145.713 43.3164 146.292C42.9897 146.861 42.5417 147.305 41.9724 147.622C41.4124 147.939 40.7637 148.098 40.0264 148.098ZM35.8824 150.716V140.524H37.5484V142.288L37.4924 144.276L37.6324 146.264V150.716H35.8824ZM39.8304 146.6C40.2504 146.6 40.6237 146.507 40.9504 146.32C41.2864 146.133 41.5524 145.863 41.7484 145.508C41.9444 145.153 42.0424 144.738 42.0424 144.262C42.0424 143.777 41.9444 143.361 41.7484 143.016C41.5524 142.661 41.2864 142.391 40.9504 142.204C40.6237 142.017 40.2504 141.924 39.8304 141.924C39.4104 141.924 39.0324 142.017 38.6964 142.204C38.3604 142.391 38.0944 142.661 37.8984 143.016C37.7024 143.361 37.6044 143.777 37.6044 144.262C37.6044 144.738 37.7024 145.153 37.8984 145.508C38.0944 145.863 38.3604 146.133 38.6964 146.32C39.0324 146.507 39.4104 146.6 39.8304 146.6ZM46.642 146.362V144.906L52.55 142.694V143.506L46.642 141.294V139.838L53.096 142.344V143.856L46.642 146.362ZM61.2418 148.14C60.4952 148.14 59.7998 148.019 59.1558 147.776C58.5212 147.524 57.9658 147.174 57.4898 146.726C57.0232 146.269 56.6592 145.732 56.3978 145.116C56.1365 144.5 56.0058 143.828 56.0058 143.1C56.0058 142.372 56.1365 141.7 56.3978 141.084C56.6592 140.468 57.0278 139.936 57.5038 139.488C57.9798 139.031 58.5352 138.681 59.1698 138.438C59.8045 138.186 60.4998 138.06 61.2558 138.06C62.0585 138.06 62.7912 138.2 63.4538 138.48C64.1165 138.751 64.6765 139.157 65.1338 139.698L63.9578 140.804C63.6032 140.421 63.2065 140.137 62.7678 139.95C62.3292 139.754 61.8532 139.656 61.3398 139.656C60.8265 139.656 60.3552 139.74 59.9258 139.908C59.5058 140.076 59.1372 140.314 58.8198 140.622C58.5118 140.93 58.2692 141.294 58.0918 141.714C57.9238 142.134 57.8398 142.596 57.8398 143.1C57.8398 143.604 57.9238 144.066 58.0918 144.486C58.2692 144.906 58.5118 145.27 58.8198 145.578C59.1372 145.886 59.5058 146.124 59.9258 146.292C60.3552 146.46 60.8265 146.544 61.3398 146.544C61.8532 146.544 62.3292 146.451 62.7678 146.264C63.2065 146.068 63.6032 145.774 63.9578 145.382L65.1338 146.502C64.6765 147.034 64.1165 147.44 63.4538 147.72C62.7912 148 62.0538 148.14 61.2418 148.14ZM68.1097 148V140.524H69.7757V142.582L69.5797 141.98C69.8037 141.476 70.1537 141.093 70.6297 140.832C71.1151 140.571 71.7171 140.44 72.4357 140.44V142.106C72.3611 142.087 72.2911 142.078 72.2257 142.078C72.1604 142.069 72.0951 142.064 72.0297 142.064C71.3671 142.064 70.8397 142.26 70.4477 142.652C70.0557 143.035 69.8597 143.609 69.8597 144.374V148H68.1097ZM79.3931 148V146.488L79.2951 146.166V143.52C79.2951 143.007 79.1411 142.61 78.8331 142.33C78.5251 142.041 78.0584 141.896 77.4331 141.896C77.0131 141.896 76.5977 141.961 76.1871 142.092C75.7857 142.223 75.4451 142.405 75.1651 142.638L74.4791 141.364C74.8804 141.056 75.3564 140.827 75.9071 140.678C76.4671 140.519 77.0457 140.44 77.6431 140.44C78.7257 140.44 79.5611 140.701 80.1491 141.224C80.7464 141.737 81.0451 142.535 81.0451 143.618V148H79.3931ZM77.0411 148.098C76.4811 148.098 75.9911 148.005 75.5711 147.818C75.1511 147.622 74.8244 147.356 74.5911 147.02C74.3671 146.675 74.2551 146.287 74.2551 145.858C74.2551 145.438 74.3531 145.06 74.5491 144.724C74.7544 144.388 75.0857 144.122 75.5431 143.926C76.0004 143.73 76.6071 143.632 77.3631 143.632H79.5331V144.794H77.4891C76.8917 144.794 76.4904 144.892 76.2851 145.088C76.0797 145.275 75.9771 145.508 75.9771 145.788C75.9771 146.105 76.1031 146.357 76.3551 146.544C76.6071 146.731 76.9571 146.824 77.4051 146.824C77.8344 146.824 78.2171 146.726 78.5531 146.53C78.8984 146.334 79.1457 146.045 79.2951 145.662L79.5891 146.712C79.4211 147.151 79.1177 147.491 78.6791 147.734C78.2497 147.977 77.7037 148.098 77.0411 148.098ZM84.929 148V140.104C84.929 139.32 85.1576 138.695 85.615 138.228C86.0816 137.752 86.7443 137.514 87.603 137.514C87.911 137.514 88.2003 137.547 88.471 137.612C88.751 137.677 88.9843 137.78 89.171 137.92L88.695 139.236C88.5643 139.133 88.415 139.059 88.247 139.012C88.079 138.956 87.9063 138.928 87.729 138.928C87.365 138.928 87.0896 139.031 86.903 139.236C86.7163 139.432 86.623 139.731 86.623 140.132V140.972L86.679 141.756V148H84.929ZM83.697 141.98V140.58H88.681V141.98H83.697ZM94.0729 148.098C93.2516 148.098 92.6169 147.888 92.1689 147.468C91.7209 147.039 91.4969 146.409 91.4969 145.578V138.872H93.2469V145.536C93.2469 145.891 93.3356 146.166 93.5129 146.362C93.6996 146.558 93.9563 146.656 94.2829 146.656C94.6749 146.656 95.0016 146.553 95.2629 146.348L95.7529 147.594C95.5476 147.762 95.2956 147.888 94.9969 147.972C94.6983 148.056 94.3903 148.098 94.0729 148.098ZM90.2649 141.98V140.58H95.2489V141.98H90.2649ZM98.5925 148V140.524H100.343V148H98.5925ZM99.4745 139.292C99.1479 139.292 98.8772 139.189 98.6625 138.984C98.4572 138.779 98.3545 138.531 98.3545 138.242C98.3545 137.943 98.4572 137.696 98.6625 137.5C98.8772 137.295 99.1479 137.192 99.4745 137.192C99.8012 137.192 100.067 137.29 100.273 137.486C100.487 137.673 100.595 137.911 100.595 138.2C100.595 138.508 100.492 138.769 100.287 138.984C100.081 139.189 99.8105 139.292 99.4745 139.292ZM108.281 140.44C108.879 140.44 109.411 140.557 109.877 140.79C110.353 141.023 110.727 141.383 110.997 141.868C111.268 142.344 111.403 142.96 111.403 143.716V148H109.653V143.94C109.653 143.277 109.495 142.783 109.177 142.456C108.869 142.129 108.435 141.966 107.875 141.966C107.465 141.966 107.101 142.05 106.783 142.218C106.466 142.386 106.219 142.638 106.041 142.974C105.873 143.301 105.789 143.716 105.789 144.22V148H104.039V140.524H105.705V142.54L105.411 141.924C105.673 141.448 106.051 141.084 106.545 140.832C107.049 140.571 107.628 140.44 108.281 140.44ZM118.425 150.814C117.734 150.814 117.058 150.721 116.395 150.534C115.742 150.357 115.205 150.095 114.785 149.75L115.569 148.434C115.896 148.705 116.306 148.919 116.801 149.078C117.305 149.246 117.814 149.33 118.327 149.33C119.148 149.33 119.75 149.139 120.133 148.756C120.516 148.383 120.707 147.818 120.707 147.062V145.732L120.847 144.038L120.791 142.344V140.524H122.457V146.866C122.457 148.219 122.112 149.213 121.421 149.848C120.73 150.492 119.732 150.814 118.425 150.814ZM118.201 147.664C117.492 147.664 116.848 147.515 116.269 147.216C115.7 146.908 115.247 146.483 114.911 145.942C114.584 145.401 114.421 144.766 114.421 144.038C114.421 143.319 114.584 142.689 114.911 142.148C115.247 141.607 115.7 141.187 116.269 140.888C116.848 140.589 117.492 140.44 118.201 140.44C118.836 140.44 119.405 140.566 119.909 140.818C120.413 141.07 120.814 141.462 121.113 141.994C121.421 142.526 121.575 143.207 121.575 144.038C121.575 144.869 121.421 145.555 121.113 146.096C120.814 146.628 120.413 147.025 119.909 147.286C119.405 147.538 118.836 147.664 118.201 147.664ZM118.467 146.18C118.906 146.18 119.298 146.091 119.643 145.914C119.988 145.727 120.254 145.475 120.441 145.158C120.637 144.831 120.735 144.458 120.735 144.038C120.735 143.618 120.637 143.249 120.441 142.932C120.254 142.605 119.988 142.358 119.643 142.19C119.298 142.013 118.906 141.924 118.467 141.924C118.028 141.924 117.632 142.013 117.277 142.19C116.932 142.358 116.661 142.605 116.465 142.932C116.278 143.249 116.185 143.618 116.185 144.038C116.185 144.458 116.278 144.831 116.465 145.158C116.661 145.475 116.932 145.727 117.277 145.914C117.632 146.091 118.028 146.18 118.467 146.18ZM134.857 148.098C134.073 148.098 133.373 147.935 132.757 147.608C132.15 147.272 131.674 146.815 131.329 146.236C130.984 145.657 130.811 144.999 130.811 144.262C130.811 143.515 130.984 142.857 131.329 142.288C131.674 141.709 132.15 141.257 132.757 140.93C133.373 140.603 134.073 140.44 134.857 140.44C135.585 140.44 136.224 140.589 136.775 140.888C137.335 141.177 137.76 141.607 138.049 142.176L136.705 142.96C136.481 142.605 136.206 142.344 135.879 142.176C135.562 142.008 135.216 141.924 134.843 141.924C134.414 141.924 134.026 142.017 133.681 142.204C133.336 142.391 133.065 142.661 132.869 143.016C132.673 143.361 132.575 143.777 132.575 144.262C132.575 144.747 132.673 145.167 132.869 145.522C133.065 145.867 133.336 146.133 133.681 146.32C134.026 146.507 134.414 146.6 134.843 146.6C135.216 146.6 135.562 146.516 135.879 146.348C136.206 146.18 136.481 145.919 136.705 145.564L138.049 146.348C137.76 146.908 137.335 147.342 136.775 147.65C136.224 147.949 135.585 148.098 134.857 148.098ZM144.212 148.098C143.447 148.098 142.766 147.935 142.168 147.608C141.571 147.272 141.1 146.815 140.754 146.236C140.409 145.657 140.236 144.999 140.236 144.262C140.236 143.515 140.409 142.857 140.754 142.288C141.1 141.709 141.571 141.257 142.168 140.93C142.766 140.603 143.447 140.44 144.212 140.44C144.987 140.44 145.673 140.603 146.27 140.93C146.877 141.257 147.348 141.705 147.684 142.274C148.03 142.843 148.202 143.506 148.202 144.262C148.202 144.999 148.03 145.657 147.684 146.236C147.348 146.815 146.877 147.272 146.27 147.608C145.673 147.935 144.987 148.098 144.212 148.098ZM144.212 146.6C144.642 146.6 145.024 146.507 145.36 146.32C145.696 146.133 145.958 145.863 146.144 145.508C146.34 145.153 146.438 144.738 146.438 144.262C146.438 143.777 146.34 143.361 146.144 143.016C145.958 142.661 145.696 142.391 145.36 142.204C145.024 142.017 144.646 141.924 144.226 141.924C143.797 141.924 143.414 142.017 143.078 142.204C142.752 142.391 142.49 142.661 142.294 143.016C142.098 143.361 142 143.777 142 144.262C142 144.738 142.098 145.153 142.294 145.508C142.49 145.863 142.752 146.133 143.078 146.32C143.414 146.507 143.792 146.6 144.212 146.6ZM154.44 148.098C153.721 148.098 153.072 147.939 152.494 147.622C151.924 147.295 151.476 146.847 151.15 146.278C150.823 145.709 150.66 145.037 150.66 144.262C150.66 143.487 150.823 142.815 151.15 142.246C151.476 141.677 151.924 141.233 152.494 140.916C153.072 140.599 153.721 140.44 154.44 140.44C155.065 140.44 155.625 140.58 156.12 140.86C156.614 141.131 157.006 141.546 157.296 142.106C157.585 142.666 157.73 143.385 157.73 144.262C157.73 145.13 157.59 145.849 157.31 146.418C157.03 146.978 156.642 147.398 156.148 147.678C155.653 147.958 155.084 148.098 154.44 148.098ZM154.65 146.6C155.07 146.6 155.443 146.507 155.77 146.32C156.106 146.133 156.372 145.863 156.568 145.508C156.773 145.153 156.876 144.738 156.876 144.262C156.876 143.777 156.773 143.361 156.568 143.016C156.372 142.661 156.106 142.391 155.77 142.204C155.443 142.017 155.07 141.924 154.65 141.924C154.23 141.924 153.852 142.017 153.516 142.204C153.189 142.391 152.923 142.661 152.718 143.016C152.522 143.361 152.424 143.777 152.424 144.262C152.424 144.738 152.522 145.153 152.718 145.508C152.923 145.863 153.189 146.133 153.516 146.32C153.852 146.507 154.23 146.6 154.65 146.6ZM156.918 148V146.236L156.988 144.248L156.848 142.26V137.612H158.584V148H156.918ZM165.801 148.098C164.97 148.098 164.242 147.935 163.617 147.608C163.001 147.272 162.52 146.815 162.175 146.236C161.839 145.657 161.671 144.999 161.671 144.262C161.671 143.515 161.834 142.857 162.161 142.288C162.497 141.709 162.954 141.257 163.533 140.93C164.121 140.603 164.788 140.44 165.535 140.44C166.263 140.44 166.912 140.599 167.481 140.916C168.05 141.233 168.498 141.681 168.825 142.26C169.152 142.839 169.315 143.52 169.315 144.304C169.315 144.379 169.31 144.463 169.301 144.556C169.301 144.649 169.296 144.738 169.287 144.822H163.057V143.66H168.363L167.677 144.024C167.686 143.595 167.598 143.217 167.411 142.89C167.224 142.563 166.968 142.307 166.641 142.12C166.324 141.933 165.955 141.84 165.535 141.84C165.106 141.84 164.728 141.933 164.401 142.12C164.084 142.307 163.832 142.568 163.645 142.904C163.468 143.231 163.379 143.618 163.379 144.066V144.346C163.379 144.794 163.482 145.191 163.687 145.536C163.892 145.881 164.182 146.147 164.555 146.334C164.928 146.521 165.358 146.614 165.843 146.614C166.263 146.614 166.641 146.549 166.977 146.418C167.313 146.287 167.612 146.082 167.873 145.802L168.811 146.88C168.475 147.272 168.05 147.575 167.537 147.79C167.033 147.995 166.454 148.098 165.801 148.098ZM180.661 148.14C179.98 148.14 179.369 148.028 178.827 147.804C178.286 147.58 177.861 147.272 177.553 146.88C177.245 146.488 177.091 146.035 177.091 145.522C177.091 145.055 177.194 144.635 177.399 144.262C177.605 143.889 177.931 143.534 178.379 143.198C178.827 142.853 179.401 142.507 180.101 142.162C180.652 141.891 181.081 141.653 181.389 141.448C181.707 141.243 181.926 141.047 182.047 140.86C182.178 140.673 182.243 140.477 182.243 140.272C182.243 139.992 182.145 139.768 181.949 139.6C181.753 139.423 181.473 139.334 181.109 139.334C180.717 139.334 180.409 139.432 180.185 139.628C179.971 139.815 179.863 140.062 179.863 140.37C179.863 140.529 179.891 140.683 179.947 140.832C180.013 140.981 180.125 141.149 180.283 141.336C180.442 141.523 180.671 141.761 180.969 142.05L186.149 147.02L185.183 148.154L179.583 142.778C179.266 142.47 179.009 142.185 178.813 141.924C178.617 141.663 178.477 141.411 178.393 141.168C178.309 140.916 178.267 140.659 178.267 140.398C178.267 139.941 178.384 139.539 178.617 139.194C178.851 138.839 179.182 138.569 179.611 138.382C180.041 138.186 180.54 138.088 181.109 138.088C181.641 138.088 182.099 138.177 182.481 138.354C182.873 138.522 183.177 138.769 183.391 139.096C183.615 139.413 183.727 139.796 183.727 140.244C183.727 140.636 183.629 141 183.433 141.336C183.237 141.663 182.929 141.975 182.509 142.274C182.099 142.573 181.548 142.885 180.857 143.212C180.344 143.464 179.938 143.702 179.639 143.926C179.341 144.15 179.126 144.374 178.995 144.598C178.865 144.822 178.799 145.069 178.799 145.34C178.799 145.611 178.879 145.849 179.037 146.054C179.205 146.259 179.439 146.423 179.737 146.544C180.036 146.656 180.386 146.712 180.787 146.712C181.385 146.712 181.926 146.581 182.411 146.32C182.906 146.049 183.321 145.648 183.657 145.116C183.993 144.584 184.236 143.926 184.385 143.142L185.799 143.604C185.603 144.547 185.263 145.359 184.777 146.04C184.301 146.712 183.713 147.23 183.013 147.594C182.313 147.958 181.529 148.14 180.661 148.14ZM194.219 148V140.524H195.885V142.582L195.689 141.98C195.913 141.476 196.263 141.093 196.739 140.832C197.224 140.571 197.826 140.44 198.545 140.44V142.106C198.47 142.087 198.4 142.078 198.335 142.078C198.27 142.069 198.204 142.064 198.139 142.064C197.476 142.064 196.949 142.26 196.557 142.652C196.165 143.035 195.969 143.609 195.969 144.374V148H194.219ZM204.875 148.098C204.045 148.098 203.317 147.935 202.691 147.608C202.075 147.272 201.595 146.815 201.249 146.236C200.913 145.657 200.745 144.999 200.745 144.262C200.745 143.515 200.909 142.857 201.235 142.288C201.571 141.709 202.029 141.257 202.607 140.93C203.195 140.603 203.863 140.44 204.609 140.44C205.337 140.44 205.986 140.599 206.555 140.916C207.125 141.233 207.573 141.681 207.899 142.26C208.226 142.839 208.389 143.52 208.389 144.304C208.389 144.379 208.385 144.463 208.375 144.556C208.375 144.649 208.371 144.738 208.361 144.822H202.131V143.66H207.437L206.751 144.024C206.761 143.595 206.672 143.217 206.485 142.89C206.299 142.563 206.042 142.307 205.715 142.12C205.398 141.933 205.029 141.84 204.609 141.84C204.18 141.84 203.802 141.933 203.475 142.12C203.158 142.307 202.906 142.568 202.719 142.904C202.542 143.231 202.453 143.618 202.453 144.066V144.346C202.453 144.794 202.556 145.191 202.761 145.536C202.967 145.881 203.256 146.147 203.629 146.334C204.003 146.521 204.432 146.614 204.917 146.614C205.337 146.614 205.715 146.549 206.051 146.418C206.387 146.287 206.686 146.082 206.947 145.802L207.885 146.88C207.549 147.272 207.125 147.575 206.611 147.79C206.107 147.995 205.529 148.098 204.875 148.098ZM213.78 148.098C213.155 148.098 212.553 148.019 211.974 147.86C211.405 147.692 210.952 147.491 210.616 147.258L211.288 145.928C211.624 146.143 212.026 146.32 212.492 146.46C212.959 146.6 213.426 146.67 213.892 146.67C214.443 146.67 214.84 146.595 215.082 146.446C215.334 146.297 215.46 146.096 215.46 145.844C215.46 145.639 215.376 145.485 215.208 145.382C215.04 145.27 214.821 145.186 214.55 145.13C214.28 145.074 213.976 145.023 213.64 144.976C213.314 144.929 212.982 144.869 212.646 144.794C212.32 144.71 212.021 144.593 211.75 144.444C211.48 144.285 211.26 144.075 211.092 143.814C210.924 143.553 210.84 143.207 210.84 142.778C210.84 142.302 210.976 141.891 211.246 141.546C211.517 141.191 211.895 140.921 212.38 140.734C212.875 140.538 213.458 140.44 214.13 140.44C214.634 140.44 215.143 140.496 215.656 140.608C216.17 140.72 216.594 140.879 216.93 141.084L216.258 142.414C215.904 142.199 215.544 142.055 215.18 141.98C214.826 141.896 214.471 141.854 214.116 141.854C213.584 141.854 213.188 141.933 212.926 142.092C212.674 142.251 212.548 142.451 212.548 142.694C212.548 142.918 212.632 143.086 212.8 143.198C212.968 143.31 213.188 143.399 213.458 143.464C213.729 143.529 214.028 143.585 214.354 143.632C214.69 143.669 215.022 143.73 215.348 143.814C215.675 143.898 215.974 144.015 216.244 144.164C216.524 144.304 216.748 144.505 216.916 144.766C217.084 145.027 217.168 145.368 217.168 145.788C217.168 146.255 217.028 146.661 216.748 147.006C216.478 147.351 216.09 147.622 215.586 147.818C215.082 148.005 214.48 148.098 213.78 148.098ZM222.889 148.098C222.068 148.098 221.433 147.888 220.985 147.468C220.537 147.039 220.313 146.409 220.313 145.578V138.872H222.063V145.536C222.063 145.891 222.152 146.166 222.329 146.362C222.516 146.558 222.773 146.656 223.099 146.656C223.491 146.656 223.818 146.553 224.079 146.348L224.569 147.594C224.364 147.762 224.112 147.888 223.813 147.972C223.515 148.056 223.207 148.098 222.889 148.098ZM219.081 141.98V140.58H224.065V141.98H219.081ZM230.523 148.098C229.758 148.098 229.076 147.935 228.479 147.608C227.882 147.272 227.41 146.815 227.065 146.236C226.72 145.657 226.547 144.999 226.547 144.262C226.547 143.515 226.72 142.857 227.065 142.288C227.41 141.709 227.882 141.257 228.479 140.93C229.076 140.603 229.758 140.44 230.523 140.44C231.298 140.44 231.984 140.603 232.581 140.93C233.188 141.257 233.659 141.705 233.995 142.274C234.34 142.843 234.513 143.506 234.513 144.262C234.513 144.999 234.34 145.657 233.995 146.236C233.659 146.815 233.188 147.272 232.581 147.608C231.984 147.935 231.298 148.098 230.523 148.098ZM230.523 146.6C230.952 146.6 231.335 146.507 231.671 146.32C232.007 146.133 232.268 145.863 232.455 145.508C232.651 145.153 232.749 144.738 232.749 144.262C232.749 143.777 232.651 143.361 232.455 143.016C232.268 142.661 232.007 142.391 231.671 142.204C231.335 142.017 230.957 141.924 230.537 141.924C230.108 141.924 229.725 142.017 229.389 142.204C229.062 142.391 228.801 142.661 228.605 143.016C228.409 143.361 228.311 143.777 228.311 144.262C228.311 144.738 228.409 145.153 228.605 145.508C228.801 145.863 229.062 146.133 229.389 146.32C229.725 146.507 230.103 146.6 230.523 146.6ZM237.586 148V140.524H239.252V142.582L239.056 141.98C239.28 141.476 239.63 141.093 240.106 140.832C240.592 140.571 241.194 140.44 241.912 140.44V142.106C241.838 142.087 241.768 142.078 241.702 142.078C241.637 142.069 241.572 142.064 241.506 142.064C240.844 142.064 240.316 142.26 239.924 142.652C239.532 143.035 239.336 143.609 239.336 144.374V148H237.586ZM244.797 148V140.524H246.547V148H244.797ZM245.679 139.292C245.352 139.292 245.082 139.189 244.867 138.984C244.662 138.779 244.559 138.531 244.559 138.242C244.559 137.943 244.662 137.696 244.867 137.5C245.082 137.295 245.352 137.192 245.679 137.192C246.006 137.192 246.272 137.29 246.477 137.486C246.692 137.673 246.799 137.911 246.799 138.2C246.799 138.508 246.696 138.769 246.491 138.984C246.286 139.189 246.015 139.292 245.679 139.292ZM254.486 140.44C255.083 140.44 255.615 140.557 256.082 140.79C256.558 141.023 256.931 141.383 257.202 141.868C257.472 142.344 257.608 142.96 257.608 143.716V148H255.858V143.94C255.858 143.277 255.699 142.783 255.382 142.456C255.074 142.129 254.64 141.966 254.08 141.966C253.669 141.966 253.305 142.05 252.988 142.218C252.67 142.386 252.423 142.638 252.246 142.974C252.078 143.301 251.994 143.716 251.994 144.22V148H250.244V140.524H251.91V142.54L251.616 141.924C251.877 141.448 252.255 141.084 252.75 140.832C253.254 140.571 253.832 140.44 254.486 140.44ZM264.629 150.814C263.939 150.814 263.262 150.721 262.599 150.534C261.946 150.357 261.409 150.095 260.989 149.75L261.773 148.434C262.1 148.705 262.511 148.919 263.005 149.078C263.509 149.246 264.018 149.33 264.531 149.33C265.353 149.33 265.955 149.139 266.337 148.756C266.72 148.383 266.911 147.818 266.911 147.062V145.732L267.051 144.038L266.995 142.344V140.524H268.661V146.866C268.661 148.219 268.316 149.213 267.625 149.848C266.935 150.492 265.936 150.814 264.629 150.814ZM264.405 147.664C263.696 147.664 263.052 147.515 262.473 147.216C261.904 146.908 261.451 146.483 261.115 145.942C260.789 145.401 260.625 144.766 260.625 144.038C260.625 143.319 260.789 142.689 261.115 142.148C261.451 141.607 261.904 141.187 262.473 140.888C263.052 140.589 263.696 140.44 264.405 140.44C265.04 140.44 265.609 140.566 266.113 140.818C266.617 141.07 267.019 141.462 267.317 141.994C267.625 142.526 267.779 143.207 267.779 144.038C267.779 144.869 267.625 145.555 267.317 146.096C267.019 146.628 266.617 147.025 266.113 147.286C265.609 147.538 265.04 147.664 264.405 147.664ZM264.671 146.18C265.11 146.18 265.502 146.091 265.847 145.914C266.193 145.727 266.459 145.475 266.645 145.158C266.841 144.831 266.939 144.458 266.939 144.038C266.939 143.618 266.841 143.249 266.645 142.932C266.459 142.605 266.193 142.358 265.847 142.19C265.502 142.013 265.11 141.924 264.671 141.924C264.233 141.924 263.836 142.013 263.481 142.19C263.136 142.358 262.865 142.605 262.669 142.932C262.483 143.249 262.389 143.618 262.389 144.038C262.389 144.458 262.483 144.831 262.669 145.158C262.865 145.475 263.136 145.727 263.481 145.914C263.836 146.091 264.233 146.18 264.671 146.18ZM280.795 148.098C280.077 148.098 279.428 147.939 278.849 147.622C278.28 147.295 277.832 146.847 277.505 146.278C277.179 145.709 277.015 145.037 277.015 144.262C277.015 143.487 277.179 142.815 277.505 142.246C277.832 141.677 278.28 141.233 278.849 140.916C279.428 140.599 280.077 140.44 280.795 140.44C281.421 140.44 281.981 140.58 282.475 140.86C282.97 141.131 283.362 141.546 283.651 142.106C283.941 142.666 284.085 143.385 284.085 144.262C284.085 145.13 283.945 145.849 283.665 146.418C283.385 146.978 282.998 147.398 282.503 147.678C282.009 147.958 281.439 148.098 280.795 148.098ZM281.005 146.6C281.425 146.6 281.799 146.507 282.125 146.32C282.461 146.133 282.727 145.863 282.923 145.508C283.129 145.153 283.231 144.738 283.231 144.262C283.231 143.777 283.129 143.361 282.923 143.016C282.727 142.661 282.461 142.391 282.125 142.204C281.799 142.017 281.425 141.924 281.005 141.924C280.585 141.924 280.207 142.017 279.871 142.204C279.545 142.391 279.279 142.661 279.073 143.016C278.877 143.361 278.779 143.777 278.779 144.262C278.779 144.738 278.877 145.153 279.073 145.508C279.279 145.863 279.545 146.133 279.871 146.32C280.207 146.507 280.585 146.6 281.005 146.6ZM283.273 148V146.236L283.343 144.248L283.203 142.26V137.612H284.939V148H283.273ZM292.157 148.098C291.326 148.098 290.598 147.935 289.973 147.608C289.357 147.272 288.876 146.815 288.531 146.236C288.195 145.657 288.027 144.999 288.027 144.262C288.027 143.515 288.19 142.857 288.517 142.288C288.853 141.709 289.31 141.257 289.889 140.93C290.477 140.603 291.144 140.44 291.891 140.44C292.619 140.44 293.267 140.599 293.837 140.916C294.406 141.233 294.854 141.681 295.181 142.26C295.507 142.839 295.671 143.52 295.671 144.304C295.671 144.379 295.666 144.463 295.657 144.556C295.657 144.649 295.652 144.738 295.643 144.822H289.413V143.66H294.719L294.033 144.024C294.042 143.595 293.953 143.217 293.767 142.89C293.58 142.563 293.323 142.307 292.997 142.12C292.679 141.933 292.311 141.84 291.891 141.84C291.461 141.84 291.083 141.933 290.757 142.12C290.439 142.307 290.187 142.568 290.001 142.904C289.823 143.231 289.735 143.618 289.735 144.066V144.346C289.735 144.794 289.837 145.191 290.043 145.536C290.248 145.881 290.537 146.147 290.911 146.334C291.284 146.521 291.713 146.614 292.199 146.614C292.619 146.614 292.997 146.549 293.333 146.418C293.669 146.287 293.967 146.082 294.229 145.802L295.167 146.88C294.831 147.272 294.406 147.575 293.893 147.79C293.389 147.995 292.81 148.098 292.157 148.098ZM301.062 148.098C300.436 148.098 299.834 148.019 299.256 147.86C298.686 147.692 298.234 147.491 297.898 147.258L298.57 145.928C298.906 146.143 299.307 146.32 299.774 146.46C300.24 146.6 300.707 146.67 301.174 146.67C301.724 146.67 302.121 146.595 302.364 146.446C302.616 146.297 302.742 146.096 302.742 145.844C302.742 145.639 302.658 145.485 302.49 145.382C302.322 145.27 302.102 145.186 301.832 145.13C301.561 145.074 301.258 145.023 300.922 144.976C300.595 144.929 300.264 144.869 299.928 144.794C299.601 144.71 299.302 144.593 299.032 144.444C298.761 144.285 298.542 144.075 298.374 143.814C298.206 143.553 298.122 143.207 298.122 142.778C298.122 142.302 298.257 141.891 298.528 141.546C298.798 141.191 299.176 140.921 299.662 140.734C300.156 140.538 300.74 140.44 301.412 140.44C301.916 140.44 302.424 140.496 302.938 140.608C303.451 140.72 303.876 140.879 304.212 141.084L303.54 142.414C303.185 142.199 302.826 142.055 302.462 141.98C302.107 141.896 301.752 141.854 301.398 141.854C300.866 141.854 300.469 141.933 300.208 142.092C299.956 142.251 299.83 142.451 299.83 142.694C299.83 142.918 299.914 143.086 300.082 143.198C300.25 143.31 300.469 143.399 300.74 143.464C301.01 143.529 301.309 143.585 301.636 143.632C301.972 143.669 302.303 143.73 302.63 143.814C302.956 143.898 303.255 144.015 303.526 144.164C303.806 144.304 304.03 144.505 304.198 144.766C304.366 145.027 304.45 145.368 304.45 145.788C304.45 146.255 304.31 146.661 304.03 147.006C303.759 147.351 303.372 147.622 302.868 147.818C302.364 148.005 301.762 148.098 301.062 148.098ZM307.357 148V140.524H309.107V148H307.357ZM308.239 139.292C307.912 139.292 307.641 139.189 307.427 138.984C307.221 138.779 307.119 138.531 307.119 138.242C307.119 137.943 307.221 137.696 307.427 137.5C307.641 137.295 307.912 137.192 308.239 137.192C308.565 137.192 308.831 137.29 309.037 137.486C309.251 137.673 309.359 137.911 309.359 138.2C309.359 138.508 309.256 138.769 309.051 138.984C308.845 139.189 308.575 139.292 308.239 139.292ZM316.191 150.814C315.501 150.814 314.824 150.721 314.161 150.534C313.508 150.357 312.971 150.095 312.551 149.75L313.335 148.434C313.662 148.705 314.073 148.919 314.567 149.078C315.071 149.246 315.58 149.33 316.093 149.33C316.915 149.33 317.517 149.139 317.899 148.756C318.282 148.383 318.473 147.818 318.473 147.062V145.732L318.613 144.038L318.557 142.344V140.524H320.223V146.866C320.223 148.219 319.878 149.213 319.187 149.848C318.497 150.492 317.498 150.814 316.191 150.814ZM315.967 147.664C315.258 147.664 314.614 147.515 314.035 147.216C313.466 146.908 313.013 146.483 312.677 145.942C312.351 145.401 312.187 144.766 312.187 144.038C312.187 143.319 312.351 142.689 312.677 142.148C313.013 141.607 313.466 141.187 314.035 140.888C314.614 140.589 315.258 140.44 315.967 140.44C316.602 140.44 317.171 140.566 317.675 140.818C318.179 141.07 318.581 141.462 318.879 141.994C319.187 142.526 319.341 143.207 319.341 144.038C319.341 144.869 319.187 145.555 318.879 146.096C318.581 146.628 318.179 147.025 317.675 147.286C317.171 147.538 316.602 147.664 315.967 147.664ZM316.233 146.18C316.672 146.18 317.064 146.091 317.409 145.914C317.755 145.727 318.021 145.475 318.207 145.158C318.403 144.831 318.501 144.458 318.501 144.038C318.501 143.618 318.403 143.249 318.207 142.932C318.021 142.605 317.755 142.358 317.409 142.19C317.064 142.013 316.672 141.924 316.233 141.924C315.795 141.924 315.398 142.013 315.043 142.19C314.698 142.358 314.427 142.605 314.231 142.932C314.045 143.249 313.951 143.618 313.951 144.038C313.951 144.458 314.045 144.831 314.231 145.158C314.427 145.475 314.698 145.727 315.043 145.914C315.398 146.091 315.795 146.18 316.233 146.18ZM328.166 140.44C328.764 140.44 329.296 140.557 329.762 140.79C330.238 141.023 330.612 141.383 330.882 141.868C331.153 142.344 331.288 142.96 331.288 143.716V148H329.538V143.94C329.538 143.277 329.38 142.783 329.062 142.456C328.754 142.129 328.32 141.966 327.76 141.966C327.35 141.966 326.986 142.05 326.668 142.218C326.351 142.386 326.104 142.638 325.926 142.974C325.758 143.301 325.674 143.716 325.674 144.22V148H323.924V140.524H325.59V142.54L325.296 141.924C325.558 141.448 325.936 141.084 326.43 140.832C326.934 140.571 327.513 140.44 328.166 140.44ZM335.468 148.098C335.151 148.098 334.88 147.991 334.656 147.776C334.432 147.552 334.32 147.272 334.32 146.936C334.32 146.581 334.432 146.301 334.656 146.096C334.88 145.881 335.151 145.774 335.468 145.774C335.785 145.774 336.056 145.881 336.28 146.096C336.504 146.301 336.616 146.581 336.616 146.936C336.616 147.272 336.504 147.552 336.28 147.776C336.056 147.991 335.785 148.098 335.468 148.098ZM345.942 146.362L339.488 143.856V142.344L345.942 139.838V141.294L340.034 143.506V142.694L345.942 144.906V146.362ZM347.816 149.4L352.436 136.212H354.004L349.384 149.4H347.816ZM359.207 148.098C358.601 148.098 358.045 147.958 357.541 147.678C357.047 147.398 356.65 146.978 356.351 146.418C356.062 145.849 355.917 145.13 355.917 144.262C355.917 143.385 356.057 142.666 356.337 142.106C356.627 141.546 357.019 141.131 357.513 140.86C358.008 140.58 358.573 140.44 359.207 140.44C359.945 140.44 360.593 140.599 361.153 140.916C361.723 141.233 362.171 141.677 362.497 142.246C362.833 142.815 363.001 143.487 363.001 144.262C363.001 145.037 362.833 145.713 362.497 146.292C362.171 146.861 361.723 147.305 361.153 147.622C360.593 147.939 359.945 148.098 359.207 148.098ZM355.063 150.716V140.524H356.729V142.288L356.673 144.276L356.813 146.264V150.716H355.063ZM359.011 146.6C359.431 146.6 359.805 146.507 360.131 146.32C360.467 146.133 360.733 145.863 360.929 145.508C361.125 145.153 361.223 144.738 361.223 144.262C361.223 143.777 361.125 143.361 360.929 143.016C360.733 142.661 360.467 142.391 360.131 142.204C359.805 142.017 359.431 141.924 359.011 141.924C358.591 141.924 358.213 142.017 357.877 142.204C357.541 142.391 357.275 142.661 357.079 143.016C356.883 143.361 356.785 143.777 356.785 144.262C356.785 144.738 356.883 145.153 357.079 145.508C357.275 145.863 357.541 146.133 357.877 146.32C358.213 146.507 358.591 146.6 359.011 146.6ZM365.823 146.362V144.906L371.731 142.694V143.506L365.823 141.294V139.838L372.277 142.344V143.856L365.823 146.362ZM27.1714 163.362L20.7174 160.856V159.344L27.1714 156.838V158.294L21.2634 160.506V159.694L27.1714 161.906V163.362ZM29.0452 166.4L33.6652 153.212H35.2332L30.6132 166.4H29.0452ZM38.6025 165.098C37.9772 165.098 37.3752 165.019 36.7965 164.86C36.2272 164.692 35.7745 164.491 35.4385 164.258L36.1105 162.928C36.4465 163.143 36.8479 163.32 37.3145 163.46C37.7812 163.6 38.2479 163.67 38.7145 163.67C39.2652 163.67 39.6619 163.595 39.9045 163.446C40.1565 163.297 40.2825 163.096 40.2825 162.844C40.2825 162.639 40.1985 162.485 40.0305 162.382C39.8625 162.27 39.6432 162.186 39.3725 162.13C39.1019 162.074 38.7985 162.023 38.4625 161.976C38.1359 161.929 37.8045 161.869 37.4685 161.794C37.1419 161.71 36.8432 161.593 36.5725 161.444C36.3019 161.285 36.0825 161.075 35.9145 160.814C35.7465 160.553 35.6625 160.207 35.6625 159.778C35.6625 159.302 35.7979 158.891 36.0685 158.546C36.3392 158.191 36.7172 157.921 37.2025 157.734C37.6972 157.538 38.2805 157.44 38.9525 157.44C39.4565 157.44 39.9652 157.496 40.4785 157.608C40.9919 157.72 41.4165 157.879 41.7525 158.084L41.0805 159.414C40.7259 159.199 40.3665 159.055 40.0025 158.98C39.6479 158.896 39.2932 158.854 38.9385 158.854C38.4065 158.854 38.0099 158.933 37.7485 159.092C37.4965 159.251 37.3705 159.451 37.3705 159.694C37.3705 159.918 37.4545 160.086 37.6225 160.198C37.7905 160.31 38.0099 160.399 38.2805 160.464C38.5512 160.529 38.8499 160.585 39.1765 160.632C39.5125 160.669 39.8439 160.73 40.1705 160.814C40.4972 160.898 40.7959 161.015 41.0665 161.164C41.3465 161.304 41.5705 161.505 41.7385 161.766C41.9065 162.027 41.9905 162.368 41.9905 162.788C41.9905 163.255 41.8505 163.661 41.5705 164.006C41.2999 164.351 40.9125 164.622 40.4085 164.818C39.9045 165.005 39.3025 165.098 38.6025 165.098ZM48.4116 165.098C47.5809 165.098 46.8529 164.935 46.2276 164.608C45.6116 164.272 45.1309 163.815 44.7856 163.236C44.4496 162.657 44.2816 161.999 44.2816 161.262C44.2816 160.515 44.4449 159.857 44.7716 159.288C45.1076 158.709 45.5649 158.257 46.1436 157.93C46.7316 157.603 47.3989 157.44 48.1456 157.44C48.8736 157.44 49.5223 157.599 50.0916 157.916C50.6609 158.233 51.1089 158.681 51.4356 159.26C51.7623 159.839 51.9256 160.52 51.9256 161.304C51.9256 161.379 51.9209 161.463 51.9116 161.556C51.9116 161.649 51.9069 161.738 51.8976 161.822H45.6676V160.66H50.9736L50.2876 161.024C50.2969 160.595 50.2083 160.217 50.0216 159.89C49.8349 159.563 49.5783 159.307 49.2516 159.12C48.9343 158.933 48.5656 158.84 48.1456 158.84C47.7163 158.84 47.3383 158.933 47.0116 159.12C46.6943 159.307 46.4423 159.568 46.2556 159.904C46.0783 160.231 45.9896 160.618 45.9896 161.066V161.346C45.9896 161.794 46.0923 162.191 46.2976 162.536C46.5029 162.881 46.7923 163.147 47.1656 163.334C47.5389 163.521 47.9683 163.614 48.4536 163.614C48.8736 163.614 49.2516 163.549 49.5876 163.418C49.9236 163.287 50.2223 163.082 50.4836 162.802L51.4216 163.88C51.0856 164.272 50.6609 164.575 50.1476 164.79C49.6436 164.995 49.0649 165.098 48.4116 165.098ZM58.4366 165.098C57.6526 165.098 56.9526 164.935 56.3366 164.608C55.7299 164.272 55.2539 163.815 54.9086 163.236C54.5633 162.657 54.3906 161.999 54.3906 161.262C54.3906 160.515 54.5633 159.857 54.9086 159.288C55.2539 158.709 55.7299 158.257 56.3366 157.93C56.9526 157.603 57.6526 157.44 58.4366 157.44C59.1646 157.44 59.8039 157.589 60.3546 157.888C60.9146 158.177 61.3393 158.607 61.6286 159.176L60.2846 159.96C60.0606 159.605 59.7853 159.344 59.4586 159.176C59.1413 159.008 58.7959 158.924 58.4226 158.924C57.9933 158.924 57.6059 159.017 57.2606 159.204C56.9153 159.391 56.6446 159.661 56.4486 160.016C56.2526 160.361 56.1546 160.777 56.1546 161.262C56.1546 161.747 56.2526 162.167 56.4486 162.522C56.6446 162.867 56.9153 163.133 57.2606 163.32C57.6059 163.507 57.9933 163.6 58.4226 163.6C58.7959 163.6 59.1413 163.516 59.4586 163.348C59.7853 163.18 60.0606 162.919 60.2846 162.564L61.6286 163.348C61.3393 163.908 60.9146 164.342 60.3546 164.65C59.8039 164.949 59.1646 165.098 58.4366 165.098ZM67.4511 165.098C66.6297 165.098 65.9951 164.888 65.5471 164.468C65.0991 164.039 64.8751 163.409 64.8751 162.578V155.872H66.6251V162.536C66.6251 162.891 66.7137 163.166 66.8911 163.362C67.0777 163.558 67.3344 163.656 67.6611 163.656C68.0531 163.656 68.3797 163.553 68.6411 163.348L69.1311 164.594C68.9257 164.762 68.6737 164.888 68.3751 164.972C68.0764 165.056 67.7684 165.098 67.4511 165.098ZM63.6431 158.98V157.58H68.6271V158.98H63.6431ZM71.9707 165V157.524H73.7207V165H71.9707ZM72.8527 156.292C72.526 156.292 72.2553 156.189 72.0407 155.984C71.8353 155.779 71.7327 155.531 71.7327 155.242C71.7327 154.943 71.8353 154.696 72.0407 154.5C72.2553 154.295 72.526 154.192 72.8527 154.192C73.1793 154.192 73.4453 154.29 73.6507 154.486C73.8653 154.673 73.9727 154.911 73.9727 155.2C73.9727 155.508 73.87 155.769 73.6647 155.984C73.4593 156.189 73.1887 156.292 72.8527 156.292ZM80.7775 165.098C80.0122 165.098 79.3309 164.935 78.7335 164.608C78.1362 164.272 77.6649 163.815 77.3195 163.236C76.9742 162.657 76.8015 161.999 76.8015 161.262C76.8015 160.515 76.9742 159.857 77.3195 159.288C77.6649 158.709 78.1362 158.257 78.7335 157.93C79.3309 157.603 80.0122 157.44 80.7775 157.44C81.5522 157.44 82.2382 157.603 82.8355 157.93C83.4422 158.257 83.9135 158.705 84.2495 159.274C84.5949 159.843 84.7675 160.506 84.7675 161.262C84.7675 161.999 84.5949 162.657 84.2495 163.236C83.9135 163.815 83.4422 164.272 82.8355 164.608C82.2382 164.935 81.5522 165.098 80.7775 165.098ZM80.7775 163.6C81.2069 163.6 81.5895 163.507 81.9255 163.32C82.2615 163.133 82.5229 162.863 82.7095 162.508C82.9055 162.153 83.0035 161.738 83.0035 161.262C83.0035 160.777 82.9055 160.361 82.7095 160.016C82.5229 159.661 82.2615 159.391 81.9255 159.204C81.5895 159.017 81.2115 158.924 80.7915 158.924C80.3622 158.924 79.9795 159.017 79.6435 159.204C79.3169 159.391 79.0555 159.661 78.8595 160.016C78.6635 160.361 78.5655 160.777 78.5655 161.262C78.5655 161.738 78.6635 162.153 78.8595 162.508C79.0555 162.863 79.3169 163.133 79.6435 163.32C79.9795 163.507 80.3575 163.6 80.7775 163.6ZM92.083 157.44C92.6803 157.44 93.2123 157.557 93.679 157.79C94.155 158.023 94.5283 158.383 94.799 158.868C95.0696 159.344 95.205 159.96 95.205 160.716V165H93.455V160.94C93.455 160.277 93.2963 159.783 92.979 159.456C92.671 159.129 92.237 158.966 91.677 158.966C91.2663 158.966 90.9023 159.05 90.585 159.218C90.2676 159.386 90.0203 159.638 89.843 159.974C89.675 160.301 89.591 160.716 89.591 161.22V165H87.841V157.524H89.507V159.54L89.213 158.924C89.4743 158.448 89.8523 158.084 90.347 157.832C90.851 157.571 91.4296 157.44 92.083 157.44ZM98.587 163.362V161.906L104.495 159.694V160.506L98.587 158.294V156.838L105.041 159.344V160.856L98.587 163.362ZM16.5123 184.716H14.8463C15.4249 183.689 15.8449 182.644 16.1063 181.58C16.3769 180.507 16.5123 179.368 16.5123 178.164C16.5123 176.96 16.3769 175.826 16.1063 174.762C15.8449 173.689 15.4249 172.639 14.8463 171.612H16.5123C17.0723 172.443 17.4969 173.423 17.7863 174.552C18.0756 175.672 18.2203 176.876 18.2203 178.164C18.2203 179.452 18.0756 180.656 17.7863 181.776C17.4969 182.887 17.0723 183.867 16.5123 184.716ZM22.5135 176.764C22.1961 176.764 21.9255 176.657 21.7015 176.442C21.4775 176.218 21.3655 175.938 21.3655 175.602C21.3655 175.247 21.4775 174.967 21.7015 174.762C21.9255 174.547 22.1961 174.44 22.5135 174.44C22.8308 174.44 23.1015 174.547 23.3255 174.762C23.5495 174.967 23.6615 175.247 23.6615 175.602C23.6615 175.938 23.5495 176.218 23.3255 176.442C23.1015 176.657 22.8308 176.764 22.5135 176.764ZM21.4915 184.114L22.3035 181.02L22.5415 182.056C22.2148 182.056 21.9395 181.958 21.7155 181.762C21.5008 181.557 21.3935 181.281 21.3935 180.936C21.3935 180.581 21.5008 180.301 21.7155 180.096C21.9395 179.881 22.2101 179.774 22.5275 179.774C22.8541 179.774 23.1248 179.881 23.3395 180.096C23.5541 180.311 23.6615 180.591 23.6615 180.936C23.6615 181.029 23.6521 181.132 23.6335 181.244C23.6148 181.347 23.5821 181.468 23.5355 181.608C23.4981 181.748 23.4328 181.925 23.3395 182.14L22.6255 184.114H21.4915ZM4.938 201.716H4.238V200.316H4.532C4.88667 200.316 5.148 200.223 5.316 200.036C5.49333 199.849 5.582 199.588 5.582 199.252V196.592C5.582 196.219 5.62867 195.929 5.722 195.724C5.82467 195.519 5.974 195.365 6.17 195.262C6.366 195.159 6.618 195.089 6.926 195.052V195.276C6.618 195.229 6.366 195.159 6.17 195.066C5.974 194.963 5.82467 194.809 5.722 194.604C5.62867 194.399 5.582 194.109 5.582 193.736V191.076C5.582 190.74 5.49333 190.479 5.316 190.292C5.148 190.105 4.88667 190.012 4.532 190.012H4.238V188.612H4.938C5.73133 188.612 6.32867 188.808 6.73 189.2C7.13133 189.583 7.332 190.147 7.332 190.894V193.778C7.332 194.002 7.388 194.17 7.5 194.282C7.612 194.394 7.76133 194.45 7.948 194.45H8.424V195.878H7.948C7.76133 195.878 7.612 195.934 7.5 196.046C7.388 196.149 7.332 196.317 7.332 196.55V199.434C7.332 200.171 7.13133 200.736 6.73 201.128C6.32867 201.52 5.73133 201.716 4.938 201.716ZM12.2896 193.764C11.9723 193.764 11.7016 193.657 11.4776 193.442C11.2536 193.218 11.1416 192.938 11.1416 192.602C11.1416 192.247 11.2536 191.967 11.4776 191.762C11.7016 191.547 11.9723 191.44 12.2896 191.44C12.607 191.44 12.8776 191.547 13.1016 191.762C13.3256 191.967 13.4376 192.247 13.4376 192.602C13.4376 192.938 13.3256 193.218 13.1016 193.442C12.8776 193.657 12.607 193.764 12.2896 193.764ZM11.2676 201.114L12.0796 198.02L12.3176 199.056C11.991 199.056 11.7156 198.958 11.4916 198.762C11.277 198.557 11.1696 198.281 11.1696 197.936C11.1696 197.581 11.277 197.301 11.4916 197.096C11.7156 196.881 11.9863 196.774 12.3036 196.774C12.6303 196.774 12.901 196.881 13.1156 197.096C13.3303 197.311 13.4376 197.591 13.4376 197.936C13.4376 198.029 13.4283 198.132 13.4096 198.244C13.391 198.347 13.3583 198.468 13.3116 198.608C13.2743 198.748 13.209 198.925 13.1156 199.14L12.4016 201.114H11.2676Z" fill="#620B58"/>
<path d="M97.0904 131V108.6H101.378L110.914 124.408H108.642L118.018 108.6H122.274L122.338 131H117.474L117.442 116.056H118.338L110.85 128.632H108.514L100.866 116.056H101.954V131H97.0904ZM132.677 137.464C131.781 137.464 130.896 137.325 130.021 137.048C129.146 136.771 128.432 136.387 127.877 135.896L129.701 132.344C130.085 132.685 130.522 132.952 131.013 133.144C131.525 133.336 132.026 133.432 132.517 133.432C133.221 133.432 133.776 133.261 134.181 132.92C134.608 132.6 134.992 132.056 135.333 131.288L136.229 129.176L136.613 128.632L142.789 113.784H147.589L139.813 132.056C139.258 133.443 138.618 134.531 137.893 135.32C137.189 136.109 136.4 136.664 135.525 136.984C134.672 137.304 133.722 137.464 132.677 137.464ZM135.621 131.672L127.941 113.784H133.093L139.045 128.184L135.621 131.672ZM160.444 131.384C158.652 131.384 156.935 131.149 155.292 130.68C153.649 130.189 152.327 129.56 151.324 128.792L153.084 124.888C154.044 125.571 155.175 126.136 156.476 126.584C157.799 127.011 159.132 127.224 160.476 127.224C161.5 127.224 162.321 127.128 162.94 126.936C163.58 126.723 164.049 126.435 164.348 126.072C164.647 125.709 164.796 125.293 164.796 124.824C164.796 124.227 164.561 123.757 164.092 123.416C163.623 123.053 163.004 122.765 162.236 122.552C161.468 122.317 160.615 122.104 159.676 121.912C158.759 121.699 157.831 121.443 156.892 121.144C155.975 120.845 155.132 120.461 154.364 119.992C153.596 119.523 152.967 118.904 152.476 118.136C152.007 117.368 151.772 116.387 151.772 115.192C151.772 113.912 152.113 112.749 152.796 111.704C153.5 110.637 154.545 109.795 155.932 109.176C157.34 108.536 159.1 108.216 161.212 108.216C162.62 108.216 164.007 108.387 165.372 108.728C166.737 109.048 167.943 109.539 168.988 110.2L167.388 114.136C166.343 113.539 165.297 113.101 164.252 112.824C163.207 112.525 162.183 112.376 161.18 112.376C160.177 112.376 159.356 112.493 158.716 112.728C158.076 112.963 157.617 113.272 157.34 113.656C157.063 114.019 156.924 114.445 156.924 114.936C156.924 115.512 157.159 115.981 157.628 116.344C158.097 116.685 158.716 116.963 159.484 117.176C160.252 117.389 161.095 117.603 162.012 117.816C162.951 118.029 163.879 118.275 164.796 118.552C165.735 118.829 166.588 119.203 167.356 119.672C168.124 120.141 168.743 120.76 169.212 121.528C169.703 122.296 169.948 123.267 169.948 124.44C169.948 125.699 169.596 126.851 168.892 127.896C168.188 128.941 167.132 129.784 165.724 130.424C164.337 131.064 162.577 131.384 160.444 131.384ZM183.378 131.256C181.352 131.256 179.773 130.744 178.642 129.72C177.512 128.675 176.946 127.128 176.946 125.08V109.976H181.938V125.016C181.938 125.741 182.13 126.307 182.514 126.712C182.898 127.096 183.421 127.288 184.082 127.288C184.872 127.288 185.544 127.075 186.098 126.648L187.442 130.168C186.93 130.531 186.312 130.808 185.586 131C184.882 131.171 184.146 131.256 183.378 131.256ZM174.29 118.008V114.168H186.226V118.008H174.29ZM201.105 131.256C199.271 131.256 197.639 130.872 196.209 130.104C194.801 129.336 193.681 128.291 192.849 126.968C192.039 125.624 191.633 124.099 191.633 122.392C191.633 120.664 192.039 119.139 192.849 117.816C193.681 116.472 194.801 115.427 196.209 114.68C197.639 113.912 199.271 113.528 201.105 113.528C202.919 113.528 204.54 113.912 205.969 114.68C207.399 115.427 208.519 116.461 209.329 117.784C210.14 119.107 210.545 120.643 210.545 122.392C210.545 124.099 210.14 125.624 209.329 126.968C208.519 128.291 207.399 129.336 205.969 130.104C204.54 130.872 202.919 131.256 201.105 131.256ZM201.105 127.16C201.937 127.16 202.684 126.968 203.345 126.584C204.007 126.2 204.529 125.656 204.913 124.952C205.297 124.227 205.489 123.373 205.489 122.392C205.489 121.389 205.297 120.536 204.913 119.832C204.529 119.128 204.007 118.584 203.345 118.2C202.684 117.816 201.937 117.624 201.105 117.624C200.273 117.624 199.527 117.816 198.865 118.2C198.204 118.584 197.671 119.128 197.265 119.832C196.881 120.536 196.689 121.389 196.689 122.392C196.689 123.373 196.881 124.227 197.265 124.952C197.671 125.656 198.204 126.2 198.865 126.584C199.527 126.968 200.273 127.16 201.105 127.16ZM217.082 131V113.784H221.85V118.648L221.178 117.24C221.69 116.024 222.511 115.107 223.642 114.488C224.773 113.848 226.149 113.528 227.77 113.528V118.136C227.557 118.115 227.365 118.104 227.194 118.104C227.023 118.083 226.842 118.072 226.65 118.072C225.285 118.072 224.175 118.467 223.322 119.256C222.49 120.024 222.074 121.229 222.074 122.872V131H217.082ZM236.708 137.464C235.812 137.464 234.927 137.325 234.052 137.048C233.177 136.771 232.463 136.387 231.908 135.896L233.732 132.344C234.116 132.685 234.553 132.952 235.044 133.144C235.556 133.336 236.057 133.432 236.548 133.432C237.252 133.432 237.807 133.261 238.212 132.92C238.639 132.6 239.023 132.056 239.364 131.288L240.26 129.176L240.644 128.632L246.82 113.784H251.62L243.844 132.056C243.289 133.443 242.649 134.531 241.924 135.32C241.22 136.109 240.431 136.664 239.556 136.984C238.703 137.304 237.753 137.464 236.708 137.464ZM239.652 131.672L231.972 113.784H237.124L243.076 128.184L239.652 131.672Z" fill="white"/>
</svg>
