<svg viewBox="0 0 378 250" fill="none" xmlns="http://www.w3.org/2000/svg">
<rect x="0.5" y="0.5" width="377" height="249" fill="#13120D" stroke="white"/>
<path d="M342.213 18.2081C341.885 18.2138 341.573 18.3479 341.343 18.5817C341.114 18.8155 340.985 19.1301 340.985 19.4579C340.985 19.7856 341.114 20.1003 341.343 20.334C341.573 20.5678 341.885 20.702 342.213 20.7077L356.886 20.7077L339.579 38.0141C339.345 38.2485 339.213 38.5665 339.213 38.898C339.213 39.2295 339.345 39.5475 339.579 39.7819C339.814 40.0163 340.131 40.148 340.463 40.148C340.795 40.148 341.112 40.0163 341.347 39.7819L358.653 22.4754L358.653 37.1479C358.659 37.4756 358.793 37.788 359.027 38.0177C359.261 38.2475 359.575 38.3762 359.903 38.3762C360.231 38.3762 360.546 38.2475 360.779 38.0177C361.013 37.788 361.147 37.4756 361.153 37.1479L361.153 19.4702C361.153 19.1388 361.021 18.8209 360.787 18.5866C360.552 18.3522 360.235 18.2205 359.903 18.2204L342.225 18.2204L342.213 18.2081Z" fill="white"/>
<path d="M50.2837 28.485L47.4662 26.14C46.6803 25.4846 45.6896 25.1255 44.6663 25.125H28.75C27.5897 25.125 26.4769 25.5859 25.6564 26.4064C24.8359 27.2269 24.375 28.3397 24.375 29.5V64.5C24.375 65.6603 24.8359 66.7731 25.6564 67.5936C26.4769 68.4141 27.5897 68.875 28.75 68.875H81.25C82.4103 68.875 83.5231 68.4141 84.3436 67.5936C85.1641 66.7731 85.625 65.6603 85.625 64.5V33.875C85.625 32.7147 85.1641 31.6019 84.3436 30.7814C83.5231 29.9609 82.4103 29.5 81.25 29.5H53.0837C52.0604 29.4995 51.0697 29.1404 50.2837 28.485Z" fill="#620B58"/>
<rect x="76" y="152" width="2" height="47" fill="#620B58"/>
<rect x="105" y="152" width="2" height="50" transform="rotate(90 105 152)" fill="#620B58"/>
<rect x="85" y="95" width="2" height="29" transform="rotate(90 85 95)" fill="#620B58"/>
<rect x="105" y="199" width="2" height="29" transform="rotate(90 105 199)" fill="#620B58"/>
<rect x="54" y="85" width="2" height="69" fill="#620B58"/>
<path d="M112.889 112.6L124.769 78.688H129.773L117.893 112.6H112.889ZM143.53 109.288C141.898 109.288 140.47 108.928 139.246 108.208C138.022 107.488 137.062 106.396 136.366 104.932C135.694 103.444 135.358 101.572 135.358 99.316C135.358 97.036 135.682 95.164 136.33 93.7C136.978 92.236 137.914 91.144 139.138 90.424C140.362 89.704 141.826 89.344 143.53 89.344C145.354 89.344 146.986 89.764 148.426 90.604C149.89 91.42 151.042 92.572 151.882 94.06C152.746 95.548 153.178 97.3 153.178 99.316C153.178 101.356 152.746 103.12 151.882 104.608C151.042 106.096 149.89 107.248 148.426 108.064C146.986 108.88 145.354 109.288 143.53 109.288ZM132.082 115.984V89.632H137.446V93.592L137.338 99.352L137.698 105.076V115.984H132.082ZM142.558 104.68C143.494 104.68 144.322 104.464 145.042 104.032C145.786 103.6 146.374 102.988 146.806 102.196C147.262 101.38 147.49 100.42 147.49 99.316C147.49 98.188 147.262 97.228 146.806 96.436C146.374 95.644 145.786 95.032 145.042 94.6C144.322 94.168 143.494 93.952 142.558 93.952C141.622 93.952 140.782 94.168 140.038 94.6C139.294 95.032 138.706 95.644 138.274 96.436C137.842 97.228 137.626 98.188 137.626 99.316C137.626 100.42 137.842 101.38 138.274 102.196C138.706 102.988 139.294 103.6 140.038 104.032C140.782 104.464 141.622 104.68 142.558 104.68ZM169.753 109.288C167.689 109.288 165.853 108.856 164.245 107.992C162.661 107.128 161.401 105.952 160.465 104.464C159.553 102.952 159.097 101.236 159.097 99.316C159.097 97.372 159.553 95.656 160.465 94.168C161.401 92.656 162.661 91.48 164.245 90.64C165.853 89.776 167.689 89.344 169.753 89.344C171.793 89.344 173.617 89.776 175.225 90.64C176.833 91.48 178.093 92.644 179.005 94.132C179.917 95.62 180.373 97.348 180.373 99.316C180.373 101.236 179.917 102.952 179.005 104.464C178.093 105.952 176.833 107.128 175.225 107.992C173.617 108.856 171.793 109.288 169.753 109.288ZM169.753 104.68C170.689 104.68 171.529 104.464 172.273 104.032C173.017 103.6 173.605 102.988 174.037 102.196C174.469 101.38 174.685 100.42 174.685 99.316C174.685 98.188 174.469 97.228 174.037 96.436C173.605 95.644 173.017 95.032 172.273 94.6C171.529 94.168 170.689 93.952 169.753 93.952C168.817 93.952 167.977 94.168 167.233 94.6C166.489 95.032 165.889 95.644 165.433 96.436C165.001 97.228 164.785 98.188 164.785 99.316C164.785 100.42 165.001 101.38 165.433 102.196C165.889 102.988 166.489 103.6 167.233 104.032C167.977 104.464 168.817 104.68 169.753 104.68ZM187.727 109V89.632H193.091V95.104L192.335 93.52C192.911 92.152 193.835 91.12 195.107 90.424C196.379 89.704 197.927 89.344 199.751 89.344V94.528C199.511 94.504 199.295 94.492 199.103 94.492C198.911 94.468 198.707 94.456 198.491 94.456C196.955 94.456 195.707 94.9 194.747 95.788C193.811 96.652 193.343 98.008 193.343 99.856V109H187.727ZM215.278 109.288C212.998 109.288 211.222 108.712 209.95 107.56C208.678 106.384 208.042 104.644 208.042 102.34V85.348H213.658V102.268C213.658 103.084 213.874 103.72 214.306 104.176C214.738 104.608 215.326 104.824 216.07 104.824C216.958 104.824 217.714 104.584 218.338 104.104L219.85 108.064C219.274 108.472 218.578 108.784 217.762 109C216.97 109.192 216.142 109.288 215.278 109.288ZM205.054 94.384V90.064H218.482V94.384H205.054ZM227.287 109V89.2C227.287 87.016 227.935 85.276 229.231 83.98C230.527 82.66 232.375 82 234.775 82C235.591 82 236.371 82.084 237.115 82.252C237.883 82.42 238.531 82.684 239.059 83.044L237.583 87.112C237.271 86.896 236.923 86.728 236.539 86.608C236.155 86.488 235.747 86.428 235.315 86.428C234.499 86.428 233.863 86.668 233.407 87.148C232.975 87.604 232.759 88.3 232.759 89.236V91.036L232.903 93.448V109H227.287ZM224.299 94.384V90.064H237.727V94.384H224.299ZM253.095 109.288C251.031 109.288 249.195 108.856 247.587 107.992C246.003 107.128 244.743 105.952 243.807 104.464C242.895 102.952 242.439 101.236 242.439 99.316C242.439 97.372 242.895 95.656 243.807 94.168C244.743 92.656 246.003 91.48 247.587 90.64C249.195 89.776 251.031 89.344 253.095 89.344C255.135 89.344 256.959 89.776 258.567 90.64C260.175 91.48 261.435 92.644 262.347 94.132C263.259 95.62 263.715 97.348 263.715 99.316C263.715 101.236 263.259 102.952 262.347 104.464C261.435 105.952 260.175 107.128 258.567 107.992C256.959 108.856 255.135 109.288 253.095 109.288ZM253.095 104.68C254.031 104.68 254.871 104.464 255.615 104.032C256.359 103.6 256.947 102.988 257.379 102.196C257.811 101.38 258.027 100.42 258.027 99.316C258.027 98.188 257.811 97.228 257.379 96.436C256.947 95.644 256.359 95.032 255.615 94.6C254.871 94.168 254.031 93.952 253.095 93.952C252.159 93.952 251.319 94.168 250.575 94.6C249.831 95.032 249.231 95.644 248.775 96.436C248.343 97.228 248.127 98.188 248.127 99.316C248.127 100.42 248.343 101.38 248.775 102.196C249.231 102.988 249.831 103.6 250.575 104.032C251.319 104.464 252.159 104.68 253.095 104.68ZM271.069 109V82.288H276.685V109H271.069ZM285.497 109V89.632H291.113V109H285.497ZM288.305 86.932C287.273 86.932 286.433 86.632 285.785 86.032C285.137 85.432 284.813 84.688 284.813 83.8C284.813 82.912 285.137 82.168 285.785 81.568C286.433 80.968 287.273 80.668 288.305 80.668C289.337 80.668 290.177 80.956 290.825 81.532C291.473 82.084 291.797 82.804 291.797 83.692C291.797 84.628 291.473 85.408 290.825 86.032C290.201 86.632 289.361 86.932 288.305 86.932ZM309.141 109.288C307.077 109.288 305.241 108.856 303.633 107.992C302.049 107.128 300.789 105.952 299.853 104.464C298.941 102.952 298.485 101.236 298.485 99.316C298.485 97.372 298.941 95.656 299.853 94.168C300.789 92.656 302.049 91.48 303.633 90.64C305.241 89.776 307.077 89.344 309.141 89.344C311.181 89.344 313.005 89.776 314.613 90.64C316.221 91.48 317.481 92.644 318.393 94.132C319.305 95.62 319.761 97.348 319.761 99.316C319.761 101.236 319.305 102.952 318.393 104.464C317.481 105.952 316.221 107.128 314.613 107.992C313.005 108.856 311.181 109.288 309.141 109.288ZM309.141 104.68C310.077 104.68 310.917 104.464 311.661 104.032C312.405 103.6 312.993 102.988 313.425 102.196C313.857 101.38 314.073 100.42 314.073 99.316C314.073 98.188 313.857 97.228 313.425 96.436C312.993 95.644 312.405 95.032 311.661 94.6C310.917 94.168 310.077 93.952 309.141 93.952C308.205 93.952 307.365 94.168 306.621 94.6C305.877 95.032 305.277 95.644 304.821 96.436C304.389 97.228 304.173 98.188 304.173 99.316C304.173 100.42 304.389 101.38 304.821 102.196C305.277 102.988 305.877 103.6 306.621 104.032C307.365 104.464 308.205 104.68 309.141 104.68Z" fill="white"/>
<path d="M97.0696 55V43.18C97.0696 42.2467 97.3429 41.4933 97.8896 40.92C98.4363 40.3467 99.2229 40.06 100.25 40.06C100.65 40.06 101.036 40.1133 101.41 40.22C101.783 40.3267 102.096 40.4933 102.35 40.72L101.87 41.78C101.67 41.6067 101.436 41.48 101.17 41.4C100.903 41.3067 100.616 41.26 100.31 41.26C99.7096 41.26 99.2496 41.4267 98.9296 41.76C98.6096 42.0933 98.4496 42.5867 98.4496 43.24V44.84L98.4896 45.5V55H97.0696ZM95.1896 45.68V44.5H101.69V45.68H95.1896ZM105.607 55V44.5H106.967V47.36L106.827 46.86C107.12 46.06 107.614 45.4533 108.307 45.04C109 44.6133 109.86 44.4 110.887 44.4V45.78C110.834 45.78 110.78 45.78 110.727 45.78C110.674 45.7667 110.62 45.76 110.567 45.76C109.46 45.76 108.594 46.1 107.967 46.78C107.34 47.4467 107.027 48.4 107.027 49.64V55H105.607ZM119.66 55.1C118.647 55.1 117.734 54.8733 116.92 54.42C116.12 53.9533 115.487 53.32 115.02 52.52C114.554 51.7067 114.32 50.78 114.32 49.74C114.32 48.6867 114.554 47.76 115.02 46.96C115.487 46.16 116.12 45.5333 116.92 45.08C117.72 44.6267 118.634 44.4 119.66 44.4C120.7 44.4 121.62 44.6267 122.42 45.08C123.234 45.5333 123.867 46.16 124.32 46.96C124.787 47.76 125.02 48.6867 125.02 49.74C125.02 50.78 124.787 51.7067 124.32 52.52C123.867 53.32 123.234 53.9533 122.42 54.42C121.607 54.8733 120.687 55.1 119.66 55.1ZM119.66 53.84C120.42 53.84 121.094 53.6733 121.68 53.34C122.267 52.9933 122.727 52.5133 123.06 51.9C123.407 51.2733 123.58 50.5533 123.58 49.74C123.58 48.9133 123.407 48.1933 123.06 47.58C122.727 46.9667 122.267 46.4933 121.68 46.16C121.094 45.8133 120.427 45.64 119.68 45.64C118.934 45.64 118.267 45.8133 117.68 46.16C117.094 46.4933 116.627 46.9667 116.28 47.58C115.934 48.1933 115.76 48.9133 115.76 49.74C115.76 50.5533 115.934 51.2733 116.28 51.9C116.627 52.5133 117.094 52.9933 117.68 53.34C118.267 53.6733 118.927 53.84 119.66 53.84ZM143.039 44.4C143.893 44.4 144.633 44.5667 145.259 44.9C145.899 45.22 146.393 45.7133 146.739 46.38C147.099 47.0467 147.279 47.8867 147.279 48.9V55H145.859V49.04C145.859 47.9333 145.593 47.1 145.059 46.54C144.539 45.9667 143.799 45.68 142.839 45.68C142.119 45.68 141.493 45.8333 140.959 46.14C140.439 46.4333 140.033 46.8667 139.739 47.44C139.459 48 139.319 48.68 139.319 49.48V55H137.899V49.04C137.899 47.9333 137.633 47.1 137.099 46.54C136.566 45.9667 135.819 45.68 134.859 45.68C134.153 45.68 133.533 45.8333 132.999 46.14C132.466 46.4333 132.053 46.8667 131.759 47.44C131.479 48 131.339 48.68 131.339 49.48V55H129.919V44.5H131.279V47.34L131.059 46.84C131.379 46.08 131.893 45.4867 132.599 45.06C133.319 44.62 134.166 44.4 135.139 44.4C136.166 44.4 137.039 44.66 137.759 45.18C138.479 45.6867 138.946 46.4533 139.159 47.48L138.599 47.26C138.906 46.4067 139.446 45.72 140.219 45.2C141.006 44.6667 141.946 44.4 143.039 44.4Z" fill="#620B58"/>
<path d="M116.232 161V146.816C116.232 145.696 116.56 144.792 117.216 144.104C117.872 143.416 118.816 143.072 120.048 143.072C120.528 143.072 120.992 143.136 121.44 143.264C121.888 143.392 122.264 143.592 122.568 143.864L121.992 145.136C121.752 144.928 121.472 144.776 121.152 144.68C120.832 144.568 120.488 144.512 120.12 144.512C119.4 144.512 118.848 144.712 118.464 145.112C118.08 145.512 117.888 146.104 117.888 146.888V148.808L117.936 149.6V161H116.232ZM113.976 149.816V148.4H121.776V149.816H113.976ZM124.08 161V148.4H125.784V161H124.08ZM124.944 145.616C124.592 145.616 124.296 145.496 124.056 145.256C123.816 145.016 123.696 144.728 123.696 144.392C123.696 144.056 123.816 143.776 124.056 143.552C124.296 143.312 124.592 143.192 124.944 143.192C125.296 143.192 125.592 143.304 125.832 143.528C126.072 143.752 126.192 144.032 126.192 144.368C126.192 144.72 126.072 145.016 125.832 145.256C125.608 145.496 125.312 145.616 124.944 145.616ZM138.345 165.776C137.193 165.776 136.089 165.608 135.033 165.272C133.977 164.936 133.121 164.456 132.465 163.832L133.329 162.536C133.921 163.064 134.649 163.48 135.513 163.784C136.393 164.104 137.321 164.264 138.297 164.264C139.897 164.264 141.073 163.888 141.825 163.136C142.577 162.4 142.953 161.248 142.953 159.68V156.536L143.193 154.376L143.025 152.216V148.4H144.657V159.464C144.657 161.64 144.121 163.232 143.049 164.24C141.993 165.264 140.425 165.776 138.345 165.776ZM138.033 160.52C136.833 160.52 135.753 160.264 134.793 159.752C133.833 159.224 133.073 158.496 132.513 157.568C131.969 156.64 131.697 155.576 131.697 154.376C131.697 153.176 131.969 152.12 132.513 151.208C133.073 150.28 133.833 149.56 134.793 149.048C135.753 148.536 136.833 148.28 138.033 148.28C139.153 148.28 140.161 148.512 141.057 148.976C141.953 149.44 142.665 150.128 143.193 151.04C143.721 151.952 143.985 153.064 143.985 154.376C143.985 155.688 143.721 156.8 143.193 157.712C142.665 158.624 141.953 159.32 141.057 159.8C140.161 160.28 139.153 160.52 138.033 160.52ZM138.201 159.008C139.129 159.008 139.953 158.816 140.673 158.432C141.393 158.032 141.961 157.488 142.377 156.8C142.793 156.096 143.001 155.288 143.001 154.376C143.001 153.464 142.793 152.664 142.377 151.976C141.961 151.288 141.393 150.752 140.673 150.368C139.953 149.968 139.129 149.768 138.201 149.768C137.289 149.768 136.465 149.968 135.729 150.368C135.009 150.752 134.441 151.288 134.025 151.976C133.625 152.664 133.425 153.464 133.425 154.376C133.425 155.288 133.625 156.096 134.025 156.8C134.441 157.488 135.009 158.032 135.729 158.432C136.465 158.816 137.289 159.008 138.201 159.008ZM167.543 148.28C168.567 148.28 169.455 148.48 170.207 148.88C170.975 149.264 171.567 149.856 171.983 150.656C172.415 151.456 172.631 152.464 172.631 153.68V161H170.927V153.848C170.927 152.52 170.607 151.52 169.967 150.848C169.343 150.16 168.455 149.816 167.303 149.816C166.439 149.816 165.687 150 165.047 150.368C164.423 150.72 163.935 151.24 163.583 151.928C163.247 152.6 163.079 153.416 163.079 154.376V161H161.375V153.848C161.375 152.52 161.055 151.52 160.415 150.848C159.775 150.16 158.879 149.816 157.727 149.816C156.879 149.816 156.135 150 155.495 150.368C154.855 150.72 154.359 151.24 154.007 151.928C153.671 152.6 153.503 153.416 153.503 154.376V161H151.799V148.4H153.431V151.808L153.167 151.208C153.551 150.296 154.167 149.584 155.015 149.072C155.879 148.544 156.895 148.28 158.063 148.28C159.295 148.28 160.343 148.592 161.207 149.216C162.071 149.824 162.631 150.744 162.887 151.976L162.215 151.712C162.583 150.688 163.231 149.864 164.159 149.24C165.103 148.6 166.231 148.28 167.543 148.28ZM187.548 161V158.216L187.476 157.76V153.104C187.476 152.032 187.172 151.208 186.564 150.632C185.972 150.056 185.084 149.768 183.9 149.768C183.084 149.768 182.308 149.904 181.572 150.176C180.836 150.448 180.212 150.808 179.7 151.256L178.932 149.984C179.572 149.44 180.34 149.024 181.236 148.736C182.132 148.432 183.076 148.28 184.068 148.28C185.7 148.28 186.956 148.688 187.836 149.504C188.732 150.304 189.18 151.528 189.18 153.176V161H187.548ZM183.204 161.12C182.26 161.12 181.436 160.968 180.732 160.664C180.044 160.344 179.516 159.912 179.148 159.368C178.78 158.808 178.596 158.168 178.596 157.448C178.596 156.792 178.748 156.2 179.052 155.672C179.372 155.128 179.884 154.696 180.588 154.376C181.308 154.04 182.268 153.872 183.468 153.872H187.812V155.144H183.516C182.3 155.144 181.452 155.36 180.972 155.792C180.508 156.224 180.276 156.76 180.276 157.4C180.276 158.12 180.556 158.696 181.116 159.128C181.676 159.56 182.46 159.776 183.468 159.776C184.428 159.776 185.252 159.56 185.94 159.128C186.644 158.68 187.156 158.04 187.476 157.208L187.86 158.384C187.54 159.216 186.98 159.88 186.18 160.376C185.396 160.872 184.404 161.12 183.204 161.12Z" fill="white"/>
<path d="M116.535 208V195.4H118.167V198.832L117.999 198.232C118.351 197.272 118.943 196.544 119.775 196.048C120.607 195.536 121.639 195.28 122.871 195.28V196.936C122.807 196.936 122.743 196.936 122.679 196.936C122.615 196.92 122.551 196.912 122.487 196.912C121.159 196.912 120.119 197.32 119.367 198.136C118.615 198.936 118.239 200.08 118.239 201.568V208H116.535ZM133.616 208.12C132.304 208.12 131.152 207.848 130.16 207.304C129.168 206.744 128.392 205.984 127.832 205.024C127.272 204.048 126.992 202.936 126.992 201.688C126.992 200.44 127.256 199.336 127.784 198.376C128.328 197.416 129.064 196.664 129.992 196.12C130.936 195.56 131.992 195.28 133.16 195.28C134.344 195.28 135.392 195.552 136.304 196.096C137.232 196.624 137.96 197.376 138.488 198.352C139.016 199.312 139.28 200.424 139.28 201.688C139.28 201.768 139.272 201.856 139.256 201.952C139.256 202.032 139.256 202.12 139.256 202.216H128.288V200.944H138.344L137.672 201.448C137.672 200.536 137.472 199.728 137.072 199.024C136.688 198.304 136.16 197.744 135.488 197.344C134.816 196.944 134.04 196.744 133.16 196.744C132.296 196.744 131.52 196.944 130.832 197.344C130.144 197.744 129.608 198.304 129.224 199.024C128.84 199.744 128.648 200.568 128.648 201.496V201.76C128.648 202.72 128.856 203.568 129.272 204.304C129.704 205.024 130.296 205.592 131.048 206.008C131.816 206.408 132.688 206.608 133.664 206.608C134.432 206.608 135.144 206.472 135.8 206.2C136.472 205.928 137.048 205.512 137.528 204.952L138.488 206.056C137.928 206.728 137.224 207.24 136.376 207.592C135.544 207.944 134.624 208.12 133.616 208.12ZM148.532 208.12C147.492 208.12 146.508 207.976 145.58 207.688C144.652 207.384 143.924 207.008 143.396 206.56L144.164 205.216C144.676 205.6 145.332 205.936 146.132 206.224C146.932 206.496 147.772 206.632 148.652 206.632C149.852 206.632 150.716 206.448 151.244 206.08C151.772 205.696 152.036 205.192 152.036 204.568C152.036 204.104 151.884 203.744 151.58 203.488C151.292 203.216 150.908 203.016 150.428 202.888C149.948 202.744 149.412 202.624 148.82 202.528C148.228 202.432 147.636 202.32 147.044 202.192C146.468 202.064 145.94 201.88 145.46 201.64C144.98 201.384 144.588 201.04 144.284 200.608C143.996 200.176 143.852 199.6 143.852 198.88C143.852 198.192 144.044 197.576 144.428 197.032C144.812 196.488 145.372 196.064 146.108 195.76C146.86 195.44 147.772 195.28 148.844 195.28C149.66 195.28 150.476 195.392 151.292 195.616C152.108 195.824 152.78 196.104 153.308 196.456L152.564 197.824C152.004 197.44 151.404 197.168 150.764 197.008C150.124 196.832 149.484 196.744 148.844 196.744C147.708 196.744 146.868 196.944 146.324 197.344C145.796 197.728 145.532 198.224 145.532 198.832C145.532 199.312 145.676 199.688 145.964 199.96C146.268 200.232 146.66 200.448 147.14 200.608C147.636 200.752 148.172 200.872 148.748 200.968C149.34 201.064 149.924 201.184 150.5 201.328C151.092 201.456 151.628 201.64 152.108 201.88C152.604 202.104 152.996 202.432 153.284 202.864C153.588 203.28 153.74 203.832 153.74 204.52C153.74 205.256 153.532 205.896 153.116 206.44C152.716 206.968 152.124 207.384 151.34 207.688C150.572 207.976 149.636 208.12 148.532 208.12ZM163.251 208.12C162.067 208.12 161.155 207.8 160.515 207.16C159.875 206.52 159.555 205.616 159.555 204.448V192.616H161.259V204.352C161.259 205.088 161.443 205.656 161.811 206.056C162.195 206.456 162.739 206.656 163.443 206.656C164.195 206.656 164.819 206.44 165.315 206.008L165.915 207.232C165.579 207.536 165.171 207.76 164.691 207.904C164.227 208.048 163.747 208.12 163.251 208.12ZM157.299 196.816V195.4H165.099V196.816H157.299ZM176.107 208.12C174.891 208.12 173.795 207.848 172.819 207.304C171.859 206.744 171.099 205.984 170.539 205.024C169.979 204.048 169.699 202.936 169.699 201.688C169.699 200.424 169.979 199.312 170.539 198.352C171.099 197.392 171.859 196.64 172.819 196.096C173.779 195.552 174.875 195.28 176.107 195.28C177.355 195.28 178.459 195.552 179.419 196.096C180.395 196.64 181.155 197.392 181.699 198.352C182.259 199.312 182.539 200.424 182.539 201.688C182.539 202.936 182.259 204.048 181.699 205.024C181.155 205.984 180.395 206.744 179.419 207.304C178.443 207.848 177.339 208.12 176.107 208.12ZM176.107 206.608C177.019 206.608 177.827 206.408 178.531 206.008C179.235 205.592 179.787 205.016 180.187 204.28C180.603 203.528 180.811 202.664 180.811 201.688C180.811 200.696 180.603 199.832 180.187 199.096C179.787 198.36 179.235 197.792 178.531 197.392C177.827 196.976 177.027 196.768 176.131 196.768C175.235 196.768 174.435 196.976 173.731 197.392C173.027 197.792 172.467 198.36 172.051 199.096C171.635 199.832 171.427 200.696 171.427 201.688C171.427 202.664 171.635 203.528 172.051 204.28C172.467 205.016 173.027 205.592 173.731 206.008C174.435 206.408 175.227 206.608 176.107 206.608ZM188.418 208V195.4H190.05V198.832L189.882 198.232C190.234 197.272 190.826 196.544 191.658 196.048C192.49 195.536 193.522 195.28 194.754 195.28V196.936C194.69 196.936 194.626 196.936 194.562 196.936C194.498 196.92 194.434 196.912 194.37 196.912C193.042 196.912 192.002 197.32 191.25 198.136C190.498 198.936 190.122 200.08 190.122 201.568V208H188.418ZM207.222 208V205.216L207.15 204.76V200.104C207.15 199.032 206.846 198.208 206.238 197.632C205.646 197.056 204.758 196.768 203.574 196.768C202.758 196.768 201.982 196.904 201.246 197.176C200.51 197.448 199.886 197.808 199.374 198.256L198.606 196.984C199.246 196.44 200.014 196.024 200.91 195.736C201.806 195.432 202.75 195.28 203.742 195.28C205.374 195.28 206.63 195.688 207.51 196.504C208.406 197.304 208.854 198.528 208.854 200.176V208H207.222ZM202.878 208.12C201.934 208.12 201.11 207.968 200.406 207.664C199.718 207.344 199.19 206.912 198.822 206.368C198.454 205.808 198.27 205.168 198.27 204.448C198.27 203.792 198.422 203.2 198.726 202.672C199.046 202.128 199.558 201.696 200.262 201.376C200.982 201.04 201.942 200.872 203.142 200.872H207.486V202.144H203.19C201.974 202.144 201.126 202.36 200.646 202.792C200.182 203.224 199.95 203.76 199.95 204.4C199.95 205.12 200.23 205.696 200.79 206.128C201.35 206.56 202.134 206.776 203.142 206.776C204.102 206.776 204.926 206.56 205.614 206.128C206.318 205.68 206.83 205.04 207.15 204.208L207.534 205.384C207.214 206.216 206.654 206.88 205.854 207.376C205.07 207.872 204.078 208.12 202.878 208.12ZM219.866 208.12C218.682 208.12 217.77 207.8 217.13 207.16C216.49 206.52 216.17 205.616 216.17 204.448V192.616H217.874V204.352C217.874 205.088 218.058 205.656 218.426 206.056C218.81 206.456 219.354 206.656 220.058 206.656C220.81 206.656 221.434 206.44 221.93 206.008L222.53 207.232C222.194 207.536 221.786 207.76 221.306 207.904C220.842 208.048 220.362 208.12 219.866 208.12ZM213.914 196.816V195.4H221.714V196.816H213.914ZM228.032 208V195.4H229.736V208H228.032ZM228.896 192.616C228.544 192.616 228.248 192.496 228.008 192.256C227.768 192.016 227.648 191.728 227.648 191.392C227.648 191.056 227.768 190.776 228.008 190.552C228.248 190.312 228.544 190.192 228.896 190.192C229.248 190.192 229.544 190.304 229.784 190.528C230.024 190.752 230.144 191.032 230.144 191.368C230.144 191.72 230.024 192.016 229.784 192.256C229.56 192.496 229.264 192.616 228.896 192.616ZM242.014 208.12C240.798 208.12 239.702 207.848 238.726 207.304C237.766 206.744 237.006 205.984 236.446 205.024C235.886 204.048 235.606 202.936 235.606 201.688C235.606 200.424 235.886 199.312 236.446 198.352C237.006 197.392 237.766 196.64 238.726 196.096C239.686 195.552 240.782 195.28 242.014 195.28C243.262 195.28 244.366 195.552 245.326 196.096C246.302 196.64 247.062 197.392 247.606 198.352C248.166 199.312 248.446 200.424 248.446 201.688C248.446 202.936 248.166 204.048 247.606 205.024C247.062 205.984 246.302 206.744 245.326 207.304C244.35 207.848 243.246 208.12 242.014 208.12ZM242.014 206.608C242.926 206.608 243.734 206.408 244.438 206.008C245.142 205.592 245.694 205.016 246.094 204.28C246.51 203.528 246.718 202.664 246.718 201.688C246.718 200.696 246.51 199.832 246.094 199.096C245.694 198.36 245.142 197.792 244.438 197.392C243.734 196.976 242.934 196.768 242.038 196.768C241.142 196.768 240.342 196.976 239.638 197.392C238.934 197.792 238.374 198.36 237.958 199.096C237.542 199.832 237.334 200.696 237.334 201.688C237.334 202.664 237.542 203.528 237.958 204.28C238.374 205.016 238.934 205.592 239.638 206.008C240.342 206.408 241.134 206.608 242.014 206.608ZM260.756 195.28C261.78 195.28 262.676 195.48 263.444 195.88C264.228 196.264 264.836 196.856 265.268 197.656C265.716 198.456 265.94 199.464 265.94 200.68V208H264.236V200.848C264.236 199.52 263.9 198.52 263.228 197.848C262.572 197.16 261.644 196.816 260.444 196.816C259.548 196.816 258.764 197 258.092 197.368C257.436 197.72 256.924 198.24 256.556 198.928C256.204 199.6 256.028 200.416 256.028 201.376V208H254.324V195.4H255.956V198.856L255.692 198.208C256.092 197.296 256.732 196.584 257.612 196.072C258.492 195.544 259.54 195.28 260.756 195.28ZM284.192 208L279.44 195.4H281.072L285.392 207.088H284.648L289.088 195.4H290.552L294.944 207.088H294.2L298.592 195.4H300.152L295.376 208H293.768L289.544 197.008H290.048L285.8 208H284.192ZM309.903 208.12C308.687 208.12 307.591 207.848 306.615 207.304C305.655 206.744 304.895 205.984 304.335 205.024C303.775 204.048 303.495 202.936 303.495 201.688C303.495 200.424 303.775 199.312 304.335 198.352C304.895 197.392 305.655 196.64 306.615 196.096C307.575 195.552 308.671 195.28 309.903 195.28C311.151 195.28 312.255 195.552 313.215 196.096C314.191 196.64 314.951 197.392 315.495 198.352C316.055 199.312 316.335 200.424 316.335 201.688C316.335 202.936 316.055 204.048 315.495 205.024C314.951 205.984 314.191 206.744 313.215 207.304C312.239 207.848 311.135 208.12 309.903 208.12ZM309.903 206.608C310.815 206.608 311.623 206.408 312.327 206.008C313.031 205.592 313.583 205.016 313.983 204.28C314.399 203.528 314.607 202.664 314.607 201.688C314.607 200.696 314.399 199.832 313.983 199.096C313.583 198.36 313.031 197.792 312.327 197.392C311.623 196.976 310.823 196.768 309.927 196.768C309.031 196.768 308.231 196.976 307.527 197.392C306.823 197.792 306.263 198.36 305.847 199.096C305.431 199.832 305.223 200.696 305.223 201.688C305.223 202.664 305.431 203.528 305.847 204.28C306.263 205.016 306.823 205.592 307.527 206.008C308.231 206.408 309.023 206.608 309.903 206.608ZM322.214 208V195.4H323.846V198.832L323.678 198.232C324.03 197.272 324.622 196.544 325.454 196.048C326.286 195.536 327.318 195.28 328.55 195.28V196.936C328.486 196.936 328.422 196.936 328.358 196.936C328.294 196.92 328.23 196.912 328.166 196.912C326.838 196.912 325.798 197.32 325.046 198.136C324.294 198.936 323.918 200.08 323.918 201.568V208H322.214ZM335.403 204.736L335.451 202.552L343.299 195.4H345.387L339.843 200.704L338.883 201.52L335.403 204.736ZM334.059 208V190.192H335.763V208H334.059ZM343.827 208L338.571 201.448L339.675 200.128L345.915 208H343.827ZM353.882 208.12C352.842 208.12 351.858 207.976 350.93 207.688C350.002 207.384 349.274 207.008 348.746 206.56L349.514 205.216C350.026 205.6 350.682 205.936 351.482 206.224C352.282 206.496 353.122 206.632 354.002 206.632C355.202 206.632 356.066 206.448 356.594 206.08C357.122 205.696 357.386 205.192 357.386 204.568C357.386 204.104 357.234 203.744 356.93 203.488C356.642 203.216 356.258 203.016 355.778 202.888C355.298 202.744 354.762 202.624 354.17 202.528C353.578 202.432 352.986 202.32 352.394 202.192C351.818 202.064 351.29 201.88 350.81 201.64C350.33 201.384 349.938 201.04 349.634 200.608C349.346 200.176 349.202 199.6 349.202 198.88C349.202 198.192 349.394 197.576 349.778 197.032C350.162 196.488 350.722 196.064 351.458 195.76C352.21 195.44 353.122 195.28 354.194 195.28C355.01 195.28 355.826 195.392 356.642 195.616C357.458 195.824 358.13 196.104 358.658 196.456L357.914 197.824C357.354 197.44 356.754 197.168 356.114 197.008C355.474 196.832 354.834 196.744 354.194 196.744C353.058 196.744 352.218 196.944 351.674 197.344C351.146 197.728 350.882 198.224 350.882 198.832C350.882 199.312 351.026 199.688 351.314 199.96C351.618 200.232 352.01 200.448 352.49 200.608C352.986 200.752 353.522 200.872 354.098 200.968C354.69 201.064 355.274 201.184 355.85 201.328C356.442 201.456 356.978 201.64 357.458 201.88C357.954 202.104 358.346 202.432 358.634 202.864C358.938 203.28 359.09 203.832 359.09 204.52C359.09 205.256 358.882 205.896 358.466 206.44C358.066 206.968 357.474 207.384 356.69 207.688C355.922 207.976 354.986 208.12 353.882 208.12Z" fill="white"/>
</svg>
