<svg viewBox="0 0 378 250" fill="none" xmlns="http://www.w3.org/2000/svg">
<rect x="0.5" y="0.5" width="377" height="249" fill="#13120D" stroke="white"/>
<path d="M342.213 18.2081C341.886 18.2138 341.573 18.3479 341.343 18.5817C341.114 18.8155 340.985 19.1301 340.985 19.4579C340.985 19.7856 341.114 20.1003 341.343 20.334C341.573 20.5678 341.886 20.702 342.213 20.7077L356.886 20.7077L339.579 38.0141C339.345 38.2485 339.213 38.5665 339.213 38.898C339.213 39.2295 339.345 39.5475 339.579 39.7819C339.814 40.0163 340.132 40.148 340.463 40.148C340.795 40.148 341.113 40.0163 341.347 39.7819L358.653 22.4754L358.653 37.1479C358.659 37.4756 358.793 37.788 359.027 38.0177C359.261 38.2475 359.576 38.3762 359.903 38.3762C360.231 38.3762 360.546 38.2475 360.779 38.0177C361.013 37.788 361.147 37.4756 361.153 37.1479L361.153 19.4702C361.153 19.1388 361.021 18.8209 360.787 18.5866C360.553 18.3522 360.235 18.2205 359.903 18.2204L342.226 18.2204L342.213 18.2081Z" fill="white"/>
<path d="M50.2837 28.485L47.4662 26.14C46.6803 25.4846 45.6896 25.1255 44.6663 25.125H28.75C27.5897 25.125 26.4769 25.5859 25.6564 26.4064C24.8359 27.2269 24.375 28.3397 24.375 29.5V64.5C24.375 65.6603 24.8359 66.7731 25.6564 67.5936C26.4769 68.4141 27.5897 68.875 28.75 68.875H81.25C82.4103 68.875 83.5231 68.4141 84.3436 67.5936C85.1641 66.7731 85.625 65.6603 85.625 64.5V33.875C85.625 32.7147 85.1641 31.6019 84.3436 30.7814C83.5231 29.9609 82.4103 29.5 81.25 29.5H53.0837C52.0604 29.4995 51.0697 29.1404 50.2837 28.485Z" fill="#620B58"/>
<rect x="76" y="152" width="2" height="47" fill="#620B58"/>
<rect x="105" y="152" width="2" height="50" transform="rotate(90 105 152)" fill="#620B58"/>
<rect x="85" y="95" width="2" height="29" transform="rotate(90 85 95)" fill="#620B58"/>
<rect x="105" y="199" width="2" height="29" transform="rotate(90 105 199)" fill="#620B58"/>
<rect x="54" y="85" width="2" height="69" fill="#620B58"/>
<path d="M112.889 112.6L124.769 78.688H129.773L117.893 112.6H112.889ZM143.53 109.288C141.898 109.288 140.47 108.928 139.246 108.208C138.022 107.488 137.062 106.396 136.366 104.932C135.694 103.444 135.358 101.572 135.358 99.316C135.358 97.036 135.682 95.164 136.33 93.7C136.978 92.236 137.914 91.144 139.138 90.424C140.362 89.704 141.826 89.344 143.53 89.344C145.354 89.344 146.986 89.764 148.426 90.604C149.89 91.42 151.042 92.572 151.882 94.06C152.746 95.548 153.178 97.3 153.178 99.316C153.178 101.356 152.746 103.12 151.882 104.608C151.042 106.096 149.89 107.248 148.426 108.064C146.986 108.88 145.354 109.288 143.53 109.288ZM132.082 115.984V89.632H137.446V93.592L137.338 99.352L137.698 105.076V115.984H132.082ZM142.558 104.68C143.494 104.68 144.322 104.464 145.042 104.032C145.786 103.6 146.374 102.988 146.806 102.196C147.262 101.38 147.49 100.42 147.49 99.316C147.49 98.188 147.262 97.228 146.806 96.436C146.374 95.644 145.786 95.032 145.042 94.6C144.322 94.168 143.494 93.952 142.558 93.952C141.622 93.952 140.782 94.168 140.038 94.6C139.294 95.032 138.706 95.644 138.274 96.436C137.842 97.228 137.626 98.188 137.626 99.316C137.626 100.42 137.842 101.38 138.274 102.196C138.706 102.988 139.294 103.6 140.038 104.032C140.782 104.464 141.622 104.68 142.558 104.68ZM169.753 109.288C167.689 109.288 165.853 108.856 164.245 107.992C162.661 107.128 161.401 105.952 160.465 104.464C159.553 102.952 159.097 101.236 159.097 99.316C159.097 97.372 159.553 95.656 160.465 94.168C161.401 92.656 162.661 91.48 164.245 90.64C165.853 89.776 167.689 89.344 169.753 89.344C171.793 89.344 173.617 89.776 175.225 90.64C176.833 91.48 178.093 92.644 179.005 94.132C179.917 95.62 180.373 97.348 180.373 99.316C180.373 101.236 179.917 102.952 179.005 104.464C178.093 105.952 176.833 107.128 175.225 107.992C173.617 108.856 171.793 109.288 169.753 109.288ZM169.753 104.68C170.689 104.68 171.529 104.464 172.273 104.032C173.017 103.6 173.605 102.988 174.037 102.196C174.469 101.38 174.685 100.42 174.685 99.316C174.685 98.188 174.469 97.228 174.037 96.436C173.605 95.644 173.017 95.032 172.273 94.6C171.529 94.168 170.689 93.952 169.753 93.952C168.817 93.952 167.977 94.168 167.233 94.6C166.489 95.032 165.889 95.644 165.433 96.436C165.001 97.228 164.785 98.188 164.785 99.316C164.785 100.42 165.001 101.38 165.433 102.196C165.889 102.988 166.489 103.6 167.233 104.032C167.977 104.464 168.817 104.68 169.753 104.68ZM187.727 109V89.632H193.091V95.104L192.335 93.52C192.911 92.152 193.835 91.12 195.107 90.424C196.379 89.704 197.927 89.344 199.751 89.344V94.528C199.511 94.504 199.295 94.492 199.103 94.492C198.911 94.468 198.707 94.456 198.491 94.456C196.955 94.456 195.707 94.9 194.747 95.788C193.811 96.652 193.343 98.008 193.343 99.856V109H187.727ZM215.278 109.288C212.998 109.288 211.222 108.712 209.95 107.56C208.678 106.384 208.042 104.644 208.042 102.34V85.348H213.658V102.268C213.658 103.084 213.874 103.72 214.306 104.176C214.738 104.608 215.326 104.824 216.07 104.824C216.958 104.824 217.714 104.584 218.338 104.104L219.85 108.064C219.274 108.472 218.578 108.784 217.762 109C216.97 109.192 216.142 109.288 215.278 109.288ZM205.054 94.384V90.064H218.482V94.384H205.054ZM227.287 109V89.2C227.287 87.016 227.935 85.276 229.231 83.98C230.527 82.66 232.375 82 234.775 82C235.591 82 236.371 82.084 237.115 82.252C237.883 82.42 238.531 82.684 239.059 83.044L237.583 87.112C237.271 86.896 236.923 86.728 236.539 86.608C236.155 86.488 235.747 86.428 235.315 86.428C234.499 86.428 233.863 86.668 233.407 87.148C232.975 87.604 232.759 88.3 232.759 89.236V91.036L232.903 93.448V109H227.287ZM224.299 94.384V90.064H237.727V94.384H224.299ZM253.095 109.288C251.031 109.288 249.195 108.856 247.587 107.992C246.003 107.128 244.743 105.952 243.807 104.464C242.895 102.952 242.439 101.236 242.439 99.316C242.439 97.372 242.895 95.656 243.807 94.168C244.743 92.656 246.003 91.48 247.587 90.64C249.195 89.776 251.031 89.344 253.095 89.344C255.135 89.344 256.959 89.776 258.567 90.64C260.175 91.48 261.435 92.644 262.347 94.132C263.259 95.62 263.715 97.348 263.715 99.316C263.715 101.236 263.259 102.952 262.347 104.464C261.435 105.952 260.175 107.128 258.567 107.992C256.959 108.856 255.135 109.288 253.095 109.288ZM253.095 104.68C254.031 104.68 254.871 104.464 255.615 104.032C256.359 103.6 256.947 102.988 257.379 102.196C257.811 101.38 258.027 100.42 258.027 99.316C258.027 98.188 257.811 97.228 257.379 96.436C256.947 95.644 256.359 95.032 255.615 94.6C254.871 94.168 254.031 93.952 253.095 93.952C252.159 93.952 251.319 94.168 250.575 94.6C249.831 95.032 249.231 95.644 248.775 96.436C248.343 97.228 248.127 98.188 248.127 99.316C248.127 100.42 248.343 101.38 248.775 102.196C249.231 102.988 249.831 103.6 250.575 104.032C251.319 104.464 252.159 104.68 253.095 104.68ZM271.069 109V82.288H276.685V109H271.069ZM285.497 109V89.632H291.113V109H285.497ZM288.305 86.932C287.273 86.932 286.433 86.632 285.785 86.032C285.137 85.432 284.813 84.688 284.813 83.8C284.813 82.912 285.137 82.168 285.785 81.568C286.433 80.968 287.273 80.668 288.305 80.668C289.337 80.668 290.177 80.956 290.825 81.532C291.473 82.084 291.797 82.804 291.797 83.692C291.797 84.628 291.473 85.408 290.825 86.032C290.201 86.632 289.361 86.932 288.305 86.932ZM309.141 109.288C307.077 109.288 305.241 108.856 303.633 107.992C302.049 107.128 300.789 105.952 299.853 104.464C298.941 102.952 298.485 101.236 298.485 99.316C298.485 97.372 298.941 95.656 299.853 94.168C300.789 92.656 302.049 91.48 303.633 90.64C305.241 89.776 307.077 89.344 309.141 89.344C311.181 89.344 313.005 89.776 314.613 90.64C316.221 91.48 317.481 92.644 318.393 94.132C319.305 95.62 319.761 97.348 319.761 99.316C319.761 101.236 319.305 102.952 318.393 104.464C317.481 105.952 316.221 107.128 314.613 107.992C313.005 108.856 311.181 109.288 309.141 109.288ZM309.141 104.68C310.077 104.68 310.917 104.464 311.661 104.032C312.405 103.6 312.993 102.988 313.425 102.196C313.857 101.38 314.073 100.42 314.073 99.316C314.073 98.188 313.857 97.228 313.425 96.436C312.993 95.644 312.405 95.032 311.661 94.6C310.917 94.168 310.077 93.952 309.141 93.952C308.205 93.952 307.365 94.168 306.621 94.6C305.877 95.032 305.277 95.644 304.821 96.436C304.389 97.228 304.173 98.188 304.173 99.316C304.173 100.42 304.389 101.38 304.821 102.196C305.277 102.988 305.877 103.6 306.621 104.032C307.365 104.464 308.205 104.68 309.141 104.68Z" fill="white"/>
<path d="M115.313 44.4C116.166 44.4 116.913 44.5667 117.553 44.9C118.206 45.22 118.713 45.7133 119.073 46.38C119.446 47.0467 119.633 47.8867 119.633 48.9V55H118.213V49.04C118.213 47.9333 117.933 47.1 117.373 46.54C116.826 45.9667 116.053 45.68 115.053 45.68C114.306 45.68 113.653 45.8333 113.093 46.14C112.546 46.4333 112.119 46.8667 111.813 47.44C111.519 48 111.373 48.68 111.373 49.48V55H109.953V44.5H111.313V47.38L111.093 46.84C111.426 46.08 111.959 45.4867 112.693 45.06C113.426 44.62 114.299 44.4 115.313 44.4ZM129.748 55.1C128.735 55.1 127.822 54.8733 127.008 54.42C126.208 53.9533 125.575 53.32 125.108 52.52C124.642 51.7067 124.408 50.78 124.408 49.74C124.408 48.6867 124.642 47.76 125.108 46.96C125.575 46.16 126.208 45.5333 127.008 45.08C127.808 44.6267 128.722 44.4 129.748 44.4C130.788 44.4 131.708 44.6267 132.508 45.08C133.322 45.5333 133.955 46.16 134.408 46.96C134.875 47.76 135.108 48.6867 135.108 49.74C135.108 50.78 134.875 51.7067 134.408 52.52C133.955 53.32 133.322 53.9533 132.508 54.42C131.695 54.8733 130.775 55.1 129.748 55.1ZM129.748 53.84C130.508 53.84 131.182 53.6733 131.768 53.34C132.355 52.9933 132.815 52.5133 133.148 51.9C133.495 51.2733 133.668 50.5533 133.668 49.74C133.668 48.9133 133.495 48.1933 133.148 47.58C132.815 46.9667 132.355 46.4933 131.768 46.16C131.182 45.8133 130.515 45.64 129.768 45.64C129.022 45.64 128.355 45.8133 127.768 46.16C127.182 46.4933 126.715 46.9667 126.368 47.58C126.022 48.1933 125.848 48.9133 125.848 49.74C125.848 50.5533 126.022 51.2733 126.368 51.9C126.715 52.5133 127.182 52.9933 127.768 53.34C128.355 53.6733 129.015 53.84 129.748 53.84Z" fill="#620B58"/>
<path d="M116.232 161V146.816C116.232 145.696 116.56 144.792 117.216 144.104C117.872 143.416 118.816 143.072 120.048 143.072C120.528 143.072 120.992 143.136 121.44 143.264C121.888 143.392 122.264 143.592 122.568 143.864L121.992 145.136C121.752 144.928 121.472 144.776 121.152 144.68C120.832 144.568 120.488 144.512 120.12 144.512C119.4 144.512 118.848 144.712 118.464 145.112C118.08 145.512 117.888 146.104 117.888 146.888V148.808L117.936 149.6V161H116.232ZM113.976 149.816V148.4H121.776V149.816H113.976ZM124.08 161V148.4H125.784V161H124.08ZM124.944 145.616C124.592 145.616 124.296 145.496 124.056 145.256C123.816 145.016 123.696 144.728 123.696 144.392C123.696 144.056 123.816 143.776 124.056 143.552C124.296 143.312 124.592 143.192 124.944 143.192C125.296 143.192 125.592 143.304 125.832 143.528C126.072 143.752 126.192 144.032 126.192 144.368C126.192 144.72 126.072 145.016 125.832 145.256C125.608 145.496 125.312 145.616 124.944 145.616ZM138.345 165.776C137.193 165.776 136.089 165.608 135.033 165.272C133.977 164.936 133.121 164.456 132.465 163.832L133.329 162.536C133.921 163.064 134.649 163.48 135.513 163.784C136.393 164.104 137.321 164.264 138.297 164.264C139.897 164.264 141.073 163.888 141.825 163.136C142.577 162.4 142.953 161.248 142.953 159.68V156.536L143.193 154.376L143.025 152.216V148.4H144.657V159.464C144.657 161.64 144.121 163.232 143.049 164.24C141.993 165.264 140.425 165.776 138.345 165.776ZM138.033 160.52C136.833 160.52 135.753 160.264 134.793 159.752C133.833 159.224 133.073 158.496 132.513 157.568C131.969 156.64 131.697 155.576 131.697 154.376C131.697 153.176 131.969 152.12 132.513 151.208C133.073 150.28 133.833 149.56 134.793 149.048C135.753 148.536 136.833 148.28 138.033 148.28C139.153 148.28 140.161 148.512 141.057 148.976C141.953 149.44 142.665 150.128 143.193 151.04C143.721 151.952 143.985 153.064 143.985 154.376C143.985 155.688 143.721 156.8 143.193 157.712C142.665 158.624 141.953 159.32 141.057 159.8C140.161 160.28 139.153 160.52 138.033 160.52ZM138.201 159.008C139.129 159.008 139.953 158.816 140.673 158.432C141.393 158.032 141.961 157.488 142.377 156.8C142.793 156.096 143.001 155.288 143.001 154.376C143.001 153.464 142.793 152.664 142.377 151.976C141.961 151.288 141.393 150.752 140.673 150.368C139.953 149.968 139.129 149.768 138.201 149.768C137.289 149.768 136.465 149.968 135.729 150.368C135.009 150.752 134.441 151.288 134.025 151.976C133.625 152.664 133.425 153.464 133.425 154.376C133.425 155.288 133.625 156.096 134.025 156.8C134.441 157.488 135.009 158.032 135.729 158.432C136.465 158.816 137.289 159.008 138.201 159.008ZM167.543 148.28C168.567 148.28 169.455 148.48 170.207 148.88C170.975 149.264 171.567 149.856 171.983 150.656C172.415 151.456 172.631 152.464 172.631 153.68V161H170.927V153.848C170.927 152.52 170.607 151.52 169.967 150.848C169.343 150.16 168.455 149.816 167.303 149.816C166.439 149.816 165.687 150 165.047 150.368C164.423 150.72 163.935 151.24 163.583 151.928C163.247 152.6 163.079 153.416 163.079 154.376V161H161.375V153.848C161.375 152.52 161.055 151.52 160.415 150.848C159.775 150.16 158.879 149.816 157.727 149.816C156.879 149.816 156.135 150 155.495 150.368C154.855 150.72 154.359 151.24 154.007 151.928C153.671 152.6 153.503 153.416 153.503 154.376V161H151.799V148.4H153.431V151.808L153.167 151.208C153.551 150.296 154.167 149.584 155.015 149.072C155.879 148.544 156.895 148.28 158.063 148.28C159.295 148.28 160.343 148.592 161.207 149.216C162.071 149.824 162.631 150.744 162.887 151.976L162.215 151.712C162.583 150.688 163.231 149.864 164.159 149.24C165.103 148.6 166.231 148.28 167.543 148.28ZM187.548 161V158.216L187.476 157.76V153.104C187.476 152.032 187.172 151.208 186.564 150.632C185.972 150.056 185.084 149.768 183.9 149.768C183.084 149.768 182.308 149.904 181.572 150.176C180.836 150.448 180.212 150.808 179.7 151.256L178.932 149.984C179.572 149.44 180.34 149.024 181.236 148.736C182.132 148.432 183.076 148.28 184.068 148.28C185.7 148.28 186.956 148.688 187.836 149.504C188.732 150.304 189.18 151.528 189.18 153.176V161H187.548ZM183.204 161.12C182.26 161.12 181.436 160.968 180.732 160.664C180.044 160.344 179.516 159.912 179.148 159.368C178.78 158.808 178.596 158.168 178.596 157.448C178.596 156.792 178.748 156.2 179.052 155.672C179.372 155.128 179.884 154.696 180.588 154.376C181.308 154.04 182.268 153.872 183.468 153.872H187.812V155.144H183.516C182.3 155.144 181.452 155.36 180.972 155.792C180.508 156.224 180.276 156.76 180.276 157.4C180.276 158.12 180.556 158.696 181.116 159.128C181.676 159.56 182.46 159.776 183.468 159.776C184.428 159.776 185.252 159.56 185.94 159.128C186.644 158.68 187.156 158.04 187.476 157.208L187.86 158.384C187.54 159.216 186.98 159.88 186.18 160.376C185.396 160.872 184.404 161.12 183.204 161.12Z" fill="white"/>
<path d="M113.219 208V195.4H114.851V198.832L114.683 198.232C115.035 197.272 115.627 196.544 116.459 196.048C117.291 195.536 118.323 195.28 119.555 195.28V196.936C119.491 196.936 119.427 196.936 119.363 196.936C119.299 196.92 119.235 196.912 119.171 196.912C117.843 196.912 116.803 197.32 116.051 198.136C115.299 198.936 114.923 200.08 114.923 201.568V208H113.219ZM130.299 208.12C128.987 208.12 127.835 207.848 126.843 207.304C125.851 206.744 125.075 205.984 124.515 205.024C123.955 204.048 123.675 202.936 123.675 201.688C123.675 200.44 123.939 199.336 124.467 198.376C125.011 197.416 125.747 196.664 126.675 196.12C127.619 195.56 128.675 195.28 129.843 195.28C131.027 195.28 132.075 195.552 132.987 196.096C133.915 196.624 134.643 197.376 135.171 198.352C135.699 199.312 135.963 200.424 135.963 201.688C135.963 201.768 135.955 201.856 135.939 201.952C135.939 202.032 135.939 202.12 135.939 202.216H124.971V200.944H135.027L134.355 201.448C134.355 200.536 134.155 199.728 133.755 199.024C133.371 198.304 132.843 197.744 132.171 197.344C131.499 196.944 130.723 196.744 129.843 196.744C128.979 196.744 128.203 196.944 127.515 197.344C126.827 197.744 126.291 198.304 125.907 199.024C125.523 199.744 125.331 200.568 125.331 201.496V201.76C125.331 202.72 125.539 203.568 125.955 204.304C126.387 205.024 126.979 205.592 127.731 206.008C128.499 206.408 129.371 206.608 130.347 206.608C131.115 206.608 131.827 206.472 132.483 206.2C133.155 205.928 133.731 205.512 134.211 204.952L135.171 206.056C134.611 206.728 133.907 207.24 133.059 207.592C132.227 207.944 131.307 208.12 130.299 208.12ZM145.215 208.12C144.175 208.12 143.191 207.976 142.263 207.688C141.335 207.384 140.607 207.008 140.079 206.56L140.847 205.216C141.359 205.6 142.015 205.936 142.815 206.224C143.615 206.496 144.455 206.632 145.335 206.632C146.535 206.632 147.399 206.448 147.927 206.08C148.455 205.696 148.719 205.192 148.719 204.568C148.719 204.104 148.567 203.744 148.263 203.488C147.975 203.216 147.591 203.016 147.111 202.888C146.631 202.744 146.095 202.624 145.503 202.528C144.911 202.432 144.319 202.32 143.727 202.192C143.151 202.064 142.623 201.88 142.143 201.64C141.663 201.384 141.271 201.04 140.967 200.608C140.679 200.176 140.535 199.6 140.535 198.88C140.535 198.192 140.727 197.576 141.111 197.032C141.495 196.488 142.055 196.064 142.791 195.76C143.543 195.44 144.455 195.28 145.527 195.28C146.343 195.28 147.159 195.392 147.975 195.616C148.791 195.824 149.463 196.104 149.991 196.456L149.247 197.824C148.687 197.44 148.087 197.168 147.447 197.008C146.807 196.832 146.167 196.744 145.527 196.744C144.391 196.744 143.551 196.944 143.007 197.344C142.479 197.728 142.215 198.224 142.215 198.832C142.215 199.312 142.359 199.688 142.647 199.96C142.951 200.232 143.343 200.448 143.823 200.608C144.319 200.752 144.855 200.872 145.431 200.968C146.023 201.064 146.607 201.184 147.183 201.328C147.775 201.456 148.311 201.64 148.791 201.88C149.287 202.104 149.679 202.432 149.967 202.864C150.271 203.28 150.423 203.832 150.423 204.52C150.423 205.256 150.215 205.896 149.799 206.44C149.399 206.968 148.807 207.384 148.023 207.688C147.255 207.976 146.319 208.12 145.215 208.12ZM159.934 208.12C158.75 208.12 157.838 207.8 157.198 207.16C156.558 206.52 156.238 205.616 156.238 204.448V192.616H157.942V204.352C157.942 205.088 158.126 205.656 158.494 206.056C158.878 206.456 159.422 206.656 160.126 206.656C160.878 206.656 161.502 206.44 161.998 206.008L162.598 207.232C162.262 207.536 161.854 207.76 161.374 207.904C160.91 208.048 160.43 208.12 159.934 208.12ZM153.982 196.816V195.4H161.782V196.816H153.982ZM175.996 208V205.216L175.924 204.76V200.104C175.924 199.032 175.62 198.208 175.012 197.632C174.42 197.056 173.532 196.768 172.348 196.768C171.532 196.768 170.756 196.904 170.02 197.176C169.284 197.448 168.66 197.808 168.148 198.256L167.38 196.984C168.02 196.44 168.788 196.024 169.684 195.736C170.58 195.432 171.524 195.28 172.516 195.28C174.148 195.28 175.404 195.688 176.284 196.504C177.18 197.304 177.628 198.528 177.628 200.176V208H175.996ZM171.652 208.12C170.708 208.12 169.884 207.968 169.18 207.664C168.492 207.344 167.964 206.912 167.596 206.368C167.228 205.808 167.044 205.168 167.044 204.448C167.044 203.792 167.196 203.2 167.5 202.672C167.82 202.128 168.332 201.696 169.036 201.376C169.756 201.04 170.716 200.872 171.916 200.872H176.26V202.144H171.964C170.748 202.144 169.9 202.36 169.42 202.792C168.956 203.224 168.724 203.76 168.724 204.4C168.724 205.12 169.004 205.696 169.564 206.128C170.124 206.56 170.908 206.776 171.916 206.776C172.876 206.776 173.7 206.56 174.388 206.128C175.092 205.68 175.604 205.04 175.924 204.208L176.308 205.384C175.988 206.216 175.428 206.88 174.628 207.376C173.844 207.872 172.852 208.12 171.652 208.12ZM189.864 208.12C188.792 208.12 187.856 207.92 187.056 207.52C186.256 207.12 185.632 206.52 185.184 205.72C184.752 204.92 184.536 203.92 184.536 202.72V195.4H186.24V202.528C186.24 203.872 186.568 204.888 187.224 205.576C187.896 206.248 188.832 206.584 190.032 206.584C190.912 206.584 191.672 206.408 192.312 206.056C192.968 205.688 193.464 205.16 193.8 204.472C194.152 203.784 194.328 202.96 194.328 202V195.4H196.032V208H194.4V204.544L194.664 205.168C194.264 206.096 193.64 206.824 192.792 207.352C191.96 207.864 190.984 208.12 189.864 208.12ZM203.181 208V195.4H204.813V198.832L204.645 198.232C204.997 197.272 205.589 196.544 206.421 196.048C207.253 195.536 208.285 195.28 209.517 195.28V196.936C209.453 196.936 209.389 196.936 209.325 196.936C209.261 196.92 209.197 196.912 209.133 196.912C207.805 196.912 206.765 197.32 206.013 198.136C205.261 198.936 204.885 200.08 204.885 201.568V208H203.181ZM220.262 208.12C218.95 208.12 217.798 207.848 216.806 207.304C215.814 206.744 215.038 205.984 214.478 205.024C213.918 204.048 213.638 202.936 213.638 201.688C213.638 200.44 213.902 199.336 214.43 198.376C214.974 197.416 215.71 196.664 216.638 196.12C217.582 195.56 218.638 195.28 219.806 195.28C220.99 195.28 222.038 195.552 222.95 196.096C223.878 196.624 224.606 197.376 225.134 198.352C225.662 199.312 225.926 200.424 225.926 201.688C225.926 201.768 225.918 201.856 225.902 201.952C225.902 202.032 225.902 202.12 225.902 202.216H214.934V200.944H224.99L224.318 201.448C224.318 200.536 224.118 199.728 223.718 199.024C223.334 198.304 222.806 197.744 222.134 197.344C221.462 196.944 220.686 196.744 219.806 196.744C218.942 196.744 218.166 196.944 217.478 197.344C216.79 197.744 216.254 198.304 215.87 199.024C215.486 199.744 215.294 200.568 215.294 201.496V201.76C215.294 202.72 215.502 203.568 215.918 204.304C216.35 205.024 216.942 205.592 217.694 206.008C218.462 206.408 219.334 206.608 220.31 206.608C221.078 206.608 221.79 206.472 222.446 206.2C223.118 205.928 223.694 205.512 224.174 204.952L225.134 206.056C224.574 206.728 223.87 207.24 223.022 207.592C222.19 207.944 221.27 208.12 220.262 208.12ZM216.086 192.52V191.392H223.478V192.52H216.086ZM235.778 208.12C234.594 208.12 233.682 207.8 233.042 207.16C232.402 206.52 232.082 205.616 232.082 204.448V192.616H233.786V204.352C233.786 205.088 233.97 205.656 234.338 206.056C234.722 206.456 235.266 206.656 235.97 206.656C236.722 206.656 237.346 206.44 237.842 206.008L238.442 207.232C238.106 207.536 237.698 207.76 237.218 207.904C236.754 208.048 236.274 208.12 235.778 208.12ZM229.826 196.816V195.4H237.626V196.816H229.826ZM243.944 208V195.4H245.648V208H243.944ZM244.808 192.616C244.456 192.616 244.16 192.496 243.92 192.256C243.68 192.016 243.56 191.728 243.56 191.392C243.56 191.056 243.68 190.776 243.92 190.552C244.16 190.312 244.456 190.192 244.808 190.192C245.16 190.192 245.456 190.304 245.696 190.528C245.936 190.752 246.056 191.032 246.056 191.368C246.056 191.72 245.936 192.016 245.696 192.256C245.472 192.496 245.176 192.616 244.808 192.616ZM258.141 208.12C256.829 208.12 255.677 207.848 254.685 207.304C253.693 206.744 252.917 205.984 252.357 205.024C251.797 204.048 251.517 202.936 251.517 201.688C251.517 200.44 251.781 199.336 252.309 198.376C252.853 197.416 253.589 196.664 254.517 196.12C255.461 195.56 256.517 195.28 257.685 195.28C258.869 195.28 259.917 195.552 260.829 196.096C261.757 196.624 262.485 197.376 263.013 198.352C263.541 199.312 263.805 200.424 263.805 201.688C263.805 201.768 263.797 201.856 263.781 201.952C263.781 202.032 263.781 202.12 263.781 202.216H252.813V200.944H262.869L262.197 201.448C262.197 200.536 261.997 199.728 261.597 199.024C261.213 198.304 260.685 197.744 260.013 197.344C259.341 196.944 258.565 196.744 257.685 196.744C256.821 196.744 256.045 196.944 255.357 197.344C254.669 197.744 254.133 198.304 253.749 199.024C253.365 199.744 253.173 200.568 253.173 201.496V201.76C253.173 202.72 253.381 203.568 253.797 204.304C254.229 205.024 254.821 205.592 255.573 206.008C256.341 206.408 257.213 206.608 258.189 206.608C258.957 206.608 259.669 206.472 260.325 206.2C260.997 205.928 261.573 205.512 262.053 204.952L263.013 206.056C262.453 206.728 261.749 207.24 260.901 207.592C260.069 207.944 259.149 208.12 258.141 208.12ZM283.371 208.12C282.171 208.12 281.091 207.848 280.131 207.304C279.187 206.76 278.443 206.008 277.899 205.048C277.355 204.072 277.083 202.952 277.083 201.688C277.083 200.408 277.355 199.288 277.899 198.328C278.443 197.368 279.187 196.624 280.131 196.096C281.091 195.552 282.171 195.28 283.371 195.28C284.475 195.28 285.459 195.528 286.323 196.024C287.203 196.52 287.899 197.248 288.411 198.208C288.939 199.152 289.203 200.312 289.203 201.688C289.203 203.048 288.947 204.208 288.435 205.168C287.923 206.128 287.227 206.864 286.347 207.376C285.483 207.872 284.491 208.12 283.371 208.12ZM283.491 206.608C284.387 206.608 285.187 206.408 285.891 206.008C286.611 205.592 287.171 205.016 287.571 204.28C287.987 203.528 288.195 202.664 288.195 201.688C288.195 200.696 287.987 199.832 287.571 199.096C287.171 198.36 286.611 197.792 285.891 197.392C285.187 196.976 284.387 196.768 283.491 196.768C282.611 196.768 281.819 196.976 281.115 197.392C280.411 197.792 279.851 198.36 279.435 199.096C279.019 199.832 278.811 200.696 278.811 201.688C278.811 202.664 279.019 203.528 279.435 204.28C279.851 205.016 280.411 205.592 281.115 206.008C281.819 206.408 282.611 206.608 283.491 206.608ZM288.243 208V204.208L288.411 201.664L288.171 199.12V190.192H289.875V208H288.243ZM304.917 208V205.216L304.845 204.76V200.104C304.845 199.032 304.541 198.208 303.933 197.632C303.341 197.056 302.453 196.768 301.269 196.768C300.453 196.768 299.677 196.904 298.941 197.176C298.205 197.448 297.581 197.808 297.069 198.256L296.301 196.984C296.941 196.44 297.709 196.024 298.605 195.736C299.501 195.432 300.445 195.28 301.437 195.28C303.069 195.28 304.325 195.688 305.205 196.504C306.101 197.304 306.549 198.528 306.549 200.176V208H304.917ZM300.573 208.12C299.629 208.12 298.805 207.968 298.101 207.664C297.413 207.344 296.885 206.912 296.517 206.368C296.149 205.808 295.965 205.168 295.965 204.448C295.965 203.792 296.117 203.2 296.421 202.672C296.741 202.128 297.253 201.696 297.957 201.376C298.677 201.04 299.637 200.872 300.837 200.872H305.181V202.144H300.885C299.669 202.144 298.821 202.36 298.341 202.792C297.877 203.224 297.645 203.76 297.645 204.4C297.645 205.12 297.925 205.696 298.485 206.128C299.045 206.56 299.829 206.776 300.837 206.776C301.797 206.776 302.621 206.56 303.309 206.128C304.013 205.68 304.525 205.04 304.845 204.208L305.229 205.384C304.909 206.216 304.349 206.88 303.549 207.376C302.765 207.872 301.773 208.12 300.573 208.12ZM313.577 208V195.4H315.209V198.832L315.041 198.232C315.393 197.272 315.985 196.544 316.817 196.048C317.649 195.536 318.681 195.28 319.913 195.28V196.936C319.849 196.936 319.785 196.936 319.721 196.936C319.657 196.92 319.593 196.912 319.529 196.912C318.201 196.912 317.161 197.32 316.409 198.136C315.657 198.936 315.281 200.08 315.281 201.568V208H313.577ZM331.926 208.12C330.822 208.12 329.83 207.872 328.95 207.376C328.07 206.864 327.374 206.128 326.862 205.168C326.35 204.208 326.094 203.048 326.094 201.688C326.094 200.312 326.35 199.152 326.862 198.208C327.39 197.248 328.094 196.52 328.974 196.024C329.854 195.528 330.838 195.28 331.926 195.28C333.126 195.28 334.198 195.552 335.142 196.096C336.102 196.624 336.854 197.368 337.398 198.328C337.942 199.288 338.214 200.408 338.214 201.688C338.214 202.952 337.942 204.072 337.398 205.048C336.854 206.008 336.102 206.76 335.142 207.304C334.198 207.848 333.126 208.12 331.926 208.12ZM325.422 208V190.192H327.126V199.12L326.886 201.664L327.054 204.208V208H325.422ZM331.806 206.608C332.702 206.608 333.502 206.408 334.206 206.008C334.91 205.592 335.47 205.016 335.886 204.28C336.302 203.528 336.51 202.664 336.51 201.688C336.51 200.696 336.302 199.832 335.886 199.096C335.47 198.36 334.91 197.792 334.206 197.392C333.502 196.976 332.702 196.768 331.806 196.768C330.91 196.768 330.102 196.976 329.382 197.392C328.678 197.792 328.118 198.36 327.702 199.096C327.302 199.832 327.102 200.696 327.102 201.688C327.102 202.664 327.302 203.528 327.702 204.28C328.118 205.016 328.678 205.592 329.382 206.008C330.102 206.408 330.91 206.608 331.806 206.608ZM344.088 208V195.4H345.792V208H344.088ZM344.952 192.616C344.6 192.616 344.304 192.496 344.064 192.256C343.824 192.016 343.704 191.728 343.704 191.392C343.704 191.056 343.824 190.776 344.064 190.552C344.304 190.312 344.6 190.192 344.952 190.192C345.304 190.192 345.6 190.304 345.84 190.528C346.08 190.752 346.2 191.032 346.2 191.368C346.2 191.72 346.08 192.016 345.84 192.256C345.616 192.496 345.32 192.616 344.952 192.616Z" fill="white"/>
</svg>
