<svg viewBox="0 0 378 250" fill="none" xmlns="http://www.w3.org/2000/svg">
<rect x="0.5" y="0.5" width="377" height="249" fill="#13120D" stroke="#941C86"/>
<path d="M342.213 18.2081C341.885 18.2138 341.573 18.3479 341.343 18.5817C341.114 18.8155 340.985 19.1301 340.985 19.4579C340.985 19.7856 341.114 20.1003 341.343 20.334C341.573 20.5678 341.885 20.702 342.213 20.7077L356.886 20.7077L339.579 38.0141C339.345 38.2485 339.213 38.5665 339.213 38.898C339.213 39.2295 339.345 39.5475 339.579 39.7819C339.814 40.0163 340.131 40.148 340.463 40.148C340.795 40.148 341.112 40.0163 341.347 39.7819L358.653 22.4754L358.653 37.1479C358.659 37.4756 358.793 37.788 359.027 38.0177C359.261 38.2475 359.575 38.3762 359.903 38.3762C360.231 38.3762 360.546 38.2475 360.779 38.0177C361.013 37.788 361.147 37.4756 361.153 37.1479V19.4702C361.153 19.1388 361.021 18.8209 360.787 18.5866C360.552 18.3522 360.235 18.2205 359.903 18.2204L342.225 18.2204L342.213 18.2081Z" fill="white"/>
<path d="M143.664 75L134 52.6H139.6L148.048 72.44H144.752L153.328 52.6H158.48L148.784 75H143.664ZM163.479 75V57.784H168.471V75H163.479ZM165.975 55.384C165.058 55.384 164.311 55.1173 163.735 54.584C163.159 54.0507 162.871 53.3893 162.871 52.6C162.871 51.8107 163.159 51.1493 163.735 50.616C164.311 50.0827 165.058 49.816 165.975 49.816C166.892 49.816 167.639 50.072 168.215 50.584C168.791 51.0747 169.079 51.7147 169.079 52.504C169.079 53.336 168.791 54.0293 168.215 54.584C167.66 55.1173 166.914 55.384 165.975 55.384ZM183.696 75.256C182.075 75.256 180.613 74.8933 179.312 74.168C178.011 73.4213 176.976 72.3867 176.208 71.064C175.461 69.7413 175.088 68.184 175.088 66.392C175.088 64.5787 175.461 63.0107 176.208 61.688C176.976 60.3653 178.011 59.3413 179.312 58.616C180.613 57.8907 182.075 57.528 183.696 57.528C185.147 57.528 186.416 57.848 187.504 58.488C188.592 59.128 189.435 60.0987 190.032 61.4C190.629 62.7013 190.928 64.3653 190.928 66.392C190.928 68.3973 190.64 70.0613 190.064 71.384C189.488 72.6853 188.656 73.656 187.568 74.296C186.501 74.936 185.211 75.256 183.696 75.256ZM184.56 71.16C185.371 71.16 186.107 70.968 186.768 70.584C187.429 70.2 187.952 69.656 188.336 68.952C188.741 68.2267 188.944 67.3733 188.944 66.392C188.944 65.3893 188.741 64.536 188.336 63.832C187.952 63.128 187.429 62.584 186.768 62.2C186.107 61.816 185.371 61.624 184.56 61.624C183.728 61.624 182.981 61.816 182.32 62.2C181.659 62.584 181.125 63.128 180.72 63.832C180.336 64.536 180.144 65.3893 180.144 66.392C180.144 67.3733 180.336 68.2267 180.72 68.952C181.125 69.656 181.659 70.2 182.32 70.584C182.981 70.968 183.728 71.16 184.56 71.16ZM189.072 75V71.48L189.168 66.36L188.848 61.272V51.256H193.84V75H189.072ZM210.204 75.256C208.242 75.256 206.514 74.872 205.02 74.104C203.548 73.336 202.407 72.2907 201.596 70.968C200.786 69.624 200.38 68.0987 200.38 66.392C200.38 64.664 200.775 63.1387 201.564 61.816C202.375 60.472 203.474 59.4267 204.86 58.68C206.247 57.912 207.815 57.528 209.564 57.528C211.25 57.528 212.764 57.8907 214.108 58.616C215.474 59.32 216.551 60.344 217.34 61.688C218.13 63.0107 218.524 64.6 218.524 66.456C218.524 66.648 218.514 66.872 218.492 67.128C218.471 67.3627 218.45 67.5867 218.428 67.8H204.444V64.888H215.804L213.884 65.752C213.884 64.856 213.703 64.0773 213.34 63.416C212.978 62.7547 212.476 62.2427 211.836 61.88C211.196 61.496 210.45 61.304 209.596 61.304C208.743 61.304 207.986 61.496 207.324 61.88C206.684 62.2427 206.183 62.7653 205.82 63.448C205.458 64.1093 205.276 64.8987 205.276 65.816V66.584C205.276 67.5227 205.479 68.3547 205.884 69.08C206.311 69.784 206.898 70.328 207.644 70.712C208.412 71.0747 209.308 71.256 210.332 71.256C211.25 71.256 212.05 71.1173 212.732 70.84C213.436 70.5627 214.076 70.1467 214.652 69.592L217.308 72.472C216.519 73.368 215.527 74.0613 214.332 74.552C213.138 75.0213 211.762 75.256 210.204 75.256ZM233.24 75.256C231.405 75.256 229.773 74.872 228.344 74.104C226.936 73.336 225.816 72.2907 224.984 70.968C224.173 69.624 223.768 68.0987 223.768 66.392C223.768 64.664 224.173 63.1387 224.984 61.816C225.816 60.472 226.936 59.4267 228.344 58.68C229.773 57.912 231.405 57.528 233.24 57.528C235.053 57.528 236.674 57.912 238.104 58.68C239.533 59.4267 240.653 60.4613 241.464 61.784C242.274 63.1067 242.68 64.6427 242.68 66.392C242.68 68.0987 242.274 69.624 241.464 70.968C240.653 72.2907 239.533 73.336 238.104 74.104C236.674 74.872 235.053 75.256 233.24 75.256ZM233.24 71.16C234.072 71.16 234.818 70.968 235.48 70.584C236.141 70.2 236.664 69.656 237.048 68.952C237.432 68.2267 237.624 67.3733 237.624 66.392C237.624 65.3893 237.432 64.536 237.048 63.832C236.664 63.128 236.141 62.584 235.48 62.2C234.818 61.816 234.072 61.624 233.24 61.624C232.408 61.624 231.661 61.816 231 62.2C230.338 62.584 229.805 63.128 229.4 63.832C229.016 64.536 228.824 65.3893 228.824 66.392C228.824 67.3733 229.016 68.2267 229.4 68.952C229.805 69.656 230.338 70.2 231 70.584C231.661 70.968 232.408 71.16 233.24 71.16Z" fill="white"/>
<path fill-rule="evenodd" clip-rule="evenodd" d="M154.958 210.208H241.208V123.958H154.958V210.208Z" fill="#620B58"/>
<path fill-rule="evenodd" clip-rule="evenodd" d="M135.792 191.042H222.042V104.792H135.792V191.042Z" fill="#E0E0E0"/>
<path d="M195.553 147.917L164.542 129.311V166.523L195.553 147.917Z" fill="#620B58"/>
</svg>
