<svg width="167" height="31" viewBox="0 0 167 31" fill="none" xmlns="http://www.w3.org/2000/svg">
<path d="M147.43 25.3998H155.05V27.9398H147.43V25.3998ZM157.471 17.414C158.779 15.8824 160.13 14.2987 160.13 11.4298C160.13 6.52886 156.141 2.53979 151.24 2.53979C146.339 2.53979 142.35 6.52886 142.35 11.4298C142.35 14.3317 143.705 15.9104 145.019 17.4369C145.473 17.9678 145.944 18.5177 146.395 19.1501C146.578 19.4117 146.878 20.415 147.146 21.5898H146.16V24.1298H156.32V21.5898H155.337C155.608 20.4125 155.909 19.4067 156.09 19.145C156.538 18.5062 157.012 17.9512 157.471 17.414ZM154.011 17.6845C153.46 18.4681 153.001 20.3198 152.734 21.5898H149.748C149.483 20.3173 149.022 18.4618 148.464 17.6782C147.988 17.0233 147.481 16.391 146.945 15.7834C145.708 14.3432 144.89 13.3907 144.89 11.4298C144.89 7.9284 147.739 5.07979 151.24 5.07979C154.742 5.07979 157.59 7.9284 157.59 11.4298C157.59 13.3615 156.774 14.3178 155.539 15.7643C155.066 16.3206 154.528 16.9492 154.011 17.6845Z" fill="#620B58"/>
<path d="M79.4303 25.3998H87.0503V27.9398H79.4303V25.3998ZM89.471 17.414C90.7791 15.8824 92.1303 14.2987 92.1303 11.4298C92.1303 6.52886 88.1413 2.53979 83.2403 2.53979C78.3394 2.53979 74.3503 6.52886 74.3503 11.4298C74.3503 14.3317 75.7054 15.9104 77.0186 17.4369C77.4733 17.9678 77.9444 18.5177 78.3953 19.1501C78.5782 19.4117 78.8779 20.415 79.1459 21.5898H78.1603V24.1298H88.3203V21.5898H87.3374C87.6079 20.4125 87.9089 19.4067 88.0905 19.145C88.5375 18.5062 89.0125 17.9512 89.471 17.414ZM86.0115 17.6845C85.4603 18.4681 85.0006 20.3198 84.7339 21.5898H81.7481C81.4827 20.3173 81.0217 18.4618 80.4641 17.6782C79.9876 17.0233 79.4807 16.391 78.9452 15.7834C77.7082 14.3432 76.8903 13.3907 76.8903 11.4298C76.8903 7.9284 79.739 5.07979 83.2403 5.07979C86.7417 5.07979 89.5903 7.9284 89.5903 11.4298C89.5903 13.3615 88.7737 14.3178 87.5393 15.7643C87.0656 16.3206 86.5284 16.9492 86.0115 17.6845Z" fill="#620B58"/>
<path d="M80.1724 4L86.8966 4.54286L90 9.42857L89.4828 15.9429L85.3448 23H81.2069L77.069 15.9429L75 8.88571L80.1724 4Z" fill="#620B58"/>
<path d="M45.4303 25.3998H53.0503V27.9398H45.4303V25.3998ZM55.471 17.414C56.7791 15.8824 58.1303 14.2987 58.1303 11.4298C58.1303 6.52886 54.1413 2.53979 49.2403 2.53979C44.3394 2.53979 40.3503 6.52886 40.3503 11.4298C40.3503 14.3317 41.7054 15.9104 43.0186 17.4369C43.4733 17.9678 43.9444 18.5177 44.3953 19.1501C44.5782 19.4117 44.8779 20.415 45.1459 21.5898H44.1603V24.1298H54.3203V21.5898H53.3374C53.6079 20.4125 53.9089 19.4067 54.0905 19.145C54.5375 18.5062 55.0125 17.9512 55.471 17.414ZM52.0115 17.6845C51.4603 18.4681 51.0006 20.3198 50.7339 21.5898H47.7481C47.4827 20.3173 47.0217 18.4618 46.4641 17.6782C45.9876 17.0233 45.4807 16.391 44.9452 15.7834C43.7082 14.3432 42.8903 13.3907 42.8903 11.4298C42.8903 7.9284 45.739 5.07979 49.2403 5.07979C52.7417 5.07979 55.5903 7.9284 55.5903 11.4298C55.5903 13.3615 54.7737 14.3178 53.5393 15.7643C53.0656 16.3206 52.5284 16.9492 52.0115 17.6845Z" fill="#620B58"/>
<path d="M46.1724 4L52.8966 4.54286L56 9.42857L55.4828 15.9429L51.3448 23H47.2069L43.069 15.9429L41 8.88571L46.1724 4Z" fill="#620B58"/>
<path d="M11.4303 25.3998H19.0503V27.9398H11.4303V25.3998ZM21.471 17.414C22.7791 15.8824 24.1303 14.2987 24.1303 11.4298C24.1303 6.52886 20.1413 2.53979 15.2403 2.53979C10.3394 2.53979 6.35034 6.52886 6.35034 11.4298C6.35034 14.3317 7.70543 15.9104 9.01861 17.4369C9.47327 17.9678 9.94444 18.5177 10.3953 19.1501C10.5782 19.4117 10.8779 20.415 11.1459 21.5898H10.1603V24.1298H20.3203V21.5898H19.3374C19.6079 20.4125 19.9089 19.4067 20.0905 19.145C20.5375 18.5062 21.0125 17.9512 21.471 17.414ZM18.0115 17.6845C17.4603 18.4681 17.0006 20.3198 16.7339 21.5898H13.7481C13.4827 20.3173 13.0217 18.4618 12.4641 17.6782C11.9876 17.0233 11.4807 16.391 10.9452 15.7834C9.70822 14.3432 8.89034 13.3907 8.89034 11.4298C8.89034 7.9284 11.739 5.07979 15.2403 5.07979C18.7417 5.07979 21.5903 7.9284 21.5903 11.4298C21.5903 13.3615 20.7737 14.3178 19.5393 15.7643C19.0656 16.3206 18.5284 16.9492 18.0115 17.6845Z" fill="#620B58"/>
<path d="M12.1724 4L18.8966 4.54286L22 9.42857L21.4828 15.9429L17.3448 23H13.2069L9.06897 15.9429L7 8.88571L12.1724 4Z" fill="#620B58"/>
<path d="M113.43 25.3998H121.05V27.9398H113.43V25.3998ZM123.471 17.414C124.779 15.8824 126.13 14.2987 126.13 11.4298C126.13 6.52886 122.141 2.53979 117.24 2.53979C112.339 2.53979 108.35 6.52886 108.35 11.4298C108.35 14.3317 109.705 15.9104 111.019 17.4369C111.473 17.9678 111.944 18.5177 112.395 19.1501C112.578 19.4117 112.878 20.415 113.146 21.5898H112.16V24.1298H122.32V21.5898H121.337C121.608 20.4125 121.909 19.4067 122.09 19.145C122.538 18.5062 123.012 17.9512 123.471 17.414ZM120.011 17.6845C119.46 18.4681 119.001 20.3198 118.734 21.5898H115.748C115.483 20.3173 115.022 18.4618 114.464 17.6782C113.988 17.0233 113.481 16.391 112.945 15.7834C111.708 14.3432 110.89 13.3907 110.89 11.4298C110.89 7.9284 113.739 5.07979 117.24 5.07979C120.742 5.07979 123.59 7.9284 123.59 11.4298C123.59 13.3615 122.774 14.3178 121.539 15.7643C121.066 16.3206 120.528 16.9492 120.011 17.6845Z" fill="#620B58"/>
<path d="M114.172 4L120.897 4.54286L124 9.42857L123.483 15.9429L119.345 23H115.207L111.069 15.9429L109 8.88571L114.172 4Z" fill="#620B58"/>
</svg>
