<svg width="45" height="45" viewBox="0 0 45 45" fill="none" xmlns="http://www.w3.org/2000/svg">
<path d="M16.8749 41.25H18.7499V37.5H16.8955C16.318 37.4887 11.2499 37.1756 11.2499 30C11.2499 26.2631 10.003 23.9138 8.43363 22.5C10.003 21.0862 11.2499 18.7369 11.2499 15C11.2499 7.82438 16.318 7.51125 16.8749 7.5H18.7499V3.75H16.8711C13.6293 3.7575 7.49988 6.12 7.49988 15C7.49988 20.25 4.35363 20.6063 3.72363 20.625L3.74988 24.375C3.90363 24.375 7.49988 24.4387 7.49988 30C7.49988 38.88 13.6293 41.2425 16.8749 41.25ZM41.2499 20.625C41.0961 20.625 37.4999 20.5613 37.4999 15C37.4999 6.12 31.3705 3.7575 28.1249 3.75H26.2499V7.5H28.1043C28.6818 7.51125 33.7499 7.82438 33.7499 15C33.7499 18.7369 34.9968 21.0862 36.5661 22.5C34.9968 23.9138 33.7499 26.2631 33.7499 30C33.7499 37.1756 28.6818 37.4887 28.1249 37.5H26.2499V41.25H28.1286C31.3705 41.2425 37.4999 38.88 37.4999 30C37.4999 24.75 40.6461 24.3937 41.2761 24.375L41.2499 20.625Z" fill="white"/>
</svg>
