<svg width="45" height="45" viewBox="0 0 45 45" fill="none" xmlns="http://www.w3.org/2000/svg">
<path d="M12.0403 21.4537C15.3987 22.6329 18.9412 23.2011 22.5 23.1314C26.0588 23.2006 29.6013 22.632 32.9597 21.4523C35.5809 20.43 36.5104 19.2938 36.5104 18.6398V13.6406C35.5937 14.2539 34.6106 14.7615 33.5798 15.1538C30.0268 16.4258 26.2733 17.046 22.5 16.9847C18.727 17.0439 14.9741 16.4247 11.4201 15.1566C10.3887 14.7645 9.40545 14.2559 8.4895 13.6406V18.6328C8.4895 19.2994 9.42185 20.43 12.0403 21.4537ZM12.0403 30.8827C13.2266 31.3352 14.4499 31.6838 15.6965 31.9247C17.9383 32.3574 20.2169 32.5708 22.5 32.5617C24.783 32.5713 27.0616 32.3584 29.3034 31.9261C30.55 31.6852 31.7734 31.3366 32.9597 30.8841C35.5809 29.8617 36.5104 28.7255 36.5104 28.0716V23.3044C35.7529 23.7602 34.9567 24.1485 34.1311 24.4645C30.3985 25.7858 26.4588 26.4255 22.5 26.3531C18.5407 26.4232 14.601 25.7811 10.8689 24.4575C10.0441 24.1395 9.24802 23.7513 8.4895 23.2973V28.0687C8.4895 28.7241 9.42185 29.8561 12.0403 30.8827ZM22.5 42.1875C30.2343 42.1875 36.5104 39.735 36.5104 36.7116V32.722C35.8213 33.1374 35.0994 33.4958 34.3518 33.7936L34.1311 33.8822C30.3992 35.2073 26.4595 35.8508 22.5 35.782C18.5402 35.8538 14.6 35.2102 10.8689 33.8822L10.6481 33.7936C9.90057 33.4958 9.17863 33.1374 8.4895 32.722V36.7116C8.4895 39.735 14.7656 42.1875 22.5 42.1875Z" fill="white"/>
<path d="M22.5 13.7644C30.2377 13.7644 36.5104 11.3127 36.5104 8.28844C36.5104 5.26416 30.2377 2.8125 22.5 2.8125C14.7622 2.8125 8.4895 5.26416 8.4895 8.28844C8.4895 11.3127 14.7622 13.7644 22.5 13.7644Z" fill="white"/>
</svg>
