<svg viewBox="0 0 378 250" fill="none" xmlns="http://www.w3.org/2000/svg">
<rect x="0.5" y="0.5" width="377" height="249" fill="#13120D" stroke="#941C86"/>
<path d="M342.213 18.208C341.886 18.2137 341.573 18.3479 341.343 18.5817C341.114 18.8154 340.985 19.1301 340.985 19.4578C340.985 19.7856 341.114 20.1002 341.343 20.334C341.573 20.5678 341.886 20.702 342.213 20.7077L356.886 20.7077L339.579 38.0141C339.345 38.2485 339.213 38.5665 339.213 38.898C339.213 39.2295 339.345 39.5474 339.579 39.7819C339.814 40.0163 340.132 40.148 340.463 40.148C340.795 40.148 341.113 40.0163 341.347 39.7819L358.653 22.4754L358.653 37.1479C358.659 37.4756 358.793 37.788 359.027 38.0177C359.261 38.2474 359.576 38.3762 359.903 38.3762C360.231 38.3762 360.546 38.2474 360.779 38.0177C361.013 37.788 361.147 37.4756 361.153 37.1479V19.4702C361.153 19.1388 361.021 18.8209 360.787 18.5865C360.553 18.3521 360.235 18.2205 359.903 18.2204L342.226 18.2204L342.213 18.208Z" fill="white"/>
<path d="M8.578 58.098C7.794 58.098 7.094 57.9347 6.478 57.608C5.87133 57.272 5.39533 56.8147 5.05 56.236C4.70467 55.6573 4.532 54.9993 4.532 54.262C4.532 53.5153 4.70467 52.8573 5.05 52.288C5.39533 51.7093 5.87133 51.2567 6.478 50.93C7.094 50.6033 7.794 50.44 8.578 50.44C9.306 50.44 9.94533 50.5893 10.496 50.888C11.056 51.1773 11.4807 51.6067 11.77 52.176L10.426 52.96C10.202 52.6053 9.92667 52.344 9.6 52.176C9.28267 52.008 8.93733 51.924 8.564 51.924C8.13467 51.924 7.74733 52.0173 7.402 52.204C7.05667 52.3907 6.786 52.6613 6.59 53.016C6.394 53.3613 6.296 53.7767 6.296 54.262C6.296 54.7473 6.394 55.1673 6.59 55.522C6.786 55.8673 7.05667 56.1333 7.402 56.32C7.74733 56.5067 8.13467 56.6 8.564 56.6C8.93733 56.6 9.28267 56.516 9.6 56.348C9.92667 56.18 10.202 55.9187 10.426 55.564L11.77 56.348C11.4807 56.908 11.056 57.342 10.496 57.65C9.94533 57.9487 9.306 58.098 8.578 58.098ZM17.9334 58.098C17.1681 58.098 16.4867 57.9347 15.8894 57.608C15.2921 57.272 14.8207 56.8147 14.4754 56.236C14.1301 55.6573 13.9574 54.9993 13.9574 54.262C13.9574 53.5153 14.1301 52.8573 14.4754 52.288C14.8207 51.7093 15.2921 51.2567 15.8894 50.93C16.4867 50.6033 17.1681 50.44 17.9334 50.44C18.7081 50.44 19.3941 50.6033 19.9914 50.93C20.5981 51.2567 21.0694 51.7047 21.4054 52.274C21.7507 52.8433 21.9234 53.506 21.9234 54.262C21.9234 54.9993 21.7507 55.6573 21.4054 56.236C21.0694 56.8147 20.5981 57.272 19.9914 57.608C19.3941 57.9347 18.7081 58.098 17.9334 58.098ZM17.9334 56.6C18.3627 56.6 18.7454 56.5067 19.0814 56.32C19.4174 56.1333 19.6787 55.8627 19.8654 55.508C20.0614 55.1533 20.1594 54.738 20.1594 54.262C20.1594 53.7767 20.0614 53.3613 19.8654 53.016C19.6787 52.6613 19.4174 52.3907 19.0814 52.204C18.7454 52.0173 18.3674 51.924 17.9474 51.924C17.5181 51.924 17.1354 52.0173 16.7994 52.204C16.4727 52.3907 16.2114 52.6613 16.0154 53.016C15.8194 53.3613 15.7214 53.7767 15.7214 54.262C15.7214 54.738 15.8194 55.1533 16.0154 55.508C16.2114 55.8627 16.4727 56.1333 16.7994 56.32C17.1354 56.5067 17.5134 56.6 17.9334 56.6ZM29.2388 50.44C29.8362 50.44 30.3682 50.5567 30.8348 50.79C31.3108 51.0233 31.6842 51.3827 31.9548 51.868C32.2255 52.344 32.3608 52.96 32.3608 53.716V58H30.6108V53.94C30.6108 53.2773 30.4522 52.7827 30.1348 52.456C29.8268 52.1293 29.3928 51.966 28.8328 51.966C28.4222 51.966 28.0582 52.05 27.7408 52.218C27.4235 52.386 27.1762 52.638 26.9988 52.974C26.8308 53.3007 26.7468 53.716 26.7468 54.22V58H24.9968V50.524H26.6628V52.54L26.3688 51.924C26.6302 51.448 27.0082 51.084 27.5028 50.832C28.0068 50.5707 28.5855 50.44 29.2388 50.44ZM38.2908 58.098C37.6655 58.098 37.0635 58.0187 36.4848 57.86C35.9155 57.692 35.4628 57.4913 35.1268 57.258L35.7988 55.928C36.1348 56.1427 36.5361 56.32 37.0028 56.46C37.4695 56.6 37.9361 56.67 38.4028 56.67C38.9535 56.67 39.3501 56.5953 39.5928 56.446C39.8448 56.2967 39.9708 56.096 39.9708 55.844C39.9708 55.6387 39.8868 55.4847 39.7188 55.382C39.5508 55.27 39.3315 55.186 39.0608 55.13C38.7901 55.074 38.4868 55.0227 38.1508 54.976C37.8241 54.9293 37.4928 54.8687 37.1568 54.794C36.8301 54.71 36.5315 54.5933 36.2608 54.444C35.9901 54.2853 35.7708 54.0753 35.6028 53.814C35.4348 53.5527 35.3508 53.2073 35.3508 52.778C35.3508 52.302 35.4861 51.8913 35.7568 51.546C36.0275 51.1913 36.4055 50.9207 36.8908 50.734C37.3855 50.538 37.9688 50.44 38.6408 50.44C39.1448 50.44 39.6535 50.496 40.1668 50.608C40.6801 50.72 41.1048 50.8787 41.4408 51.084L40.7688 52.414C40.4141 52.1993 40.0548 52.0547 39.6908 51.98C39.3361 51.896 38.9815 51.854 38.6268 51.854C38.0948 51.854 37.6981 51.9333 37.4368 52.092C37.1848 52.2507 37.0588 52.4513 37.0588 52.694C37.0588 52.918 37.1428 53.086 37.3108 53.198C37.4788 53.31 37.6981 53.3987 37.9688 53.464C38.2395 53.5293 38.5381 53.5853 38.8648 53.632C39.2008 53.6693 39.5321 53.73 39.8588 53.814C40.1855 53.898 40.4841 54.0147 40.7548 54.164C41.0348 54.304 41.2588 54.5047 41.4268 54.766C41.5948 55.0273 41.6788 55.368 41.6788 55.788C41.6788 56.2547 41.5388 56.6607 41.2588 57.006C40.9881 57.3513 40.6008 57.622 40.0968 57.818C39.5928 58.0047 38.9908 58.098 38.2908 58.098ZM47.3999 58.098C46.5786 58.098 45.9439 57.888 45.4959 57.468C45.0479 57.0387 44.8239 56.4087 44.8239 55.578V48.872H46.5739V55.536C46.5739 55.8907 46.6626 56.166 46.8399 56.362C47.0266 56.558 47.2832 56.656 47.6099 56.656C48.0019 56.656 48.3286 56.5533 48.5899 56.348L49.0799 57.594C48.8746 57.762 48.6226 57.888 48.3239 57.972C48.0252 58.056 47.7172 58.098 47.3999 58.098ZM43.5919 51.98V50.58H48.5759V51.98H43.5919ZM57.3566 58V48.2H61.3886C62.2566 48.2 62.9986 48.34 63.6146 48.62C64.24 48.9 64.7206 49.3013 65.0566 49.824C65.3926 50.3467 65.5606 50.9673 65.5606 51.686C65.5606 52.4047 65.3926 53.0253 65.0566 53.548C64.7206 54.0707 64.24 54.472 63.6146 54.752C62.9986 55.032 62.2566 55.172 61.3886 55.172H58.3646L59.1766 54.318V58H57.3566ZM59.1766 54.514L58.3646 53.632H61.3046C62.1073 53.632 62.7093 53.464 63.1106 53.128C63.5213 52.7827 63.7266 52.302 63.7266 51.686C63.7266 51.0607 63.5213 50.58 63.1106 50.244C62.7093 49.908 62.1073 49.74 61.3046 49.74H58.3646L59.1766 48.844V54.514ZM71.9428 58.098C71.1774 58.098 70.4961 57.9347 69.8988 57.608C69.3014 57.272 68.8301 56.8147 68.4848 56.236C68.1394 55.6573 67.9668 54.9993 67.9668 54.262C67.9668 53.5153 68.1394 52.8573 68.4848 52.288C68.8301 51.7093 69.3014 51.2567 69.8988 50.93C70.4961 50.6033 71.1774 50.44 71.9428 50.44C72.7174 50.44 73.4034 50.6033 74.0008 50.93C74.6074 51.2567 75.0788 51.7047 75.4148 52.274C75.7601 52.8433 75.9328 53.506 75.9328 54.262C75.9328 54.9993 75.7601 55.6573 75.4148 56.236C75.0788 56.8147 74.6074 57.272 74.0008 57.608C73.4034 57.9347 72.7174 58.098 71.9428 58.098ZM71.9428 56.6C72.3721 56.6 72.7548 56.5067 73.0908 56.32C73.4268 56.1333 73.6881 55.8627 73.8748 55.508C74.0708 55.1533 74.1688 54.738 74.1688 54.262C74.1688 53.7767 74.0708 53.3613 73.8748 53.016C73.6881 52.6613 73.4268 52.3907 73.0908 52.204C72.7548 52.0173 72.3768 51.924 71.9568 51.924C71.5274 51.924 71.1448 52.0173 70.8088 52.204C70.4821 52.3907 70.2208 52.6613 70.0248 53.016C69.8288 53.3613 69.7308 53.7767 69.7308 54.262C69.7308 54.738 69.8288 55.1533 70.0248 55.508C70.2208 55.8627 70.4821 56.1333 70.8088 56.32C71.1448 56.5067 71.5228 56.6 71.9428 56.6ZM79.0062 58V50.524H80.6722V52.582L80.4762 51.98C80.7002 51.476 81.0502 51.0933 81.5262 50.832C82.0115 50.5707 82.6135 50.44 83.3322 50.44V52.106C83.2575 52.0873 83.1875 52.078 83.1222 52.078C83.0569 52.0687 82.9915 52.064 82.9262 52.064C82.2635 52.064 81.7362 52.26 81.3442 52.652C80.9522 53.0347 80.7562 53.6087 80.7562 54.374V58H79.0062ZM89.3042 58.098C88.4829 58.098 87.8482 57.888 87.4002 57.468C86.9522 57.0387 86.7282 56.4087 86.7282 55.578V48.872H88.4782V55.536C88.4782 55.8907 88.5669 56.166 88.7442 56.362C88.9309 56.558 89.1875 56.656 89.5142 56.656C89.9062 56.656 90.2329 56.5533 90.4942 56.348L90.9842 57.594C90.7789 57.762 90.5269 57.888 90.2282 57.972C89.9295 58.056 89.6215 58.098 89.3042 58.098ZM85.4962 51.98V50.58H90.4802V51.98H85.4962ZM94.0618 58V50.104C94.0618 49.32 94.2904 48.6947 94.7478 48.228C95.2144 47.752 95.8771 47.514 96.7358 47.514C97.0438 47.514 97.3331 47.5467 97.6038 47.612C97.8838 47.6773 98.1171 47.78 98.3038 47.92L97.8278 49.236C97.6971 49.1333 97.5478 49.0587 97.3798 49.012C97.2118 48.956 97.0391 48.928 96.8618 48.928C96.4978 48.928 96.2224 49.0307 96.0358 49.236C95.8491 49.432 95.7558 49.7307 95.7558 50.132V50.972L95.8118 51.756V58H94.0618ZM92.8298 51.98V50.58H97.8138V51.98H92.8298ZM103.642 58.098C102.877 58.098 102.196 57.9347 101.598 57.608C101.001 57.272 100.53 56.8147 100.184 56.236C99.839 55.6573 99.6664 54.9993 99.6664 54.262C99.6664 53.5153 99.839 52.8573 100.184 52.288C100.53 51.7093 101.001 51.2567 101.598 50.93C102.196 50.6033 102.877 50.44 103.642 50.44C104.417 50.44 105.103 50.6033 105.7 50.93C106.307 51.2567 106.778 51.7047 107.114 52.274C107.46 52.8433 107.632 53.506 107.632 54.262C107.632 54.9993 107.46 55.6573 107.114 56.236C106.778 56.8147 106.307 57.272 105.7 57.608C105.103 57.9347 104.417 58.098 103.642 58.098ZM103.642 56.6C104.072 56.6 104.454 56.5067 104.79 56.32C105.126 56.1333 105.388 55.8627 105.574 55.508C105.77 55.1533 105.868 54.738 105.868 54.262C105.868 53.7767 105.77 53.3613 105.574 53.016C105.388 52.6613 105.126 52.3907 104.79 52.204C104.454 52.0173 104.076 51.924 103.656 51.924C103.227 51.924 102.844 52.0173 102.508 52.204C102.182 52.3907 101.92 52.6613 101.724 53.016C101.528 53.3613 101.43 53.7767 101.43 54.262C101.43 54.738 101.528 55.1533 101.724 55.508C101.92 55.8627 102.182 56.1333 102.508 56.32C102.844 56.5067 103.222 56.6 103.642 56.6ZM110.706 58V47.612H112.456V58H110.706ZM116.153 58V50.524H117.903V58H116.153ZM117.035 49.292C116.708 49.292 116.437 49.1893 116.223 48.984C116.017 48.7787 115.915 48.5313 115.915 48.242C115.915 47.9433 116.017 47.696 116.223 47.5C116.437 47.2947 116.708 47.192 117.035 47.192C117.361 47.192 117.627 47.29 117.833 47.486C118.047 47.6727 118.155 47.9107 118.155 48.2C118.155 48.508 118.052 48.7693 117.847 48.984C117.641 49.1893 117.371 49.292 117.035 49.292ZM124.96 58.098C124.194 58.098 123.513 57.9347 122.916 57.608C122.318 57.272 121.847 56.8147 121.502 56.236C121.156 55.6573 120.984 54.9993 120.984 54.262C120.984 53.5153 121.156 52.8573 121.502 52.288C121.847 51.7093 122.318 51.2567 122.916 50.93C123.513 50.6033 124.194 50.44 124.96 50.44C125.734 50.44 126.42 50.6033 127.018 50.93C127.624 51.2567 128.096 51.7047 128.432 52.274C128.777 52.8433 128.95 53.506 128.95 54.262C128.95 54.9993 128.777 55.6573 128.432 56.236C128.096 56.8147 127.624 57.272 127.018 57.608C126.42 57.9347 125.734 58.098 124.96 58.098ZM124.96 56.6C125.389 56.6 125.772 56.5067 126.108 56.32C126.444 56.1333 126.705 55.8627 126.892 55.508C127.088 55.1533 127.186 54.738 127.186 54.262C127.186 53.7767 127.088 53.3613 126.892 53.016C126.705 52.6613 126.444 52.3907 126.108 52.204C125.772 52.0173 125.394 51.924 124.974 51.924C124.544 51.924 124.162 52.0173 123.826 52.204C123.499 52.3907 123.238 52.6613 123.042 53.016C122.846 53.3613 122.748 53.7767 122.748 54.262C122.748 54.738 122.846 55.1533 123.042 55.508C123.238 55.8627 123.499 56.1333 123.826 56.32C124.162 56.5067 124.54 56.6 124.96 56.6ZM137.054 52.106V50.706H143.508V52.106H137.054ZM137.054 55.494V54.094H143.508V55.494H137.054ZM153.955 60.716C153.404 59.8667 152.98 58.8867 152.681 57.776C152.392 56.656 152.247 55.452 152.247 54.164C152.247 52.876 152.392 51.672 152.681 50.552C152.98 49.4227 153.404 48.4427 153.955 47.612H155.621C155.052 48.6387 154.632 49.6887 154.361 50.762C154.1 51.826 153.969 52.96 153.969 54.164C153.969 55.368 154.1 56.5067 154.361 57.58C154.632 58.644 155.052 59.6893 155.621 60.716H153.955ZM159.299 60.716H157.633C158.211 59.6893 158.631 58.644 158.893 57.58C159.163 56.5067 159.299 55.368 159.299 54.164C159.299 52.96 159.163 51.826 158.893 50.762C158.631 49.6887 158.211 48.6387 157.633 47.612H159.299C159.859 48.4427 160.283 49.4227 160.573 50.552C160.862 51.672 161.007 52.876 161.007 54.164C161.007 55.452 160.862 56.656 160.573 57.776C160.283 58.8867 159.859 59.8667 159.299 60.716ZM169.771 52.106V50.706H176.225V52.106H169.771ZM169.771 55.494V54.094H176.225V55.494H169.771ZM179.429 56.362V54.906L185.337 52.694V53.506L179.429 51.294V49.838L185.883 52.344V53.856L179.429 56.362ZM197.688 60.716C196.904 60.716 196.311 60.52 195.91 60.128C195.508 59.736 195.308 59.1713 195.308 58.434V55.55C195.308 55.3167 195.252 55.1487 195.14 55.046C195.028 54.934 194.874 54.878 194.678 54.878H194.216V53.45H194.678C194.874 53.45 195.028 53.394 195.14 53.282C195.252 53.17 195.308 53.002 195.308 52.778V49.894C195.308 49.1473 195.508 48.5827 195.91 48.2C196.311 47.808 196.904 47.612 197.688 47.612H198.388V49.012H198.094C197.748 49.012 197.487 49.1053 197.31 49.292C197.142 49.4787 197.058 49.74 197.058 50.076V52.736C197.058 53.1093 197.011 53.3987 196.918 53.604C196.824 53.8093 196.675 53.9633 196.47 54.066C196.274 54.1593 196.017 54.2293 195.7 54.276V54.052C196.017 54.0893 196.274 54.1593 196.47 54.262C196.675 54.3647 196.824 54.5187 196.918 54.724C197.011 54.9293 197.058 55.2187 197.058 55.592V58.252C197.058 58.588 197.142 58.8493 197.31 59.036C197.487 59.2227 197.748 59.316 198.094 59.316H198.388V60.716H197.688ZM15.6863 75V67.524H17.3523V69.582L17.1563 68.98C17.3803 68.476 17.7303 68.0933 18.2063 67.832C18.6916 67.5707 19.2936 67.44 20.0123 67.44V69.106C19.9376 69.0873 19.8676 69.078 19.8023 69.078C19.7369 69.0687 19.6716 69.064 19.6063 69.064C18.9436 69.064 18.4163 69.26 18.0243 69.652C17.6323 70.0347 17.4363 70.6087 17.4363 71.374V75H15.6863ZM26.3425 75.098C25.5118 75.098 24.7838 74.9347 24.1585 74.608C23.5425 74.272 23.0618 73.8147 22.7165 73.236C22.3805 72.6573 22.2125 71.9993 22.2125 71.262C22.2125 70.5153 22.3758 69.8573 22.7025 69.288C23.0385 68.7093 23.4958 68.2567 24.0745 67.93C24.6625 67.6033 25.3298 67.44 26.0765 67.44C26.8045 67.44 27.4531 67.5987 28.0225 67.916C28.5918 68.2333 29.0398 68.6813 29.3665 69.26C29.6931 69.8387 29.8565 70.52 29.8565 71.304C29.8565 71.3787 29.8518 71.4627 29.8425 71.556C29.8425 71.6493 29.8378 71.738 29.8285 71.822H23.5985V70.66H28.9045L28.2185 71.024C28.2278 70.5947 28.1391 70.2167 27.9525 69.89C27.7658 69.5633 27.5091 69.3067 27.1825 69.12C26.8651 68.9333 26.4965 68.84 26.0765 68.84C25.6471 68.84 25.2691 68.9333 24.9425 69.12C24.6251 69.3067 24.3731 69.568 24.1865 69.904C24.0091 70.2307 23.9205 70.618 23.9205 71.066V71.346C23.9205 71.794 24.0231 72.1907 24.2285 72.536C24.4338 72.8813 24.7231 73.1473 25.0965 73.334C25.4698 73.5207 25.8991 73.614 26.3845 73.614C26.8045 73.614 27.1825 73.5487 27.5185 73.418C27.8545 73.2873 28.1531 73.082 28.4145 72.802L29.3525 73.88C29.0165 74.272 28.5918 74.5753 28.0785 74.79C27.5745 74.9953 26.9958 75.098 26.3425 75.098ZM35.7515 75.098C34.9301 75.098 34.2955 74.888 33.8475 74.468C33.3995 74.0387 33.1755 73.4087 33.1755 72.578V65.872H34.9255V72.536C34.9255 72.8907 35.0141 73.166 35.1915 73.362C35.3781 73.558 35.6348 73.656 35.9615 73.656C36.3535 73.656 36.6801 73.5533 36.9415 73.348L37.4315 74.594C37.2261 74.762 36.9741 74.888 36.6755 74.972C36.3768 75.056 36.0688 75.098 35.7515 75.098ZM31.9435 68.98V67.58H36.9275V68.98H31.9435ZM43.435 75.098C42.8004 75.098 42.2404 74.9813 41.755 74.748C41.2697 74.5053 40.8917 74.1413 40.621 73.656C40.3504 73.1613 40.215 72.5407 40.215 71.794V67.524H41.965V71.556C41.965 72.228 42.1144 72.732 42.413 73.068C42.721 73.3947 43.155 73.558 43.715 73.558C44.1257 73.558 44.4804 73.474 44.779 73.306C45.087 73.138 45.325 72.886 45.493 72.55C45.6704 72.214 45.759 71.7987 45.759 71.304V67.524H47.509V75H45.843V72.984L46.137 73.6C45.885 74.0853 45.5164 74.4587 45.031 74.72C44.5457 74.972 44.0137 75.098 43.435 75.098ZM51.2003 75V67.524H52.8663V69.582L52.6703 68.98C52.8943 68.476 53.2443 68.0933 53.7203 67.832C54.2057 67.5707 54.8077 67.44 55.5263 67.44V69.106C55.4517 69.0873 55.3817 69.078 55.3163 69.078C55.251 69.0687 55.1857 69.064 55.1203 69.064C54.4577 69.064 53.9303 69.26 53.5383 69.652C53.1463 70.0347 52.9503 70.6087 52.9503 71.374V75H51.2003ZM62.6529 67.44C63.2502 67.44 63.7822 67.5567 64.2489 67.79C64.7249 68.0233 65.0982 68.3827 65.3689 68.868C65.6396 69.344 65.7749 69.96 65.7749 70.716V75H64.0249V70.94C64.0249 70.2773 63.8662 69.7827 63.5489 69.456C63.2409 69.1293 62.8069 68.966 62.2469 68.966C61.8362 68.966 61.4722 69.05 61.1549 69.218C60.8376 69.386 60.5902 69.638 60.4129 69.974C60.2449 70.3007 60.1609 70.716 60.1609 71.22V75H58.4109V67.524H60.0769V69.54L59.7829 68.924C60.0442 68.448 60.4222 68.084 60.9169 67.832C61.4209 67.5707 61.9996 67.44 62.6529 67.44ZM76.4 77.716C75.8493 76.8667 75.4247 75.8867 75.126 74.776C74.8367 73.656 74.692 72.452 74.692 71.164C74.692 69.876 74.8367 68.672 75.126 67.552C75.4247 66.4227 75.8493 65.4427 76.4 64.612H78.066C77.4967 65.6387 77.0767 66.6887 76.806 67.762C76.5447 68.826 76.414 69.96 76.414 71.164C76.414 72.368 76.5447 73.5067 76.806 74.58C77.0767 75.644 77.4967 76.6893 78.066 77.716H76.4ZM32.4406 90.362L25.9866 87.856V86.344L32.4406 83.838V85.294L26.5326 87.506V86.694L32.4406 88.906V90.362ZM38.1924 92.098C37.567 92.098 36.965 92.0187 36.3864 91.86C35.817 91.692 35.3644 91.4913 35.0284 91.258L35.7004 89.928C36.0364 90.1427 36.4377 90.32 36.9044 90.46C37.371 90.6 37.8377 90.67 38.3044 90.67C38.855 90.67 39.2517 90.5953 39.4944 90.446C39.7464 90.2967 39.8724 90.096 39.8724 89.844C39.8724 89.6387 39.7884 89.4847 39.6204 89.382C39.4524 89.27 39.233 89.186 38.9624 89.13C38.6917 89.074 38.3884 89.0227 38.0524 88.976C37.7257 88.9293 37.3944 88.8687 37.0584 88.794C36.7317 88.71 36.433 88.5933 36.1624 88.444C35.8917 88.2853 35.6724 88.0753 35.5044 87.814C35.3364 87.5527 35.2524 87.2073 35.2524 86.778C35.2524 86.302 35.3877 85.8913 35.6584 85.546C35.929 85.1913 36.307 84.9207 36.7924 84.734C37.287 84.538 37.8704 84.44 38.5424 84.44C39.0464 84.44 39.555 84.496 40.0684 84.608C40.5817 84.72 41.0064 84.8787 41.3424 85.084L40.6704 86.414C40.3157 86.1993 39.9564 86.0547 39.5924 85.98C39.2377 85.896 38.883 85.854 38.5284 85.854C37.9964 85.854 37.5997 85.9333 37.3384 86.092C37.0864 86.2507 36.9604 86.4513 36.9604 86.694C36.9604 86.918 37.0444 87.086 37.2124 87.198C37.3804 87.31 37.5997 87.3987 37.8704 87.464C38.141 87.5293 38.4397 87.5853 38.7664 87.632C39.1024 87.6693 39.4337 87.73 39.7604 87.814C40.087 87.898 40.3857 88.0147 40.6564 88.164C40.9364 88.304 41.1604 88.5047 41.3284 88.766C41.4964 89.0273 41.5804 89.368 41.5804 89.788C41.5804 90.2547 41.4404 90.6607 41.1604 91.006C40.8897 91.3513 40.5024 91.622 39.9984 91.818C39.4944 92.0047 38.8924 92.098 38.1924 92.098ZM48.0015 92.098C47.1708 92.098 46.4428 91.9347 45.8175 91.608C45.2015 91.272 44.7208 90.8147 44.3755 90.236C44.0395 89.6573 43.8715 88.9993 43.8715 88.262C43.8715 87.5153 44.0348 86.8573 44.3615 86.288C44.6975 85.7093 45.1548 85.2567 45.7335 84.93C46.3215 84.6033 46.9888 84.44 47.7355 84.44C48.4635 84.44 49.1121 84.5987 49.6815 84.916C50.2508 85.2333 50.6988 85.6813 51.0255 86.26C51.3521 86.8387 51.5155 87.52 51.5155 88.304C51.5155 88.3787 51.5108 88.4627 51.5015 88.556C51.5015 88.6493 51.4968 88.738 51.4875 88.822H45.2575V87.66H50.5635L49.8775 88.024C49.8868 87.5947 49.7981 87.2167 49.6115 86.89C49.4248 86.5633 49.1681 86.3067 48.8415 86.12C48.5241 85.9333 48.1555 85.84 47.7355 85.84C47.3061 85.84 46.9281 85.9333 46.6015 86.12C46.2841 86.3067 46.0321 86.568 45.8455 86.904C45.6681 87.2307 45.5795 87.618 45.5795 88.066V88.346C45.5795 88.794 45.6821 89.1907 45.8875 89.536C46.0928 89.8813 46.3821 90.1473 46.7555 90.334C47.1288 90.5207 47.5581 90.614 48.0435 90.614C48.4635 90.614 48.8415 90.5487 49.1775 90.418C49.5135 90.2873 49.8121 90.082 50.0735 89.802L51.0115 90.88C50.6755 91.272 50.2508 91.5753 49.7375 91.79C49.2335 91.9953 48.6548 92.098 48.0015 92.098ZM58.0264 92.098C57.2424 92.098 56.5424 91.9347 55.9264 91.608C55.3198 91.272 54.8438 90.8147 54.4984 90.236C54.1531 89.6573 53.9804 88.9993 53.9804 88.262C53.9804 87.5153 54.1531 86.8573 54.4984 86.288C54.8438 85.7093 55.3198 85.2567 55.9264 84.93C56.5424 84.6033 57.2424 84.44 58.0264 84.44C58.7544 84.44 59.3938 84.5893 59.9444 84.888C60.5044 85.1773 60.9291 85.6067 61.2184 86.176L59.8744 86.96C59.6504 86.6053 59.3751 86.344 59.0484 86.176C58.7311 86.008 58.3858 85.924 58.0124 85.924C57.5831 85.924 57.1958 86.0173 56.8504 86.204C56.5051 86.3907 56.2344 86.6613 56.0384 87.016C55.8424 87.3613 55.7444 87.7767 55.7444 88.262C55.7444 88.7473 55.8424 89.1673 56.0384 89.522C56.2344 89.8673 56.5051 90.1333 56.8504 90.32C57.1958 90.5067 57.5831 90.6 58.0124 90.6C58.3858 90.6 58.7311 90.516 59.0484 90.348C59.3751 90.18 59.6504 89.9187 59.8744 89.564L61.2184 90.348C60.9291 90.908 60.5044 91.342 59.9444 91.65C59.3938 91.9487 58.7544 92.098 58.0264 92.098ZM67.0409 92.098C66.2196 92.098 65.5849 91.888 65.1369 91.468C64.6889 91.0387 64.4649 90.4087 64.4649 89.578V82.872H66.2149V89.536C66.2149 89.8907 66.3036 90.166 66.4809 90.362C66.6676 90.558 66.9242 90.656 67.2509 90.656C67.6429 90.656 67.9696 90.5533 68.2309 90.348L68.7209 91.594C68.5156 91.762 68.2636 91.888 67.9649 91.972C67.6662 92.056 67.3582 92.098 67.0409 92.098ZM63.2329 85.98V84.58H68.2169V85.98H63.2329ZM71.5605 92V84.524H73.3105V92H71.5605ZM72.4425 83.292C72.1158 83.292 71.8452 83.1893 71.6305 82.984C71.4252 82.7787 71.3225 82.5313 71.3225 82.242C71.3225 81.9433 71.4252 81.696 71.6305 81.5C71.8452 81.2947 72.1158 81.192 72.4425 81.192C72.7692 81.192 73.0352 81.29 73.2405 81.486C73.4552 81.6727 73.5625 81.9107 73.5625 82.2C73.5625 82.508 73.4598 82.7693 73.2545 82.984C73.0492 83.1893 72.7785 83.292 72.4425 83.292ZM80.3674 92.098C79.602 92.098 78.9207 91.9347 78.3234 91.608C77.726 91.272 77.2547 90.8147 76.9094 90.236C76.564 89.6573 76.3914 88.9993 76.3914 88.262C76.3914 87.5153 76.564 86.8573 76.9094 86.288C77.2547 85.7093 77.726 85.2567 78.3234 84.93C78.9207 84.6033 79.602 84.44 80.3674 84.44C81.142 84.44 81.828 84.6033 82.4254 84.93C83.032 85.2567 83.5034 85.7047 83.8394 86.274C84.1847 86.8433 84.3574 87.506 84.3574 88.262C84.3574 88.9993 84.1847 89.6573 83.8394 90.236C83.5034 90.8147 83.032 91.272 82.4254 91.608C81.828 91.9347 81.142 92.098 80.3674 92.098ZM80.3674 90.6C80.7967 90.6 81.1794 90.5067 81.5154 90.32C81.8514 90.1333 82.1127 89.8627 82.2994 89.508C82.4954 89.1533 82.5934 88.738 82.5934 88.262C82.5934 87.7767 82.4954 87.3613 82.2994 87.016C82.1127 86.6613 81.8514 86.3907 81.5154 86.204C81.1794 86.0173 80.8014 85.924 80.3814 85.924C79.952 85.924 79.5694 86.0173 79.2334 86.204C78.9067 86.3907 78.6454 86.6613 78.4494 87.016C78.2534 87.3613 78.1554 87.7767 78.1554 88.262C78.1554 88.738 78.2534 89.1533 78.4494 89.508C78.6454 89.8627 78.9067 90.1333 79.2334 90.32C79.5694 90.5067 79.9474 90.6 80.3674 90.6ZM91.6728 84.44C92.2701 84.44 92.8021 84.5567 93.2688 84.79C93.7448 85.0233 94.1181 85.3827 94.3888 85.868C94.6595 86.344 94.7948 86.96 94.7948 87.716V92H93.0448V87.94C93.0448 87.2773 92.8861 86.7827 92.5688 86.456C92.2608 86.1293 91.8268 85.966 91.2668 85.966C90.8561 85.966 90.4921 86.05 90.1748 86.218C89.8575 86.386 89.6101 86.638 89.4328 86.974C89.2648 87.3007 89.1808 87.716 89.1808 88.22V92H87.4308V84.524H89.0968V86.54L88.8028 85.924C89.0641 85.448 89.4421 85.084 89.9368 84.832C90.4408 84.5707 91.0195 84.44 91.6728 84.44ZM105.476 89.69L105.378 87.534L110.516 82.2H112.56L108.29 86.736L107.282 87.842L105.476 89.69ZM103.852 92V82.2H105.672V92H103.852ZM110.684 92L106.932 87.534L108.136 86.204L112.812 92H110.684ZM115.283 92V81.612H117.033V92H115.283ZM125.336 92V90.488L125.238 90.166V87.52C125.238 87.0067 125.084 86.61 124.776 86.33C124.468 86.0407 124.001 85.896 123.376 85.896C122.956 85.896 122.541 85.9613 122.13 86.092C121.729 86.2227 121.388 86.4047 121.108 86.638L120.422 85.364C120.823 85.056 121.299 84.8273 121.85 84.678C122.41 84.5193 122.989 84.44 123.586 84.44C124.669 84.44 125.504 84.7013 126.092 85.224C126.689 85.7373 126.988 86.5353 126.988 87.618V92H125.336ZM122.984 92.098C122.424 92.098 121.934 92.0047 121.514 91.818C121.094 91.622 120.767 91.356 120.534 91.02C120.31 90.6747 120.198 90.2873 120.198 89.858C120.198 89.438 120.296 89.06 120.492 88.724C120.697 88.388 121.029 88.122 121.486 87.926C121.943 87.73 122.55 87.632 123.306 87.632H125.476V88.794H123.432C122.835 88.794 122.433 88.892 122.228 89.088C122.023 89.2747 121.92 89.508 121.92 89.788C121.92 90.1053 122.046 90.3573 122.298 90.544C122.55 90.7307 122.9 90.824 123.348 90.824C123.777 90.824 124.16 90.726 124.496 90.53C124.841 90.334 125.089 90.0447 125.238 89.662L125.532 90.712C125.364 91.1507 125.061 91.4913 124.622 91.734C124.193 91.9767 123.647 92.098 122.984 92.098ZM132.944 92.098C132.319 92.098 131.717 92.0187 131.138 91.86C130.569 91.692 130.116 91.4913 129.78 91.258L130.452 89.928C130.788 90.1427 131.189 90.32 131.656 90.46C132.123 90.6 132.589 90.67 133.056 90.67C133.607 90.67 134.003 90.5953 134.246 90.446C134.498 90.2967 134.624 90.096 134.624 89.844C134.624 89.6387 134.54 89.4847 134.372 89.382C134.204 89.27 133.985 89.186 133.714 89.13C133.443 89.074 133.14 89.0227 132.804 88.976C132.477 88.9293 132.146 88.8687 131.81 88.794C131.483 88.71 131.185 88.5933 130.914 88.444C130.643 88.2853 130.424 88.0753 130.256 87.814C130.088 87.5527 130.004 87.2073 130.004 86.778C130.004 86.302 130.139 85.8913 130.41 85.546C130.681 85.1913 131.059 84.9207 131.544 84.734C132.039 84.538 132.622 84.44 133.294 84.44C133.798 84.44 134.307 84.496 134.82 84.608C135.333 84.72 135.758 84.8787 136.094 85.084L135.422 86.414C135.067 86.1993 134.708 86.0547 134.344 85.98C133.989 85.896 133.635 85.854 133.28 85.854C132.748 85.854 132.351 85.9333 132.09 86.092C131.838 86.2507 131.712 86.4513 131.712 86.694C131.712 86.918 131.796 87.086 131.964 87.198C132.132 87.31 132.351 87.3987 132.622 87.464C132.893 87.5293 133.191 87.5853 133.518 87.632C133.854 87.6693 134.185 87.73 134.512 87.814C134.839 87.898 135.137 88.0147 135.408 88.164C135.688 88.304 135.912 88.5047 136.08 88.766C136.248 89.0273 136.332 89.368 136.332 89.788C136.332 90.2547 136.192 90.6607 135.912 91.006C135.641 91.3513 135.254 91.622 134.75 91.818C134.246 92.0047 133.644 92.098 132.944 92.098ZM142.753 92.098C141.922 92.098 141.194 91.9347 140.569 91.608C139.953 91.272 139.472 90.8147 139.127 90.236C138.791 89.6573 138.623 88.9993 138.623 88.262C138.623 87.5153 138.786 86.8573 139.113 86.288C139.449 85.7093 139.906 85.2567 140.485 84.93C141.073 84.6033 141.74 84.44 142.487 84.44C143.215 84.44 143.864 84.5987 144.433 84.916C145.002 85.2333 145.45 85.6813 145.777 86.26C146.104 86.8387 146.267 87.52 146.267 88.304C146.267 88.3787 146.262 88.4627 146.253 88.556C146.253 88.6493 146.248 88.738 146.239 88.822H140.009V87.66H145.315L144.629 88.024C144.638 87.5947 144.55 87.2167 144.363 86.89C144.176 86.5633 143.92 86.3067 143.593 86.12C143.276 85.9333 142.907 85.84 142.487 85.84C142.058 85.84 141.68 85.9333 141.353 86.12C141.036 86.3067 140.784 86.568 140.597 86.904C140.42 87.2307 140.331 87.618 140.331 88.066V88.346C140.331 88.794 140.434 89.1907 140.639 89.536C140.844 89.8813 141.134 90.1473 141.507 90.334C141.88 90.5207 142.31 90.614 142.795 90.614C143.215 90.614 143.593 90.5487 143.929 90.418C144.265 90.2873 144.564 90.082 144.825 89.802L145.763 90.88C145.427 91.272 145.002 91.5753 144.489 91.79C143.985 91.9953 143.406 92.098 142.753 92.098ZM151.658 92.098C151.033 92.098 150.431 92.0187 149.852 91.86C149.283 91.692 148.83 91.4913 148.494 91.258L149.166 89.928C149.502 90.1427 149.903 90.32 150.37 90.46C150.837 90.6 151.303 90.67 151.77 90.67C152.321 90.67 152.717 90.5953 152.96 90.446C153.212 90.2967 153.338 90.096 153.338 89.844C153.338 89.6387 153.254 89.4847 153.086 89.382C152.918 89.27 152.699 89.186 152.428 89.13C152.157 89.074 151.854 89.0227 151.518 88.976C151.191 88.9293 150.86 88.8687 150.524 88.794C150.197 88.71 149.899 88.5933 149.628 88.444C149.357 88.2853 149.138 88.0753 148.97 87.814C148.802 87.5527 148.718 87.2073 148.718 86.778C148.718 86.302 148.853 85.8913 149.124 85.546C149.395 85.1913 149.773 84.9207 150.258 84.734C150.753 84.538 151.336 84.44 152.008 84.44C152.512 84.44 153.021 84.496 153.534 84.608C154.047 84.72 154.472 84.8787 154.808 85.084L154.136 86.414C153.781 86.1993 153.422 86.0547 153.058 85.98C152.703 85.896 152.349 85.854 151.994 85.854C151.462 85.854 151.065 85.9333 150.804 86.092C150.552 86.2507 150.426 86.4513 150.426 86.694C150.426 86.918 150.51 87.086 150.678 87.198C150.846 87.31 151.065 87.3987 151.336 87.464C151.607 87.5293 151.905 87.5853 152.232 87.632C152.568 87.6693 152.899 87.73 153.226 87.814C153.553 87.898 153.851 88.0147 154.122 88.164C154.402 88.304 154.626 88.5047 154.794 88.766C154.962 89.0273 155.046 89.368 155.046 89.788C155.046 90.2547 154.906 90.6607 154.626 91.006C154.355 91.3513 153.968 91.622 153.464 91.818C152.96 92.0047 152.358 92.098 151.658 92.098ZM161.019 92L156.735 82.2H158.709L162.531 91.062H161.397L165.261 82.2H167.081L162.811 92H161.019ZM173.393 92V90.488L173.295 90.166V87.52C173.295 87.0067 173.141 86.61 172.833 86.33C172.525 86.0407 172.058 85.896 171.433 85.896C171.013 85.896 170.597 85.9613 170.187 86.092C169.785 86.2227 169.445 86.4047 169.165 86.638L168.479 85.364C168.88 85.056 169.356 84.8273 169.907 84.678C170.467 84.5193 171.045 84.44 171.643 84.44C172.725 84.44 173.561 84.7013 174.149 85.224C174.746 85.7373 175.045 86.5353 175.045 87.618V92H173.393ZM171.041 92.098C170.481 92.098 169.991 92.0047 169.571 91.818C169.151 91.622 168.824 91.356 168.591 91.02C168.367 90.6747 168.255 90.2873 168.255 89.858C168.255 89.438 168.353 89.06 168.549 88.724C168.754 88.388 169.085 88.122 169.543 87.926C170 87.73 170.607 87.632 171.363 87.632H173.533V88.794H171.489C170.891 88.794 170.49 88.892 170.285 89.088C170.079 89.2747 169.977 89.508 169.977 89.788C169.977 90.1053 170.103 90.3573 170.355 90.544C170.607 90.7307 170.957 90.824 171.405 90.824C171.834 90.824 172.217 90.726 172.553 90.53C172.898 90.334 173.145 90.0447 173.295 89.662L173.589 90.712C173.421 91.1507 173.117 91.4913 172.679 91.734C172.249 91.9767 171.703 92.098 171.041 92.098ZM169.375 83.068V82.018H174.219V83.068H169.375ZM178.691 92V84.524H180.357V86.582L180.161 85.98C180.385 85.476 180.735 85.0933 181.211 84.832C181.696 84.5707 182.298 84.44 183.017 84.44V86.106C182.942 86.0873 182.872 86.078 182.807 86.078C182.741 86.0687 182.676 86.064 182.611 86.064C181.948 86.064 181.421 86.26 181.029 86.652C180.637 87.0347 180.441 87.6087 180.441 88.374V92H178.691ZM188.997 92.098C188.278 92.098 187.629 91.9393 187.051 91.622C186.481 91.2953 186.033 90.8473 185.707 90.278C185.38 89.7087 185.217 89.0367 185.217 88.262C185.217 87.4873 185.38 86.8153 185.707 86.246C186.033 85.6767 186.481 85.2333 187.051 84.916C187.629 84.5987 188.278 84.44 188.997 84.44C189.622 84.44 190.182 84.58 190.677 84.86C191.171 85.1307 191.563 85.546 191.853 86.106C192.142 86.666 192.287 87.3847 192.287 88.262C192.287 89.13 192.147 89.8487 191.867 90.418C191.587 90.978 191.199 91.398 190.705 91.678C190.21 91.958 189.641 92.098 188.997 92.098ZM189.207 90.6C189.627 90.6 190 90.5067 190.327 90.32C190.663 90.1333 190.929 89.8627 191.125 89.508C191.33 89.1533 191.433 88.738 191.433 88.262C191.433 87.7767 191.33 87.3613 191.125 87.016C190.929 86.6613 190.663 86.3907 190.327 86.204C190 86.0173 189.627 85.924 189.207 85.924C188.787 85.924 188.409 86.0173 188.073 86.204C187.746 86.3907 187.48 86.6613 187.275 87.016C187.079 87.3613 186.981 87.7767 186.981 88.262C186.981 88.738 187.079 89.1533 187.275 89.508C187.48 89.8627 187.746 90.1333 188.073 90.32C188.409 90.5067 188.787 90.6 189.207 90.6ZM191.475 92V90.236L191.545 88.248L191.405 86.26V81.612H193.141V92H191.475ZM199.154 92.098C198.529 92.098 197.927 92.0187 197.348 91.86C196.779 91.692 196.326 91.4913 195.99 91.258L196.662 89.928C196.998 90.1427 197.399 90.32 197.866 90.46C198.333 90.6 198.799 90.67 199.266 90.67C199.817 90.67 200.213 90.5953 200.456 90.446C200.708 90.2967 200.834 90.096 200.834 89.844C200.834 89.6387 200.75 89.4847 200.582 89.382C200.414 89.27 200.195 89.186 199.924 89.13C199.653 89.074 199.35 89.0227 199.014 88.976C198.687 88.9293 198.356 88.8687 198.02 88.794C197.693 88.71 197.395 88.5933 197.124 88.444C196.853 88.2853 196.634 88.0753 196.466 87.814C196.298 87.5527 196.214 87.2073 196.214 86.778C196.214 86.302 196.349 85.8913 196.62 85.546C196.891 85.1913 197.269 84.9207 197.754 84.734C198.249 84.538 198.832 84.44 199.504 84.44C200.008 84.44 200.517 84.496 201.03 84.608C201.543 84.72 201.968 84.8787 202.304 85.084L201.632 86.414C201.277 86.1993 200.918 86.0547 200.554 85.98C200.199 85.896 199.845 85.854 199.49 85.854C198.958 85.854 198.561 85.9333 198.3 86.092C198.048 86.2507 197.922 86.4513 197.922 86.694C197.922 86.918 198.006 87.086 198.174 87.198C198.342 87.31 198.561 87.3987 198.832 87.464C199.103 87.5293 199.401 87.5853 199.728 87.632C200.064 87.6693 200.395 87.73 200.722 87.814C201.049 87.898 201.347 88.0147 201.618 88.164C201.898 88.304 202.122 88.5047 202.29 88.766C202.458 89.0273 202.542 89.368 202.542 89.788C202.542 90.2547 202.402 90.6607 202.122 91.006C201.851 91.3513 201.464 91.622 200.96 91.818C200.456 92.0047 199.854 92.098 199.154 92.098ZM205.211 86.106V84.706H211.665V86.106H205.211ZM205.211 89.494V88.094H211.665V89.494H205.211ZM214.855 86.078L214.743 82.2H216.255L216.129 86.078H214.855ZM217.557 86.078L217.445 82.2H218.957L218.831 86.078H217.557ZM222.29 92V84.524H224.04V92H222.29ZM223.172 83.292C222.846 83.292 222.575 83.1893 222.36 82.984C222.155 82.7787 222.052 82.5313 222.052 82.242C222.052 81.9433 222.155 81.696 222.36 81.5C222.575 81.2947 222.846 81.192 223.172 81.192C223.499 81.192 223.765 81.29 223.97 81.486C224.185 81.6727 224.292 81.9107 224.292 82.2C224.292 82.508 224.19 82.7693 223.984 82.984C223.779 83.1893 223.508 83.292 223.172 83.292ZM231.979 84.44C232.576 84.44 233.108 84.5567 233.575 84.79C234.051 85.0233 234.424 85.3827 234.695 85.868C234.966 86.344 235.101 86.96 235.101 87.716V92H233.351V87.94C233.351 87.2773 233.192 86.7827 232.875 86.456C232.567 86.1293 232.133 85.966 231.573 85.966C231.162 85.966 230.798 86.05 230.481 86.218C230.164 86.386 229.916 86.638 229.739 86.974C229.571 87.3007 229.487 87.716 229.487 88.22V92H227.737V84.524H229.403V86.54L229.109 85.924C229.37 85.448 229.748 85.084 230.243 84.832C230.747 84.5707 231.326 84.44 231.979 84.44ZM241.535 92.098C240.714 92.098 240.079 91.888 239.631 91.468C239.183 91.0387 238.959 90.4087 238.959 89.578V82.872H240.709V89.536C240.709 89.8907 240.798 90.166 240.975 90.362C241.162 90.558 241.418 90.656 241.745 90.656C242.137 90.656 242.464 90.5533 242.725 90.348L243.215 91.594C243.01 91.762 242.758 91.888 242.459 91.972C242.16 92.056 241.852 92.098 241.535 92.098ZM237.727 85.98V84.58H242.711V85.98H237.727ZM246.055 92V84.524H247.721V86.582L247.525 85.98C247.749 85.476 248.099 85.0933 248.575 84.832C249.06 84.5707 249.662 84.44 250.381 84.44V86.106C250.306 86.0873 250.236 86.078 250.171 86.078C250.105 86.0687 250.04 86.064 249.975 86.064C249.312 86.064 248.785 86.26 248.393 86.652C248.001 87.0347 247.805 87.6087 247.805 88.374V92H246.055ZM256.557 92.098C255.791 92.098 255.11 91.9347 254.513 91.608C253.915 91.272 253.444 90.8147 253.099 90.236C252.753 89.6573 252.581 88.9993 252.581 88.262C252.581 87.5153 252.753 86.8573 253.099 86.288C253.444 85.7093 253.915 85.2567 254.513 84.93C255.11 84.6033 255.791 84.44 256.557 84.44C257.331 84.44 258.017 84.6033 258.615 84.93C259.221 85.2567 259.693 85.7047 260.029 86.274C260.374 86.8433 260.547 87.506 260.547 88.262C260.547 88.9993 260.374 89.6573 260.029 90.236C259.693 90.8147 259.221 91.272 258.615 91.608C258.017 91.9347 257.331 92.098 256.557 92.098ZM256.557 90.6C256.986 90.6 257.369 90.5067 257.705 90.32C258.041 90.1333 258.302 89.8627 258.489 89.508C258.685 89.1533 258.783 88.738 258.783 88.262C258.783 87.7767 258.685 87.3613 258.489 87.016C258.302 86.6613 258.041 86.3907 257.705 86.204C257.369 86.0173 256.991 85.924 256.571 85.924C256.141 85.924 255.759 86.0173 255.423 86.204C255.096 86.3907 254.835 86.6613 254.639 87.016C254.443 87.3613 254.345 87.7767 254.345 88.262C254.345 88.738 254.443 89.1533 254.639 89.508C254.835 89.8627 255.096 90.1333 255.423 90.32C255.759 90.5067 256.137 90.6 256.557 90.6ZM263.163 86.078L263.051 82.2H264.563L264.437 86.078H263.163ZM265.865 86.078L265.753 82.2H267.265L267.139 86.078H265.865ZM270.36 90.362V88.906L276.268 86.694V87.506L270.36 85.294V83.838L276.814 86.344V87.856L270.36 90.362ZM42.9788 129.362L36.5248 126.856V125.344L42.9788 122.838V124.294L37.0708 126.506V125.694L42.9788 127.906V129.362ZM50.6627 123.44C51.26 123.44 51.792 123.557 52.2587 123.79C52.7347 124.023 53.108 124.383 53.3787 124.868C53.6493 125.344 53.7847 125.96 53.7847 126.716V131H52.0347V126.94C52.0347 126.277 51.876 125.783 51.5587 125.456C51.2507 125.129 50.8167 124.966 50.2567 124.966C49.846 124.966 49.482 125.05 49.1647 125.218C48.8473 125.386 48.6 125.638 48.4227 125.974C48.2547 126.301 48.1707 126.716 48.1707 127.22V131H46.4207V120.612H48.1707V125.54L47.7927 124.924C48.054 124.448 48.432 124.084 48.9267 123.832C49.4307 123.571 50.0093 123.44 50.6627 123.44ZM58.1535 131V121.9L58.9515 122.726H56.0815V121.2H59.9735V131H58.1535ZM63.6116 129.362V127.906L69.5196 125.694V126.506L63.6116 124.294V122.838L70.0656 125.344V126.856L63.6116 129.362ZM79.7234 129.362L73.2694 126.856V125.344L79.7234 122.838V124.294L73.8154 126.506V125.694L79.7234 127.906V129.362ZM305.003 132.4L309.623 119.212H311.191L306.571 132.4H305.003ZM312.929 129.362V127.906L318.837 125.694V126.506L312.929 124.294V122.838L319.383 125.344V126.856L312.929 129.362ZM329.041 129.362L322.587 126.856V125.344L329.041 122.838V124.294L323.133 126.506V125.694L329.041 127.906V129.362ZM330.914 132.4L335.534 119.212H337.102L332.482 132.4H330.914ZM343.32 123.44C343.917 123.44 344.449 123.557 344.916 123.79C345.392 124.023 345.765 124.383 346.036 124.868C346.306 125.344 346.442 125.96 346.442 126.716V131H344.692V126.94C344.692 126.277 344.533 125.783 344.216 125.456C343.908 125.129 343.474 124.966 342.914 124.966C342.503 124.966 342.139 125.05 341.822 125.218C341.504 125.386 341.257 125.638 341.08 125.974C340.912 126.301 340.828 126.716 340.828 127.22V131H339.078V120.612H340.828V125.54L340.45 124.924C340.711 124.448 341.089 124.084 341.584 123.832C342.088 123.571 342.666 123.44 343.32 123.44ZM350.811 131V121.9L351.609 122.726H348.739V121.2H352.631V131H350.811ZM356.269 129.362V127.906L362.177 125.694V126.506L356.269 124.294V122.838L362.723 125.344V126.856L356.269 129.362ZM16.6331 146.362L10.1791 143.856V142.344L16.6331 139.838V141.294L10.7251 143.506V142.694L16.6331 144.906V146.362ZM24.219 148.098C23.6123 148.098 23.057 147.958 22.553 147.678C22.0583 147.398 21.6616 146.978 21.363 146.418C21.0736 145.849 20.929 145.13 20.929 144.262C20.929 143.385 21.069 142.666 21.349 142.106C21.6383 141.546 22.0303 141.131 22.525 140.86C23.0196 140.58 23.5843 140.44 24.219 140.44C24.9563 140.44 25.605 140.599 26.165 140.916C26.7343 141.233 27.1823 141.677 27.509 142.246C27.845 142.815 28.013 143.487 28.013 144.262C28.013 145.037 27.845 145.713 27.509 146.292C27.1823 146.861 26.7343 147.305 26.165 147.622C25.605 147.939 24.9563 148.098 24.219 148.098ZM20.075 150.716V140.524H21.741V142.288L21.685 144.276L21.825 146.264V150.716H20.075ZM24.023 146.6C24.443 146.6 24.8163 146.507 25.143 146.32C25.479 146.133 25.745 145.863 25.941 145.508C26.137 145.153 26.235 144.738 26.235 144.262C26.235 143.777 26.137 143.361 25.941 143.016C25.745 142.661 25.479 142.391 25.143 142.204C24.8163 142.017 24.443 141.924 24.023 141.924C23.603 141.924 23.225 142.017 22.889 142.204C22.553 142.391 22.287 142.661 22.091 143.016C21.895 143.361 21.797 143.777 21.797 144.262C21.797 144.738 21.895 145.153 22.091 145.508C22.287 145.863 22.553 146.133 22.889 146.32C23.225 146.507 23.603 146.6 24.023 146.6ZM30.8346 146.362V144.906L36.7426 142.694V143.506L30.8346 141.294V139.838L37.2886 142.344V143.856L30.8346 146.362ZM42.5224 145.69L42.4244 143.534L47.5624 138.2H49.6064L45.3364 142.736L44.3284 143.842L42.5224 145.69ZM40.8984 148V138.2H42.7184V148H40.8984ZM47.7304 148L43.9784 143.534L45.1824 142.204L49.8584 148H47.7304ZM55.3615 148.098C54.5962 148.098 53.9148 147.935 53.3175 147.608C52.7202 147.272 52.2488 146.815 51.9035 146.236C51.5582 145.657 51.3855 144.999 51.3855 144.262C51.3855 143.515 51.5582 142.857 51.9035 142.288C52.2488 141.709 52.7202 141.257 53.3175 140.93C53.9148 140.603 54.5962 140.44 55.3615 140.44C56.1362 140.44 56.8222 140.603 57.4195 140.93C58.0262 141.257 58.4975 141.705 58.8335 142.274C59.1788 142.843 59.3515 143.506 59.3515 144.262C59.3515 144.999 59.1788 145.657 58.8335 146.236C58.4975 146.815 58.0262 147.272 57.4195 147.608C56.8222 147.935 56.1362 148.098 55.3615 148.098ZM55.3615 146.6C55.7908 146.6 56.1735 146.507 56.5095 146.32C56.8455 146.133 57.1068 145.863 57.2935 145.508C57.4895 145.153 57.5875 144.738 57.5875 144.262C57.5875 143.777 57.4895 143.361 57.2935 143.016C57.1068 142.661 56.8455 142.391 56.5095 142.204C56.1735 142.017 55.7955 141.924 55.3755 141.924C54.9462 141.924 54.5635 142.017 54.2275 142.204C53.9008 142.391 53.6395 142.661 53.4435 143.016C53.2475 143.361 53.1495 143.777 53.1495 144.262C53.1495 144.738 53.2475 145.153 53.4435 145.508C53.6395 145.863 53.9008 146.133 54.2275 146.32C54.5635 146.507 54.9415 146.6 55.3615 146.6ZM65.589 148.098C64.8703 148.098 64.2216 147.939 63.643 147.622C63.0736 147.295 62.6256 146.847 62.299 146.278C61.9723 145.709 61.809 145.037 61.809 144.262C61.809 143.487 61.9723 142.815 62.299 142.246C62.6256 141.677 63.0736 141.233 63.643 140.916C64.2216 140.599 64.8703 140.44 65.589 140.44C66.2143 140.44 66.7743 140.58 67.269 140.86C67.7636 141.131 68.1556 141.546 68.445 142.106C68.7343 142.666 68.879 143.385 68.879 144.262C68.879 145.13 68.739 145.849 68.459 146.418C68.179 146.978 67.7916 147.398 67.297 147.678C66.8023 147.958 66.233 148.098 65.589 148.098ZM65.799 146.6C66.219 146.6 66.5923 146.507 66.919 146.32C67.255 146.133 67.521 145.863 67.717 145.508C67.9223 145.153 68.025 144.738 68.025 144.262C68.025 143.777 67.9223 143.361 67.717 143.016C67.521 142.661 67.255 142.391 66.919 142.204C66.5923 142.017 66.219 141.924 65.799 141.924C65.379 141.924 65.001 142.017 64.665 142.204C64.3383 142.391 64.0723 142.661 63.867 143.016C63.671 143.361 63.573 143.777 63.573 144.262C63.573 144.738 63.671 145.153 63.867 145.508C64.0723 145.863 64.3383 146.133 64.665 146.32C65.001 146.507 65.379 146.6 65.799 146.6ZM68.067 148V146.236L68.137 144.248L67.997 142.26V137.612H69.733V148H68.067ZM78.0423 148V146.488L77.9443 146.166V143.52C77.9443 143.007 77.7903 142.61 77.4823 142.33C77.1743 142.041 76.7076 141.896 76.0823 141.896C75.6623 141.896 75.247 141.961 74.8363 142.092C74.435 142.223 74.0943 142.405 73.8143 142.638L73.1283 141.364C73.5296 141.056 74.0056 140.827 74.5563 140.678C75.1163 140.519 75.695 140.44 76.2923 140.44C77.375 140.44 78.2103 140.701 78.7983 141.224C79.3956 141.737 79.6943 142.535 79.6943 143.618V148H78.0423ZM75.6903 148.098C75.1303 148.098 74.6403 148.005 74.2203 147.818C73.8003 147.622 73.4736 147.356 73.2403 147.02C73.0163 146.675 72.9043 146.287 72.9043 145.858C72.9043 145.438 73.0023 145.06 73.1983 144.724C73.4036 144.388 73.735 144.122 74.1923 143.926C74.6496 143.73 75.2563 143.632 76.0123 143.632H78.1823V144.794H76.1383C75.541 144.794 75.1396 144.892 74.9343 145.088C74.729 145.275 74.6263 145.508 74.6263 145.788C74.6263 146.105 74.7523 146.357 75.0043 146.544C75.2563 146.731 75.6063 146.824 76.0543 146.824C76.4836 146.824 76.8663 146.726 77.2023 146.53C77.5476 146.334 77.795 146.045 77.9443 145.662L78.2383 146.712C78.0703 147.151 77.767 147.491 77.3283 147.734C76.899 147.977 76.353 148.098 75.6903 148.098ZM88.6093 148V140.524H90.3593V148H88.6093ZM89.4913 139.292C89.1647 139.292 88.894 139.189 88.6793 138.984C88.474 138.779 88.3713 138.531 88.3713 138.242C88.3713 137.943 88.474 137.696 88.6793 137.5C88.894 137.295 89.1647 137.192 89.4913 137.192C89.818 137.192 90.084 137.29 90.2893 137.486C90.504 137.673 90.6113 137.911 90.6113 138.2C90.6113 138.508 90.5087 138.769 90.3033 138.984C90.098 139.189 89.8273 139.292 89.4913 139.292ZM93.4402 148V146.894L98.0462 141.322L98.3682 141.924H93.5242V140.524H99.7682V141.63L95.1622 147.202L94.8122 146.6H99.8942V148H93.4402ZM105.217 148.098C104.592 148.098 103.99 148.019 103.411 147.86C102.842 147.692 102.389 147.491 102.053 147.258L102.725 145.928C103.061 146.143 103.463 146.32 103.929 146.46C104.396 146.6 104.863 146.67 105.329 146.67C105.88 146.67 106.277 146.595 106.519 146.446C106.771 146.297 106.897 146.096 106.897 145.844C106.897 145.639 106.813 145.485 106.645 145.382C106.477 145.27 106.258 145.186 105.987 145.13C105.717 145.074 105.413 145.023 105.077 144.976C104.751 144.929 104.419 144.869 104.083 144.794C103.757 144.71 103.458 144.593 103.187 144.444C102.917 144.285 102.697 144.075 102.529 143.814C102.361 143.553 102.277 143.207 102.277 142.778C102.277 142.302 102.413 141.891 102.683 141.546C102.954 141.191 103.332 140.921 103.817 140.734C104.312 140.538 104.895 140.44 105.567 140.44C106.071 140.44 106.58 140.496 107.093 140.608C107.607 140.72 108.031 140.879 108.367 141.084L107.695 142.414C107.341 142.199 106.981 142.055 106.617 141.98C106.263 141.896 105.908 141.854 105.553 141.854C105.021 141.854 104.625 141.933 104.363 142.092C104.111 142.251 103.985 142.451 103.985 142.694C103.985 142.918 104.069 143.086 104.237 143.198C104.405 143.31 104.625 143.399 104.895 143.464C105.166 143.529 105.465 143.585 105.791 143.632C106.127 143.669 106.459 143.73 106.785 143.814C107.112 143.898 107.411 144.015 107.681 144.164C107.961 144.304 108.185 144.505 108.353 144.766C108.521 145.027 108.605 145.368 108.605 145.788C108.605 146.255 108.465 146.661 108.185 147.006C107.915 147.351 107.527 147.622 107.023 147.818C106.519 148.005 105.917 148.098 105.217 148.098ZM114.326 148.098C113.505 148.098 112.87 147.888 112.422 147.468C111.974 147.039 111.75 146.409 111.75 145.578V138.872H113.5V145.536C113.5 145.891 113.589 146.166 113.766 146.362C113.953 146.558 114.21 146.656 114.536 146.656C114.928 146.656 115.255 146.553 115.516 146.348L116.006 147.594C115.801 147.762 115.549 147.888 115.25 147.972C114.952 148.056 114.644 148.098 114.326 148.098ZM110.518 141.98V140.58H115.502V141.98H110.518ZM118.846 148V140.524H120.512V142.582L120.316 141.98C120.54 141.476 120.89 141.093 121.366 140.832C121.851 140.571 122.453 140.44 123.172 140.44V142.106C123.097 142.087 123.027 142.078 122.962 142.078C122.897 142.069 122.831 142.064 122.766 142.064C122.103 142.064 121.576 142.26 121.184 142.652C120.792 143.035 120.596 143.609 120.596 144.374V148H118.846ZM130.129 148V146.488L130.031 146.166V143.52C130.031 143.007 129.877 142.61 129.569 142.33C129.261 142.041 128.795 141.896 128.169 141.896C127.749 141.896 127.334 141.961 126.923 142.092C126.522 142.223 126.181 142.405 125.901 142.638L125.215 141.364C125.617 141.056 126.093 140.827 126.643 140.678C127.203 140.519 127.782 140.44 128.379 140.44C129.462 140.44 130.297 140.701 130.885 141.224C131.483 141.737 131.781 142.535 131.781 143.618V148H130.129ZM127.777 148.098C127.217 148.098 126.727 148.005 126.307 147.818C125.887 147.622 125.561 147.356 125.327 147.02C125.103 146.675 124.991 146.287 124.991 145.858C124.991 145.438 125.089 145.06 125.285 144.724C125.491 144.388 125.822 144.122 126.279 143.926C126.737 143.73 127.343 143.632 128.099 143.632H130.269V144.794H128.225C127.628 144.794 127.227 144.892 127.021 145.088C126.816 145.275 126.713 145.508 126.713 145.788C126.713 146.105 126.839 146.357 127.091 146.544C127.343 146.731 127.693 146.824 128.141 146.824C128.571 146.824 128.953 146.726 129.289 146.53C129.635 146.334 129.882 146.045 130.031 145.662L130.325 146.712C130.157 147.151 129.854 147.491 129.415 147.734C128.986 147.977 128.44 148.098 127.777 148.098ZM126.111 139.068V138.018H130.955V139.068H126.111ZM138.605 148.098C137.886 148.098 137.238 147.939 136.659 147.622C136.09 147.295 135.642 146.847 135.315 146.278C134.988 145.709 134.825 145.037 134.825 144.262C134.825 143.487 134.988 142.815 135.315 142.246C135.642 141.677 136.09 141.233 136.659 140.916C137.238 140.599 137.886 140.44 138.605 140.44C139.23 140.44 139.79 140.58 140.285 140.86C140.78 141.131 141.172 141.546 141.461 142.106C141.75 142.666 141.895 143.385 141.895 144.262C141.895 145.13 141.755 145.849 141.475 146.418C141.195 146.978 140.808 147.398 140.313 147.678C139.818 147.958 139.249 148.098 138.605 148.098ZM138.815 146.6C139.235 146.6 139.608 146.507 139.935 146.32C140.271 146.133 140.537 145.863 140.733 145.508C140.938 145.153 141.041 144.738 141.041 144.262C141.041 143.777 140.938 143.361 140.733 143.016C140.537 142.661 140.271 142.391 139.935 142.204C139.608 142.017 139.235 141.924 138.815 141.924C138.395 141.924 138.017 142.017 137.681 142.204C137.354 142.391 137.088 142.661 136.883 143.016C136.687 143.361 136.589 143.777 136.589 144.262C136.589 144.738 136.687 145.153 136.883 145.508C137.088 145.863 137.354 146.133 137.681 146.32C138.017 146.507 138.395 146.6 138.815 146.6ZM141.083 148V146.236L141.153 144.248L141.013 142.26V137.612H142.749V148H141.083ZM149.966 148.098C149.136 148.098 148.408 147.935 147.782 147.608C147.166 147.272 146.686 146.815 146.34 146.236C146.004 145.657 145.836 144.999 145.836 144.262C145.836 143.515 146 142.857 146.326 142.288C146.662 141.709 147.12 141.257 147.698 140.93C148.286 140.603 148.954 140.44 149.7 140.44C150.428 140.44 151.077 140.599 151.646 140.916C152.216 141.233 152.664 141.681 152.99 142.26C153.317 142.839 153.48 143.52 153.48 144.304C153.48 144.379 153.476 144.463 153.466 144.556C153.466 144.649 153.462 144.738 153.452 144.822H147.222V143.66H152.528L151.842 144.024C151.852 143.595 151.763 143.217 151.576 142.89C151.39 142.563 151.133 142.307 150.806 142.12C150.489 141.933 150.12 141.84 149.7 141.84C149.271 141.84 148.893 141.933 148.566 142.12C148.249 142.307 147.997 142.568 147.81 142.904C147.633 143.231 147.544 143.618 147.544 144.066V144.346C147.544 144.794 147.647 145.191 147.852 145.536C148.058 145.881 148.347 146.147 148.72 146.334C149.094 146.521 149.523 146.614 150.008 146.614C150.428 146.614 150.806 146.549 151.142 146.418C151.478 146.287 151.777 146.082 152.038 145.802L152.976 146.88C152.64 147.272 152.216 147.575 151.702 147.79C151.198 147.995 150.62 148.098 149.966 148.098ZM155.318 149.064V148H162.318V149.064H155.318ZM167.674 148.098C166.955 148.098 166.307 147.939 165.728 147.622C165.159 147.295 164.711 146.847 164.384 146.278C164.057 145.709 163.894 145.037 163.894 144.262C163.894 143.487 164.057 142.815 164.384 142.246C164.711 141.677 165.159 141.233 165.728 140.916C166.307 140.599 166.955 140.44 167.674 140.44C168.299 140.44 168.859 140.58 169.354 140.86C169.849 141.131 170.241 141.546 170.53 142.106C170.819 142.666 170.964 143.385 170.964 144.262C170.964 145.13 170.824 145.849 170.544 146.418C170.264 146.978 169.877 147.398 169.382 147.678C168.887 147.958 168.318 148.098 167.674 148.098ZM167.884 146.6C168.304 146.6 168.677 146.507 169.004 146.32C169.34 146.133 169.606 145.863 169.802 145.508C170.007 145.153 170.11 144.738 170.11 144.262C170.11 143.777 170.007 143.361 169.802 143.016C169.606 142.661 169.34 142.391 169.004 142.204C168.677 142.017 168.304 141.924 167.884 141.924C167.464 141.924 167.086 142.017 166.75 142.204C166.423 142.391 166.157 142.661 165.952 143.016C165.756 143.361 165.658 143.777 165.658 144.262C165.658 144.738 165.756 145.153 165.952 145.508C166.157 145.863 166.423 146.133 166.75 146.32C167.086 146.507 167.464 146.6 167.884 146.6ZM170.152 148V146.236L170.222 144.248L170.082 142.26V137.612H171.818V148H170.152ZM175.521 148V140.524H177.271V148H175.521ZM176.403 139.292C176.077 139.292 175.806 139.189 175.591 138.984C175.386 138.779 175.283 138.531 175.283 138.242C175.283 137.943 175.386 137.696 175.591 137.5C175.806 137.295 176.077 137.192 176.403 137.192C176.73 137.192 176.996 137.29 177.201 137.486C177.416 137.673 177.523 137.911 177.523 138.2C177.523 138.508 177.421 138.769 177.215 138.984C177.01 139.189 176.739 139.292 176.403 139.292ZM180.352 148V146.894L184.958 141.322L185.28 141.924H180.436V140.524H186.68V141.63L182.074 147.202L181.724 146.6H186.806V148H180.352ZM194.425 148V146.488L194.327 146.166V143.52C194.327 143.007 194.173 142.61 193.865 142.33C193.557 142.041 193.091 141.896 192.465 141.896C192.045 141.896 191.63 141.961 191.219 142.092C190.818 142.223 190.477 142.405 190.197 142.638L189.511 141.364C189.913 141.056 190.389 140.827 190.939 140.678C191.499 140.519 192.078 140.44 192.675 140.44C193.758 140.44 194.593 140.701 195.181 141.224C195.779 141.737 196.077 142.535 196.077 143.618V148H194.425ZM192.073 148.098C191.513 148.098 191.023 148.005 190.603 147.818C190.183 147.622 189.857 147.356 189.623 147.02C189.399 146.675 189.287 146.287 189.287 145.858C189.287 145.438 189.385 145.06 189.581 144.724C189.787 144.388 190.118 144.122 190.575 143.926C191.033 143.73 191.639 143.632 192.395 143.632H194.565V144.794H192.521C191.924 144.794 191.523 144.892 191.317 145.088C191.112 145.275 191.009 145.508 191.009 145.788C191.009 146.105 191.135 146.357 191.387 146.544C191.639 146.731 191.989 146.824 192.437 146.824C192.867 146.824 193.249 146.726 193.585 146.53C193.931 146.334 194.178 146.045 194.327 145.662L194.621 146.712C194.453 147.151 194.15 147.491 193.711 147.734C193.282 147.977 192.736 148.098 192.073 148.098ZM199.723 148V140.524H201.473V148H199.723ZM200.605 139.292C200.279 139.292 200.008 139.189 199.793 138.984C199.588 138.779 199.485 138.531 199.485 138.242C199.485 137.943 199.588 137.696 199.793 137.5C200.008 137.295 200.279 137.192 200.605 137.192C200.932 137.192 201.198 137.29 201.403 137.486C201.618 137.673 201.725 137.911 201.725 138.2C201.725 138.508 201.623 138.769 201.417 138.984C201.212 139.189 200.941 139.292 200.605 139.292ZM209.412 140.44C210.01 140.44 210.542 140.557 211.008 140.79C211.484 141.023 211.858 141.383 212.128 141.868C212.399 142.344 212.534 142.96 212.534 143.716V148H210.784V143.94C210.784 143.277 210.626 142.783 210.308 142.456C210 142.129 209.566 141.966 209.006 141.966C208.596 141.966 208.232 142.05 207.914 142.218C207.597 142.386 207.35 142.638 207.172 142.974C207.004 143.301 206.92 143.716 206.92 144.22V148H205.17V140.524H206.836V142.54L206.542 141.924C206.804 141.448 207.182 141.084 207.676 140.832C208.18 140.571 208.759 140.44 209.412 140.44ZM220.76 148V146.488L220.662 146.166V143.52C220.662 143.007 220.508 142.61 220.2 142.33C219.892 142.041 219.426 141.896 218.8 141.896C218.38 141.896 217.965 141.961 217.554 142.092C217.153 142.223 216.812 142.405 216.532 142.638L215.846 141.364C216.248 141.056 216.724 140.827 217.274 140.678C217.834 140.519 218.413 140.44 219.01 140.44C220.093 140.44 220.928 140.701 221.516 141.224C222.114 141.737 222.412 142.535 222.412 143.618V148H220.76ZM218.408 148.098C217.848 148.098 217.358 148.005 216.938 147.818C216.518 147.622 216.192 147.356 215.958 147.02C215.734 146.675 215.622 146.287 215.622 145.858C215.622 145.438 215.72 145.06 215.916 144.724C216.122 144.388 216.453 144.122 216.91 143.926C217.368 143.73 217.974 143.632 218.73 143.632H220.9V144.794H218.856C218.259 144.794 217.858 144.892 217.652 145.088C217.447 145.275 217.344 145.508 217.344 145.788C217.344 146.105 217.47 146.357 217.722 146.544C217.974 146.731 218.324 146.824 218.772 146.824C219.202 146.824 219.584 146.726 219.92 146.53C220.266 146.334 220.513 146.045 220.662 145.662L220.956 146.712C220.788 147.151 220.485 147.491 220.046 147.734C219.617 147.977 219.071 148.098 218.408 148.098ZM235.933 148V146.488L235.835 146.166V143.52C235.835 143.007 235.681 142.61 235.373 142.33C235.065 142.041 234.599 141.896 233.973 141.896C233.553 141.896 233.138 141.961 232.727 142.092C232.326 142.223 231.985 142.405 231.705 142.638L231.019 141.364C231.421 141.056 231.897 140.827 232.447 140.678C233.007 140.519 233.586 140.44 234.183 140.44C235.266 140.44 236.101 140.701 236.689 141.224C237.287 141.737 237.585 142.535 237.585 143.618V148H235.933ZM233.581 148.098C233.021 148.098 232.531 148.005 232.111 147.818C231.691 147.622 231.365 147.356 231.131 147.02C230.907 146.675 230.795 146.287 230.795 145.858C230.795 145.438 230.893 145.06 231.089 144.724C231.295 144.388 231.626 144.122 232.083 143.926C232.541 143.73 233.147 143.632 233.903 143.632H236.073V144.794H234.029C233.432 144.794 233.031 144.892 232.825 145.088C232.62 145.275 232.517 145.508 232.517 145.788C232.517 146.105 232.643 146.357 232.895 146.544C233.147 146.731 233.497 146.824 233.945 146.824C234.375 146.824 234.757 146.726 235.093 146.53C235.439 146.334 235.686 146.045 235.835 145.662L236.129 146.712C235.961 147.151 235.658 147.491 235.219 147.734C234.79 147.977 234.244 148.098 233.581 148.098ZM244.045 148.098C243.224 148.098 242.589 147.888 242.141 147.468C241.693 147.039 241.469 146.409 241.469 145.578V138.872H243.219V145.536C243.219 145.891 243.308 146.166 243.485 146.362C243.672 146.558 243.929 146.656 244.255 146.656C244.647 146.656 244.974 146.553 245.235 146.348L245.725 147.594C245.52 147.762 245.268 147.888 244.969 147.972C244.671 148.056 244.363 148.098 244.045 148.098ZM240.237 141.98V140.58H245.221V141.98H240.237ZM247.795 150.814C247.468 150.814 247.16 150.777 246.871 150.702C246.572 150.637 246.32 150.529 246.115 150.38L246.619 149.078C246.889 149.274 247.23 149.372 247.641 149.372C247.958 149.372 248.205 149.269 248.383 149.064C248.56 148.868 248.649 148.574 248.649 148.182V140.524H250.399V148.14C250.399 148.961 250.17 149.61 249.713 150.086C249.265 150.571 248.625 150.814 247.795 150.814ZM249.517 139.292C249.19 139.292 248.919 139.189 248.705 138.984C248.499 138.779 248.397 138.531 248.397 138.242C248.397 137.943 248.499 137.696 248.705 137.5C248.919 137.295 249.19 137.192 249.517 137.192C249.843 137.192 250.109 137.29 250.315 137.486C250.529 137.673 250.637 137.911 250.637 138.2C250.637 138.508 250.534 138.769 250.329 138.984C250.123 139.189 249.853 139.292 249.517 139.292ZM258.7 148V146.488L258.602 146.166V143.52C258.602 143.007 258.448 142.61 258.14 142.33C257.832 142.041 257.365 141.896 256.74 141.896C256.32 141.896 255.904 141.961 255.494 142.092C255.092 142.223 254.752 142.405 254.472 142.638L253.786 141.364C254.187 141.056 254.663 140.827 255.214 140.678C255.774 140.519 256.352 140.44 256.95 140.44C258.032 140.44 258.868 140.701 259.456 141.224C260.053 141.737 260.352 142.535 260.352 143.618V148H258.7ZM256.348 148.098C255.788 148.098 255.298 148.005 254.878 147.818C254.458 147.622 254.131 147.356 253.898 147.02C253.674 146.675 253.562 146.287 253.562 145.858C253.562 145.438 253.66 145.06 253.856 144.724C254.061 144.388 254.392 144.122 254.85 143.926C255.307 143.73 255.914 143.632 256.67 143.632H258.84V144.794H256.796C256.198 144.794 255.797 144.892 255.592 145.088C255.386 145.275 255.284 145.508 255.284 145.788C255.284 146.105 255.41 146.357 255.662 146.544C255.914 146.731 256.264 146.824 256.712 146.824C257.141 146.824 257.524 146.726 257.86 146.53C258.205 146.334 258.452 146.045 258.602 145.662L258.896 146.712C258.728 147.151 258.424 147.491 257.986 147.734C257.556 147.977 257.01 148.098 256.348 148.098ZM267.162 148.098C266.527 148.098 265.967 147.981 265.482 147.748C264.996 147.505 264.618 147.141 264.348 146.656C264.077 146.161 263.942 145.541 263.942 144.794V140.524H265.692V144.556C265.692 145.228 265.841 145.732 266.14 146.068C266.448 146.395 266.882 146.558 267.442 146.558C267.852 146.558 268.207 146.474 268.506 146.306C268.814 146.138 269.052 145.886 269.22 145.55C269.397 145.214 269.486 144.799 269.486 144.304V140.524H271.236V148H269.57V145.984L269.864 146.6C269.612 147.085 269.243 147.459 268.758 147.72C268.272 147.972 267.74 148.098 267.162 148.098ZM279.169 140.44C279.766 140.44 280.298 140.557 280.765 140.79C281.241 141.023 281.614 141.383 281.885 141.868C282.156 142.344 282.291 142.96 282.291 143.716V148H280.541V143.94C280.541 143.277 280.382 142.783 280.065 142.456C279.757 142.129 279.323 141.966 278.763 141.966C278.352 141.966 277.988 142.05 277.671 142.218C277.354 142.386 277.106 142.638 276.929 142.974C276.761 143.301 276.677 143.716 276.677 144.22V148H274.927V140.524H276.593V142.54L276.299 141.924C276.56 141.448 276.938 141.084 277.433 140.832C277.937 140.571 278.516 140.44 279.169 140.44ZM289.285 148.098C288.519 148.098 287.838 147.935 287.241 147.608C286.643 147.272 286.172 146.815 285.827 146.236C285.481 145.657 285.309 144.999 285.309 144.262C285.309 143.515 285.481 142.857 285.827 142.288C286.172 141.709 286.643 141.257 287.241 140.93C287.838 140.603 288.519 140.44 289.285 140.44C290.059 140.44 290.745 140.603 291.343 140.93C291.949 141.257 292.421 141.705 292.757 142.274C293.102 142.843 293.275 143.506 293.275 144.262C293.275 144.999 293.102 145.657 292.757 146.236C292.421 146.815 291.949 147.272 291.343 147.608C290.745 147.935 290.059 148.098 289.285 148.098ZM289.285 146.6C289.714 146.6 290.097 146.507 290.433 146.32C290.769 146.133 291.03 145.863 291.217 145.508C291.413 145.153 291.511 144.738 291.511 144.262C291.511 143.777 291.413 143.361 291.217 143.016C291.03 142.661 290.769 142.391 290.433 142.204C290.097 142.017 289.719 141.924 289.299 141.924C288.869 141.924 288.487 142.017 288.151 142.204C287.824 142.391 287.563 142.661 287.367 143.016C287.171 143.361 287.073 143.777 287.073 144.262C287.073 144.738 287.171 145.153 287.367 145.508C287.563 145.863 287.824 146.133 288.151 146.32C288.487 146.507 288.865 146.6 289.285 146.6ZM298.658 148.098C298.033 148.098 297.431 148.019 296.852 147.86C296.283 147.692 295.83 147.491 295.494 147.258L296.166 145.928C296.502 146.143 296.903 146.32 297.37 146.46C297.837 146.6 298.303 146.67 298.77 146.67C299.321 146.67 299.717 146.595 299.96 146.446C300.212 146.297 300.338 146.096 300.338 145.844C300.338 145.639 300.254 145.485 300.086 145.382C299.918 145.27 299.699 145.186 299.428 145.13C299.157 145.074 298.854 145.023 298.518 144.976C298.191 144.929 297.86 144.869 297.524 144.794C297.197 144.71 296.899 144.593 296.628 144.444C296.357 144.285 296.138 144.075 295.97 143.814C295.802 143.553 295.718 143.207 295.718 142.778C295.718 142.302 295.853 141.891 296.124 141.546C296.395 141.191 296.773 140.921 297.258 140.734C297.753 140.538 298.336 140.44 299.008 140.44C299.512 140.44 300.021 140.496 300.534 140.608C301.047 140.72 301.472 140.879 301.808 141.084L301.136 142.414C300.781 142.199 300.422 142.055 300.058 141.98C299.703 141.896 299.349 141.854 298.994 141.854C298.462 141.854 298.065 141.933 297.804 142.092C297.552 142.251 297.426 142.451 297.426 142.694C297.426 142.918 297.51 143.086 297.678 143.198C297.846 143.31 298.065 143.399 298.336 143.464C298.607 143.529 298.905 143.585 299.232 143.632C299.568 143.669 299.899 143.73 300.226 143.814C300.553 143.898 300.851 144.015 301.122 144.164C301.402 144.304 301.626 144.505 301.794 144.766C301.962 145.027 302.046 145.368 302.046 145.788C302.046 146.255 301.906 146.661 301.626 147.006C301.355 147.351 300.968 147.622 300.464 147.818C299.96 148.005 299.358 148.098 298.658 148.098ZM297.958 139.502L296.082 137.584H297.524L299.428 139.18H298.084L299.988 137.584H301.43L299.554 139.502H297.958ZM309.559 148V146.488L309.461 146.166V143.52C309.461 143.007 309.307 142.61 308.999 142.33C308.691 142.041 308.224 141.896 307.599 141.896C307.179 141.896 306.764 141.961 306.353 142.092C305.952 142.223 305.611 142.405 305.331 142.638L304.645 141.364C305.046 141.056 305.522 140.827 306.073 140.678C306.633 140.519 307.212 140.44 307.809 140.44C308.892 140.44 309.727 140.701 310.315 141.224C310.912 141.737 311.211 142.535 311.211 143.618V148H309.559ZM307.207 148.098C306.647 148.098 306.157 148.005 305.737 147.818C305.317 147.622 304.99 147.356 304.757 147.02C304.533 146.675 304.421 146.287 304.421 145.858C304.421 145.438 304.519 145.06 304.715 144.724C304.92 144.388 305.252 144.122 305.709 143.926C306.166 143.73 306.773 143.632 307.529 143.632H309.699V144.794H307.655C307.058 144.794 306.656 144.892 306.451 145.088C306.246 145.275 306.143 145.508 306.143 145.788C306.143 146.105 306.269 146.357 306.521 146.544C306.773 146.731 307.123 146.824 307.571 146.824C308 146.824 308.383 146.726 308.719 146.53C309.064 146.334 309.312 146.045 309.461 145.662L309.755 146.712C309.587 147.151 309.284 147.491 308.845 147.734C308.416 147.977 307.87 148.098 307.207 148.098ZM319.099 140.44C319.696 140.44 320.228 140.557 320.695 140.79C321.171 141.023 321.544 141.383 321.815 141.868C322.086 142.344 322.221 142.96 322.221 143.716V148H320.471V143.94C320.471 143.277 320.312 142.783 319.995 142.456C319.687 142.129 319.253 141.966 318.693 141.966C318.282 141.966 317.918 142.05 317.601 142.218C317.284 142.386 317.036 142.638 316.859 142.974C316.691 143.301 316.607 143.716 316.607 144.22V148H314.857V140.524H316.523V142.54L316.229 141.924C316.49 141.448 316.868 141.084 317.363 140.832C317.867 140.571 318.446 140.44 319.099 140.44ZM330.447 148V146.488L330.349 146.166V143.52C330.349 143.007 330.195 142.61 329.887 142.33C329.579 142.041 329.112 141.896 328.487 141.896C328.067 141.896 327.652 141.961 327.241 142.092C326.84 142.223 326.499 142.405 326.219 142.638L325.533 141.364C325.934 141.056 326.41 140.827 326.961 140.678C327.521 140.519 328.1 140.44 328.697 140.44C329.78 140.44 330.615 140.701 331.203 141.224C331.8 141.737 332.099 142.535 332.099 143.618V148H330.447ZM328.095 148.098C327.535 148.098 327.045 148.005 326.625 147.818C326.205 147.622 325.878 147.356 325.645 147.02C325.421 146.675 325.309 146.287 325.309 145.858C325.309 145.438 325.407 145.06 325.603 144.724C325.808 144.388 326.14 144.122 326.597 143.926C327.054 143.73 327.661 143.632 328.417 143.632H330.587V144.794H328.543C327.946 144.794 327.544 144.892 327.339 145.088C327.134 145.275 327.031 145.508 327.031 145.788C327.031 146.105 327.157 146.357 327.409 146.544C327.661 146.731 328.011 146.824 328.459 146.824C328.888 146.824 329.271 146.726 329.607 146.53C329.952 146.334 330.2 146.045 330.349 145.662L330.643 146.712C330.475 147.151 330.172 147.491 329.733 147.734C329.304 147.977 328.758 148.098 328.095 148.098ZM336.305 148.098C335.988 148.098 335.717 147.991 335.493 147.776C335.269 147.552 335.157 147.272 335.157 146.936C335.157 146.581 335.269 146.301 335.493 146.096C335.717 145.881 335.988 145.774 336.305 145.774C336.622 145.774 336.893 145.881 337.117 146.096C337.341 146.301 337.453 146.581 337.453 146.936C337.453 147.272 337.341 147.552 337.117 147.776C336.893 147.991 336.622 148.098 336.305 148.098ZM346.779 146.362L340.325 143.856V142.344L346.779 139.838V141.294L340.871 143.506V142.694L346.779 144.906V146.362ZM348.653 149.4L353.273 136.212H354.841L350.221 149.4H348.653ZM360.044 148.098C359.437 148.098 358.882 147.958 358.378 147.678C357.883 147.398 357.487 146.978 357.188 146.418C356.899 145.849 356.754 145.13 356.754 144.262C356.754 143.385 356.894 142.666 357.174 142.106C357.463 141.546 357.855 141.131 358.35 140.86C358.845 140.58 359.409 140.44 360.044 140.44C360.781 140.44 361.43 140.599 361.99 140.916C362.559 141.233 363.007 141.677 363.334 142.246C363.67 142.815 363.838 143.487 363.838 144.262C363.838 145.037 363.67 145.713 363.334 146.292C363.007 146.861 362.559 147.305 361.99 147.622C361.43 147.939 360.781 148.098 360.044 148.098ZM355.9 150.716V140.524H357.566V142.288L357.51 144.276L357.65 146.264V150.716H355.9ZM359.848 146.6C360.268 146.6 360.641 146.507 360.968 146.32C361.304 146.133 361.57 145.863 361.766 145.508C361.962 145.153 362.06 144.738 362.06 144.262C362.06 143.777 361.962 143.361 361.766 143.016C361.57 142.661 361.304 142.391 360.968 142.204C360.641 142.017 360.268 141.924 359.848 141.924C359.428 141.924 359.05 142.017 358.714 142.204C358.378 142.391 358.112 142.661 357.916 143.016C357.72 143.361 357.622 143.777 357.622 144.262C357.622 144.738 357.72 145.153 357.916 145.508C358.112 145.863 358.378 146.133 358.714 146.32C359.05 146.507 359.428 146.6 359.848 146.6ZM366.66 146.362V144.906L372.568 142.694V143.506L366.66 141.294V139.838L373.114 142.344V143.856L366.66 146.362ZM16.6331 163.362L10.1791 160.856V159.344L16.6331 156.838V158.294L10.7251 160.506V159.694L16.6331 161.906V163.362ZM18.507 166.4L23.127 153.212H24.695L20.075 166.4H18.507ZM28.0643 165.098C27.4389 165.098 26.8369 165.019 26.2583 164.86C25.6889 164.692 25.2363 164.491 24.9003 164.258L25.5723 162.928C25.9083 163.143 26.3096 163.32 26.7763 163.46C27.2429 163.6 27.7096 163.67 28.1763 163.67C28.7269 163.67 29.1236 163.595 29.3663 163.446C29.6183 163.297 29.7443 163.096 29.7443 162.844C29.7443 162.639 29.6603 162.485 29.4923 162.382C29.3243 162.27 29.1049 162.186 28.8343 162.13C28.5636 162.074 28.2603 162.023 27.9243 161.976C27.5976 161.929 27.2663 161.869 26.9303 161.794C26.6036 161.71 26.3049 161.593 26.0343 161.444C25.7636 161.285 25.5443 161.075 25.3763 160.814C25.2083 160.553 25.1243 160.207 25.1243 159.778C25.1243 159.302 25.2596 158.891 25.5303 158.546C25.8009 158.191 26.1789 157.921 26.6643 157.734C27.1589 157.538 27.7423 157.44 28.4143 157.44C28.9183 157.44 29.4269 157.496 29.9403 157.608C30.4536 157.72 30.8783 157.879 31.2143 158.084L30.5423 159.414C30.1876 159.199 29.8283 159.055 29.4643 158.98C29.1096 158.896 28.7549 158.854 28.4003 158.854C27.8683 158.854 27.4716 158.933 27.2103 159.092C26.9583 159.251 26.8323 159.451 26.8323 159.694C26.8323 159.918 26.9163 160.086 27.0843 160.198C27.2523 160.31 27.4716 160.399 27.7423 160.464C28.0129 160.529 28.3116 160.585 28.6383 160.632C28.9743 160.669 29.3056 160.73 29.6323 160.814C29.9589 160.898 30.2576 161.015 30.5283 161.164C30.8083 161.304 31.0323 161.505 31.2003 161.766C31.3683 162.027 31.4523 162.368 31.4523 162.788C31.4523 163.255 31.3123 163.661 31.0323 164.006C30.7616 164.351 30.3743 164.622 29.8703 164.818C29.3663 165.005 28.7643 165.098 28.0643 165.098ZM37.8733 165.098C37.0427 165.098 36.3147 164.935 35.6893 164.608C35.0733 164.272 34.5927 163.815 34.2473 163.236C33.9113 162.657 33.7433 161.999 33.7433 161.262C33.7433 160.515 33.9067 159.857 34.2333 159.288C34.5693 158.709 35.0267 158.257 35.6053 157.93C36.1933 157.603 36.8607 157.44 37.6073 157.44C38.3353 157.44 38.984 157.599 39.5533 157.916C40.1227 158.233 40.5707 158.681 40.8973 159.26C41.224 159.839 41.3873 160.52 41.3873 161.304C41.3873 161.379 41.3827 161.463 41.3733 161.556C41.3733 161.649 41.3687 161.738 41.3593 161.822H35.1293V160.66H40.4353L39.7493 161.024C39.7587 160.595 39.67 160.217 39.4833 159.89C39.2967 159.563 39.04 159.307 38.7133 159.12C38.396 158.933 38.0273 158.84 37.6073 158.84C37.178 158.84 36.8 158.933 36.4733 159.12C36.156 159.307 35.904 159.568 35.7173 159.904C35.54 160.231 35.4513 160.618 35.4513 161.066V161.346C35.4513 161.794 35.554 162.191 35.7593 162.536C35.9647 162.881 36.254 163.147 36.6273 163.334C37.0007 163.521 37.43 163.614 37.9153 163.614C38.3353 163.614 38.7133 163.549 39.0493 163.418C39.3853 163.287 39.684 163.082 39.9453 162.802L40.8833 163.88C40.5473 164.272 40.1227 164.575 39.6093 164.79C39.1053 164.995 38.5267 165.098 37.8733 165.098ZM47.8983 165.098C47.1143 165.098 46.4143 164.935 45.7983 164.608C45.1916 164.272 44.7156 163.815 44.3703 163.236C44.025 162.657 43.8523 161.999 43.8523 161.262C43.8523 160.515 44.025 159.857 44.3703 159.288C44.7156 158.709 45.1916 158.257 45.7983 157.93C46.4143 157.603 47.1143 157.44 47.8983 157.44C48.6263 157.44 49.2656 157.589 49.8163 157.888C50.3763 158.177 50.801 158.607 51.0903 159.176L49.7463 159.96C49.5223 159.605 49.247 159.344 48.9203 159.176C48.603 159.008 48.2576 158.924 47.8843 158.924C47.455 158.924 47.0676 159.017 46.7223 159.204C46.377 159.391 46.1063 159.661 45.9103 160.016C45.7143 160.361 45.6163 160.777 45.6163 161.262C45.6163 161.747 45.7143 162.167 45.9103 162.522C46.1063 162.867 46.377 163.133 46.7223 163.32C47.0676 163.507 47.455 163.6 47.8843 163.6C48.2576 163.6 48.603 163.516 48.9203 163.348C49.247 163.18 49.5223 162.919 49.7463 162.564L51.0903 163.348C50.801 163.908 50.3763 164.342 49.8163 164.65C49.2656 164.949 48.6263 165.098 47.8983 165.098ZM56.9128 165.098C56.0914 165.098 55.4568 164.888 55.0088 164.468C54.5608 164.039 54.3368 163.409 54.3368 162.578V155.872H56.0868V162.536C56.0868 162.891 56.1754 163.166 56.3528 163.362C56.5394 163.558 56.7961 163.656 57.1228 163.656C57.5148 163.656 57.8414 163.553 58.1028 163.348L58.5928 164.594C58.3874 164.762 58.1354 164.888 57.8368 164.972C57.5381 165.056 57.2301 165.098 56.9128 165.098ZM53.1048 158.98V157.58H58.0888V158.98H53.1048ZM61.4324 165V157.524H63.1824V165H61.4324ZM62.3144 156.292C61.9877 156.292 61.717 156.189 61.5024 155.984C61.297 155.779 61.1944 155.531 61.1944 155.242C61.1944 154.943 61.297 154.696 61.5024 154.5C61.717 154.295 61.9877 154.192 62.3144 154.192C62.641 154.192 62.907 154.29 63.1124 154.486C63.327 154.673 63.4344 154.911 63.4344 155.2C63.4344 155.508 63.3317 155.769 63.1264 155.984C62.921 156.189 62.6504 156.292 62.3144 156.292ZM70.2393 165.098C69.4739 165.098 68.7926 164.935 68.1953 164.608C67.5979 164.272 67.1266 163.815 66.7813 163.236C66.4359 162.657 66.2633 161.999 66.2633 161.262C66.2633 160.515 66.4359 159.857 66.7813 159.288C67.1266 158.709 67.5979 158.257 68.1953 157.93C68.7926 157.603 69.4739 157.44 70.2393 157.44C71.0139 157.44 71.6999 157.603 72.2973 157.93C72.9039 158.257 73.3753 158.705 73.7113 159.274C74.0566 159.843 74.2293 160.506 74.2293 161.262C74.2293 161.999 74.0566 162.657 73.7113 163.236C73.3753 163.815 72.9039 164.272 72.2973 164.608C71.6999 164.935 71.0139 165.098 70.2393 165.098ZM70.2393 163.6C70.6686 163.6 71.0513 163.507 71.3873 163.32C71.7233 163.133 71.9846 162.863 72.1713 162.508C72.3673 162.153 72.4653 161.738 72.4653 161.262C72.4653 160.777 72.3673 160.361 72.1713 160.016C71.9846 159.661 71.7233 159.391 71.3873 159.204C71.0513 159.017 70.6733 158.924 70.2533 158.924C69.8239 158.924 69.4413 159.017 69.1053 159.204C68.7786 159.391 68.5173 159.661 68.3213 160.016C68.1253 160.361 68.0273 160.777 68.0273 161.262C68.0273 161.738 68.1253 162.153 68.3213 162.508C68.5173 162.863 68.7786 163.133 69.1053 163.32C69.4413 163.507 69.8193 163.6 70.2393 163.6ZM81.5447 157.44C82.142 157.44 82.674 157.557 83.1407 157.79C83.6167 158.023 83.99 158.383 84.2607 158.868C84.5314 159.344 84.6667 159.96 84.6667 160.716V165H82.9167V160.94C82.9167 160.277 82.758 159.783 82.4407 159.456C82.1327 159.129 81.6987 158.966 81.1387 158.966C80.728 158.966 80.364 159.05 80.0467 159.218C79.7294 159.386 79.482 159.638 79.3047 159.974C79.1367 160.301 79.0527 160.716 79.0527 161.22V165H77.3027V157.524H78.9687V159.54L78.6747 158.924C78.936 158.448 79.314 158.084 79.8087 157.832C80.3127 157.571 80.8914 157.44 81.5447 157.44ZM88.0487 163.362V161.906L93.9567 159.694V160.506L88.0487 158.294V156.838L94.5027 159.344V160.856L88.0487 163.362ZM16.5123 184.716H14.8463C15.4249 183.689 15.8449 182.644 16.1063 181.58C16.3769 180.507 16.5123 179.368 16.5123 178.164C16.5123 176.96 16.3769 175.826 16.1063 174.762C15.8449 173.689 15.4249 172.639 14.8463 171.612H16.5123C17.0723 172.443 17.4969 173.423 17.7863 174.552C18.0756 175.672 18.2203 176.876 18.2203 178.164C18.2203 179.452 18.0756 180.656 17.7863 181.776C17.4969 182.887 17.0723 183.867 16.5123 184.716ZM22.5135 176.764C22.1961 176.764 21.9255 176.657 21.7015 176.442C21.4775 176.218 21.3655 175.938 21.3655 175.602C21.3655 175.247 21.4775 174.967 21.7015 174.762C21.9255 174.547 22.1961 174.44 22.5135 174.44C22.8308 174.44 23.1015 174.547 23.3255 174.762C23.5495 174.967 23.6615 175.247 23.6615 175.602C23.6615 175.938 23.5495 176.218 23.3255 176.442C23.1015 176.657 22.8308 176.764 22.5135 176.764ZM21.4915 184.114L22.3035 181.02L22.5415 182.056C22.2148 182.056 21.9395 181.958 21.7155 181.762C21.5008 181.557 21.3935 181.281 21.3935 180.936C21.3935 180.581 21.5008 180.301 21.7155 180.096C21.9395 179.881 22.2101 179.774 22.5275 179.774C22.8541 179.774 23.1248 179.881 23.3395 180.096C23.5541 180.311 23.6615 180.591 23.6615 180.936C23.6615 181.029 23.6521 181.132 23.6335 181.244C23.6148 181.347 23.5821 181.468 23.5355 181.608C23.4981 181.748 23.4328 181.925 23.3395 182.14L22.6255 184.114H21.4915ZM4.938 201.716H4.238V200.316H4.532C4.88667 200.316 5.148 200.223 5.316 200.036C5.49333 199.849 5.582 199.588 5.582 199.252V196.592C5.582 196.219 5.62867 195.929 5.722 195.724C5.82467 195.519 5.974 195.365 6.17 195.262C6.366 195.159 6.618 195.089 6.926 195.052V195.276C6.618 195.229 6.366 195.159 6.17 195.066C5.974 194.963 5.82467 194.809 5.722 194.604C5.62867 194.399 5.582 194.109 5.582 193.736V191.076C5.582 190.74 5.49333 190.479 5.316 190.292C5.148 190.105 4.88667 190.012 4.532 190.012H4.238V188.612H4.938C5.73133 188.612 6.32867 188.808 6.73 189.2C7.13133 189.583 7.332 190.147 7.332 190.894V193.778C7.332 194.002 7.388 194.17 7.5 194.282C7.612 194.394 7.76133 194.45 7.948 194.45H8.424V195.878H7.948C7.76133 195.878 7.612 195.934 7.5 196.046C7.388 196.149 7.332 196.317 7.332 196.55V199.434C7.332 200.171 7.13133 200.736 6.73 201.128C6.32867 201.52 5.73133 201.716 4.938 201.716ZM12.2896 193.764C11.9723 193.764 11.7016 193.657 11.4776 193.442C11.2536 193.218 11.1416 192.938 11.1416 192.602C11.1416 192.247 11.2536 191.967 11.4776 191.762C11.7016 191.547 11.9723 191.44 12.2896 191.44C12.607 191.44 12.8776 191.547 13.1016 191.762C13.3256 191.967 13.4376 192.247 13.4376 192.602C13.4376 192.938 13.3256 193.218 13.1016 193.442C12.8776 193.657 12.607 193.764 12.2896 193.764ZM11.2676 201.114L12.0796 198.02L12.3176 199.056C11.991 199.056 11.7156 198.958 11.4916 198.762C11.277 198.557 11.1696 198.281 11.1696 197.936C11.1696 197.581 11.277 197.301 11.4916 197.096C11.7156 196.881 11.9863 196.774 12.3036 196.774C12.6303 196.774 12.901 196.881 13.1156 197.096C13.3303 197.311 13.4376 197.591 13.4376 197.936C13.4376 198.029 13.4283 198.132 13.4096 198.244C13.391 198.347 13.3583 198.468 13.3116 198.608C13.2743 198.748 13.209 198.925 13.1156 199.14L12.4016 201.114H11.2676Z" fill="#620B58"/>
<path d="M84.6732 131V108.6H88.9612L98.4972 124.408H96.2252L105.601 108.6H109.857L109.921 131H105.057L105.025 116.056H105.921L98.4332 128.632H96.0972L88.4492 116.056H89.5372V131H84.6732ZM128.644 131V127.64L128.324 126.904V120.888C128.324 119.821 127.993 118.989 127.332 118.392C126.692 117.795 125.7 117.496 124.356 117.496C123.438 117.496 122.532 117.645 121.636 117.944C120.761 118.221 120.014 118.605 119.396 119.096L117.604 115.608C118.542 114.947 119.673 114.435 120.996 114.072C122.318 113.709 123.662 113.528 125.028 113.528C127.652 113.528 129.689 114.147 131.14 115.384C132.59 116.621 133.316 118.552 133.316 121.176V131H128.644ZM123.396 131.256C122.052 131.256 120.9 131.032 119.94 130.584C118.98 130.115 118.244 129.485 117.732 128.696C117.22 127.907 116.964 127.021 116.964 126.04C116.964 125.016 117.209 124.12 117.7 123.352C118.212 122.584 119.012 121.987 120.1 121.56C121.188 121.112 122.606 120.888 124.356 120.888H128.932V123.8H124.9C123.726 123.8 122.916 123.992 122.468 124.376C122.041 124.76 121.828 125.24 121.828 125.816C121.828 126.456 122.073 126.968 122.564 127.352C123.076 127.715 123.769 127.896 124.644 127.896C125.476 127.896 126.222 127.704 126.884 127.32C127.545 126.915 128.025 126.328 128.324 125.56L129.092 127.864C128.729 128.973 128.068 129.816 127.108 130.392C126.148 130.968 124.91 131.256 123.396 131.256ZM151.498 113.528C152.863 113.528 154.079 113.805 155.146 114.36C156.234 114.893 157.087 115.725 157.706 116.856C158.324 117.965 158.634 119.395 158.634 121.144V131H153.642V121.912C153.642 120.525 153.332 119.501 152.714 118.84C152.116 118.179 151.263 117.848 150.154 117.848C149.364 117.848 148.65 118.019 148.01 118.36C147.391 118.68 146.9 119.181 146.538 119.864C146.196 120.547 146.026 121.421 146.026 122.488V131H141.034V113.784H145.802V118.552L144.906 117.112C145.524 115.96 146.41 115.075 147.562 114.456C148.714 113.837 150.026 113.528 151.498 113.528ZM172.151 131.256C170.679 131.256 169.26 131.085 167.895 130.744C166.551 130.381 165.484 129.933 164.695 129.4L166.359 125.816C167.148 126.307 168.076 126.712 169.143 127.032C170.231 127.331 171.297 127.48 172.343 127.48C173.495 127.48 174.305 127.341 174.775 127.064C175.265 126.787 175.511 126.403 175.511 125.912C175.511 125.507 175.319 125.208 174.935 125.016C174.572 124.803 174.081 124.643 173.463 124.536C172.844 124.429 172.161 124.323 171.415 124.216C170.689 124.109 169.953 123.971 169.207 123.8C168.46 123.608 167.777 123.331 167.159 122.968C166.54 122.605 166.039 122.115 165.655 121.496C165.292 120.877 165.111 120.077 165.111 119.096C165.111 118.008 165.42 117.048 166.039 116.216C166.679 115.384 167.596 114.733 168.791 114.264C169.985 113.773 171.415 113.528 173.079 113.528C174.252 113.528 175.447 113.656 176.663 113.912C177.879 114.168 178.892 114.541 179.703 115.032L178.039 118.584C177.207 118.093 176.364 117.763 175.511 117.592C174.679 117.4 173.868 117.304 173.079 117.304C171.969 117.304 171.159 117.453 170.647 117.752C170.135 118.051 169.879 118.435 169.879 118.904C169.879 119.331 170.06 119.651 170.423 119.864C170.807 120.077 171.308 120.248 171.927 120.376C172.545 120.504 173.217 120.621 173.943 120.728C174.689 120.813 175.436 120.952 176.183 121.144C176.929 121.336 177.601 121.613 178.199 121.976C178.817 122.317 179.319 122.797 179.703 123.416C180.087 124.013 180.279 124.803 180.279 125.784C180.279 126.851 179.959 127.8 179.319 128.632C178.679 129.443 177.751 130.083 176.535 130.552C175.34 131.021 173.879 131.256 172.151 131.256ZM194.271 131.384C192.479 131.384 190.761 131.149 189.119 130.68C187.476 130.189 186.153 129.56 185.151 128.792L186.911 124.888C187.871 125.571 189.001 126.136 190.303 126.584C191.625 127.011 192.959 127.224 194.303 127.224C195.327 127.224 196.148 127.128 196.767 126.936C197.407 126.723 197.876 126.435 198.175 126.072C198.473 125.709 198.623 125.293 198.623 124.824C198.623 124.227 198.388 123.757 197.919 123.416C197.449 123.053 196.831 122.765 196.063 122.552C195.295 122.317 194.441 122.104 193.503 121.912C192.585 121.699 191.657 121.443 190.719 121.144C189.801 120.845 188.959 120.461 188.191 119.992C187.423 119.523 186.793 118.904 186.303 118.136C185.833 117.368 185.599 116.387 185.599 115.192C185.599 113.912 185.94 112.749 186.623 111.704C187.327 110.637 188.372 109.795 189.759 109.176C191.167 108.536 192.927 108.216 195.039 108.216C196.447 108.216 197.833 108.387 199.199 108.728C200.564 109.048 201.769 109.539 202.815 110.2L201.215 114.136C200.169 113.539 199.124 113.101 198.079 112.824C197.033 112.525 196.009 112.376 195.007 112.376C194.004 112.376 193.183 112.493 192.543 112.728C191.903 112.963 191.444 113.272 191.167 113.656C190.889 114.019 190.751 114.445 190.751 114.936C190.751 115.512 190.985 115.981 191.455 116.344C191.924 116.685 192.543 116.963 193.311 117.176C194.079 117.389 194.921 117.603 195.839 117.816C196.777 118.029 197.705 118.275 198.623 118.552C199.561 118.829 200.415 119.203 201.183 119.672C201.951 120.141 202.569 120.76 203.039 121.528C203.529 122.296 203.775 123.267 203.775 124.44C203.775 125.699 203.423 126.851 202.719 127.896C202.015 128.941 200.959 129.784 199.551 130.424C198.164 131.064 196.404 131.384 194.271 131.384ZM217.205 131.256C215.178 131.256 213.6 130.744 212.469 129.72C211.338 128.675 210.773 127.128 210.773 125.08V109.976H215.765V125.016C215.765 125.741 215.957 126.307 216.341 126.712C216.725 127.096 217.248 127.288 217.909 127.288C218.698 127.288 219.37 127.075 219.925 126.648L221.269 130.168C220.757 130.531 220.138 130.808 219.413 131C218.709 131.171 217.973 131.256 217.205 131.256ZM208.117 118.008V114.168H220.053V118.008H208.117ZM237.831 131V127.64L237.511 126.904V120.888C237.511 119.821 237.181 118.989 236.519 118.392C235.879 117.795 234.887 117.496 233.543 117.496C232.626 117.496 231.719 117.645 230.823 117.944C229.949 118.221 229.202 118.605 228.583 119.096L226.791 115.608C227.73 114.947 228.861 114.435 230.183 114.072C231.506 113.709 232.85 113.528 234.215 113.528C236.839 113.528 238.877 114.147 240.327 115.384C241.778 116.621 242.503 118.552 242.503 121.176V131H237.831ZM232.583 131.256C231.239 131.256 230.087 131.032 229.127 130.584C228.167 130.115 227.431 129.485 226.919 128.696C226.407 127.907 226.151 127.021 226.151 126.04C226.151 125.016 226.397 124.12 226.887 123.352C227.399 122.584 228.199 121.987 229.287 121.56C230.375 121.112 231.794 120.888 233.543 120.888H238.119V123.8H234.087C232.914 123.8 232.103 123.992 231.655 124.376C231.229 124.76 231.015 125.24 231.015 125.816C231.015 126.456 231.261 126.968 231.751 127.352C232.263 127.715 232.957 127.896 233.831 127.896C234.663 127.896 235.41 127.704 236.071 127.32C236.733 126.915 237.213 126.328 237.511 125.56L238.279 127.864C237.917 128.973 237.255 129.816 236.295 130.392C235.335 130.968 234.098 131.256 232.583 131.256ZM228.807 110.68V107.864H240.647V110.68H228.807ZM256.013 131.256C254.541 131.256 253.123 131.085 251.757 130.744C250.413 130.381 249.347 129.933 248.557 129.4L250.221 125.816C251.011 126.307 251.939 126.712 253.005 127.032C254.093 127.331 255.16 127.48 256.205 127.48C257.357 127.48 258.168 127.341 258.637 127.064C259.128 126.787 259.373 126.403 259.373 125.912C259.373 125.507 259.181 125.208 258.797 125.016C258.435 124.803 257.944 124.643 257.325 124.536C256.707 124.429 256.024 124.323 255.277 124.216C254.552 124.109 253.816 123.971 253.069 123.8C252.323 123.608 251.64 123.331 251.021 122.968C250.403 122.605 249.901 122.115 249.517 121.496C249.155 120.877 248.973 120.077 248.973 119.096C248.973 118.008 249.283 117.048 249.901 116.216C250.541 115.384 251.459 114.733 252.653 114.264C253.848 113.773 255.277 113.528 256.941 113.528C258.115 113.528 259.309 113.656 260.525 113.912C261.741 114.168 262.755 114.541 263.565 115.032L261.901 118.584C261.069 118.093 260.227 117.763 259.373 117.592C258.541 117.4 257.731 117.304 256.941 117.304C255.832 117.304 255.021 117.453 254.509 117.752C253.997 118.051 253.741 118.435 253.741 118.904C253.741 119.331 253.923 119.651 254.285 119.864C254.669 120.077 255.171 120.248 255.789 120.376C256.408 120.504 257.08 120.621 257.805 120.728C258.552 120.813 259.299 120.952 260.045 121.144C260.792 121.336 261.464 121.613 262.061 121.976C262.68 122.317 263.181 122.797 263.565 123.416C263.949 124.013 264.141 124.803 264.141 125.784C264.141 126.851 263.821 127.8 263.181 128.632C262.541 129.443 261.613 130.083 260.397 130.552C259.203 131.021 257.741 131.256 256.013 131.256ZM277.461 131.256C275.435 131.256 273.856 130.744 272.725 129.72C271.595 128.675 271.029 127.128 271.029 125.08V109.976H276.021V125.016C276.021 125.741 276.213 126.307 276.597 126.712C276.981 127.096 277.504 127.288 278.165 127.288C278.955 127.288 279.627 127.075 280.181 126.648L281.525 130.168C281.013 130.531 280.395 130.808 279.669 131C278.965 131.171 278.229 131.256 277.461 131.256ZM268.373 118.008V114.168H280.309V118.008H268.373ZM293.319 131.256C291.847 131.256 290.429 131.085 289.063 130.744C287.719 130.381 286.653 129.933 285.863 129.4L287.527 125.816C288.317 126.307 289.245 126.712 290.311 127.032C291.399 127.331 292.466 127.48 293.511 127.48C294.663 127.48 295.474 127.341 295.943 127.064C296.434 126.787 296.679 126.403 296.679 125.912C296.679 125.507 296.487 125.208 296.103 125.016C295.741 124.803 295.25 124.643 294.631 124.536C294.013 124.429 293.33 124.323 292.583 124.216C291.858 124.109 291.122 123.971 290.375 123.8C289.629 123.608 288.946 123.331 288.327 122.968C287.709 122.605 287.207 122.115 286.823 121.496C286.461 120.877 286.279 120.077 286.279 119.096C286.279 118.008 286.589 117.048 287.207 116.216C287.847 115.384 288.765 114.733 289.959 114.264C291.154 113.773 292.583 113.528 294.247 113.528C295.421 113.528 296.615 113.656 297.831 113.912C299.047 114.168 300.061 114.541 300.871 115.032L299.207 118.584C298.375 118.093 297.533 117.763 296.679 117.592C295.847 117.4 295.037 117.304 294.247 117.304C293.138 117.304 292.327 117.453 291.815 117.752C291.303 118.051 291.047 118.435 291.047 118.904C291.047 119.331 291.229 119.651 291.591 119.864C291.975 120.077 292.477 120.248 293.095 120.376C293.714 120.504 294.386 120.621 295.111 120.728C295.858 120.813 296.605 120.952 297.351 121.144C298.098 121.336 298.77 121.613 299.367 121.976C299.986 122.317 300.487 122.797 300.871 123.416C301.255 124.013 301.447 124.803 301.447 125.784C301.447 126.851 301.127 127.8 300.487 128.632C299.847 129.443 298.919 130.083 297.703 130.552C296.509 131.021 295.047 131.256 293.319 131.256Z" fill="white"/>
</svg>
