<svg width="31" height="31" viewBox="0 0 31 31" fill="none" xmlns="http://www.w3.org/2000/svg">
<path d="M15.65 21.7459C15.65 22.0851 15.7848 22.4105 16.0247 22.6504C16.2646 22.8903 16.59 23.0251 16.9292 23.0251H22.0459C22.3851 23.0251 22.7105 22.8903 22.9504 22.6504C23.1903 22.4105 23.325 22.0851 23.325 21.7459V16.6292C23.325 16.29 23.1903 15.9646 22.9504 15.7247C22.7105 15.4848 22.3851 15.3501 22.0459 15.3501H20.7667V20.4667H15.65V21.7459ZM14.3709 7.67505C14.7101 7.67505 15.0355 7.80982 15.2754 8.04971C15.5153 8.2896 15.65 8.61496 15.65 8.95422V10.2334H10.5334V15.3501H9.2542C8.91495 15.3501 8.58959 15.2153 8.3497 14.9754C8.10981 14.7355 7.97504 14.4101 7.97504 14.0709V8.95422C7.97504 8.61496 8.10981 8.2896 8.3497 8.04971C8.58959 7.80982 8.91495 7.67505 9.2542 7.67505H14.3709Z" fill="white"/>
<path fill-rule="evenodd" clip-rule="evenodd" d="M6.69584 2.55835C5.67807 2.55835 4.70199 2.96266 3.98232 3.68233C3.26264 4.402 2.85834 5.37808 2.85834 6.39585V24.3042C2.85834 25.322 3.26264 26.298 3.98232 27.0177C4.70199 27.7374 5.67807 28.1417 6.69584 28.1417H24.6042C25.6219 28.1417 26.598 27.7374 27.3177 27.0177C28.0374 26.298 28.4417 25.322 28.4417 24.3042V6.39585C28.4417 5.37808 28.0374 4.402 27.3177 3.68233C26.598 2.96266 25.6219 2.55835 24.6042 2.55835H6.69584ZM24.6042 5.11668H6.69584C6.35658 5.11668 6.03122 5.25145 5.79133 5.49134C5.55144 5.73123 5.41667 6.05659 5.41667 6.39585V24.3042C5.41667 24.6434 5.55144 24.9688 5.79133 25.2087C6.03122 25.4486 6.35658 25.5834 6.69584 25.5834H24.6042C24.9434 25.5834 25.2688 25.4486 25.5087 25.2087C25.7486 24.9688 25.8833 24.6434 25.8833 24.3042V6.39585C25.8833 6.05659 25.7486 5.73123 25.5087 5.49134C25.2688 5.25145 24.9434 5.11668 24.6042 5.11668Z" fill="white"/>
</svg>
