<svg width="40" height="37" viewBox="0 0 40 37" fill="none" xmlns="http://www.w3.org/2000/svg">
<path d="M30.78 8.06778C32.5689 9.83586 33.8727 12.0046 34.5741 14.3785H39.375V22.5031H34.5741C33.8736 24.879 32.5697 27.0497 30.78 28.8193L33.1847 32.8261L25.8778 36.8871L23.4787 32.8803C20.9911 33.4842 18.3867 33.4842 15.8991 32.8803L13.4972 36.8871L6.19031 32.8261L8.595 28.8193C6.8053 27.0497 5.5014 24.879 4.80094 22.5031H0V14.3812H4.80094C5.5014 12.0053 6.8053 9.83469 8.595 8.06507L6.1875 4.06096L13.4916 0H13.5L15.9019 4.0014C18.3895 3.39746 20.9939 3.39746 23.4816 4.0014L25.875 0H25.8806L33.1875 4.06096L30.7828 8.06778H30.78ZM28.125 18.4422C28.125 16.2881 27.2361 14.2223 25.6537 12.6991C24.0714 11.176 21.9253 10.3203 19.6875 10.3203C17.4497 10.3203 15.3036 11.176 13.7213 12.6991C12.1389 14.2223 11.25 16.2881 11.25 18.4422C11.25 20.5963 12.1389 22.6621 13.7213 24.1852C15.3036 25.7084 17.4497 26.5641 19.6875 26.5641C21.9253 26.5641 24.0714 25.7084 25.6537 24.1852C27.2361 22.6621 28.125 20.5963 28.125 18.4422Z" fill="white"/>
</svg>
