<svg width="31" height="23" viewBox="0 0 31 23" fill="none" xmlns="http://www.w3.org/2000/svg">
<path d="M30.5942 5.30007C30.5942 5.30007 30.2944 3.16277 29.371 2.22429C28.2018 0.989136 26.8946 0.983081 26.295 0.910425C22.0018 0.595581 15.556 0.595581 15.556 0.595581H15.544C15.544 0.595581 9.09821 0.595581 4.80501 0.910425C4.2054 0.983081 2.89825 0.989136 1.72902 2.22429C0.805618 3.16277 0.511809 5.30007 0.511809 5.30007C0.511809 5.30007 0.200012 7.81277 0.200012 10.3194V12.6686C0.200012 15.1753 0.505813 17.688 0.505813 17.688C0.505813 17.688 0.805618 19.8253 1.72302 20.7637C2.89226 21.9989 4.42726 21.9565 5.11081 22.0897C7.56921 22.3259 15.55 22.3985 15.55 22.3985C15.55 22.3985 22.0018 22.3864 26.295 22.0776C26.8946 22.005 28.2018 21.9989 29.371 20.7637C30.2944 19.8253 30.5942 17.688 30.5942 17.688C30.5942 17.688 30.9 15.1813 30.9 12.6686V10.3194C30.9 7.81277 30.5942 5.30007 30.5942 5.30007ZM12.3781 15.5204V6.80769L20.6707 11.1792L12.3781 15.5204Z" fill="white"/>
</svg>
